<svg width="36" height="39" viewBox="0 0 36 39" fill="none" xmlns="http://www.w3.org/2000/svg">
<path d="M35.3723 17.8762C35.3723 8.15015 27.4878 0.265625 17.7617 0.265625C8.03565 0.265625 0.151123 8.15015 0.151123 17.8762C0.151123 27.6023 8.03565 35.4868 17.7617 35.4868C27.4878 35.4868 35.3723 27.6023 35.3723 17.8762Z" fill="white"/>
<path d="M24.2686 25.3729L25.0736 20.1285H20.0424V16.7252C20.0071 16.3335 20.0604 15.9389 20.1984 15.5707C20.3364 15.2024 20.5554 14.8699 20.8394 14.5978C21.1233 14.3257 21.4648 14.121 21.8386 13.9988C22.2125 13.8767 22.609 13.8402 22.9988 13.8921H25.2868V9.42629C23.9438 9.20752 22.5865 9.08738 21.2259 9.06689C17.0811 9.06689 14.3726 11.5825 14.3726 16.125V20.1237H9.76062V25.3682H14.3666V38.0457C16.2455 38.3398 18.1587 38.3398 20.0375 38.0457V25.3729H24.2686Z" fill="#335998"/>
</svg>
