<svg width="189" height="72" fill="none" xmlns="http://www.w3.org/2000/svg"><ellipse cx="94.529" cy="36.163" rx="93.55" ry="35.4" fill="#fff"/><path fill-rule="evenodd" clip-rule="evenodd" d="M94.579 71.563c51.6 0 93.5-15.8 93.5-35.4 0-19.5-41.9-35.4-93.5-35.4-51.7 0-93.6 15.9-93.6 35.4 0 19.6 41.9 35.4 93.6 35.4Z" fill="#2F5E9C"/><path fill-rule="evenodd" clip-rule="evenodd" d="M94.579 67.863c-49.6 0-89.9-14.1-89.9-31.7 0-17.5 40.3-31.8 89.9-31.8 49.7 0 90 14.3 90 31.9-.1 17.5-40.3 31.6-90 31.6Z" fill="#fff"/><path fill-rule="evenodd" clip-rule="evenodd" d="M94.579 65.463c48.1 0 87.1-13.1 87.1-29.3 0-16.1-39-29.2-87.1-29.2-48.2 0-87.1 13.1-87.1 29.2 0 16.2 38.9 29.3 87.1 29.3Z" fill="#2F5E9C"/><path fill-rule="evenodd" clip-rule="evenodd" d="M117.379 42.063c4.1-3.9 6.4-7.9 12.3-7.8 3.6.1 4.5 2.9 5.1 4.1l7.8-13.2h4.8l-12.9 22.9c-.2.5-.8 1.4-.8 2.1.1 1.1 1.6.8 1 .8 2.6-.1 7.4-5.1 8.5-6.3.2-.3.7-.8.9-.8.2 0 .7.2.7.6 0 .2-.5 1.1-1 1.7-2.4 3-6.4 7.7-10.9 7.8-2.2 0-3.1-.9-3.4-2.7-1 .9-4.5 2.5-8.1 2.5-3-.1-4.2-1.8-4.8-3.2-.5-1.1-.8-2.8-.4-4.5-1.6.8-3.1 1-5.3.9-2.5-.1-4.1-1.2-4.9-4.2-2.9 5.3-3 5.5-6 11h-5l6.6-11.2c.8-1.5 1.3-2.7 1.6-4 .2-.7-.4-1.4-1.1-1.4-.8 0-2.2.8-3.6 2.1 0 0-3.4 3.6-5.9 7.3-2.4 3.5-6.4 7.5-10.8 7.5-3.2 0-6.1-1.7-6.7-5.1 0 0-.3.8-3.1 2.4-.2.1-.8.5-1 .4-.5-.5-.8-1.1-.9-1.5.2.1.5-.2 1.7-1.1 2.2-1.7 2.7-3 2.7-3 .5-1.1 1.5-3 2.2-4.2 1.8-3.6 4.9-7.3 10.1-7.5.8 0 1.1.4 1.3.7.5.4.3 1.1.3 1.1-3.6.5-6.1 2.7-7.6 4.7-.9 1.3-1.9 3.5-2.1 5.1-.4 2.7.9 4.5 2.8 4.9 3.5.5 6.4-2 8.7-5.9.6-1 1-3.7 1-5.1 0-1.4-.8-3-1.4-3.6 0-1 .7-1.7 1.4-1.7.2 0 .5 0 .7.2 1.2 1.2 1.9 3.5 1.9 5.2 0 .6 0 1.2-.1 1.8 2.5-3.1 5.7-7.1 8.2-7.8.5-.2 1-.2 1.4-.2 4.5-.1 3.9 4 3.9 4 2.4-2.8 4.1-3.8 6.3-3.7 2.4.1 3.3 1.8 3.3 3.1-.1 1.6-1.2 3.4-3.2 3.4-1.8 0-2.8-.8-3.3-2.4-1.1.4-1.7 1.2-1.9 2.8-.4 2 1.1 3.6 3.1 3.6 3.2-.1 4.7-1.5 5.9-2.6ZM120.979 16.063c0 1.9-6.8 5.6-12.5 5.6-8.9 0-18.2-4.3-22.5-5.2-4.6-1.1-8.9-2-12.2-2-11.6 0-16.8 5-16.6 9.6.1 1.9 1.6 3.1 3.9 2.7 2.4-.4 5.8-2.7 6.6-4.7.2-.4.7-.5.8-.4.4.3.2.7.2.7-.3 2.4-3.9 8.9-10.2 8.9-3.5 0-5.9-3.3-5.8-6.5.1-6 6.2-12 21.2-12 2.8 0 6 .2 9.5.8 4 .7 14.1 2.4 22.3 2.5 3 0 6.9.1 10-.4 3.3-.5 2.6-.7 3.9-.7 1.4.1 1.4.6 1.4 1.1Z" fill="#fff"/><path fill-rule="evenodd" clip-rule="evenodd" d="M129.879 37.063c-2.1-.2-4.8 1.6-6.9 4.2-1.1 1.3-2.2 3.9-2.4 5.4-.2 1.5.2 3 .7 3.4.5.4 3 1.7 6.7-2.1 2.1-2.1 4.2-5.6 4.2-5.6l-.7-.2c1.3-2.3 1-4.8-1.6-5.1Z" fill="#2F5E9C"/><path fill-rule="evenodd" clip-rule="evenodd" d="M85.779 29.863c0 .7.9 1.2 1.7 1.3-.2.7-.1 1-.4.9-1.8 0-2.5-1.7-2.5-1.7-2.4.4-4.8.7-9.5 1.2-12.1 19.4-15.8 22.6-23.2 22.6-5.2 0-9.9-3.4-10-9.6-.1-3.7 3-8.3 8.6-9.7.7 0 .9.2.9.6 0 .2-.2.5-.8.8-1.6.6-4.5 3.8-4.5 6.8 0 2.2 1.4 4.7 3.7 5.2.7.2 1.3.1 1.9.1 5.9 0 12.4-6.6 19.5-16.6-1.1.1-6 .6-7.2 2-.5.4-.9.2-1-.3 0-.1.2-.5.4-.8 1.9-2.2 7.7-2.7 9.1-2.8 5.4-8.3 12.4-13.5 13.9-13.5.2 0 .8.4.5 1-.1.1-.7.8-.9 1-1.2 1.1-5.3 3.7-9.8 11.3 3.6-.2 7.8-.9 7.8-.9s-.2-.8-.2-1.4c.2-2.6 1.7-4.2 3.6-3.9 1.1.2 1.8 1.1 1.8 2.1s-.8 2.5-1.6 3.3c-.4.3-1.1.7-1.8 1Z" fill="#fff"/><path fill-rule="evenodd" clip-rule="evenodd" d="M85.479 28.563s.6.1 1.5-1c.4-.4 1-1.4.8-2.2-.1-.4-.2-.8-.7-.7-.9.2-1.4.6-1.7 1.5-.2 1-.1 1.7.1 2.4Z" fill="#2F5E9C"/></svg>