<svg width="40" height="40" fill="none" xmlns="http://www.w3.org/2000/svg"><path d="M36.163 19.777c0-9.058-7.343-16.4-16.401-16.4S3.36 10.718 3.36 19.776s7.343 16.401 16.4 16.401c9.059 0 16.402-7.343 16.402-16.4Z" fill="#fff"/><path fill-rule="evenodd" clip-rule="evenodd" d="M30.684 20.036c.001-.78-.068-1.56-.207-2.327H19.762v4.398h6.123a5.236 5.236 0 0 1-2.27 3.434v2.855h3.676a11.099 11.099 0 0 0 3.392-8.363l.001.003Z" fill="#487EBC"/><path fill-rule="evenodd" clip-rule="evenodd" d="M19.762 31.155a10.86 10.86 0 0 0 7.525-2.756l-3.672-2.85a6.865 6.865 0 0 1-10.219-3.606h-3.8v2.947a11.373 11.373 0 0 0 10.164 6.27l.002-.005Z" fill="#00A347"/><path fill-rule="evenodd" clip-rule="evenodd" d="M13.395 21.94a6.727 6.727 0 0 1 0-4.323v-2.949h-3.8a11.393 11.393 0 0 0 0 10.22l3.801-2.949Z" fill="#FFB100"/><path fill-rule="evenodd" clip-rule="evenodd" d="M19.762 12.925a6.148 6.148 0 0 1 4.35 1.701l3.263-3.263a10.935 10.935 0 0 0-7.613-2.962 11.374 11.374 0 0 0-10.165 6.267l3.801 2.949a6.781 6.781 0 0 1 6.367-4.691l-.003-.001Z" fill="#F52F26"/></svg>