<svg width="40" height="40" viewBox="0 0 40 40" fill="none" xmlns="http://www.w3.org/2000/svg">
<path d="M36.5854 19.9697C36.5854 10.9118 29.2425 3.56885 20.1845 3.56885C11.1266 3.56885 3.78369 10.9118 3.78369 19.9697C3.78369 29.0276 11.1266 36.3705 20.1845 36.3705C29.2425 36.3705 36.5854 29.0276 36.5854 19.9697Z" fill="white"/>
<path fill-rule="evenodd" clip-rule="evenodd" d="M31.1073 20.2284C31.108 19.4481 31.0386 18.6693 30.9001 17.9014H20.1844V22.2994H26.3075C26.1808 22.9956 25.9142 23.6588 25.524 24.2491C25.1338 24.8394 24.628 25.3445 24.0372 25.7338V28.5886H27.714C28.8336 27.51 29.7142 26.2081 30.2986 24.7675C30.883 23.3268 31.1581 21.7793 31.1063 20.2255L31.1073 20.2284Z" fill="#487EBC"/>
<path fill-rule="evenodd" clip-rule="evenodd" d="M20.1845 31.3477C22.9526 31.4219 25.6446 30.436 27.71 28.5916L24.0381 25.7407C23.1584 26.3053 22.1614 26.6616 21.1231 26.7823C20.0848 26.903 19.0326 26.7849 18.0468 26.4371C17.061 26.0893 16.1677 25.521 15.435 24.7755C14.7023 24.0299 14.1496 23.1269 13.819 22.1353H10.0181V25.0829C10.9645 26.9675 12.4163 28.5518 14.2113 29.6588C16.0062 30.7658 18.0736 31.3519 20.1825 31.3516L20.1845 31.3477Z" fill="#00A347"/>
<path fill-rule="evenodd" clip-rule="evenodd" d="M13.8181 22.1318C13.3425 20.7301 13.3425 19.2107 13.8181 17.809V14.8604H10.0182C9.22246 16.4461 8.80811 18.1957 8.80811 19.9699C8.80811 21.7441 9.22246 23.4937 10.0182 25.0795L13.819 22.1318H13.8181Z" fill="#FFB100"/>
<path fill-rule="evenodd" clip-rule="evenodd" d="M20.1846 13.1172C21.802 13.0899 23.365 13.7013 24.5347 14.8187L27.7981 11.5554C25.7382 9.62145 23.0098 8.55985 20.1846 8.59304C18.0758 8.59278 16.0085 9.17878 14.2136 10.2856C12.4187 11.3924 10.9668 12.9764 10.0201 14.8608L13.8211 17.8094C14.2583 16.4598 15.1076 15.2813 16.2497 14.4398C17.3918 13.5982 18.769 13.136 20.1875 13.1182L20.1846 13.1172Z" fill="#F52F26"/>
</svg>
