<svg width="1350" height="432" viewBox="0 0 1350 432" fill="none" xmlns="http://www.w3.org/2000/svg">
<g opacity="0.75">
<path d="M0 67.52H199.297V345.311H0V67.52Z" fill="#FEC14F"/>
<path d="M199.268 59.731H0V68.7987H199.268V59.731Z" fill="#EAEAEA"/>
<rect x="14.7627" y="62.4385" width="3.97463" height="3.97463" fill="white"/>
<rect x="22.7122" y="62.4385" width="3.97463" height="3.97463" fill="white"/>
<rect x="30.6614" y="62.4385" width="3.97463" height="3.97463" fill="white"/>
<rect x="77.6941" y="62.4385" width="106.653" height="3.97463" fill="white"/>
<path d="M182.349 80.6123H17.384C14.9832 80.6123 13.037 82.5585 13.037 84.9593V329.204C13.037 331.605 14.9832 333.551 17.384 333.551H182.349C184.75 333.551 186.696 331.605 186.696 329.204V84.9593C186.696 82.5585 184.75 80.6123 182.349 80.6123Z" fill="white"/>
<path d="M143.513 307.745H57.2058C55.643 307.745 54.3761 309.012 54.3761 310.575V320.069C54.3761 321.631 55.643 322.898 57.2058 322.898H143.513C145.076 322.898 146.343 321.631 146.343 320.069V310.575C146.343 309.012 145.076 307.745 143.513 307.745Z" fill="#F59D4C"/>
<path d="M94.0429 314.504C93.9637 314.108 93.6374 313.594 92.7868 313.594C92.1241 313.594 91.5653 314.068 91.5653 314.692C91.5653 315.221 91.9263 315.582 92.4851 315.695L92.9747 315.794C93.2467 315.849 93.4 316.007 93.4 316.21C93.4 316.457 93.1972 316.64 92.8313 316.64C92.3368 316.64 92.0945 316.328 92.0648 315.982L91.4318 316.15C91.4862 316.65 91.8967 317.248 92.8263 317.248C93.6423 317.248 94.0923 316.704 94.0923 316.165C94.0923 315.671 93.7511 315.255 93.1132 315.132L92.6236 315.038C92.3664 314.988 92.2428 314.835 92.2428 314.642C92.2428 314.41 92.4604 314.197 92.7917 314.197C93.2368 314.197 93.395 314.499 93.4297 314.692L94.0429 314.504ZM95.9693 317.253C96.721 317.253 97.3194 316.793 97.3194 315.933V313.668H96.6369V315.883C96.6369 316.343 96.3847 316.586 95.9693 316.586C95.5638 316.586 95.3067 316.343 95.3067 315.883V313.668H94.6242V315.933C94.6242 316.793 95.2226 317.253 95.9693 317.253ZM98.0876 313.668V317.174H99.4426C100.1 317.174 100.526 316.764 100.526 316.195C100.526 315.76 100.249 315.448 99.9075 315.364C100.199 315.265 100.417 314.973 100.417 314.612C100.417 314.068 100.031 313.668 99.3487 313.668H98.0876ZM98.7602 315.117V314.242H99.2399C99.5712 314.242 99.7443 314.41 99.7443 314.677C99.7443 314.944 99.5564 315.117 99.2448 315.117H98.7602ZM98.7602 316.605V315.681H99.3239C99.6652 315.681 99.8432 315.873 99.8432 316.15C99.8432 316.432 99.6454 316.605 99.314 316.605H98.7602ZM105.018 317.174V313.668H104.088L103.059 316.2L102.006 313.668H101.106V317.174H101.759V314.736L102.768 317.174H103.336L104.345 314.716V317.174H105.018ZM106.512 317.174V313.668H105.819V317.174H106.512ZM109.893 314.316V313.668H106.99V314.316H108.098V317.174H108.785V314.316H109.893Z" fill="white"/>
<path d="M23.7283 132.55V130.414H24.8753C25.6014 130.414 26.0434 130.824 26.0434 131.487C26.0434 132.129 25.6014 132.55 24.8753 132.55H23.7283ZM25.0542 133.803C26.5275 133.803 27.5062 132.834 27.5062 131.477C27.5062 130.13 26.5275 129.151 25.0542 129.151H22.2655V136.612H23.7177V133.803H25.0542ZM29.2341 133.434C29.2657 132.961 29.6656 132.413 30.3917 132.413C31.1915 132.413 31.5282 132.919 31.5493 133.434H29.2341ZM31.6861 134.781C31.5177 135.244 31.1599 135.57 30.5074 135.57C29.8129 135.57 29.2341 135.076 29.2025 134.392H32.9068C32.9068 134.371 32.9278 134.16 32.9278 133.96C32.9278 132.298 31.9702 131.277 30.3706 131.277C29.0447 131.277 27.8239 132.35 27.8239 134.002C27.8239 135.749 29.0762 136.77 30.4969 136.77C31.7703 136.77 32.5911 136.023 32.8542 135.128L31.6861 134.781ZM37.1871 131.414C37.0818 131.403 36.9766 131.393 36.8608 131.393C36.4188 131.393 35.7032 131.519 35.3875 132.203V131.435H34.03V136.612H35.4296V134.245C35.4296 133.129 36.0505 132.782 36.7661 132.782C36.8924 132.782 37.0292 132.792 37.1871 132.824V131.414ZM37.7604 135.171C37.8236 135.76 38.3603 136.77 39.9177 136.77C41.2753 136.77 41.9277 135.907 41.9277 135.065C41.9277 134.308 41.4121 133.687 40.3913 133.476L39.6546 133.318C39.3705 133.266 39.1811 133.108 39.1811 132.855C39.1811 132.561 39.4758 132.34 39.8441 132.34C40.4334 132.34 40.6544 132.729 40.6965 133.034L41.8646 132.771C41.8014 132.213 41.3068 131.277 39.8335 131.277C38.7181 131.277 37.8972 132.045 37.8972 132.971C37.8972 133.697 38.3497 134.297 39.3495 134.518L40.0335 134.676C40.4334 134.76 40.5912 134.95 40.5912 135.181C40.5912 135.455 40.3702 135.697 39.9072 135.697C39.2969 135.697 38.9917 135.318 38.9601 134.907L37.7604 135.171ZM45.3582 135.497C44.6742 135.497 44.0428 134.992 44.0428 134.024C44.0428 133.045 44.6742 132.55 45.3582 132.55C46.0422 132.55 46.6737 133.045 46.6737 134.024C46.6737 135.002 46.0422 135.497 45.3582 135.497ZM45.3582 131.277C43.8113 131.277 42.6432 132.424 42.6432 134.024C42.6432 135.613 43.8113 136.77 45.3582 136.77C46.9052 136.77 48.0733 135.613 48.0733 134.024C48.0733 132.424 46.9052 131.277 45.3582 131.277ZM50.5777 133.634C50.5777 133.034 50.9355 132.561 51.5459 132.561C52.2194 132.561 52.5035 133.013 52.5035 133.592V136.612H53.9031V133.35C53.9031 132.213 53.3138 131.298 52.0299 131.298C51.4722 131.298 50.8513 131.54 50.5356 132.077V131.435H49.1781V136.612H50.5777V133.634ZM55.0079 135.202C55.0079 136.012 55.6814 136.76 56.7864 136.76C57.5546 136.76 58.0492 136.402 58.3123 135.991C58.3123 136.191 58.3334 136.475 58.3649 136.612H59.6488C59.6172 136.433 59.5856 136.065 59.5856 135.791V133.245C59.5856 132.203 58.9753 131.277 57.3336 131.277C55.9445 131.277 55.1974 132.171 55.1132 132.982L56.3549 133.245C56.397 132.792 56.7338 132.403 57.3441 132.403C57.9335 132.403 58.2176 132.708 58.2176 133.076C58.2176 133.255 58.1229 133.403 57.8282 133.445L56.5549 133.634C55.692 133.76 55.0079 134.276 55.0079 135.202ZM57.0811 135.718C56.6285 135.718 56.4076 135.423 56.4076 135.118C56.4076 134.718 56.6917 134.518 57.0495 134.466L58.2176 134.287V134.518C58.2176 135.434 57.6704 135.718 57.0811 135.718ZM62.3961 136.612V128.993H60.9965V136.612H62.3961ZM68.0731 136.612V129.151H66.5998V136.612H68.0731ZM71.0697 133.634C71.0697 133.034 71.4275 132.561 72.0379 132.561C72.7114 132.561 72.9955 133.013 72.9955 133.592V136.612H74.3952V133.35C74.3952 132.213 73.8058 131.298 72.522 131.298C71.9642 131.298 71.3433 131.54 71.0276 132.077V131.435H69.6701V136.612H71.0697V133.634ZM78.215 130.151C78.4465 130.151 78.5833 130.182 78.657 130.203V129.025C78.5412 128.972 78.2571 128.92 77.9625 128.92C76.8154 128.92 76.0787 129.677 76.0787 130.845V131.435H75.2158V132.634H76.0787V136.612H77.4889V132.634H78.657V131.435H77.4889V130.866C77.4889 130.288 77.8993 130.151 78.215 130.151ZM81.7794 135.497C81.0953 135.497 80.4639 134.992 80.4639 134.024C80.4639 133.045 81.0953 132.55 81.7794 132.55C82.4634 132.55 83.0948 133.045 83.0948 134.024C83.0948 135.002 82.4634 135.497 81.7794 135.497ZM81.7794 131.277C80.2324 131.277 79.0643 132.424 79.0643 134.024C79.0643 135.613 80.2324 136.77 81.7794 136.77C83.3263 136.77 84.4944 135.613 84.4944 134.024C84.4944 132.424 83.3263 131.277 81.7794 131.277ZM88.7563 131.414C88.651 131.403 88.5458 131.393 88.43 131.393C87.988 131.393 87.2724 131.519 86.9567 132.203V131.435H85.5992V136.612H86.9988V134.245C86.9988 133.129 87.6197 132.782 88.3353 132.782C88.4616 132.782 88.5984 132.792 88.7563 132.824V131.414ZM91.1404 136.612V133.582C91.1404 133.013 91.4982 132.561 92.1086 132.561C92.74 132.561 93.0241 132.982 93.0241 133.539V136.612H94.4132V133.582C94.4132 133.024 94.771 132.561 95.3708 132.561C96.0128 132.561 96.2864 132.982 96.2864 133.539V136.612H97.6439V133.255C97.6439 131.866 96.7284 131.287 95.7707 131.287C95.0867 131.287 94.5395 131.519 94.1291 132.15C93.866 131.593 93.2977 131.287 92.5926 131.287C92.0244 131.287 91.3614 131.561 91.0773 132.066V131.435H89.7408V136.612H91.1404ZM98.7462 135.202C98.7462 136.012 99.4197 136.76 100.525 136.76C101.293 136.76 101.787 136.402 102.051 135.991C102.051 136.191 102.072 136.475 102.103 136.612H103.387C103.355 136.433 103.324 136.065 103.324 135.791V133.245C103.324 132.203 102.714 131.277 101.072 131.277C99.6828 131.277 98.9356 132.171 98.8514 132.982L100.093 133.245C100.135 132.792 100.472 132.403 101.082 132.403C101.672 132.403 101.956 132.708 101.956 133.076C101.956 133.255 101.861 133.403 101.566 133.445L100.293 133.634C99.4302 133.76 98.7462 134.276 98.7462 135.202ZM100.819 135.718C100.367 135.718 100.146 135.423 100.146 135.118C100.146 134.718 100.43 134.518 100.788 134.466L101.956 134.287V134.518C101.956 135.434 101.409 135.718 100.819 135.718ZM106.43 129.888H105.167V130.614C105.167 131.077 104.914 131.435 104.367 131.435H104.104V132.677H105.041V135.086C105.041 136.086 105.672 136.686 106.682 136.686C107.093 136.686 107.345 136.612 107.472 136.56V135.402C107.398 135.423 107.208 135.444 107.04 135.444C106.64 135.444 106.43 135.297 106.43 134.844V132.677H107.472V131.435H106.43V129.888ZM110.06 136.612V131.435H108.66V136.612H110.06ZM108.492 129.74C108.492 130.203 108.881 130.593 109.355 130.593C109.839 130.593 110.218 130.203 110.218 129.74C110.218 129.256 109.839 128.867 109.355 128.867C108.881 128.867 108.492 129.256 108.492 129.74ZM113.884 135.497C113.2 135.497 112.569 134.992 112.569 134.024C112.569 133.045 113.2 132.55 113.884 132.55C114.568 132.55 115.2 133.045 115.2 134.024C115.2 135.002 114.568 135.497 113.884 135.497ZM113.884 131.277C112.337 131.277 111.169 132.424 111.169 134.024C111.169 135.613 112.337 136.77 113.884 136.77C115.431 136.77 116.599 135.613 116.599 134.024C116.599 132.424 115.431 131.277 113.884 131.277ZM119.104 133.634C119.104 133.034 119.461 132.561 120.072 132.561C120.745 132.561 121.029 133.013 121.029 133.592V136.612H122.429V133.35C122.429 132.213 121.84 131.298 120.556 131.298C119.998 131.298 119.377 131.54 119.062 132.077V131.435H117.704V136.612H119.104V133.634Z" fill="#09224C"/>
<path d="M82.7102 158.285H19.4365V168.031H82.7102V158.285Z" fill="#DBDBDB"/>
<path d="M154.557 157.971H91.2831V167.717H154.557V157.971Z" fill="#DBDBDB"/>
<path d="M154.104 158.203H91.735V167.485H154.104V158.203Z" stroke="white" stroke-width="0.654558"/>
<path d="M82.7102 186.347H19.4365V196.093H82.7102V186.347Z" fill="#DBDBDB"/>
<path d="M82.7102 249.784H19.4365V259.53H82.7102V249.784Z" fill="#DBDBDB"/>
<path d="M172.64 218.594H19.4365V228.34H172.64V218.594Z" fill="#DBDBDB"/>
<path d="M172.64 233.377H19.4365V243.123H172.64V233.377Z" fill="#DBDBDB"/>
<path d="M154.557 186.033H91.2831V195.779H154.557V186.033Z" fill="#DBDBDB"/>
<path d="M153.776 249.47H90.5026V259.216H153.776V249.47Z" fill="#DBDBDB"/>
<path d="M124.291 273.793H90.9039V283.539H124.291V273.793Z" fill="#DBDBDB"/>
<path d="M65.3003 274.526H32.91V284.273H65.3003V274.526Z" fill="#DBDBDB"/>
<path d="M25.944 153.536V147.652H25.1307V152.167L22.193 147.652H21.1059V153.536H21.9191V148.74L25.0975 153.536H25.944ZM27.0627 152.466C27.0627 153.096 27.5855 153.661 28.3988 153.661C29.1125 153.661 29.5108 153.279 29.6851 152.997C29.6851 153.287 29.71 153.437 29.7266 153.536H30.49C30.4734 153.437 30.4403 153.229 30.4403 152.881V150.881C30.4403 150.101 29.9755 149.42 28.7805 149.42C27.9175 149.42 27.2287 149.951 27.1457 150.715L27.8926 150.889C27.9424 150.424 28.2494 150.084 28.7971 150.084C29.4029 150.084 29.6602 150.408 29.6602 150.798C29.6602 150.939 29.5938 151.063 29.3531 151.096L28.2743 151.254C27.5855 151.354 27.0627 151.752 27.0627 152.466ZM28.5067 153.005C28.1083 153.005 27.8594 152.723 27.8594 152.424C27.8594 152.067 28.1083 151.876 28.4403 151.827L29.6602 151.644V151.827C29.6602 152.698 29.1457 153.005 28.5067 153.005ZM32.4273 153.536V151.13C32.4273 150.532 32.8007 150.117 33.3567 150.117C33.9542 150.117 34.2032 150.515 34.2032 151.03V153.536H34.9832V151.121C34.9832 150.549 35.3567 150.117 35.9044 150.117C36.4936 150.117 36.7508 150.507 36.7508 151.03V153.536H37.5226V150.947C37.5226 149.901 36.8421 149.428 36.145 149.428C35.6388 149.428 35.1243 149.611 34.809 150.183C34.5932 149.669 34.1119 149.428 33.614 149.428C33.1492 149.428 32.6513 149.636 32.4024 150.076V149.545H31.6555V153.536H32.4273ZM39.2771 151.13C39.3103 150.615 39.7086 150.109 40.3642 150.109C41.0696 150.109 41.443 150.557 41.4596 151.13H39.2771ZM41.5758 152.167C41.4264 152.615 41.1028 152.972 40.4555 152.972C39.7833 152.972 39.2688 152.474 39.2522 151.76H42.2563C42.2646 151.71 42.2729 151.611 42.2729 151.511C42.2729 150.266 41.5841 149.42 40.3559 149.42C39.3518 149.42 38.4472 150.275 38.4472 151.528C38.4472 152.881 39.385 153.661 40.4555 153.661C41.3849 153.661 42.0239 153.105 42.248 152.399L41.5758 152.167Z" fill="black"/>
<path d="M21.9188 180.642V178.625H23.0972C23.8026 178.625 24.2341 179.024 24.2341 179.646C24.2341 180.252 23.8026 180.642 23.0972 180.642H21.9188ZM23.2466 181.372C24.3337 181.372 25.064 180.634 25.064 179.638C25.064 178.65 24.3337 177.895 23.2466 177.895H21.1055V183.779H21.9188V181.372H23.2466ZM26.6732 181.43C26.6898 180.841 27.0051 180.376 27.6026 180.376C28.2997 180.376 28.5321 180.825 28.5321 181.381V183.779H29.3121V181.248C29.3121 180.36 28.8391 179.671 27.8848 179.671C27.4283 179.671 26.9636 179.829 26.6732 180.252V177.771H25.8931V183.779H26.6732V181.43ZM32.2625 183.206C31.5986 183.206 31.0177 182.708 31.0177 181.779C31.0177 180.858 31.5986 180.36 32.2625 180.36C32.9264 180.36 33.5073 180.858 33.5073 181.779C33.5073 182.708 32.9264 183.206 32.2625 183.206ZM32.2625 179.663C31.0675 179.663 30.221 180.567 30.221 181.779C30.221 182.999 31.0675 183.903 32.2625 183.903C33.4575 183.903 34.3039 182.999 34.3039 181.779C34.3039 180.567 33.4575 179.663 32.2625 179.663ZM36.082 181.472C36.082 180.866 36.3974 180.376 37.0115 180.376C37.7086 180.376 37.9409 180.825 37.9409 181.381V183.779H38.721V181.248C38.721 180.36 38.248 179.671 37.2936 179.671C36.8289 179.671 36.3559 179.862 36.0654 180.36V179.787H35.302V183.779H36.082V181.472ZM40.468 181.372C40.5012 180.858 40.8996 180.351 41.5552 180.351C42.2605 180.351 42.634 180.8 42.6506 181.372H40.468ZM42.7668 182.41C42.6174 182.858 42.2937 183.215 41.6464 183.215C40.9743 183.215 40.4597 182.717 40.4431 182.003H43.4472C43.4555 181.953 43.4638 181.854 43.4638 181.754C43.4638 180.509 42.7751 179.663 41.5469 179.663C40.5427 179.663 39.6382 180.517 39.6382 181.771C39.6382 183.123 40.5759 183.903 41.6464 183.903C42.5759 183.903 43.2149 183.347 43.4389 182.642L42.7668 182.41Z" fill="black"/>
<path d="M25.1801 215.581H26.0598L23.7196 209.697H22.7818L20.4416 215.581H21.313L21.9354 213.938H24.5411L25.1801 215.581ZM23.23 210.544L24.2507 213.183H22.2258L23.23 210.544ZM27.1925 213.573C27.1925 212.751 27.6573 212.17 28.3709 212.17C29.0846 212.17 29.5162 212.735 29.5162 213.556C29.5162 214.378 29.0763 215 28.3626 215C27.6158 215 27.1925 214.394 27.1925 213.573ZM29.5245 215.042C29.5245 215.282 29.5493 215.49 29.5659 215.581H30.3211C30.3128 215.515 30.2796 215.224 30.2796 214.842V209.573H29.5079V212.154C29.3751 211.83 28.9933 211.482 28.288 211.482C27.1593 211.482 26.3959 212.444 26.3959 213.573C26.3959 214.759 27.1179 215.689 28.288 215.689C28.9104 215.689 29.3336 215.357 29.5245 214.975V215.042ZM33.8222 211.548C33.7807 211.54 33.6728 211.523 33.565 211.523C33.1583 211.523 32.6604 211.672 32.37 212.287V211.589H31.6065V215.581H32.3866V213.581C32.3866 212.701 32.8264 212.353 33.482 212.353C33.5899 212.353 33.706 212.361 33.8222 212.378V211.548ZM35.1193 213.174C35.1525 212.66 35.5509 212.154 36.2064 212.154C36.9118 212.154 37.2853 212.602 37.3019 213.174H35.1193ZM37.418 214.212C37.2687 214.66 36.945 215.017 36.2977 215.017C35.6255 215.017 35.111 214.519 35.0944 213.805H38.0985C38.1068 213.755 38.1151 213.656 38.1151 213.556C38.1151 212.311 37.4263 211.465 36.1981 211.465C35.194 211.465 34.2895 212.32 34.2895 213.573C34.2895 214.925 35.2272 215.706 36.2977 215.706C37.2272 215.706 37.8662 215.15 38.0902 214.444L37.418 214.212ZM38.7375 214.544C38.8038 215 39.2686 215.706 40.364 215.706C41.3515 215.706 41.8245 215.033 41.8245 214.469C41.8245 213.88 41.4428 213.44 40.7208 213.282L40.0735 213.141C39.7665 213.075 39.6171 212.901 39.6171 212.66C39.6171 212.386 39.8827 212.129 40.281 212.129C40.9117 212.129 41.0777 212.585 41.1109 212.793L41.7996 212.535C41.7167 212.179 41.3764 211.465 40.281 211.465C39.5009 211.465 38.8619 212.046 38.8619 212.726C38.8619 213.291 39.2354 213.714 39.8578 213.847L40.5383 213.996C40.8702 214.071 41.0528 214.262 41.0528 214.511C41.0528 214.793 40.8121 215.042 40.3723 215.042C39.808 215.042 39.4926 214.71 39.4428 214.295L38.7375 214.544ZM42.4897 214.544C42.556 215 43.0208 215.706 44.1162 215.706C45.1037 215.706 45.5767 215.033 45.5767 214.469C45.5767 213.88 45.195 213.44 44.473 213.282L43.8257 213.141C43.5187 213.075 43.3693 212.901 43.3693 212.66C43.3693 212.386 43.6349 212.129 44.0332 212.129C44.6639 212.129 44.8299 212.585 44.8631 212.793L45.5518 212.535C45.4689 212.179 45.1286 211.465 44.0332 211.465C43.2531 211.465 42.6141 212.046 42.6141 212.726C42.6141 213.291 42.9876 213.714 43.61 213.847L44.2905 213.996C44.6224 214.071 44.805 214.262 44.805 214.511C44.805 214.793 44.5643 215.042 44.1245 215.042C43.5602 215.042 43.2448 214.71 43.195 214.295L42.4897 214.544Z" fill="black"/>
<path d="M26.2009 269.39V266.51H23.3876V267.24H25.4291C25.3959 267.846 24.9229 268.776 23.6117 268.776C22.5578 268.776 21.5619 268.004 21.5619 266.444C21.5619 264.884 22.591 264.128 23.6449 264.128C24.5577 264.128 25.2465 264.626 25.5121 265.473L26.2507 265.157C25.9104 264.095 24.9229 263.381 23.6449 263.381C22.1926 263.381 20.7321 264.452 20.7321 266.444C20.7321 268.435 22.1096 269.514 23.5868 269.514C24.5743 269.514 25.2133 269.025 25.4706 268.56L25.5453 269.39H26.2009ZM27.8743 266.983C27.9075 266.469 28.3058 265.962 28.9614 265.962C29.6668 265.962 30.0402 266.41 30.0568 266.983H27.8743ZM30.173 268.02C30.0236 268.469 29.7 268.825 29.0527 268.825C28.3805 268.825 27.866 268.327 27.8494 267.614H30.8535C30.8618 267.564 30.8701 267.464 30.8701 267.365C30.8701 266.12 30.1813 265.274 28.9531 265.274C27.9489 265.274 27.0444 266.128 27.0444 267.381C27.0444 268.734 27.9821 269.514 29.0527 269.514C29.9821 269.514 30.6211 268.958 30.8452 268.253L30.173 268.02ZM32.6459 267.083C32.6459 266.477 32.9612 265.987 33.5753 265.987C34.2724 265.987 34.5048 266.435 34.5048 266.991V269.39H35.2848V266.859C35.2848 265.971 34.8118 265.282 33.8575 265.282C33.3928 265.282 32.9197 265.473 32.6293 265.971V265.398H31.8658V269.39H32.6459V267.083ZM36.9904 267.381C36.9904 266.56 37.4551 265.979 38.1688 265.979C38.8825 265.979 39.314 266.543 39.314 267.365C39.314 268.186 38.8742 268.809 38.1605 268.809C37.4136 268.809 36.9904 268.203 36.9904 267.381ZM39.3223 268.85C39.3223 269.091 39.3472 269.298 39.3638 269.39H40.119C40.1107 269.323 40.0775 269.033 40.0775 268.651V263.381H39.3057V265.962C39.1729 265.639 38.7912 265.29 38.0858 265.29C36.9572 265.29 36.1937 266.253 36.1937 267.381C36.1937 268.568 36.9157 269.498 38.0858 269.498C38.7082 269.498 39.1314 269.166 39.3223 268.784V268.85ZM41.9106 266.983C41.9438 266.469 42.3421 265.962 42.9977 265.962C43.7031 265.962 44.0765 266.41 44.0931 266.983H41.9106ZM44.2093 268.02C44.0599 268.469 43.7363 268.825 43.089 268.825C42.4168 268.825 41.9023 268.327 41.8857 267.614H44.8898C44.8981 267.564 44.9064 267.464 44.9064 267.365C44.9064 266.12 44.2176 265.274 42.9894 265.274C41.9853 265.274 41.0807 266.128 41.0807 267.381C41.0807 268.734 42.0185 269.514 43.089 269.514C44.0184 269.514 44.6574 268.958 44.8815 268.253L44.2093 268.02ZM48.1179 265.357C48.0764 265.348 47.9685 265.332 47.8606 265.332C47.454 265.332 46.9561 265.481 46.6656 266.095V265.398H45.9021V269.39H46.6822V267.39C46.6822 266.51 47.122 266.161 47.7776 266.161C47.8855 266.161 48.0017 266.17 48.1179 266.186V265.357Z" fill="black"/>
<path d="M96.1269 183.191V182.436H93.3635V180.635H95.8697V179.871H93.3635V178.062H96.1269V177.307H92.5502V183.191H96.1269ZM97.9394 183.191V180.784C97.9394 180.187 98.3128 179.772 98.8688 179.772C99.4663 179.772 99.7153 180.17 99.7153 180.685V183.191H100.495V180.776C100.495 180.203 100.869 179.772 101.416 179.772C102.006 179.772 102.263 180.162 102.263 180.685V183.191H103.035V180.602C103.035 179.556 102.354 179.083 101.657 179.083C101.151 179.083 100.636 179.266 100.321 179.838C100.105 179.324 99.624 179.083 99.1261 179.083C98.6614 179.083 98.1634 179.291 97.9145 179.73V179.199H97.1676V183.191H97.9394ZM104.034 182.12C104.034 182.751 104.557 183.315 105.37 183.315C106.084 183.315 106.482 182.934 106.656 182.652C106.656 182.942 106.681 183.091 106.698 183.191H107.461C107.445 183.091 107.412 182.884 107.412 182.535V180.535C107.412 179.755 106.947 179.075 105.752 179.075C104.889 179.075 104.2 179.606 104.117 180.369L104.864 180.544C104.914 180.079 105.221 179.739 105.768 179.739C106.374 179.739 106.632 180.062 106.632 180.452C106.632 180.593 106.565 180.718 106.324 180.751L105.246 180.909C104.557 181.008 104.034 181.407 104.034 182.12ZM105.478 182.66C105.08 182.66 104.831 182.378 104.831 182.079C104.831 181.722 105.08 181.531 105.412 181.481L106.632 181.299V181.481C106.632 182.353 106.117 182.66 105.478 182.66ZM109.399 183.191V179.199H108.627V183.191H109.399ZM108.453 177.689C108.453 177.996 108.702 178.245 109.009 178.245C109.324 178.245 109.573 177.996 109.573 177.689C109.573 177.374 109.324 177.125 109.009 177.125C108.702 177.125 108.453 177.374 108.453 177.689ZM111.506 183.191V177.183H110.726V183.191H111.506Z" fill="black"/>
<path d="M13.0371 79.8599H186.696V114.548H13.0371V79.8599Z" fill="#3D93B4"/>
<path d="M54.9584 101.377H57.1148L53.2333 91.1849H50.9332L47.0229 101.377H49.1218L49.97 99.0485H54.1103L54.9584 101.377ZM52.0401 93.3844L53.449 97.2372H50.6313L52.0401 93.3844ZM60.1867 101.377V90.9692H58.2747V101.377H60.1867ZM66.8347 101.377H68.6604C68.6317 101.133 68.5885 100.644 68.5885 100.098V94.3045H66.6765V98.416C66.6765 99.2354 66.1877 99.8105 65.3396 99.8105C64.4483 99.8105 64.0457 99.1779 64.0457 98.3872V94.3045H62.1337V98.7754C62.1337 100.314 63.1113 101.564 64.822 101.564C65.5696 101.564 66.389 101.277 66.7772 100.616C66.7772 100.903 66.8059 101.234 66.8347 101.377ZM72.541 101.377V97.2372C72.541 96.4609 73.0298 95.8427 73.8636 95.8427C74.7262 95.8427 75.1143 96.4177 75.1143 97.1797V101.377H77.0119V97.2372C77.0119 96.4752 77.5007 95.8427 78.3201 95.8427C79.1971 95.8427 79.5709 96.4177 79.5709 97.1797V101.377H81.4254V96.7915C81.4254 94.8939 80.1746 94.1032 78.8664 94.1032C77.932 94.1032 77.1844 94.4195 76.6238 95.282C76.2644 94.5201 75.4881 94.1032 74.5249 94.1032C73.7486 94.1032 72.8429 94.477 72.4548 95.167V94.3045H70.629V101.377H72.541ZM85.2744 97.309C85.2744 96.4896 85.7632 95.8427 86.597 95.8427C87.5171 95.8427 87.9052 96.4609 87.9052 97.2515V101.377H89.8172V96.9209C89.8172 95.3683 89.0122 94.1176 87.2583 94.1176C86.4964 94.1176 85.6482 94.4482 85.2169 95.1814V94.3045H83.3624V101.377H85.2744V97.309ZM93.6697 101.377V94.3045H91.7577V101.377H93.6697ZM91.5277 91.9899C91.5277 92.6225 92.0596 93.1544 92.7066 93.1544C93.3678 93.1544 93.8854 92.6225 93.8854 91.9899C93.8854 91.3286 93.3678 90.7967 92.7066 90.7967C92.0596 90.7967 91.5277 91.3286 91.5277 91.9899ZM106.27 93.6144C106.04 92.4643 105.091 90.9692 102.618 90.9692C100.692 90.9692 99.0673 92.3493 99.0673 94.1607C99.0673 95.6989 100.117 96.7484 101.741 97.079L103.164 97.3665C103.955 97.5247 104.401 97.9847 104.401 98.5741C104.401 99.2929 103.811 99.8248 102.748 99.8248C101.31 99.8248 100.606 98.9192 100.519 97.9128L98.6792 98.4016C98.8373 99.8536 100.031 101.593 102.733 101.593C105.105 101.593 106.413 100.012 106.413 98.4447C106.413 97.0072 105.422 95.7996 103.567 95.4402L102.144 95.167C101.396 95.0233 101.037 94.5776 101.037 94.017C101.037 93.3413 101.669 92.7231 102.633 92.7231C103.926 92.7231 104.386 93.6 104.487 94.1607L106.27 93.6144ZM112.391 101.377H114.217C114.188 101.133 114.145 100.644 114.145 100.098V94.3045H112.233V98.416C112.233 99.2354 111.744 99.8105 110.896 99.8105C110.005 99.8105 109.602 99.1779 109.602 98.3872V94.3045H107.69V98.7754C107.69 100.314 108.668 101.564 110.379 101.564C111.126 101.564 111.946 101.277 112.334 100.616C112.334 100.903 112.363 101.234 112.391 101.377ZM120.498 94.2757C120.355 94.2613 120.211 94.247 120.053 94.247C119.449 94.247 118.471 94.4195 118.04 95.3539V94.3045H116.186V101.377H118.098V98.1429C118.098 96.619 118.946 96.1446 119.923 96.1446C120.096 96.1446 120.283 96.159 120.498 96.2021V94.2757ZM128.724 94.3045H126.712L125.03 99.0485L123.276 94.3045H121.177L124.067 101.377H125.979L128.724 94.3045ZM131.072 97.0359C131.115 96.389 131.661 95.6414 132.653 95.6414C133.746 95.6414 134.206 96.3315 134.234 97.0359H131.072ZM134.421 98.876C134.191 99.5086 133.702 99.9542 132.811 99.9542C131.862 99.9542 131.072 99.2786 131.028 98.3441H136.089C136.089 98.3154 136.118 98.0278 136.118 97.7547C136.118 95.4833 134.809 94.0888 132.624 94.0888C130.813 94.0888 129.145 95.5552 129.145 97.8122C129.145 100.199 130.856 101.593 132.797 101.593C134.536 101.593 135.658 100.572 136.017 99.3504L134.421 98.876ZM139.969 104.166L144.411 94.3045H142.37L140.63 98.4447L138.747 94.3045H136.605L139.609 100.486L137.942 104.166H139.969Z" fill="white"/>
</g>
<path d="M1062.38 49.9243H1312.1V393.402H1062.38V49.9243Z" fill="#FEC14F"/>
<path d="M1312.06 40.2939H1062.38V51.5058H1312.06V40.2939Z" fill="#EAEAEA"/>
<rect x="1080.87" y="43.6406" width="4.98033" height="4.91447" fill="white"/>
<rect x="1090.83" y="43.6401" width="4.98033" height="4.91447" fill="white"/>
<rect x="1100.79" y="43.6401" width="4.98033" height="4.91447" fill="white"/>
<rect x="1159.73" y="43.6401" width="133.639" height="4.91447" fill="white"/>
<path d="M1290.86 66.1138H1084.16C1081.15 66.1138 1078.71 68.5202 1078.71 71.4887V373.488C1078.71 376.456 1081.15 378.863 1084.16 378.863H1290.86C1293.87 378.863 1296.31 376.456 1296.31 373.488V71.4887C1296.31 68.5202 1293.87 66.1138 1290.86 66.1138Z" fill="white"/>
<path d="M1102.27 311.904C1102.27 313.811 1100.7 315.367 1098.75 315.367C1096.8 315.367 1095.24 313.811 1095.24 311.904C1095.24 309.998 1096.8 308.442 1098.75 308.442C1100.7 308.442 1102.27 309.998 1102.27 311.904Z" stroke="#398EAE" stroke-width="0.956388"/>
<path d="M1175.22 311.904C1175.22 313.811 1173.65 315.367 1171.7 315.367C1169.76 315.367 1168.19 313.811 1168.19 311.904C1168.19 309.998 1169.76 308.442 1171.7 308.442C1173.65 308.442 1175.22 309.998 1175.22 311.904Z" stroke="#398EAE" stroke-width="0.956388"/>
<path d="M1242.2 346.954H1134.06C1132.1 346.954 1130.51 348.52 1130.51 350.452V362.191C1130.51 364.123 1132.1 365.69 1134.06 365.69H1242.2C1244.16 365.69 1245.75 364.123 1245.75 362.191V350.452C1245.75 348.52 1244.16 346.954 1242.2 346.954Z" fill="#F59D4C"/>
<path d="M1182.46 353.997C1182.29 353.154 1181.6 352.057 1179.78 352.057C1178.37 352.057 1177.18 353.07 1177.18 354.398C1177.18 355.526 1177.95 356.296 1179.14 356.539L1180.18 356.749C1180.76 356.865 1181.09 357.203 1181.09 357.635C1181.09 358.162 1180.66 358.552 1179.88 358.552C1178.82 358.552 1178.31 357.888 1178.24 357.15L1176.89 357.509C1177.01 358.574 1177.89 359.849 1179.87 359.849C1181.61 359.849 1182.57 358.689 1182.57 357.54C1182.57 356.486 1181.84 355.6 1180.48 355.337L1179.44 355.136C1178.89 355.031 1178.62 354.704 1178.62 354.293C1178.62 353.797 1179.09 353.344 1179.79 353.344C1180.74 353.344 1181.08 353.987 1181.15 354.398L1182.46 353.997ZM1186.57 359.86C1188.17 359.86 1189.45 358.879 1189.45 357.045V352.216H1187.99V356.939C1187.99 357.92 1187.45 358.436 1186.57 358.436C1185.7 358.436 1185.16 357.92 1185.16 356.939V352.216H1183.7V357.045C1183.7 358.879 1184.98 359.86 1186.57 359.86ZM1191.09 352.216V359.691H1193.97C1195.38 359.691 1196.28 358.816 1196.28 357.603C1196.28 356.676 1195.69 356.011 1194.97 355.832C1195.59 355.621 1196.05 354.999 1196.05 354.229C1196.05 353.07 1195.23 352.216 1193.77 352.216H1191.09ZM1192.52 355.305V353.439H1193.54C1194.25 353.439 1194.62 353.797 1194.62 354.366C1194.62 354.936 1194.22 355.305 1193.55 355.305H1192.52ZM1192.52 358.479V356.507H1193.72C1194.45 356.507 1194.83 356.918 1194.83 357.509C1194.83 358.11 1194.41 358.479 1193.7 358.479H1192.52ZM1205.86 359.691V352.216H1203.88L1201.69 357.614L1199.44 352.216H1197.52V359.691H1198.91V354.493L1201.06 359.691H1202.28L1204.43 354.451V359.691H1205.86ZM1209.05 359.691V352.216H1207.57V359.691H1209.05ZM1216.26 353.597V352.216H1210.07V353.597H1212.43V359.691H1213.89V353.597H1216.26Z" fill="white"/>
<path d="M1092.04 131.022V128.409H1093.44C1094.33 128.409 1094.87 128.911 1094.87 129.722C1094.87 130.507 1094.33 131.022 1093.44 131.022H1092.04ZM1093.66 132.553C1095.46 132.553 1096.66 131.369 1096.66 129.709C1096.66 128.062 1095.46 126.865 1093.66 126.865H1090.25V135.989H1092.02V132.553H1093.66ZM1098.77 132.103C1098.81 131.524 1099.3 130.855 1100.19 130.855C1101.16 130.855 1101.58 131.472 1101.6 132.103H1098.77ZM1101.77 133.75C1101.56 134.316 1101.13 134.715 1100.33 134.715C1099.48 134.715 1098.77 134.11 1098.73 133.274H1103.26C1103.26 133.248 1103.29 132.991 1103.29 132.746C1103.29 130.713 1102.12 129.465 1100.16 129.465C1098.54 129.465 1097.05 130.777 1097.05 132.798C1097.05 134.934 1098.58 136.182 1100.31 136.182C1101.87 136.182 1102.88 135.269 1103.2 134.175L1101.77 133.75ZM1108.5 129.632C1108.37 129.619 1108.24 129.606 1108.1 129.606C1107.56 129.606 1106.68 129.761 1106.3 130.597V129.658H1104.64V135.989H1106.35V133.094C1106.35 131.73 1107.11 131.305 1107.98 131.305C1108.14 131.305 1108.3 131.318 1108.5 131.356V129.632ZM1109.2 134.226C1109.27 134.947 1109.93 136.182 1111.84 136.182C1113.5 136.182 1114.29 135.127 1114.29 134.098C1114.29 133.171 1113.66 132.412 1112.41 132.154L1111.51 131.961C1111.17 131.897 1110.93 131.704 1110.93 131.395C1110.93 131.035 1111.29 130.764 1111.75 130.764C1112.47 130.764 1112.74 131.241 1112.79 131.614L1114.22 131.292C1114.14 130.61 1113.53 129.465 1111.73 129.465C1110.37 129.465 1109.36 130.404 1109.36 131.537C1109.36 132.425 1109.92 133.158 1111.14 133.428L1111.98 133.621C1112.47 133.724 1112.66 133.956 1112.66 134.239C1112.66 134.574 1112.39 134.87 1111.82 134.87C1111.08 134.87 1110.7 134.406 1110.66 133.905L1109.2 134.226ZM1118.49 134.625C1117.65 134.625 1116.88 134.007 1116.88 132.824C1116.88 131.627 1117.65 131.022 1118.49 131.022C1119.32 131.022 1120.1 131.627 1120.1 132.824C1120.1 134.02 1119.32 134.625 1118.49 134.625ZM1118.49 129.465C1116.6 129.465 1115.17 130.867 1115.17 132.824C1115.17 134.767 1116.6 136.182 1118.49 136.182C1120.38 136.182 1121.81 134.767 1121.81 132.824C1121.81 130.867 1120.38 129.465 1118.49 129.465ZM1124.87 132.347C1124.87 131.614 1125.31 131.035 1126.05 131.035C1126.88 131.035 1127.23 131.588 1127.23 132.296V135.989H1128.94V132C1128.94 130.61 1128.22 129.49 1126.65 129.49C1125.96 129.49 1125.21 129.786 1124.82 130.443V129.658H1123.16V135.989H1124.87V132.347ZM1130.29 134.265C1130.29 135.256 1131.11 136.169 1132.46 136.169C1133.4 136.169 1134.01 135.732 1134.33 135.23C1134.33 135.475 1134.36 135.822 1134.39 135.989H1135.96C1135.93 135.77 1135.89 135.32 1135.89 134.985V131.871C1135.89 130.597 1135.14 129.465 1133.13 129.465C1131.43 129.465 1130.52 130.559 1130.42 131.549L1131.94 131.871C1131.99 131.318 1132.4 130.842 1133.15 130.842C1133.87 130.842 1134.21 131.215 1134.21 131.665C1134.21 131.884 1134.1 132.064 1133.74 132.116L1132.18 132.347C1131.12 132.502 1130.29 133.132 1130.29 134.265ZM1132.82 134.895C1132.27 134.895 1132 134.535 1132 134.162C1132 133.673 1132.35 133.428 1132.79 133.364L1134.21 133.145V133.428C1134.21 134.548 1133.54 134.895 1132.82 134.895ZM1139.32 135.989V126.672H1137.61V135.989H1139.32ZM1146.27 135.989V126.865H1144.46V135.989H1146.27ZM1149.93 132.347C1149.93 131.614 1150.37 131.035 1151.11 131.035C1151.94 131.035 1152.28 131.588 1152.28 132.296V135.989H1154V132C1154 130.61 1153.28 129.49 1151.71 129.49C1151.02 129.49 1150.26 129.786 1149.88 130.443V129.658H1148.22V135.989H1149.93V132.347ZM1158.67 128.088C1158.95 128.088 1159.12 128.126 1159.21 128.152V126.711C1159.07 126.646 1158.72 126.582 1158.36 126.582C1156.96 126.582 1156.06 127.509 1156.06 128.937V129.658H1155V131.125H1156.06V135.989H1157.78V131.125H1159.21V129.658H1157.78V128.963C1157.78 128.255 1158.28 128.088 1158.67 128.088ZM1163.03 134.625C1162.19 134.625 1161.42 134.007 1161.42 132.824C1161.42 131.627 1162.19 131.022 1163.03 131.022C1163.86 131.022 1164.64 131.627 1164.64 132.824C1164.64 134.02 1163.86 134.625 1163.03 134.625ZM1163.03 129.465C1161.13 129.465 1159.71 130.867 1159.71 132.824C1159.71 134.767 1161.13 136.182 1163.03 136.182C1164.92 136.182 1166.35 134.767 1166.35 132.824C1166.35 130.867 1164.92 129.465 1163.03 129.465ZM1171.56 129.632C1171.43 129.619 1171.3 129.606 1171.16 129.606C1170.62 129.606 1169.74 129.761 1169.36 130.597V129.658H1167.7V135.989H1169.41V133.094C1169.41 131.73 1170.17 131.305 1171.04 131.305C1171.2 131.305 1171.37 131.318 1171.56 131.356V129.632ZM1174.47 135.989V132.283C1174.47 131.588 1174.91 131.035 1175.66 131.035C1176.43 131.035 1176.78 131.549 1176.78 132.232V135.989H1178.48V132.283C1178.48 131.601 1178.91 131.035 1179.65 131.035C1180.43 131.035 1180.77 131.549 1180.77 132.232V135.989H1182.43V131.884C1182.43 130.185 1181.31 129.478 1180.14 129.478C1179.3 129.478 1178.63 129.761 1178.13 130.533C1177.81 129.851 1177.11 129.478 1176.25 129.478C1175.55 129.478 1174.74 129.812 1174.4 130.43V129.658H1172.76V135.989H1174.47ZM1183.77 134.265C1183.77 135.256 1184.6 136.169 1185.95 136.169C1186.89 136.169 1187.49 135.732 1187.82 135.23C1187.82 135.475 1187.84 135.822 1187.88 135.989H1189.45C1189.41 135.77 1189.37 135.32 1189.37 134.985V131.871C1189.37 130.597 1188.63 129.465 1186.62 129.465C1184.92 129.465 1184.01 130.559 1183.9 131.549L1185.42 131.871C1185.47 131.318 1185.89 130.842 1186.63 130.842C1187.35 130.842 1187.7 131.215 1187.7 131.665C1187.7 131.884 1187.58 132.064 1187.22 132.116L1185.67 132.347C1184.61 132.502 1183.77 133.132 1183.77 134.265ZM1186.31 134.895C1185.76 134.895 1185.49 134.535 1185.49 134.162C1185.49 133.673 1185.83 133.428 1186.27 133.364L1187.7 133.145V133.428C1187.7 134.548 1187.03 134.895 1186.31 134.895ZM1193.17 127.766H1191.63V128.654C1191.63 129.22 1191.32 129.658 1190.65 129.658H1190.33V131.176H1191.47V134.123C1191.47 135.346 1192.24 136.079 1193.48 136.079C1193.98 136.079 1194.29 135.989 1194.44 135.925V134.509C1194.35 134.535 1194.12 134.561 1193.92 134.561C1193.43 134.561 1193.17 134.381 1193.17 133.827V131.176H1194.44V129.658H1193.17V127.766ZM1197.61 135.989V129.658H1195.9V135.989H1197.61ZM1195.69 127.586C1195.69 128.152 1196.17 128.628 1196.75 128.628C1197.34 128.628 1197.8 128.152 1197.8 127.586C1197.8 126.994 1197.34 126.518 1196.75 126.518C1196.17 126.518 1195.69 126.994 1195.69 127.586ZM1202.29 134.625C1201.45 134.625 1200.68 134.007 1200.68 132.824C1200.68 131.627 1201.45 131.022 1202.29 131.022C1203.12 131.022 1203.9 131.627 1203.9 132.824C1203.9 134.02 1203.12 134.625 1202.29 134.625ZM1202.29 129.465C1200.39 129.465 1198.97 130.867 1198.97 132.824C1198.97 134.767 1200.39 136.182 1202.29 136.182C1204.18 136.182 1205.61 134.767 1205.61 132.824C1205.61 130.867 1204.18 129.465 1202.29 129.465ZM1208.67 132.347C1208.67 131.614 1209.11 131.035 1209.85 131.035C1210.68 131.035 1211.02 131.588 1211.02 132.296V135.989H1212.74V132C1212.74 130.61 1212.02 129.49 1210.45 129.49C1209.76 129.49 1209 129.786 1208.62 130.443V129.658H1206.96V135.989H1208.67V132.347Z" fill="#398EAE"/>
<path d="M1168.39 162.15H1089.11V174.201H1168.39V162.15Z" fill="#DBDBDB"/>
<path d="M1256.04 161.763H1176.76V173.814H1256.04V161.763Z" fill="#DBDBDB"/>
<path d="M1166.01 196.849H1086.73V208.9H1166.01V196.849Z" fill="#DBDBDB"/>
<path d="M1166.01 275.287H1086.73V287.337H1166.01V275.287Z" fill="#DBDBDB"/>
<path d="M1278.7 236.721H1086.73V248.772H1278.7V236.721Z" fill="#DBDBDB"/>
<path d="M1278.7 255H1086.73V267.05H1278.7V255Z" fill="#DBDBDB"/>
<path d="M1256.04 196.461H1176.76V208.512H1256.04V196.461Z" fill="#DBDBDB"/>
<path d="M1255.06 274.898H1175.78V286.949H1255.06V274.898Z" fill="#DBDBDB"/>
<path d="M1218.12 304.972H1176.28V317.023H1218.12V304.972Z" fill="#DBDBDB"/>
<path d="M1144.2 305.878H1103.61V317.929H1144.2V305.878Z" fill="#DBDBDB"/>
<path d="M1097.79 159.388V150.133H1096.51V157.234L1091.89 150.133H1090.18V159.388H1091.46V151.843L1096.46 159.388H1097.79ZM1099.55 157.704C1099.55 158.696 1100.37 159.584 1101.65 159.584C1102.78 159.584 1103.4 158.984 1103.68 158.54C1103.68 158.997 1103.72 159.232 1103.74 159.388H1104.94C1104.92 159.232 1104.86 158.905 1104.86 158.357V155.211C1104.86 153.984 1104.13 152.914 1102.25 152.914C1100.9 152.914 1099.81 153.749 1099.68 154.95L1100.86 155.224C1100.94 154.493 1101.42 153.958 1102.28 153.958C1103.23 153.958 1103.64 154.467 1103.64 155.08C1103.64 155.302 1103.53 155.498 1103.15 155.55L1101.46 155.798C1100.37 155.955 1099.55 156.582 1099.55 157.704ZM1101.82 158.553C1101.2 158.553 1100.8 158.109 1100.8 157.639C1100.8 157.078 1101.2 156.777 1101.72 156.699L1103.64 156.412V156.699C1103.64 158.07 1102.83 158.553 1101.82 158.553ZM1107.99 159.388V155.603C1107.99 154.663 1108.58 154.01 1109.45 154.01C1110.39 154.01 1110.78 154.637 1110.78 155.446V159.388H1112.01V155.59C1112.01 154.689 1112.6 154.01 1113.46 154.01C1114.39 154.01 1114.79 154.624 1114.79 155.446V159.388H1116V155.315C1116 153.671 1114.93 152.927 1113.84 152.927C1113.04 152.927 1112.23 153.214 1111.74 154.115C1111.4 153.305 1110.64 152.927 1109.86 152.927C1109.13 152.927 1108.34 153.253 1107.95 153.945V153.109H1106.78V159.388H1107.99ZM1118.76 155.603C1118.82 154.793 1119.44 153.997 1120.47 153.997C1121.58 153.997 1122.17 154.702 1122.2 155.603H1118.76ZM1122.38 157.234C1122.15 157.939 1121.64 158.501 1120.62 158.501C1119.56 158.501 1118.75 157.717 1118.73 156.595H1123.45C1123.46 156.516 1123.48 156.36 1123.48 156.203C1123.48 154.245 1122.39 152.914 1120.46 152.914C1118.88 152.914 1117.46 154.258 1117.46 156.229C1117.46 158.357 1118.93 159.584 1120.62 159.584C1122.08 159.584 1123.09 158.709 1123.44 157.6L1122.38 157.234Z" fill="#398EAE"/>
<path d="M1089.18 189.153V185.981H1091.04C1092.15 185.981 1092.83 186.608 1092.83 187.587C1092.83 188.54 1092.15 189.153 1091.04 189.153H1089.18ZM1091.27 190.302C1092.98 190.302 1094.13 189.14 1094.13 187.574C1094.13 186.02 1092.98 184.832 1091.27 184.832H1087.9V194.087H1089.18V190.302H1091.27ZM1096.66 190.393C1096.69 189.466 1097.18 188.735 1098.12 188.735C1099.22 188.735 1099.59 189.44 1099.59 190.315V194.087H1100.81V190.106C1100.81 188.709 1100.07 187.626 1098.57 187.626C1097.85 187.626 1097.12 187.874 1096.66 188.54V184.637H1095.43V194.087H1096.66V190.393ZM1105.45 193.187C1104.41 193.187 1103.5 192.403 1103.5 190.941C1103.5 189.493 1104.41 188.709 1105.45 188.709C1106.5 188.709 1107.41 189.493 1107.41 190.941C1107.41 192.403 1106.5 193.187 1105.45 193.187ZM1105.45 187.613C1103.57 187.613 1102.24 189.036 1102.24 190.941C1102.24 192.86 1103.57 194.283 1105.45 194.283C1107.33 194.283 1108.67 192.86 1108.67 190.941C1108.67 189.036 1107.33 187.613 1105.45 187.613ZM1111.46 190.458C1111.46 189.506 1111.96 188.735 1112.92 188.735C1114.02 188.735 1114.39 189.44 1114.39 190.315V194.087H1115.61V190.106C1115.61 188.709 1114.87 187.626 1113.37 187.626C1112.64 187.626 1111.89 187.926 1111.44 188.709V187.809H1110.23V194.087H1111.46V190.458ZM1118.36 190.302C1118.41 189.493 1119.04 188.696 1120.07 188.696C1121.18 188.696 1121.77 189.401 1121.79 190.302H1118.36ZM1121.98 191.934C1121.74 192.638 1121.23 193.2 1120.21 193.2C1119.16 193.2 1118.35 192.417 1118.32 191.294H1123.05C1123.06 191.216 1123.07 191.059 1123.07 190.902C1123.07 188.944 1121.99 187.613 1120.06 187.613C1118.48 187.613 1117.06 188.957 1117.06 190.928C1117.06 193.056 1118.53 194.283 1120.21 194.283C1121.68 194.283 1122.68 193.409 1123.03 192.299L1121.98 191.934Z" fill="#398EAE"/>
<path d="M1094.31 233.241H1095.7L1092.02 223.986H1090.54L1086.86 233.241H1088.23L1089.21 230.656H1093.31L1094.31 233.241ZM1091.25 225.317L1092.85 229.468H1089.67L1091.25 225.317ZM1097.48 230.082C1097.48 228.789 1098.21 227.876 1099.33 227.876C1100.46 227.876 1101.13 228.763 1101.13 230.056C1101.13 231.348 1100.44 232.327 1099.32 232.327C1098.14 232.327 1097.48 231.374 1097.48 230.082ZM1101.15 232.392C1101.15 232.771 1101.19 233.097 1101.21 233.241H1102.4C1102.39 233.136 1102.33 232.679 1102.33 232.079V223.79H1101.12V227.85C1100.91 227.34 1100.31 226.792 1099.2 226.792C1097.43 226.792 1096.23 228.306 1096.23 230.082C1096.23 231.948 1097.36 233.41 1099.2 233.41C1100.18 233.41 1100.85 232.888 1101.15 232.288V232.392ZM1107.91 226.897C1107.84 226.884 1107.67 226.857 1107.5 226.857C1106.86 226.857 1106.08 227.092 1105.62 228.058V226.962H1104.42V233.241H1105.65V230.095C1105.65 228.711 1106.34 228.163 1107.37 228.163C1107.54 228.163 1107.72 228.176 1107.91 228.202V226.897ZM1109.95 229.455C1110 228.646 1110.63 227.85 1111.66 227.85C1112.77 227.85 1113.35 228.554 1113.38 229.455H1109.95ZM1113.56 231.087C1113.33 231.792 1112.82 232.353 1111.8 232.353C1110.74 232.353 1109.93 231.57 1109.91 230.447H1114.63C1114.65 230.369 1114.66 230.212 1114.66 230.056C1114.66 228.098 1113.58 226.766 1111.64 226.766C1110.07 226.766 1108.64 228.111 1108.64 230.082C1108.64 232.209 1110.12 233.437 1111.8 233.437C1113.26 233.437 1114.27 232.562 1114.62 231.452L1113.56 231.087ZM1115.64 231.609C1115.74 232.327 1116.47 233.437 1118.2 233.437C1119.75 233.437 1120.49 232.379 1120.49 231.492C1120.49 230.565 1119.89 229.873 1118.76 229.625L1117.74 229.403C1117.26 229.299 1117.02 229.024 1117.02 228.646C1117.02 228.215 1117.44 227.81 1118.07 227.81C1119.06 227.81 1119.32 228.528 1119.37 228.855L1120.46 228.45C1120.33 227.889 1119.79 226.766 1118.07 226.766C1116.84 226.766 1115.83 227.68 1115.83 228.75C1115.83 229.638 1116.42 230.304 1117.4 230.513L1118.47 230.747C1118.99 230.865 1119.28 231.165 1119.28 231.557C1119.28 232.001 1118.9 232.392 1118.21 232.392C1117.32 232.392 1116.83 231.87 1116.75 231.217L1115.64 231.609ZM1121.54 231.609C1121.65 232.327 1122.38 233.437 1124.1 233.437C1125.65 233.437 1126.4 232.379 1126.4 231.492C1126.4 230.565 1125.8 229.873 1124.66 229.625L1123.64 229.403C1123.16 229.299 1122.92 229.024 1122.92 228.646C1122.92 228.215 1123.34 227.81 1123.97 227.81C1124.96 227.81 1125.22 228.528 1125.27 228.855L1126.36 228.45C1126.23 227.889 1125.69 226.766 1123.97 226.766C1122.74 226.766 1121.74 227.68 1121.74 228.75C1121.74 229.638 1122.32 230.304 1123.3 230.513L1124.37 230.747C1124.9 230.865 1125.18 231.165 1125.18 231.557C1125.18 232.001 1124.8 232.392 1124.11 232.392C1123.23 232.392 1122.73 231.87 1122.65 231.217L1121.54 231.609Z" fill="#398EAE"/>
<path d="M1095.92 302.636V298.107H1091.49V299.255H1094.71C1094.65 300.208 1093.91 301.67 1091.85 301.67C1090.19 301.67 1088.62 300.456 1088.62 298.002C1088.62 295.548 1090.24 294.36 1091.9 294.36C1093.33 294.36 1094.42 295.143 1094.84 296.475L1096 295.979C1095.46 294.308 1093.91 293.185 1091.9 293.185C1089.61 293.185 1087.32 294.869 1087.32 298.002C1087.32 301.135 1089.48 302.832 1091.81 302.832C1093.36 302.832 1094.37 302.062 1094.77 301.331L1094.89 302.636H1095.92ZM1098.55 298.851C1098.6 298.041 1099.23 297.245 1100.26 297.245C1101.37 297.245 1101.96 297.95 1101.98 298.851H1098.55ZM1102.17 300.482C1101.93 301.187 1101.42 301.749 1100.4 301.749C1099.35 301.749 1098.54 300.965 1098.51 299.843H1103.24C1103.25 299.764 1103.26 299.608 1103.26 299.451C1103.26 297.493 1102.18 296.162 1100.25 296.162C1098.67 296.162 1097.25 297.506 1097.25 299.477C1097.25 301.605 1098.72 302.832 1100.4 302.832C1101.87 302.832 1102.87 301.957 1103.22 300.848L1102.17 300.482ZM1106.06 299.007C1106.06 298.054 1106.55 297.284 1107.52 297.284C1108.62 297.284 1108.98 297.989 1108.98 298.864V302.636H1110.21V298.655C1110.21 297.258 1109.46 296.175 1107.96 296.175C1107.23 296.175 1106.49 296.475 1106.03 297.258V296.357H1104.83V302.636H1106.06V299.007ZM1112.89 299.477C1112.89 298.185 1113.62 297.271 1114.74 297.271C1115.87 297.271 1116.55 298.159 1116.55 299.451C1116.55 300.743 1115.85 301.722 1114.73 301.722C1113.56 301.722 1112.89 300.77 1112.89 299.477ZM1116.56 301.788C1116.56 302.166 1116.6 302.493 1116.62 302.636H1117.81C1117.8 302.532 1117.75 302.075 1117.75 301.474V293.185H1116.53V297.245C1116.32 296.736 1115.72 296.188 1114.61 296.188C1112.84 296.188 1111.64 297.702 1111.64 299.477C1111.64 301.344 1112.77 302.806 1114.61 302.806C1115.59 302.806 1116.26 302.284 1116.56 301.683V301.788ZM1120.63 298.851C1120.68 298.041 1121.31 297.245 1122.34 297.245C1123.45 297.245 1124.04 297.95 1124.06 298.851H1120.63ZM1124.25 300.482C1124.01 301.187 1123.5 301.749 1122.48 301.749C1121.43 301.749 1120.62 300.965 1120.59 299.843H1125.32C1125.33 299.764 1125.34 299.608 1125.34 299.451C1125.34 297.493 1124.26 296.162 1122.33 296.162C1120.75 296.162 1119.32 297.506 1119.32 299.477C1119.32 301.605 1120.8 302.832 1122.48 302.832C1123.95 302.832 1124.95 301.957 1125.3 300.848L1124.25 300.482ZM1130.39 296.292C1130.33 296.279 1130.16 296.253 1129.99 296.253C1129.35 296.253 1128.57 296.488 1128.11 297.454V296.357H1126.91V302.636H1128.14V299.49C1128.14 298.107 1128.83 297.558 1129.86 297.558C1130.03 297.558 1130.21 297.571 1130.39 297.598V296.292Z" fill="#398EAE"/>
<path d="M1184.79 193.267V192.079H1180.45V189.246H1184.39V188.045H1180.45V185.199H1184.79V184.012H1179.17V193.267H1184.79ZM1187.65 193.267V189.481C1187.65 188.541 1188.23 187.889 1189.11 187.889C1190.05 187.889 1190.44 188.515 1190.44 189.324V193.267H1191.67V189.468C1191.67 188.567 1192.25 187.889 1193.11 187.889C1194.04 187.889 1194.45 188.502 1194.45 189.324V193.267H1195.66V189.194C1195.66 187.549 1194.59 186.805 1193.49 186.805C1192.7 186.805 1191.89 187.092 1191.39 187.993C1191.05 187.184 1190.29 186.805 1189.51 186.805C1188.78 186.805 1188 187.131 1187.61 187.823V186.988H1186.43V193.267H1187.65ZM1197.23 191.583C1197.23 192.575 1198.05 193.462 1199.33 193.462C1200.46 193.462 1201.08 192.862 1201.36 192.418C1201.36 192.875 1201.4 193.11 1201.42 193.267H1202.62C1202.6 193.11 1202.54 192.784 1202.54 192.235V189.089C1202.54 187.862 1201.81 186.792 1199.93 186.792C1198.58 186.792 1197.49 187.627 1197.36 188.828L1198.54 189.102C1198.62 188.371 1199.1 187.836 1199.96 187.836C1200.91 187.836 1201.32 188.345 1201.32 188.959C1201.32 189.181 1201.21 189.377 1200.83 189.429L1199.14 189.677C1198.05 189.833 1197.23 190.46 1197.23 191.583ZM1199.5 192.431C1198.88 192.431 1198.49 191.987 1198.49 191.517C1198.49 190.956 1198.88 190.656 1199.4 190.578L1201.32 190.29V190.578C1201.32 191.948 1200.51 192.431 1199.5 192.431ZM1205.67 193.267V186.988H1204.46V193.267H1205.67ZM1204.18 184.612C1204.18 185.095 1204.57 185.487 1205.06 185.487C1205.55 185.487 1205.94 185.095 1205.94 184.612C1205.94 184.116 1205.55 183.724 1205.06 183.724C1204.57 183.724 1204.18 184.116 1204.18 184.612ZM1208.99 193.267V183.816H1207.76V193.267H1208.99Z" fill="#398EAE"/>
<path d="M1078.71 65.1816H1296.31V108.072H1078.71V65.1816Z" fill="#3D93B4"/>
<path d="M1131 91.4771H1133.63L1128.89 79.0129H1126.07L1121.29 91.4771H1123.86L1124.9 88.6291H1129.96L1131 91.4771ZM1127.43 81.7026L1129.15 86.414H1125.7L1127.43 81.7026ZM1137.39 91.4771V78.7492H1135.05V91.4771H1137.39ZM1145.52 91.4771H1147.75C1147.72 91.1782 1147.66 90.5805 1147.66 89.9124V82.8277H1145.33V87.8556C1145.33 88.8576 1144.73 89.5608 1143.69 89.5608C1142.6 89.5608 1142.11 88.7873 1142.11 87.8204V82.8277H1139.77V88.2951C1139.77 90.1761 1140.97 91.7056 1143.06 91.7056C1143.97 91.7056 1144.97 91.354 1145.45 90.5453C1145.45 90.8969 1145.48 91.3013 1145.52 91.4771ZM1152.5 91.4771V86.414C1152.5 85.4647 1153.09 84.7088 1154.11 84.7088C1155.17 84.7088 1155.64 85.412 1155.64 86.3437V91.4771H1157.96V86.414C1157.96 85.4823 1158.56 84.7088 1159.56 84.7088C1160.64 84.7088 1161.09 85.412 1161.09 86.3437V91.4771H1163.36V85.8691C1163.36 83.5485 1161.83 82.5816 1160.23 82.5816C1159.09 82.5816 1158.18 82.9684 1157.49 84.0232C1157.05 83.0914 1156.1 82.5816 1154.92 82.5816C1153.97 82.5816 1152.87 83.0387 1152.39 83.8825V82.8277H1150.16V91.4771H1152.5ZM1168.07 86.5019C1168.07 85.4999 1168.67 84.7088 1169.69 84.7088C1170.81 84.7088 1171.29 85.4647 1171.29 86.4316V91.4771H1173.62V86.0273C1173.62 84.1286 1172.64 82.5992 1170.49 82.5992C1169.56 82.5992 1168.53 83.0035 1168 83.9001V82.8277H1165.73V91.4771H1168.07V86.5019ZM1178.33 91.4771V82.8277H1176V91.4771H1178.33ZM1175.72 79.9974C1175.72 80.7709 1176.37 81.4213 1177.16 81.4213C1177.97 81.4213 1178.6 80.7709 1178.6 79.9974C1178.6 79.1887 1177.97 78.5382 1177.16 78.5382C1176.37 78.5382 1175.72 79.1887 1175.72 79.9974ZM1193.74 81.9839C1193.46 80.5775 1192.3 78.7492 1189.28 78.7492C1186.92 78.7492 1184.94 80.4369 1184.94 82.6519C1184.94 84.533 1186.22 85.8163 1188.2 86.2207L1189.95 86.5722C1190.91 86.7656 1191.46 87.3282 1191.46 88.049C1191.46 88.928 1190.74 89.5784 1189.44 89.5784C1187.68 89.5784 1186.82 88.4709 1186.71 87.2403L1184.46 87.838C1184.65 89.6136 1186.11 91.7407 1189.42 91.7407C1192.32 91.7407 1193.92 89.807 1193.92 87.8907C1193.92 86.1328 1192.71 84.656 1190.44 84.2165L1188.7 83.8825C1187.78 83.7067 1187.34 83.1617 1187.34 82.4761C1187.34 81.6499 1188.12 80.8939 1189.29 80.8939C1190.88 80.8939 1191.44 81.9663 1191.56 82.6519L1193.74 81.9839ZM1201.23 91.4771H1203.46C1203.43 91.1782 1203.37 90.5805 1203.37 89.9124V82.8277H1201.04V87.8556C1201.04 88.8576 1200.44 89.5608 1199.4 89.5608C1198.31 89.5608 1197.82 88.7873 1197.82 87.8204V82.8277H1195.48V88.2951C1195.48 90.1761 1196.68 91.7056 1198.77 91.7056C1199.68 91.7056 1200.68 91.354 1201.16 90.5453C1201.16 90.8969 1201.19 91.3013 1201.23 91.4771ZM1211.14 82.7926C1210.97 82.775 1210.79 82.7574 1210.6 82.7574C1209.86 82.7574 1208.66 82.9684 1208.14 84.1111V82.8277H1205.87V91.4771H1208.21V87.5216C1208.21 85.6581 1209.24 85.078 1210.44 85.078C1210.65 85.078 1210.88 85.0955 1211.14 85.1483V82.7926ZM1221.2 82.8277H1218.74L1216.68 88.6291L1214.54 82.8277H1211.97L1215.51 91.4771H1217.84L1221.2 82.8277ZM1224.07 86.1679C1224.12 85.3768 1224.79 84.4627 1226.01 84.4627C1227.34 84.4627 1227.9 85.3065 1227.94 86.1679H1224.07ZM1228.17 88.4181C1227.89 89.1917 1227.29 89.7366 1226.2 89.7366C1225.04 89.7366 1224.07 88.9104 1224.02 87.7677H1230.21C1230.21 87.7325 1230.24 87.3809 1230.24 87.0469C1230.24 84.2693 1228.64 82.564 1225.97 82.564C1223.76 82.564 1221.72 84.3572 1221.72 87.1172C1221.72 90.0355 1223.81 91.7407 1226.18 91.7407C1228.31 91.7407 1229.68 90.4926 1230.12 88.9983L1228.17 88.4181ZM1234.95 94.8876L1240.38 82.8277H1237.89L1235.76 87.8907L1233.46 82.8277H1230.84L1234.51 90.3871L1232.47 94.8876H1234.95Z" fill="white"/>
<path d="M1301.99 95.3765C1328.23 95.3765 1349.49 74.11 1349.49 47.8765C1349.49 21.6429 1328.23 0.376465 1301.99 0.376465C1275.76 0.376465 1254.49 21.6429 1254.49 47.8765C1254.49 74.11 1275.76 95.3765 1301.99 95.3765Z" fill="#ECECEC"/>
<path opacity="0.05" d="M1340.87 55.7023L1346.64 31.6807C1342.34 19.8747 1333.55 10.245 1322.19 4.8877L1313.52 51.6695L1281.19 77.9101L1340.87 55.7023Z" fill="black"/>
<path d="M1302 0.376508C1297.67 0.377203 1293.37 0.968866 1289.2 2.13513L1284.95 17.8518L1293.8 19.104L1302.94 22.2437L1311.22 26.3777L1317.8 3.06506C1312.72 1.27839 1307.38 0.369219 1302 0.376508Z" fill="#F38632"/>
<path d="M1290.1 63.2159L1281.2 77.9106L1282.27 60.6562L1284.87 60.7667L1288.05 61.6414L1290.1 63.2159Z" fill="#4E4E4E"/>
<path d="M1290.1 63.215L1288.05 61.6406L1284.87 60.7659L1282.27 60.6554L1284.93 17.8511L1293.79 19.1125L1302.92 22.2521L1311.17 26.3862L1290.1 63.215Z" fill="url(#paint0_linear_2_3042)"/>
<path d="M1289.19 2.14495L1284.93 17.8617L1293.79 19.1138L1299.18 0.469238C1295.8 0.669159 1292.45 1.23094 1289.19 2.14495Z" fill="#F6A259"/>
<g style="mix-blend-mode:multiply" opacity="0.2">
<path d="M1317.74 3.0652C1315 2.0916 1312.18 1.37345 1309.31 0.919922L1302.92 22.2254L1281.19 77.9106L1290.08 63.1791L1311.15 26.3502L1317.74 3.0652Z" fill="#1A1A1A"/>
</g>
<path opacity="0.15" d="M1281.2 77.6887L1293.79 19.1125L1284.93 17.8511L1281.2 77.6887Z" fill="white"/>
<path d="M639.282 335.711L635.455 350.697L681.587 330.373L639.282 335.711Z" fill="#C3CBD1"/>
<path d="M681.729 330.717L658.201 357.065L644.357 340.726L681.729 330.717Z" fill="#E7E8EC"/>
<path d="M639.282 335.712L626.816 325.655L681.587 330.373L639.282 335.712Z" fill="#E7E8EC"/>
<path d="M649.667 346.71L635.455 350.697L644.448 340.712L649.667 346.71Z" fill="#ACB4BC"/>
<ellipse rx="47.761" ry="47.9505" transform="matrix(1 0 0 -1 198.761 51.9504)" fill="#ECECEC"/>
<path d="M175.342 82.4175L184.389 76.2282C186.782 77.7014 189.379 78.812 192.095 79.524L194.006 90.1231H203.531L205.442 79.1836C208.173 78.5061 210.8 77.4654 213.256 76.0889L222.241 82.2782L228.961 75.5319L222.796 66.511C224.248 64.0618 225.353 61.4214 226.079 58.6661L236.775 56.7474V47.1231L226.094 45.2199C225.37 42.4616 224.259 39.8203 222.796 37.375L228.961 28.3696L222.241 21.6232L213.256 27.9518C210.779 26.7035 208.201 25.6682 205.55 24.8571L203.593 13.7783H194.13L192.08 24.7798C189.407 25.4397 186.843 26.4819 184.466 27.8744L175.481 21.6851L168.761 28.0137L174.926 37.6535C173.466 40.0365 172.423 42.6533 171.844 45.3901L160.747 47.3088V56.9331L171.644 58.9137C172.351 61.5996 173.43 64.1726 174.849 66.5574L168.761 75.5009L175.342 82.4175Z" fill="#D85528"/>
<path d="M192.759 58.4498C193.527 59.2644 194.458 59.9062 195.492 60.3329C196.525 60.7597 197.637 60.9616 198.754 60.9255C199.823 60.9702 200.891 60.7971 201.892 60.4169C202.893 60.0366 203.807 59.457 204.58 58.7129C205.447 57.7718 206.09 56.6447 206.46 55.4171L215.507 57.1346L218.373 57.7535C218.373 57.9701 217.557 60.1673 217.557 60.1673C216.398 62.8377 214.745 65.2634 212.686 67.316C210.839 69.038 208.67 70.3758 206.306 71.2522C203.941 72.1286 201.427 72.5262 198.908 72.4221C193.654 72.501 188.583 70.4904 184.8 66.8292C181.018 63.1679 178.831 58.1532 178.718 52.8795C178.703 52.6012 178.703 52.3222 178.718 52.0439C178.657 49.3156 179.161 46.6043 180.198 44.0818C181.235 41.5594 182.784 39.2809 184.744 37.3908C186.651 35.4418 188.939 33.9093 191.464 32.8895C193.989 31.8698 196.696 31.3846 199.417 31.4645C202.075 31.3848 204.72 31.8718 207.177 32.8933C209.635 33.9148 211.848 35.4476 213.673 37.3908C215.313 39.0915 216.639 41.0721 217.587 43.2397C218.099 44.3322 218.467 45.4869 218.682 46.6747L206.953 48.8564C206.474 47.1219 205.414 45.6064 203.951 44.5661C202.488 43.5258 200.712 43.0244 198.923 43.1468C197.786 43.1011 196.652 43.3043 195.601 43.7425C194.55 44.1807 193.606 44.8434 192.836 45.6844C192.034 46.5437 191.41 47.5531 190.997 48.6549C190.584 49.7567 190.392 50.9294 190.431 52.1058C190.354 54.4442 191.189 56.7206 192.759 58.4498Z" fill="white"/>
<path d="M929.188 330.29C843.608 259.849 759.371 267.174 689.418 325.041M286.545 342.255C375.177 409.278 534.495 412.941 627.156 355.44" stroke="#C3CBD1" stroke-width="2" stroke-linecap="round" stroke-dasharray="7 7"/>
<g filter="url(#filter0_d_2_3042)">
<rect x="886.484" y="236.951" width="288.586" height="186.13" fill="white"/>
<g filter="url(#filter1_d_2_3042)">
<rect x="899.997" y="256.924" width="77.8159" height="80.2184" rx="2.53145" fill="#F1F2F6" stroke="#006FF9" stroke-width="0.723271"/>
<rect x="908.037" y="280.809" width="61.7355" height="33.1611" rx="1.08491" fill="white"/>
<path d="M969.755 277.599H908.037V281.521H969.772V277.599H969.755Z" fill="#DEDFE0"/>
<path d="M911.981 281.02C912.725 281.02 913.368 280.426 913.368 279.667C913.368 278.94 912.759 278.313 911.981 278.313C911.237 278.313 910.594 278.907 910.594 279.667C910.628 280.426 911.237 281.02 911.981 281.02Z" fill="#FA5640"/>
<path d="M916.209 281.02C916.953 281.02 917.596 280.426 917.596 279.667C917.596 278.94 916.987 278.313 916.209 278.313C915.465 278.313 914.822 278.907 914.822 279.667C914.822 280.426 915.431 281.02 916.209 281.02Z" fill="#FAC555"/>
<path d="M920.403 281.02C921.147 281.02 921.789 280.426 921.789 279.667C921.789 278.94 921.181 278.313 920.403 278.313C919.659 278.313 919.016 278.907 919.016 279.667C919.05 280.426 919.659 281.02 920.403 281.02Z" fill="#6DCF6F"/>
<rect x="915.708" y="294.715" width="23.7272" height="3.20914" rx="1.08491" fill="#BEC6D3"/>
<rect x="915.708" y="306.838" width="49.3153" height="3.20914" rx="1.08491" fill="#BEC6D3"/>
<rect x="915.708" y="300.777" width="23.7272" height="3.20914" rx="1.08491" fill="#9DA8B7"/>
</g>
<ellipse cx="918.996" cy="287.94" rx="3.65299" ry="3.56571" fill="#88A4DC"/>
<ellipse cx="952.969" cy="296.141" rx="8.76717" ry="8.55771" fill="#F2EFEF"/>
<path d="M952.585 301.415C952.797 301.626 953.141 301.626 953.353 301.415L956.805 297.962C957.017 297.751 957.017 297.407 956.805 297.195C956.593 296.983 956.249 296.983 956.038 297.195L952.969 300.264L949.9 297.195C949.689 296.983 949.345 296.983 949.133 297.195C948.921 297.407 948.921 297.751 949.133 297.962L952.585 301.415ZM952.427 291.251L952.427 301.031L953.511 301.031L953.511 291.251L952.427 291.251Z" fill="#4994F7"/>
<path d="M909.408 349.069V346.698H911.81V345.967H909.408V344.153H912.057V343.429H908.628V349.069H909.408ZM914.853 345.203C914.813 345.195 914.71 345.179 914.606 345.179C914.216 345.179 913.739 345.322 913.46 345.911V345.243H912.728V349.069H913.476V347.152C913.476 346.309 913.898 345.974 914.527 345.974C914.63 345.974 914.741 345.982 914.853 345.998V345.203ZM917.25 348.52C916.613 348.52 916.056 348.043 916.056 347.152C916.056 346.269 916.613 345.791 917.25 345.791C917.886 345.791 918.443 346.269 918.443 347.152C918.443 348.043 917.886 348.52 917.25 348.52ZM917.25 345.123C916.104 345.123 915.293 345.99 915.293 347.152C915.293 348.321 916.104 349.189 917.25 349.189C918.396 349.189 919.207 348.321 919.207 347.152C919.207 345.99 918.396 345.123 917.25 345.123ZM920.904 349.069V346.762C920.904 346.189 921.262 345.791 921.795 345.791C922.368 345.791 922.606 346.173 922.606 346.667V349.069H923.354V346.754C923.354 346.205 923.712 345.791 924.237 345.791C924.802 345.791 925.049 346.165 925.049 346.667V349.069H925.789V346.587C925.789 345.585 925.136 345.131 924.468 345.131C923.983 345.131 923.489 345.306 923.187 345.855C922.98 345.362 922.519 345.131 922.041 345.131C921.596 345.131 921.119 345.33 920.88 345.752V345.243H920.164V349.069H920.904ZM928.736 348.043C928.736 348.648 929.237 349.189 930.017 349.189C930.701 349.189 931.083 348.823 931.25 348.552C931.25 348.831 931.274 348.974 931.29 349.069H932.022C932.006 348.974 931.974 348.775 931.974 348.441V346.523C931.974 345.776 931.528 345.123 930.383 345.123C929.555 345.123 928.895 345.632 928.815 346.364L929.531 346.531C929.579 346.086 929.874 345.76 930.399 345.76C930.979 345.76 931.226 346.07 931.226 346.444C931.226 346.579 931.162 346.698 930.932 346.73L929.897 346.881C929.237 346.977 928.736 347.359 928.736 348.043ZM930.12 348.56C929.738 348.56 929.5 348.29 929.5 348.003C929.5 347.661 929.738 347.478 930.057 347.43L931.226 347.255V347.43C931.226 348.266 930.733 348.56 930.12 348.56ZM937.284 345.243L936.29 348.123L935.43 345.243H934.611L935.868 349.069H936.656L937.65 346.157L938.668 349.069H939.44L940.681 345.243H939.894L939.05 348.123L938.056 345.243H937.284ZM941.844 346.762C941.876 346.269 942.258 345.784 942.887 345.784C943.563 345.784 943.921 346.213 943.937 346.762H941.844ZM944.048 347.757C943.905 348.186 943.595 348.528 942.974 348.528C942.33 348.528 941.836 348.051 941.821 347.367H944.701C944.709 347.319 944.717 347.224 944.717 347.128C944.717 345.935 944.056 345.123 942.879 345.123C941.916 345.123 941.049 345.943 941.049 347.144C941.049 348.441 941.948 349.189 942.974 349.189C943.865 349.189 944.478 348.656 944.693 347.979L944.048 347.757ZM946.411 349.069V348.512C946.65 348.926 947.087 349.173 947.652 349.173C948.79 349.173 949.434 348.274 949.434 347.136C949.434 346.022 948.838 345.131 947.676 345.131C947.04 345.131 946.594 345.441 946.411 345.784V343.309H945.671V349.069H946.411ZM948.671 347.136C948.671 347.963 948.225 348.504 947.541 348.504C946.88 348.504 946.403 347.963 946.403 347.136C946.403 346.309 946.88 345.791 947.541 345.791C948.233 345.791 948.671 346.309 948.671 347.136ZM953.116 350.581V348.552C953.323 348.894 953.769 349.173 954.357 349.173C955.479 349.173 956.139 348.29 956.139 347.152C956.139 346.038 955.527 345.155 954.381 345.155C953.761 345.155 953.307 345.457 953.1 345.839V345.243H952.376V350.581H953.116ZM955.376 347.152C955.376 347.94 954.938 348.504 954.246 348.504C953.562 348.504 953.108 347.94 953.108 347.152C953.108 346.388 953.562 345.815 954.246 345.815C954.946 345.815 955.376 346.388 955.376 347.152ZM956.854 348.043C956.854 348.648 957.355 349.189 958.135 349.189C958.819 349.189 959.201 348.823 959.368 348.552C959.368 348.831 959.392 348.974 959.408 349.069H960.14C960.124 348.974 960.092 348.775 960.092 348.441V346.523C960.092 345.776 959.646 345.123 958.501 345.123C957.673 345.123 957.013 345.632 956.933 346.364L957.649 346.531C957.697 346.086 957.991 345.76 958.516 345.76C959.097 345.76 959.344 346.07 959.344 346.444C959.344 346.579 959.28 346.698 959.05 346.73L958.015 346.881C957.355 346.977 956.854 347.359 956.854 348.043ZM958.238 348.56C957.856 348.56 957.617 348.29 957.617 348.003C957.617 347.661 957.856 347.478 958.174 347.43L959.344 347.255V347.43C959.344 348.266 958.851 348.56 958.238 348.56ZM960.978 349.276C961.074 350.096 961.79 350.7 962.745 350.7C964.185 350.7 964.662 349.754 964.662 348.783V345.243H963.922V345.776C963.731 345.394 963.333 345.171 962.745 345.171C961.694 345.171 960.986 345.998 960.986 347.033C960.986 348.115 961.726 348.886 962.745 348.886C963.317 348.886 963.731 348.608 963.914 348.258V348.807C963.914 349.634 963.548 350.048 962.745 350.048C962.164 350.048 961.758 349.642 961.702 349.109L960.978 349.276ZM962.856 348.258C962.18 348.258 961.75 347.78 961.75 347.033C961.75 346.293 962.196 345.807 962.856 345.807C963.5 345.807 963.946 346.293 963.946 347.033C963.946 347.773 963.5 348.258 962.856 348.258ZM966.342 346.762C966.374 346.269 966.755 345.784 967.384 345.784C968.06 345.784 968.418 346.213 968.434 346.762H966.342ZM968.545 347.757C968.402 348.186 968.092 348.528 967.471 348.528C966.827 348.528 966.334 348.051 966.318 347.367H969.198C969.206 347.319 969.214 347.224 969.214 347.128C969.214 345.935 968.553 345.123 967.376 345.123C966.413 345.123 965.546 345.943 965.546 347.144C965.546 348.441 966.445 349.189 967.471 349.189C968.363 349.189 968.975 348.656 969.19 347.979L968.545 347.757Z" fill="#1074ED"/>
<path d="M911.787 378.355V377.548H908.832V375.622H911.512V374.806H908.832V372.872H911.787V372.064H907.962V378.355H911.787ZM913.733 375.889C913.733 375.241 914.071 374.717 914.727 374.717C915.473 374.717 915.721 375.196 915.721 375.791V378.355H916.555V375.649C916.555 374.7 916.049 373.963 915.029 373.963C914.532 373.963 914.026 374.167 913.716 374.7V374.087H912.899V378.355H913.733V375.889ZM919 372.739H918.237V373.431C918.237 373.803 918.041 374.087 917.58 374.087H917.349V374.842H918.166V377.184C918.166 377.956 918.627 378.4 919.355 378.4C919.639 378.4 919.852 378.346 919.923 378.32V377.61C919.852 377.628 919.701 377.645 919.594 377.645C919.159 377.645 919 377.45 919 377.06V374.842H919.923V374.087H919V372.739ZM921.534 375.782C921.569 375.232 921.995 374.691 922.696 374.691C923.45 374.691 923.85 375.17 923.867 375.782H921.534ZM923.992 376.891C923.832 377.37 923.486 377.752 922.794 377.752C922.075 377.752 921.525 377.219 921.507 376.456H924.719C924.728 376.403 924.737 376.297 924.737 376.19C924.737 374.859 924 373.954 922.687 373.954C921.614 373.954 920.646 374.868 920.646 376.208C920.646 377.654 921.649 378.488 922.794 378.488C923.787 378.488 924.471 377.894 924.71 377.14L923.992 376.891ZM928.171 374.043C928.126 374.034 928.011 374.016 927.896 374.016C927.461 374.016 926.928 374.176 926.618 374.833V374.087H925.802V378.355H926.636V376.217C926.636 375.276 927.106 374.904 927.807 374.904C927.922 374.904 928.046 374.913 928.171 374.93V374.043ZM933.54 378.488C934.818 378.488 935.803 377.69 935.803 376.208V372.064H934.933V376.181C934.933 377.14 934.428 377.681 933.54 377.681C932.662 377.681 932.138 377.14 932.138 376.181V372.064H931.278V376.208C931.278 377.69 932.263 378.488 933.54 378.488ZM940.567 378.355H941.579L940.079 375.72C941.028 375.543 941.605 374.842 941.605 373.937C941.605 372.898 940.869 372.064 939.68 372.064H937.311V378.355H938.189V375.782H939.13L940.567 378.355ZM938.189 375.001V372.845H939.52C940.23 372.845 940.709 373.271 940.709 373.937C940.709 374.584 940.23 375.001 939.52 375.001H938.189ZM946.646 378.355V377.539H943.674V372.064H942.804V378.355H946.646Z" fill="black"/>
<path d="M899.302 357.108V352.697H898.68V357.108H899.302ZM900.94 357.108V355.304C900.94 354.856 901.22 354.545 901.637 354.545C902.085 354.545 902.272 354.843 902.272 355.229V357.108H902.856V355.298C902.856 354.868 903.136 354.545 903.547 354.545C903.989 354.545 904.182 354.837 904.182 355.229V357.108H904.76V355.167C904.76 354.383 904.25 354.028 903.727 354.028C903.348 354.028 902.962 354.165 902.726 354.595C902.564 354.209 902.203 354.028 901.83 354.028C901.481 354.028 901.108 354.184 900.922 354.514V354.115H900.362V357.108H900.94ZM906.274 358.29V356.704C906.436 356.971 906.785 357.189 907.245 357.189C908.122 357.189 908.639 356.498 908.639 355.609C908.639 354.738 908.16 354.047 907.264 354.047C906.778 354.047 906.424 354.283 906.262 354.582V354.115H905.696V358.29H906.274ZM908.041 355.609C908.041 356.224 907.699 356.666 907.158 356.666C906.623 356.666 906.268 356.224 906.268 355.609C906.268 355.011 906.623 354.563 907.158 354.563C907.705 354.563 908.041 355.011 908.041 355.609ZM910.665 356.679C910.168 356.679 909.732 356.305 909.732 355.609C909.732 354.918 910.168 354.545 910.665 354.545C911.163 354.545 911.599 354.918 911.599 355.609C911.599 356.305 911.163 356.679 910.665 356.679ZM910.665 354.022C909.769 354.022 909.135 354.7 909.135 355.609C909.135 356.523 909.769 357.201 910.665 357.201C911.561 357.201 912.196 356.523 912.196 355.609C912.196 354.7 911.561 354.022 910.665 354.022ZM914.605 354.084C914.574 354.078 914.493 354.066 914.412 354.066C914.107 354.066 913.734 354.178 913.516 354.638V354.115H912.944V357.108H913.529V355.609C913.529 354.949 913.859 354.688 914.35 354.688C914.431 354.688 914.518 354.694 914.605 354.706V354.084ZM916.17 353.17H915.635V353.655C915.635 353.916 915.498 354.115 915.175 354.115H915.013V354.644H915.585V356.287C915.585 356.828 915.909 357.139 916.419 357.139C916.618 357.139 916.767 357.102 916.817 357.083V356.585C916.767 356.598 916.662 356.61 916.587 356.61C916.282 356.61 916.17 356.473 916.17 356.2V354.644H916.817V354.115H916.17V353.17ZM918.966 356.305C918.966 356.778 919.358 357.201 919.968 357.201C920.503 357.201 920.802 356.915 920.932 356.704C920.932 356.921 920.951 357.033 920.964 357.108H921.536C921.523 357.033 921.499 356.878 921.499 356.616V355.117C921.499 354.532 921.15 354.022 920.254 354.022C919.607 354.022 919.091 354.42 919.029 354.993L919.589 355.123C919.626 354.775 919.856 354.52 920.267 354.52C920.721 354.52 920.914 354.762 920.914 355.055C920.914 355.161 920.864 355.254 920.684 355.279L919.875 355.397C919.358 355.472 918.966 355.77 918.966 356.305ZM920.049 356.71C919.75 356.71 919.564 356.498 919.564 356.274C919.564 356.007 919.75 355.864 919.999 355.826L920.914 355.689V355.826C920.914 356.48 920.528 356.71 920.049 356.71ZM925.47 354.644V354.115H924.749V353.643C924.749 353.232 925.016 353.132 925.222 353.132C925.371 353.132 925.446 353.157 925.477 353.17V352.647C925.452 352.629 925.327 352.585 925.128 352.585C924.587 352.585 924.145 352.946 924.145 353.612V354.115H923.592V354.644H924.145V357.108H924.749V354.644H925.47ZM927.258 356.679C926.76 356.679 926.324 356.305 926.324 355.609C926.324 354.918 926.76 354.545 927.258 354.545C927.755 354.545 928.191 354.918 928.191 355.609C928.191 356.305 927.755 356.679 927.258 356.679ZM927.258 354.022C926.362 354.022 925.727 354.7 925.727 355.609C925.727 356.523 926.362 357.201 927.258 357.201C928.153 357.201 928.788 356.523 928.788 355.609C928.788 354.7 928.153 354.022 927.258 354.022ZM931.197 354.084C931.166 354.078 931.085 354.066 931.004 354.066C930.7 354.066 930.326 354.178 930.109 354.638V354.115H929.536V357.108H930.121V355.609C930.121 354.949 930.451 354.688 930.942 354.688C931.023 354.688 931.11 354.694 931.197 354.706V354.084ZM932.399 357.108V355.304C932.399 354.856 932.679 354.545 933.096 354.545C933.544 354.545 933.73 354.843 933.73 355.229V357.108H934.315V355.298C934.315 354.868 934.595 354.545 935.006 354.545C935.448 354.545 935.64 354.837 935.64 355.229V357.108H936.219V355.167C936.219 354.383 935.709 354.028 935.186 354.028C934.807 354.028 934.421 354.165 934.185 354.595C934.023 354.209 933.662 354.028 933.289 354.028C932.94 354.028 932.567 354.184 932.38 354.514V354.115H931.821V357.108H932.399ZM940.216 354.644V354.115H939.494V353.643C939.494 353.232 939.762 353.132 939.967 353.132C940.116 353.132 940.191 353.157 940.222 353.17V352.647C940.197 352.629 940.073 352.585 939.874 352.585C939.332 352.585 938.891 352.946 938.891 353.612V354.115H938.337V354.644H938.891V357.108H939.494V354.644H940.216ZM942.504 354.084C942.473 354.078 942.392 354.066 942.311 354.066C942.006 354.066 941.633 354.178 941.415 354.638V354.115H940.843V357.108H941.427V355.609C941.427 354.949 941.757 354.688 942.249 354.688C942.33 354.688 942.417 354.694 942.504 354.706V354.084ZM944.378 356.679C943.881 356.679 943.445 356.305 943.445 355.609C943.445 354.918 943.881 354.545 944.378 354.545C944.876 354.545 945.311 354.918 945.311 355.609C945.311 356.305 944.876 356.679 944.378 356.679ZM944.378 354.022C943.482 354.022 942.848 354.7 942.848 355.609C942.848 356.523 943.482 357.201 944.378 357.201C945.274 357.201 945.909 356.523 945.909 355.609C945.909 354.7 945.274 354.022 944.378 354.022ZM947.235 357.108V355.304C947.235 354.856 947.515 354.545 947.932 354.545C948.38 354.545 948.567 354.843 948.567 355.229V357.108H949.152V355.298C949.152 354.868 949.432 354.545 949.842 354.545C950.284 354.545 950.477 354.837 950.477 355.229V357.108H951.055V355.167C951.055 354.383 950.545 354.028 950.023 354.028C949.643 354.028 949.257 354.165 949.021 354.595C948.859 354.209 948.498 354.028 948.125 354.028C947.777 354.028 947.403 354.184 947.217 354.514V354.115H946.657V357.108H947.235ZM953.36 356.305C953.36 356.778 953.752 357.201 954.362 357.201C954.897 357.201 955.195 356.915 955.326 356.704C955.326 356.921 955.344 357.033 955.357 357.108H955.929C955.917 357.033 955.892 356.878 955.892 356.616V355.117C955.892 354.532 955.544 354.022 954.648 354.022C954.001 354.022 953.484 354.42 953.422 354.993L953.982 355.123C954.019 354.775 954.25 354.52 954.66 354.52C955.114 354.52 955.307 354.762 955.307 355.055C955.307 355.161 955.257 355.254 955.077 355.279L954.268 355.397C953.752 355.472 953.36 355.77 953.36 356.305ZM954.442 356.71C954.144 356.71 953.957 356.498 953.957 356.274C953.957 356.007 954.144 355.864 954.393 355.826L955.307 355.689V355.826C955.307 356.48 954.921 356.71 954.442 356.71ZM957.388 355.378C957.388 354.924 957.624 354.557 958.085 354.557C958.607 354.557 958.781 354.893 958.781 355.31V357.108H959.366V355.21C959.366 354.545 959.012 354.028 958.296 354.028C957.948 354.028 957.593 354.171 957.375 354.545V354.115H956.803V357.108H957.388V355.378ZM961.043 358.358L962.99 354.115H962.362L961.466 356.181L960.533 354.115H959.861L961.149 356.778L960.402 358.358H961.043ZM965.687 358.29V356.704C965.849 356.971 966.197 357.189 966.657 357.189C967.534 357.189 968.051 356.498 968.051 355.609C968.051 354.738 967.572 354.047 966.676 354.047C966.191 354.047 965.836 354.283 965.674 354.582V354.115H965.108V358.29H965.687ZM967.454 355.609C967.454 356.224 967.111 356.666 966.57 356.666C966.035 356.666 965.681 356.224 965.681 355.609C965.681 355.011 966.035 354.563 966.57 354.563C967.118 354.563 967.454 355.011 967.454 355.609ZM968.609 356.305C968.609 356.778 969.001 357.201 969.611 357.201C970.146 357.201 970.445 356.915 970.575 356.704C970.575 356.921 970.594 357.033 970.606 357.108H971.179C971.166 357.033 971.141 356.878 971.141 356.616V355.117C971.141 354.532 970.793 354.022 969.897 354.022C969.25 354.022 968.734 354.42 968.672 354.993L969.232 355.123C969.269 354.775 969.499 354.52 969.91 354.52C970.364 354.52 970.557 354.762 970.557 355.055C970.557 355.161 970.507 355.254 970.326 355.279L969.518 355.397C969.001 355.472 968.609 355.77 968.609 356.305ZM969.692 356.71C969.393 356.71 969.207 356.498 969.207 356.274C969.207 356.007 969.393 355.864 969.642 355.826L970.557 355.689V355.826C970.557 356.48 970.171 356.71 969.692 356.71ZM971.835 357.27C971.909 357.91 972.469 358.383 973.216 358.383C974.342 358.383 974.715 357.643 974.715 356.884V354.115H974.137V354.532C973.987 354.234 973.676 354.059 973.216 354.059C972.395 354.059 971.841 354.706 971.841 355.515C971.841 356.361 972.42 356.965 973.216 356.965C973.664 356.965 973.987 356.747 974.13 356.473V356.903C974.13 357.55 973.844 357.873 973.216 357.873C972.762 357.873 972.444 357.556 972.401 357.139L971.835 357.27ZM973.303 356.473C972.774 356.473 972.438 356.1 972.438 355.515C972.438 354.937 972.787 354.557 973.303 354.557C973.807 354.557 974.155 354.937 974.155 355.515C974.155 356.094 973.807 356.473 973.303 356.473ZM976.029 355.304C976.054 354.918 976.352 354.539 976.844 354.539C977.372 354.539 977.652 354.874 977.665 355.304H976.029ZM977.752 356.081C977.64 356.417 977.397 356.685 976.912 356.685C976.408 356.685 976.022 356.312 976.01 355.777H978.262C978.268 355.739 978.275 355.665 978.275 355.59C978.275 354.657 977.758 354.022 976.837 354.022C976.085 354.022 975.407 354.663 975.407 355.602C975.407 356.616 976.11 357.201 976.912 357.201C977.609 357.201 978.088 356.784 978.256 356.256L977.752 356.081ZM978.868 356.71C978.868 356.952 979.054 357.139 979.297 357.139C979.54 357.139 979.732 356.952 979.732 356.71C979.732 356.467 979.54 356.274 979.297 356.274C979.054 356.274 978.868 356.467 978.868 356.71Z" fill="#1074ED"/>
<g opacity="0.75">
<rect x="989.864" y="256.563" width="78.5392" height="80.9417" rx="2.89308" fill="#F1F2F6"/>
<rect x="1004.11" y="267.972" width="43.8358" height="52.0594" rx="1.08491" fill="#DEE4EC"/>
<rect x="1007.03" y="270.468" width="37.991" height="12.1234" rx="1.80818" fill="#88A4DC"/>
<rect x="1007.03" y="285.444" width="18.6302" height="3.20914" rx="1.08491" fill="#BEC6D3"/>
<rect x="1007.03" y="298.637" width="17.8996" height="3.20914" rx="1.08491" fill="#BEC6D3"/>
<rect x="1007.03" y="290.792" width="37.2604" height="3.20914" rx="1.08491" fill="#9DA8B7"/>
<rect x="1007.03" y="304.698" width="37.2604" height="3.20914" rx="1.08491" fill="#9DA8B7"/>
<rect x="1010.69" y="274.391" width="43.8358" height="52.0594" rx="1.08491" fill="white"/>
<rect x="1013.61" y="276.886" width="37.991" height="12.1234" rx="1.80818" fill="#88A4DC"/>
<rect x="1013.61" y="291.862" width="18.6302" height="3.20914" rx="1.08491" fill="#BEC6D3"/>
<rect x="1013.61" y="305.055" width="17.8996" height="3.20914" rx="1.08491" fill="#BEC6D3"/>
<rect x="1013.61" y="297.211" width="37.2604" height="3.20914" rx="1.08491" fill="#9DA8B7"/>
<rect x="1013.61" y="311.117" width="37.2604" height="3.20914" rx="1.08491" fill="#9DA8B7"/>
<rect x="1080.09" y="256.562" width="78.5392" height="80.9417" rx="2.89308" fill="#F1F2F6"/>
<rect x="1097.63" y="271.182" width="43.8358" height="52.0594" rx="1.08491" fill="white"/>
<path fill-rule="evenodd" clip-rule="evenodd" d="M1097.63 287.941H1121.76C1122.75 287.941 1123.56 287.131 1123.56 286.133V277.626C1123.56 276.627 1122.75 275.817 1121.76 275.817H1097.63V287.941Z" fill="#EB4551"/>
<path d="M1103.01 282.05V279.812H1104.32C1105.1 279.812 1105.58 280.254 1105.58 280.944C1105.58 281.617 1105.1 282.05 1104.32 282.05H1103.01ZM1104.48 282.86C1105.69 282.86 1106.5 282.04 1106.5 280.935C1106.5 279.839 1105.69 279.001 1104.48 279.001H1102.11V285.531H1103.01V282.86H1104.48ZM1108.51 284.73V279.803H1109.86C1111.07 279.803 1112.06 280.631 1112.06 282.28C1112.06 283.919 1111.05 284.73 1109.84 284.73H1108.51ZM1109.87 285.531C1111.53 285.531 1112.99 284.416 1112.99 282.28C1112.99 280.134 1111.55 279.001 1109.89 279.001H1107.6V285.531H1109.87ZM1115.13 285.531V282.786H1117.92V281.939H1115.13V279.839H1118.2V279.001H1114.23V285.531H1115.13Z" fill="white"/>
<rect x="1100.55" y="292.219" width="18.6302" height="3.20914" rx="1.08491" fill="#D5DEE9"/>
<rect x="1100.55" y="307.195" width="17.8996" height="3.20914" rx="1.08491" fill="#D5DEE9"/>
<rect x="1100.55" y="297.568" width="37.2604" height="3.20914" rx="1.08491" fill="#D5DEE9"/>
<rect x="1100.55" y="312.9" width="37.2604" height="3.20914" rx="1.08491" fill="#D5DEE9"/>
<g opacity="0.5">
<rect x="1005.67" y="343.473" width="46.5387" height="5.70514" fill="#A8AABB"/>
</g>
<g opacity="0.5">
<rect x="1094.93" y="343.473" width="47.0209" height="5.70514" fill="#A8AABB"/>
</g>
</g>
<rect x="905.033" y="383.779" width="253.035" height="24.4356" rx="2.25442" stroke="#E5E5E5" stroke-width="1.12721"/>
<path d="M913.831 396.522C913.868 395.852 914.277 395.331 914.972 395.331C915.765 395.331 916.1 395.864 916.1 396.546V400.105H917.749V396.261C917.749 394.922 917.03 393.843 915.48 393.843C914.897 393.843 914.228 394.042 913.831 394.513V391.128H912.182V400.105H913.831V396.522ZM921.456 392.182H919.968V393.037C919.968 393.583 919.671 394.005 919.026 394.005H918.716V395.468H919.82V398.307C919.82 399.485 920.564 400.192 921.754 400.192C922.238 400.192 922.535 400.105 922.684 400.043V398.679C922.597 398.704 922.374 398.729 922.176 398.729C921.704 398.729 921.456 398.555 921.456 398.022V395.468H922.684V394.005H921.456V392.182ZM926.082 392.182H924.594V393.037C924.594 393.583 924.296 394.005 923.652 394.005H923.342V395.468H924.445V398.307C924.445 399.485 925.189 400.192 926.379 400.192C926.863 400.192 927.161 400.105 927.309 400.043V398.679C927.223 398.704 926.999 398.729 926.801 398.729C926.33 398.729 926.082 398.555 926.082 398.022V395.468H927.309V394.005H926.082V392.182ZM930.275 402.461V399.51C930.572 399.919 931.192 400.254 932.035 400.254C933.759 400.254 934.912 398.89 934.912 397.042C934.912 395.232 933.883 393.868 932.097 393.868C931.18 393.868 930.498 394.277 930.225 394.748V394.005H928.626V402.461H930.275ZM933.288 397.055C933.288 398.146 932.618 398.778 931.775 398.778C930.932 398.778 930.25 398.133 930.25 397.055C930.25 395.976 930.932 395.344 931.775 395.344C932.618 395.344 933.288 395.976 933.288 397.055ZM935.697 398.406C935.771 399.101 936.404 400.291 938.239 400.291C939.838 400.291 940.607 399.274 940.607 398.282C940.607 397.39 939.999 396.658 938.797 396.41L937.929 396.224C937.594 396.162 937.371 395.976 937.371 395.678C937.371 395.331 937.718 395.071 938.152 395.071C938.846 395.071 939.107 395.53 939.156 395.889L940.533 395.579C940.458 394.922 939.875 393.819 938.14 393.819C936.825 393.819 935.858 394.724 935.858 395.815C935.858 396.67 936.391 397.377 937.569 397.638L938.375 397.824C938.846 397.923 939.032 398.146 939.032 398.419C939.032 398.741 938.772 399.026 938.226 399.026C937.507 399.026 937.148 398.58 937.11 398.096L935.697 398.406ZM941.883 399.088C941.883 399.696 942.379 400.192 942.987 400.192C943.607 400.192 944.115 399.696 944.115 399.088C944.115 398.468 943.607 397.972 942.987 397.972C942.379 397.972 941.883 398.468 941.883 399.088ZM941.871 395.034C941.871 395.641 942.367 396.137 942.975 396.137C943.595 396.137 944.103 395.641 944.103 395.034C944.103 394.414 943.595 393.918 942.975 393.918C942.367 393.918 941.871 394.414 941.871 395.034ZM950.805 391.202H949.305L944.915 400.217H946.403L950.805 391.202ZM956 391.202H954.499L950.11 400.217H951.598L956 391.202ZM960.008 394.005L958.681 397.923L957.553 394.005H955.817L957.763 400.105H959.437L960.838 395.939L962.264 400.105H963.913L965.823 394.005H964.186L963.058 397.935L961.744 394.005H960.008ZM970.312 394.005L968.985 397.923L967.857 394.005H966.121L968.068 400.105H969.742L971.143 395.939L972.569 400.105H974.218L976.127 394.005H974.491L973.362 397.935L972.048 394.005H970.312ZM980.617 394.005L979.29 397.923L978.162 394.005H976.426L978.372 400.105H980.046L981.447 395.939L982.873 400.105H984.522L986.432 394.005H984.795L983.667 397.935L982.353 394.005H980.617ZM986.806 399.063C986.806 399.683 987.314 400.192 987.934 400.192C988.567 400.192 989.075 399.683 989.075 399.063C989.075 398.443 988.567 397.935 987.934 397.935C987.314 397.935 986.806 398.443 986.806 399.063ZM990.299 398.443C990.299 399.398 991.092 400.279 992.394 400.279C993.299 400.279 993.882 399.857 994.192 399.373C994.192 399.609 994.217 399.944 994.254 400.105H995.767C995.73 399.894 995.692 399.46 995.692 399.138V396.137C995.692 394.91 994.973 393.819 993.039 393.819C991.402 393.819 990.522 394.872 990.423 395.827L991.886 396.137C991.935 395.604 992.332 395.145 993.051 395.145C993.746 395.145 994.08 395.505 994.08 395.939C994.08 396.15 993.969 396.323 993.622 396.373L992.121 396.596C991.105 396.745 990.299 397.352 990.299 398.443ZM992.741 399.051C992.208 399.051 991.948 398.704 991.948 398.344C991.948 397.873 992.283 397.638 992.704 397.576L994.08 397.365V397.638C994.08 398.716 993.436 399.051 992.741 399.051ZM999.004 400.105V391.128H997.355V400.105H999.004ZM1004.74 400.105H1006.31C1006.29 399.894 1006.25 399.473 1006.25 399.001V394.005H1004.6V397.551C1004.6 398.257 1004.18 398.753 1003.45 398.753C1002.68 398.753 1002.33 398.208 1002.33 397.526V394.005H1000.68V397.861C1000.68 399.187 1001.53 400.266 1003 400.266C1003.65 400.266 1004.35 400.018 1004.69 399.448C1004.69 399.696 1004.71 399.981 1004.74 400.105ZM1009.66 400.105V396.534C1009.66 395.864 1010.08 395.331 1010.8 395.331C1011.54 395.331 1011.88 395.827 1011.88 396.484V400.105H1013.52V396.534C1013.52 395.877 1013.94 395.331 1014.64 395.331C1015.4 395.331 1015.72 395.827 1015.72 396.484V400.105H1017.32V396.15C1017.32 394.513 1016.24 393.831 1015.12 393.831C1014.31 393.831 1013.66 394.104 1013.18 394.848C1012.87 394.19 1012.2 393.831 1011.37 393.831C1010.7 393.831 1009.92 394.153 1009.59 394.748V394.005H1008.01V400.105H1009.66ZM1020.64 396.596C1020.64 395.889 1021.06 395.331 1021.78 395.331C1022.58 395.331 1022.91 395.864 1022.91 396.546V400.105H1024.56V396.261C1024.56 394.922 1023.87 393.843 1022.35 393.843C1021.7 393.843 1020.96 394.129 1020.59 394.761V394.005H1018.99V400.105H1020.64V396.596ZM1027.88 400.105V394.005H1026.23V400.105H1027.88ZM1026.04 392.008C1026.04 392.554 1026.49 393.013 1027.05 393.013C1027.62 393.013 1028.07 392.554 1028.07 392.008C1028.07 391.438 1027.62 390.979 1027.05 390.979C1026.49 390.979 1026.04 391.438 1026.04 392.008ZM1035.18 401.457V400.105H1028.84V401.457H1035.18ZM1035.62 398.406C1035.69 399.101 1036.32 400.291 1038.16 400.291C1039.76 400.291 1040.53 399.274 1040.53 398.282C1040.53 397.39 1039.92 396.658 1038.72 396.41L1037.85 396.224C1037.52 396.162 1037.29 395.976 1037.29 395.678C1037.29 395.331 1037.64 395.071 1038.07 395.071C1038.77 395.071 1039.03 395.53 1039.08 395.889L1040.45 395.579C1040.38 394.922 1039.8 393.819 1038.06 393.819C1036.75 393.819 1035.78 394.724 1035.78 395.815C1035.78 396.67 1036.31 397.377 1037.49 397.638L1038.3 397.824C1038.77 397.923 1038.95 398.146 1038.95 398.419C1038.95 398.741 1038.69 399.026 1038.15 399.026C1037.43 399.026 1037.07 398.58 1037.03 398.096L1035.62 398.406ZM1045.8 400.105H1047.37C1047.35 399.894 1047.31 399.473 1047.31 399.001V394.005H1045.66V397.551C1045.66 398.257 1045.24 398.753 1044.51 398.753C1043.74 398.753 1043.39 398.208 1043.39 397.526V394.005H1041.74V397.861C1041.74 399.187 1042.59 400.266 1044.06 400.266C1044.71 400.266 1045.41 400.018 1045.75 399.448C1045.75 399.696 1045.77 399.981 1045.8 400.105ZM1052.79 393.98C1052.67 393.967 1052.54 393.955 1052.41 393.955C1051.89 393.955 1051.04 394.104 1050.67 394.91V394.005H1049.07V400.105H1050.72V397.315C1050.72 396.001 1051.45 395.592 1052.29 395.592C1052.44 395.592 1052.6 395.604 1052.79 395.641V393.98ZM1059.89 394.005H1058.15L1056.7 398.096L1055.19 394.005H1053.38L1055.87 400.105H1057.52L1059.89 394.005ZM1061.91 396.36C1061.95 395.802 1062.42 395.158 1063.27 395.158C1064.22 395.158 1064.61 395.753 1064.64 396.36H1061.91ZM1064.8 397.947C1064.6 398.493 1064.18 398.877 1063.41 398.877C1062.59 398.877 1061.91 398.295 1061.87 397.489H1066.24C1066.24 397.464 1066.26 397.216 1066.26 396.98C1066.26 395.021 1065.13 393.819 1063.25 393.819C1061.69 393.819 1060.25 395.083 1060.25 397.03C1060.25 399.088 1061.72 400.291 1063.4 400.291C1064.9 400.291 1065.87 399.411 1066.18 398.357L1064.8 397.947ZM1069.58 402.51L1073.42 394.005H1071.65L1070.15 397.576L1068.53 394.005H1066.68L1069.27 399.336L1067.84 402.51H1069.58ZM1073.12 399.063C1073.12 399.683 1073.63 400.192 1074.25 400.192C1074.88 400.192 1075.39 399.683 1075.39 399.063C1075.39 398.443 1074.88 397.935 1074.25 397.935C1073.63 397.935 1073.12 398.443 1073.12 399.063ZM1079.58 395.344C1080.39 395.344 1080.78 395.864 1080.93 396.373L1082.4 395.877C1082.14 394.848 1081.2 393.819 1079.54 393.819C1077.77 393.819 1076.38 395.17 1076.38 397.055C1076.38 398.927 1077.79 400.291 1079.59 400.291C1081.21 400.291 1082.17 399.249 1082.44 398.233L1080.99 397.749C1080.85 398.22 1080.43 398.778 1079.59 398.778C1078.75 398.778 1078.03 398.158 1078.03 397.055C1078.03 395.951 1078.73 395.344 1079.58 395.344ZM1086.33 398.791C1085.53 398.791 1084.78 398.195 1084.78 397.055C1084.78 395.902 1085.53 395.319 1086.33 395.319C1087.14 395.319 1087.88 395.902 1087.88 397.055C1087.88 398.208 1087.14 398.791 1086.33 398.791ZM1086.33 393.819C1084.51 393.819 1083.13 395.17 1083.13 397.055C1083.13 398.927 1084.51 400.291 1086.33 400.291C1088.16 400.291 1089.53 398.927 1089.53 397.055C1089.53 395.17 1088.16 393.819 1086.33 393.819ZM1092.48 400.105V396.534C1092.48 395.864 1092.9 395.331 1093.62 395.331C1094.37 395.331 1094.7 395.827 1094.7 396.484V400.105H1096.34V396.534C1096.34 395.877 1096.76 395.331 1097.47 395.331C1098.22 395.331 1098.55 395.827 1098.55 396.484V400.105H1100.15V396.15C1100.15 394.513 1099.07 393.831 1097.94 393.831C1097.13 393.831 1096.49 394.104 1096 394.848C1095.69 394.19 1095.02 393.831 1094.19 393.831C1093.52 393.831 1092.74 394.153 1092.41 394.748V394.005H1090.83V400.105H1092.48Z" fill="#1074ED"/>
</g>
<path d="M201.948 202.614C201.948 202.614 188.46 219.876 180.223 236.521C171.987 253.167 162.796 284.992 204.921 272.903C204.921 272.903 203.812 211.499 201.948 202.614Z" fill="#BA580D"/>
<path d="M227.636 202.499C227.636 202.499 240.972 219.64 249.062 236.212C257.152 252.784 266.062 284.528 224.042 272.818C224.042 272.818 225.693 211.401 227.636 202.499Z" fill="#BA580D"/>
<path d="M231.206 269.397C239.857 270.964 247.476 270.764 255.531 273.864C259.873 275.536 265.69 277.46 268.773 281.043C282.162 296.605 287.488 311.163 287.488 311.163L140.417 318.878C140.417 318.878 152.802 288.066 165.605 280.471C171.084 277.019 177.009 274.332 183.216 272.483C188.148 273.69 192.544 273.304 200.111 270.218L231.206 269.397Z" fill="#3C5999"/>
<path d="M200.765 246.26C200.765 246.26 208.187 262.056 202.103 267.5C198.754 270.496 196.59 272.044 183.156 272.486C220.485 304.518 251.304 272.453 251.304 272.453C246.971 271.241 230.297 269.885 230.297 265.127C230.173 262.129 232.258 250.831 233.664 248.18L232.102 247.614L200.765 246.26Z" fill="#F8AF8D"/>
<path d="M153.002 297.64C153.002 297.64 127.515 334.502 127.731 358.924C127.852 371.88 159.21 378.579 159.21 378.579C159.21 378.579 167.977 371.664 169.791 368.654C171.125 366.526 155.648 361.656 157.828 360.41C160.008 359.164 162.462 358.476 164.972 358.406C161.996 355.576 161.478 353.505 158.559 350.609C154.677 347.79 172.987 314.863 172.987 314.863" fill="#3C5999"/>
<path d="M177.23 363.661C174.959 362.301 168.371 359.166 165.781 358.616L156.993 356.75C156.993 356.75 148.373 358.925 147.604 370.977C147.587 371.919 147.782 372.853 148.174 373.71L156.163 375.939C159.611 378.409 165.342 383.941 170.849 380.969L173.034 375.939L177.23 363.661Z" fill="#3C5999"/>
<path d="M279.773 297.731C279.773 297.731 305.26 334.593 305.044 359.015C304.924 371.971 281.144 377.131 281.144 377.131C281.144 377.131 282.115 368.65 280.3 365.639C278.966 363.512 277.127 361.747 274.947 360.501C272.767 359.255 270.313 358.566 267.804 358.497C270.779 355.667 274.543 353.762 277.461 350.866C281.343 348.047 259.788 314.954 259.788 314.954" fill="#3C5999"/>
<path d="M277.46 350.863C279.169 349.483 281.151 348.483 283.276 347.929C285.445 347.328 287.72 347.219 289.937 347.608C291.048 347.836 292.13 348.192 293.16 348.667C294.174 349.151 295.124 349.76 295.988 350.478C297.676 351.894 299.032 353.663 299.961 355.661C298.527 354.123 296.926 352.747 295.189 351.561C293.495 350.456 291.603 349.689 289.618 349.303C287.613 348.948 285.563 348.927 283.551 349.242C281.469 349.566 279.428 350.109 277.46 350.863V350.863Z" fill="#3C5999"/>
<path d="M277.46 350.862C278.856 350.156 280.379 349.738 281.939 349.632C283.532 349.498 285.136 349.69 286.653 350.196C287.034 350.331 287.407 350.485 287.772 350.658C288.127 350.855 288.485 351.044 288.833 351.249C289.166 351.476 289.471 351.746 289.789 351.992C289.951 352.111 290.104 352.242 290.247 352.383L290.645 352.837C291.699 354.011 292.448 355.426 292.827 356.957C291.978 355.735 290.984 354.619 289.868 353.634C288.793 352.697 287.541 351.986 286.187 351.541C284.818 351.081 283.394 350.812 281.952 350.74C280.454 350.665 278.952 350.705 277.46 350.862V350.862Z" fill="#3C5999"/>
<path d="M255.499 364.778C257.779 363.227 264.387 359.642 266.981 359.005L275.783 356.842C275.783 356.842 284.391 359.25 285.09 372.877C285.101 373.942 284.9 375 284.503 375.972L276.499 378.54C273.035 381.354 269.732 377.164 264.241 373.836L259.623 378.641L255.499 364.778Z" fill="#3C5999"/>
<path d="M231.518 247.704C222.104 261.103 207.981 252.813 207.981 252.813" stroke="#EBAA78" stroke-width="2.40735" stroke-miterlimit="10"/>
<path d="M199.874 193.883C206.642 189.538 213.243 183.64 227.861 187.322C253.045 193.665 243.987 227.61 243.987 227.61C230.016 262.006 220.351 258.037 220.351 258.037C220.351 258.037 214.421 258.046 208.603 254C203.04 250.086 201.103 247 196.603 240.5C189.379 224.448 191.523 213.501 191.523 213.501C191.523 213.501 194.475 197.346 199.874 193.883Z" fill="#FFBD9E"/>
<path d="M190.837 219.122C190.837 219.122 186.289 217.37 184.825 221.551C182.714 227.582 194.622 235.744 194.622 235.744L190.837 219.122Z" fill="#F7AE8C"/>
<path d="M244.97 218.385C244.97 218.385 246.3 216.729 247.183 220.885C248.456 226.877 240.603 235.223 240.603 235.223L244.97 218.385Z" fill="#F6AE8C"/>
<path d="M231.234 251.715C229.277 253.41 227.062 255.776 224.692 256.791C222.385 257.796 220.436 257.823 217.934 257.604C216.693 257.491 215.476 257.196 214.319 256.726C213.142 256.271 212.019 255.682 210.972 254.971C208.842 253.496 206.328 252.151 204.603 250.204C205.984 252.495 207.738 255.142 209.833 256.779C211.967 258.484 214.539 259.917 217.234 260.217C218.584 260.343 219.945 260.269 221.273 260C222.587 259.723 223.861 259.275 225.063 258.667C227.438 257.484 229.563 253.801 231.234 251.715Z" fill="#DC9C7E"/>
<path d="M228.228 239.608C228.228 239.608 220.094 241.6 213 239.869C213 239.869 214.232 242.873 217.802 245.093C219.108 245.552 220.358 246.184 221.751 245.948C223.144 245.711 224.136 245.096 225.168 244.24C226.552 243.054 227.605 241.204 228.228 239.608Z" fill="#DB5D26"/>
<path d="M214.782 240.024C219.269 240.305 223.772 240.178 228.235 239.645C228.235 239.645 228.269 240.094 227.475 241.427C216.353 243.67 213.081 241.314 213 239.824L214.782 240.024Z" fill="white"/>
<path d="M222.279 223.015C220.779 227.015 224.856 231.17 225.224 232.597C225.752 234.645 222.779 234.515 219.279 234.515" stroke="#EC8F64" stroke-linecap="round" stroke-linejoin="bevel"/>
<path d="M230.787 220.955C231.304 220.874 231.741 221.074 232.068 221.471C232.395 221.867 232.54 222.514 232.513 223.189C232.535 223.499 232.435 223.849 232.336 224.2C232.236 224.551 232.105 224.817 231.924 225.068C231.743 225.32 231.561 225.572 231.298 225.724C231.086 225.892 230.823 226.044 230.6 226.057C230.083 226.137 229.645 225.937 229.319 225.541C228.992 225.145 228.847 224.497 228.874 223.822C228.852 223.513 228.951 223.162 229.051 222.811C229.151 222.461 229.281 222.195 229.463 221.943C229.644 221.691 229.825 221.44 230.089 221.287C230.281 221.19 230.544 221.037 230.787 220.955Z" fill="#724422"/>
<path d="M204.279 218.514C205.898 216.922 208.279 215.014 211.933 215.808C214.725 216.414 216.817 217.59 216.893 217.896" stroke="#C96436" stroke-linecap="round"/>
<path d="M237.523 217.897C236.476 215.745 233.779 215.014 230.403 216.205C227.026 217.395 226.134 218.117 226.098 218.383" stroke="#C96436" stroke-linecap="round"/>
<path opacity="0.2" d="M207.126 240.116C204.799 240.598 202.323 238.138 201.595 234.623C200.868 231.107 202.165 227.867 204.493 227.386C206.82 226.904 209.296 229.364 210.024 232.879C210.751 236.395 209.454 239.635 207.126 240.116Z" fill="#DD6637"/>
<path opacity="0.2" d="M233.793 240.233C231.852 239.997 230.636 236.863 231.077 233.233C231.518 229.603 233.449 226.851 235.39 227.087C237.331 227.323 238.547 230.457 238.106 234.087C237.665 237.717 235.734 240.469 233.793 240.233Z" fill="#DD6637"/>
<path d="M211.787 220.954C212.304 220.874 212.741 221.074 213.068 221.47C213.395 221.866 213.54 222.514 213.513 223.189C213.535 223.498 213.435 223.849 213.336 224.199C213.236 224.55 213.105 224.816 212.924 225.068C212.743 225.32 212.561 225.571 212.298 225.724C212.086 225.891 211.823 226.044 211.6 226.056C211.083 226.137 210.645 225.936 210.319 225.54C209.992 225.144 209.847 224.496 209.874 223.822C209.852 223.512 209.951 223.162 210.051 222.811C210.151 222.46 210.281 222.194 210.463 221.942C210.644 221.691 210.825 221.439 211.089 221.286C211.281 221.189 211.544 221.037 211.787 220.954Z" fill="#724422"/>
<path d="M235.452 201.237C234.605 203.169 233.167 205.073 230.914 206.806C220.208 215.042 200.649 208.042 197.767 214.836C194.885 221.63 192.05 226.966 194.109 235.407C195.756 242.16 187.786 228.085 185.872 218.683C183.844 212.706 184.804 193.589 191.063 188.484C198.886 182.101 212.985 176.085 221.611 176.918C230.914 177.817 231.13 181.277 233.59 183.058C236.25 182.053 238.778 182.719 243.061 188.484C248.414 195.689 251.606 208.675 248.103 216.05C244.617 223.388 240.642 228.143 241.465 233.289C242.124 237.407 240.937 237.801 240.796 237.894L240.213 238.228L238.653 238.989C240.3 238.166 242.111 224.686 242.111 218.263C242.111 211.214 239.67 203.111 235.452 201.237Z" fill="#BA580D"/>
<path d="M111.961 378.459H327.312C329.138 378.459 330.638 380.521 330.638 383.031V388.768C330.638 391.278 329.138 393.34 327.312 393.34H111.896C110.07 393.34 108.57 391.278 108.57 388.768V383.031C108.635 380.521 110.135 378.459 111.961 378.459Z" fill="#BEC6D3"/>
<path d="M280.578 306.423C280.658 304.713 279.293 303.283 277.582 303.283H154.262C152.507 303.283 151.126 304.784 151.273 306.534L157.161 376.721C157.291 378.275 158.591 379.47 160.151 379.47H274.31C275.913 379.47 277.232 378.211 277.307 376.61L280.578 306.423Z" fill="#A0A0A0"/>
<ellipse rx="5.7978" ry="6.29981" transform="matrix(-4.37114e-08 1 1 4.37114e-08 218.066 341.994)" fill="white"/>
<defs>
<filter id="filter0_d_2_3042" x="883.313" y="233.779" width="299.687" height="197.232" filterUnits="userSpaceOnUse" color-interpolation-filters="sRGB">
<feFlood flood-opacity="0" result="BackgroundImageFix"/>
<feColorMatrix in="SourceAlpha" type="matrix" values="0 0 0 0 0 0 0 0 0 0 0 0 0 0 0 0 0 0 127 0" result="hardAlpha"/>
<feOffset dx="2.37889" dy="2.37889"/>
<feGaussianBlur stdDeviation="2.77538"/>
<feColorMatrix type="matrix" values="0 0 0 0 0 0 0 0 0 0 0 0 0 0 0 0 0 0 0.25 0"/>
<feBlend mode="normal" in2="BackgroundImageFix" result="effect1_dropShadow_2_3042"/>
<feBlend mode="normal" in="SourceGraphic" in2="effect1_dropShadow_2_3042" result="shape"/>
</filter>
<filter id="filter1_d_2_3042" x="892.403" y="249.329" width="93.0045" height="95.4071" filterUnits="userSpaceOnUse" color-interpolation-filters="sRGB">
<feFlood flood-opacity="0" result="BackgroundImageFix"/>
<feColorMatrix in="SourceAlpha" type="matrix" values="0 0 0 0 0 0 0 0 0 0 0 0 0 0 0 0 0 0 127 0" result="hardAlpha"/>
<feOffset/>
<feGaussianBlur stdDeviation="3.61635"/>
<feColorMatrix type="matrix" values="0 0 0 0 0 0 0 0 0 0 0 0 0 0 0 0 0 0 0.25 0"/>
<feBlend mode="normal" in2="BackgroundImageFix" result="effect1_dropShadow_2_3042"/>
<feBlend mode="normal" in="SourceGraphic" in2="effect1_dropShadow_2_3042" result="shape"/>
</filter>
<linearGradient id="paint0_linear_2_3042" x1="1290.88" y1="39.9028" x2="1302.01" y2="41.2179" gradientUnits="userSpaceOnUse">
<stop stop-color="#F1CEBA"/>
<stop offset="1" stop-color="#B8846F"/>
</linearGradient>
</defs>
</svg>
