<svg width="265" height="200" fill="none" xmlns="http://www.w3.org/2000/svg"><g filter="url(#a)"><path d="M254.062.936H5.369A4.757 4.757 0 0 0 .608 5.697v95.019a4.758 4.758 0 0 0 4.761 4.762h248.693a4.757 4.757 0 0 0 4.762-4.762V5.697a4.757 4.757 0 0 0-4.762-4.761Z" fill="#fff"/><path d="M254.063 1.296H5.37a4.342 4.342 0 0 0-4.33 4.33v95.018a4.342 4.342 0 0 0 4.33 4.329h248.693a4.342 4.342 0 0 0 4.329-4.329V5.697c0-2.453-1.948-4.4-4.329-4.4Z" stroke="#B7B7B7" stroke-width=".735"/><path d="M254.062 117.2H5.369c-2.597 0-4.762 1.516-4.762 3.45v68.855c0 1.882 2.093 3.45 4.762 3.45h248.693c2.598 0 4.762-1.516 4.762-3.45V120.65c0-1.934-2.164-3.45-4.762-3.45Z" fill="#fff"/><path d="M254.063 117.461H5.369c-2.38 0-4.328 1.412-4.328 3.137v68.854c0 1.726 1.948 3.137 4.328 3.137h248.694c2.38 0 4.328-1.411 4.328-3.137v-68.801c0-1.778-1.948-3.19-4.328-3.19Z" stroke="#B7B7B7" stroke-width=".735"/><path d="M5.37.936h7.936v104.542H5.369c-1.226 0-2.453-.505-3.39-1.371-.866-.866-1.371-2.092-1.371-3.391V5.697c0-1.226.505-2.453 1.37-3.39C2.844 1.368 4.143.935 5.37.935Z" fill="#5495FF"/><path d="M80.763 42.132H236.82c.721 0 1.299.866 1.299 1.948v19.48c0 1.082-.578 1.948-1.299 1.948H80.764c-.722 0-1.3-.866-1.3-1.948V44.08c0-1.082.578-1.948 1.3-1.948ZM80.763 11.83H236.82c.721 0 1.299.866 1.299 1.948v19.48c0 1.082-.578 1.948-1.299 1.948H80.764c-.722 0-1.3-.866-1.3-1.948v-19.48c0-1.082.578-1.948 1.3-1.948ZM80.763 72.073H236.82c.721 0 1.299.866 1.299 1.948v19.48c0 1.082-.578 1.948-1.299 1.948H80.764c-.722 0-1.3-.866-1.3-1.948v-19.48c0-1.082.578-1.948 1.3-1.948Z" stroke="#B7B7B7" stroke-width="1.47"/><path d="M29.971 51.872c-.865-.289-1.515-.577-1.948-.938-.433-.36-.577-.866-.577-1.37 0-.65.217-1.155.722-1.516.505-.433 1.154-.577 1.948-.577.577 0 1.01.072 1.443.289.432.216.721.505 1.01.865.216.361.36.794.36 1.227h-1.01c0-.505-.144-.866-.433-1.154-.288-.29-.721-.433-1.298-.433-.505 0-.938.144-1.227.36-.288.217-.433.505-.433.938 0 .289.145.577.433.794.289.216.722.433 1.371.577.65.217 1.154.36 1.515.577.36.217.65.505.794.794.144.288.288.65.288 1.01 0 .65-.216 1.154-.721 1.515-.505.36-1.154.577-2.02.577-.577 0-1.01-.072-1.515-.288-.433-.217-.866-.505-1.082-.866-.29-.36-.361-.794-.361-1.227h1.01c0 .505.144.866.505 1.155.36.288.793.433 1.443.433.577 0 .938-.145 1.226-.361.289-.217.433-.505.433-.938 0-.433-.144-.65-.433-.866-.216-.144-.721-.36-1.443-.577Zm9.74-3.535h-2.525v6.998h-1.01v-6.998h-2.525v-.866h6.06v.866Zm5.05 4.978h-3.318l-.722 2.092H39.64l3.03-7.864h.938l3.03 7.864h-1.082l-.793-2.092Zm-2.957-.866h2.669l-1.37-3.68-1.3 3.68Zm10.605-4.112h-2.525v6.998h-1.01v-6.998h-2.525v-.866h6.06v.866Zm5.628 3.39h-3.391v2.814h3.968v.866h-4.978v-7.864h4.978v.866h-3.896v2.525h3.391v.794h-.072ZM30.26 85.71l2.237-6.494h1.154l-2.958 7.864h-.938l-2.886-7.864h1.155l2.236 6.493Zm8.442-.722h-3.32l-.72 2.092h-1.083l3.03-7.864h.938l3.03 7.864h-1.082l-.793-2.092Zm-3.03-.866h2.669l-1.371-3.68-1.299 3.68Zm6.925 2.092h3.752v.866h-4.762v-7.864h1.01v6.998Zm10.173-7.07v5.339c0 .721-.216 1.37-.721 1.803-.433.505-1.082.722-1.876.794h-.289c-.865 0-1.515-.216-2.092-.721-.505-.433-.794-1.083-.794-1.948v-5.34h1.01v5.34c0 .577.145 1.01.506 1.298.288.289.793.505 1.37.505.578 0 1.01-.144 1.371-.505.289-.288.505-.721.505-1.299v-5.338h1.01v.072Zm6.133 4.256h-3.391v2.814h3.968v.866h-5.05v-7.864h4.978v.866h-3.896v2.525h3.39v.793ZM28.817 26.837h-1.082v-7.864h1.01v7.864h.072Zm6.205-3.463h-3.319v3.463h-1.01v-7.864H35.6v.865h-3.823v2.67h3.318v.866h-.072Z" fill="#000"/><path d="M6.08 117.2H14v75.911H6.08c-1.26 0-2.468-.364-3.36-1.011-.89-.647-1.391-1.525-1.391-2.44v-69.01c0-.915.5-1.792 1.392-2.439.89-.648 2.1-1.011 3.36-1.011Z" fill="#47C405"/><path d="M92.986 139.101c-.15-.722-.75-1.65-2.25-1.65-1.228 0-2.193.938-2.193 1.978 0 .993.675 1.612 1.622 1.818l.946.206c.666.141.994.553.994 1.031 0 .581-.45 1.059-1.369 1.059-1.002 0-1.527-.684-1.593-1.424l-.881.281c.122.946.881 1.977 2.484 1.977 1.415 0 2.296-.937 2.296-1.968 0-.928-.619-1.621-1.725-1.865l-.993-.215c-.562-.122-.853-.488-.853-.966 0-.618.534-1.106 1.284-1.106.928 0 1.33.656 1.406 1.134l.825-.29Zm2.06 2.483c.02-.665.375-1.19 1.05-1.19.787 0 1.05.506 1.05 1.134v2.709h.88v-2.859c0-1.003-.533-1.78-1.611-1.78-.516 0-1.04.178-1.369.656v-2.803h-.88v6.786h.88v-2.653Zm6.313 2.006c-.75 0-1.406-.562-1.406-1.612 0-1.04.656-1.603 1.406-1.603.75 0 1.406.563 1.406 1.603 0 1.05-.656 1.612-1.406 1.612Zm0-4.002c-1.35 0-2.306 1.022-2.306 2.39 0 1.378.956 2.399 2.306 2.399 1.349 0 2.305-1.021 2.305-2.399 0-1.368-.956-2.39-2.305-2.39Zm5.881.141-1.172 3.393-1.012-3.393h-.965l1.481 4.508h.927l1.172-3.43 1.2 3.43h.909l1.462-4.508h-.928l-.994 3.393-1.171-3.393h-.909ZM94.504 173.15v-3.252h-3.177v.825h2.305c-.037.684-.571 1.734-2.052 1.734-1.19 0-2.315-.872-2.315-2.634s1.162-2.615 2.352-2.615c1.031 0 1.81.563 2.109 1.519l.834-.357c-.384-1.199-1.5-2.005-2.943-2.005-1.64 0-3.29 1.209-3.29 3.458s1.556 3.468 3.225 3.468c1.115 0 1.837-.553 2.127-1.078l.084.937h.74Zm3.82-4.555a1.698 1.698 0 0 0-.29-.028c-.46 0-1.022.169-1.35.863v-.788h-.862v4.508h.881v-2.258c0-.994.497-1.387 1.237-1.387.122 0 .253.009.384.028v-.938Zm.658 3.346c0 .713.59 1.35 1.509 1.35.806 0 1.256-.431 1.453-.75 0 .328.028.497.047.609h.862a4.218 4.218 0 0 1-.056-.74v-2.259c0-.881-.525-1.649-1.875-1.649-.974 0-1.752.599-1.846 1.462l.843.197c.057-.525.403-.91 1.022-.91.684 0 .975.366.975.806 0 .16-.075.3-.347.338l-1.218.178c-.778.112-1.369.562-1.369 1.368Zm1.631.609c-.45 0-.731-.318-.731-.656 0-.403.281-.618.656-.674l1.378-.207v.207c0 .984-.581 1.33-1.303 1.33Zm4.081-1.668c0-.928.525-1.584 1.331-1.584.806 0 1.293.638 1.293 1.565 0 .928-.497 1.631-1.303 1.631-.843 0-1.321-.684-1.321-1.612Zm2.634 1.659c0 .272.028.506.046.609h.853a7.208 7.208 0 0 1-.047-.834v-5.951h-.871v2.915c-.15-.366-.581-.76-1.378-.76-1.275 0-2.137 1.088-2.137 2.362 0 1.34.816 2.39 2.137 2.39.703 0 1.181-.375 1.397-.806v.075Zm5.276.066c0 .187.019.44.038.543h.843a7.506 7.506 0 0 1-.047-.834v-3.674h-.881v2.718c0 .684-.356 1.153-1.068 1.153-.741 0-1.022-.544-1.022-1.162v-2.709h-.881v2.84c0 1.022.638 1.809 1.687 1.809.525 0 1.087-.216 1.331-.684Zm2.056-.666c0 .713.591 1.35 1.509 1.35.806 0 1.256-.431 1.453-.75 0 .328.028.497.047.609h.862a4.218 4.218 0 0 1-.056-.74v-2.259c0-.881-.525-1.649-1.875-1.649-.974 0-1.752.599-1.846 1.462l.844.197c.056-.525.403-.91 1.021-.91.684 0 .975.366.975.806 0 .16-.075.3-.347.338l-1.218.178c-.778.112-1.369.562-1.369 1.368Zm1.631.609c-.45 0-.731-.318-.731-.656 0-.403.281-.618.656-.674l1.378-.207v.207c0 .984-.581 1.33-1.303 1.33Zm4.737-5.332h-.806v.731c0 .393-.206.693-.693.693h-.244v.797h.862v2.474c0 .816.488 1.284 1.256 1.284.3 0 .525-.056.6-.084v-.75a1.765 1.765 0 0 1-.347.037c-.459 0-.628-.206-.628-.618v-2.343h.975v-.797h-.975v-1.424Zm2.677 3.214c.037-.581.487-1.152 1.228-1.152.796 0 1.218.506 1.237 1.152h-2.465Zm2.596 1.172c-.169.506-.534.909-1.265.909-.76 0-1.341-.562-1.359-1.368h3.392c.01-.057.019-.169.019-.282 0-1.405-.778-2.361-2.165-2.361-1.134 0-2.155.965-2.155 2.38 0 1.528 1.059 2.409 2.268 2.409 1.049 0 1.771-.628 2.024-1.425l-.759-.262Zm5.942-1.293v2.839h.918v-2.839l2.343-3.806h-1.049l-1.725 2.962-1.724-2.962H129.9l2.343 3.806Zm3.836.121c.037-.581.487-1.152 1.228-1.152.796 0 1.218.506 1.237 1.152h-2.465Zm2.596 1.172c-.169.506-.534.909-1.265.909-.759 0-1.34-.562-1.359-1.368h3.393c.009-.057.018-.169.018-.282 0-1.405-.778-2.361-2.165-2.361-1.134 0-2.155.965-2.155 2.38 0 1.528 1.059 2.409 2.268 2.409 1.049 0 1.771-.628 2.024-1.425l-.759-.262Zm1.631.337c0 .713.59 1.35 1.509 1.35.806 0 1.256-.431 1.452-.75 0 .328.028.497.047.609h.862c-.018-.112-.056-.347-.056-.74v-2.259c0-.881-.525-1.649-1.874-1.649-.975 0-1.753.599-1.847 1.462l.844.197c.056-.525.403-.91 1.022-.91.684 0 .974.366.974.806 0 .16-.075.3-.347.338l-1.218.178c-.778.112-1.368.562-1.368 1.368Zm1.63.609c-.449 0-.731-.318-.731-.656 0-.403.282-.618.657-.674l1.377-.207v.207c0 .984-.581 1.33-1.303 1.33Zm6.059-3.955a1.705 1.705 0 0 0-.291-.028c-.459 0-1.021.169-1.349.863v-.788h-.862v4.508h.881v-2.258c0-.994.496-1.387 1.237-1.387.122 0 .253.009.384.028v-.938Z" fill="#666"/><path d="M81.451 159.204h156.031c.712 0 1.289.872 1.289 1.951v19.507c0 1.077-.577 1.95-1.289 1.95H81.452c-.714 0-1.29-.871-1.29-1.95v-19.507c0-1.079.577-1.951 1.29-1.951ZM81.451 130.187h156.031c.712 0 1.289.871 1.289 1.95v19.507c0 1.077-.577 1.951-1.289 1.951H81.452c-.714 0-1.29-.872-1.29-1.951v-19.507c0-1.079.577-1.95 1.29-1.95Z" stroke="#B7B7B7" stroke-width="1.47"/><path d="M30.469 169.067c-.827-.238-1.43-.529-1.809-.874a1.686 1.686 0 0 1-.562-1.286c0-.576.23-1.052.688-1.427.462-.378 1.061-.567 1.798-.567.503 0 .95.097 1.342.291.395.194.7.462.914.804.218.341.326.715.326 1.12h-.97c0-.442-.14-.789-.421-1.04-.281-.254-.678-.382-1.19-.382-.476 0-.848.106-1.116.317-.265.207-.397.497-.397.869 0 .298.126.551.377.758.254.205.685.392 1.291.563.61.171 1.085.36 1.427.568.345.204.6.443.763.718.168.275.252.598.252.97 0 .592-.232 1.068-.694 1.426-.462.355-1.08.533-1.853.533-.503 0-.972-.096-1.407-.287-.435-.194-.772-.458-1.01-.793a1.941 1.941 0 0 1-.351-1.141h.97c0 .442.162.792.486 1.05.329.255.766.382 1.312.382.509 0 .899-.104 1.17-.311.271-.208.407-.491.407-.849 0-.359-.126-.635-.377-.829-.251-.198-.707-.392-1.366-.583Zm9.007-3.26h-2.351v6.52h-.96v-6.52H33.82v-.794h5.657v.794Zm4.722 4.611h-3.064l-.688 1.909h-.995l2.793-7.314h.844l2.798 7.314h-.99l-.698-1.909Zm-2.773-.793h2.487l-1.246-3.421-1.24 3.421Zm9.846-3.818h-2.35v6.52h-.96v-6.52h-2.346v-.794h5.656v.794Zm5.22 3.139h-3.17v2.593h3.682v.788h-4.647v-7.314h4.597v.794H53.32v2.351h3.17v.788Z" fill="#000"/><path d="M89.687 56.217v-6.645h-.938v6.645h.938Zm1.174-1.172c.075.516.6 1.312 1.837 1.312 1.115 0 1.65-.759 1.65-1.396 0-.666-.432-1.162-1.247-1.34l-.731-.16c-.347-.075-.516-.271-.516-.543 0-.31.3-.6.75-.6.712 0 .9.515.937.75l.778-.29c-.094-.404-.478-1.21-1.715-1.21-.881 0-1.603.656-1.603 1.425 0 .637.422 1.115 1.125 1.265l.768.169c.375.084.581.3.581.58 0 .32-.271.6-.768.6-.637 0-.993-.374-1.05-.843l-.796.281Zm11.135 1.172v-.853h-3.12V53.33h2.83v-.862h-2.83v-2.043h3.12v-.853h-4.04v6.645h4.04Zm5.169 1.78V51.71h-.853v.693c-.187-.403-.665-.806-1.443-.806-1.322 0-2.118 1.078-2.118 2.353 0 1.312.843 2.39 2.137 2.39.665 0 1.171-.3 1.406-.76v2.419h.871Zm-3.514-4.048c0-.928.506-1.575 1.321-1.575.797 0 1.331.647 1.331 1.575 0 .928-.534 1.612-1.331 1.612-.806 0-1.321-.684-1.321-1.612Zm7.891 1.724c0 .188.019.44.038.544h.843a7.831 7.831 0 0 1-.046-.834v-3.674h-.881v2.718c0 .684-.357 1.153-1.069 1.153-.74 0-1.021-.544-1.021-1.163V51.71h-.881v2.84c0 1.021.637 1.808 1.687 1.808.524 0 1.087-.215 1.33-.684Zm2.057-.665c0 .712.59 1.35 1.509 1.35.806 0 1.256-.432 1.452-.75 0 .328.028.496.047.609h.862c-.018-.113-.056-.347-.056-.74v-2.26c0-.88-.525-1.649-1.874-1.649-.975 0-1.753.6-1.847 1.462l.844.197c.056-.525.403-.909 1.022-.909.684 0 .974.366.974.806 0 .16-.075.3-.347.337l-1.218.178c-.778.113-1.368.563-1.368 1.369Zm1.631.609c-.45 0-.732-.319-.732-.656 0-.403.282-.619.657-.675l1.377-.206v.206c0 .984-.581 1.331-1.302 1.331Zm4.437.6V49.43h-.881v6.786h.881Zm8.546-5.792v-.853h-5.361v.853h2.221v5.792h.919v-5.792h2.221Zm1.885 5.145c-.75 0-1.406-.562-1.406-1.612 0-1.04.656-1.602 1.406-1.602.749 0 1.405.562 1.405 1.602 0 1.05-.656 1.612-1.405 1.612Zm0-4.002c-1.35 0-2.306 1.022-2.306 2.39 0 1.378.956 2.4 2.306 2.4 1.349 0 2.305-1.022 2.305-2.4 0-1.368-.956-2.39-2.305-2.39ZM90.343 82.958v2.84h.918v-2.84l2.343-3.805h-1.05l-1.724 2.961-1.724-2.962H88l2.343 3.806Zm3.836.121c.037-.58.487-1.152 1.228-1.152.796 0 1.218.506 1.237 1.152h-2.465Zm2.596 1.172c-.169.506-.534.91-1.265.91-.76 0-1.34-.563-1.36-1.37h3.393c.01-.055.02-.168.02-.28 0-1.406-.779-2.362-2.166-2.362-1.134 0-2.155.965-2.155 2.38 0 1.528 1.059 2.409 2.268 2.409 1.05 0 1.771-.628 2.024-1.425l-.76-.262Zm1.49.375c.075.515.6 1.312 1.837 1.312 1.115 0 1.649-.76 1.649-1.397 0-.665-.431-1.162-1.246-1.34l-.731-.159c-.347-.075-.516-.272-.516-.544 0-.309.3-.6.75-.6.713 0 .9.516.937.75l.778-.29c-.093-.403-.478-1.21-1.715-1.21-.88 0-1.602.657-1.602 1.425 0 .638.421 1.116 1.124 1.266l.769.168c.375.085.581.3.581.581 0 .319-.272.6-.769.6-.637 0-.993-.375-1.05-.843l-.796.28Z" fill="#666"/><path d="M28.314 143.815v-7.314h2.064c.637 0 1.2.141 1.688.422.49.281.866.682 1.13 1.201.269.519.404 1.115.407 1.788v.467c0 .69-.134 1.295-.401 1.814a2.789 2.789 0 0 1-1.14 1.195c-.493.278-1.067.421-1.724.427h-2.024Zm.964-6.52v5.732h1.015c.743 0 1.321-.231 1.733-.694.415-.462.623-1.12.623-1.974v-.427c0-.83-.196-1.475-.588-1.934-.388-.462-.94-.696-1.657-.703h-1.126Zm11.414 3.099c0 .717-.12 1.343-.362 1.879-.241.533-.583.94-1.025 1.221-.442.281-.958.422-1.547.422a2.811 2.811 0 0 1-1.532-.422 2.84 2.84 0 0 1-1.04-1.211c-.245-.526-.37-1.133-.377-1.823v-.528c0-.703.122-1.324.367-1.863.244-.54.59-.952 1.035-1.236a2.784 2.784 0 0 1 1.537-.432c.586 0 1.102.142 1.547.427.449.281.794.691 1.035 1.23.241.536.362 1.161.362 1.874v.462Zm-.96-.472c0-.867-.174-1.532-.522-1.994-.349-.466-.836-.698-1.462-.698-.61 0-1.09.232-1.442.698-.348.462-.527 1.105-.537 1.929v.537c0 .841.175 1.502.527 1.985.355.479.842.718 1.462.718.623 0 1.105-.226 1.447-.678.341-.456.517-1.107.527-1.954v-.543Z" fill="#000"/><path d="M93.351 25.915h.994l-2.643-6.645h-1.06L88 25.915h.984l.703-1.856h2.942l.722 1.856Zm-2.202-5.69 1.152 2.981h-2.286l1.134-2.98Zm6.498 1.135a1.655 1.655 0 0 0-.29-.028c-.46 0-1.022.168-1.35.862v-.787h-.862v4.508h.88v-2.259c0-.993.497-1.387 1.238-1.387.122 0 .253.01.384.028v-.937Zm1.465 1.837c.038-.581.487-1.153 1.228-1.153.796 0 1.218.506 1.237 1.153h-2.465Zm2.596 1.171c-.169.506-.534.91-1.265.91-.76 0-1.34-.563-1.36-1.369h3.394a2.06 2.06 0 0 0 .018-.281c0-1.406-.777-2.362-2.165-2.362-1.134 0-2.155.965-2.155 2.38 0 1.528 1.059 2.41 2.268 2.41 1.05 0 1.771-.629 2.024-1.425l-.759-.263Zm5.38 3.43 2.933-6.391h-.946l-1.35 3.111-1.406-3.111h-1.012l1.94 4.01-1.125 2.381h.966Zm5.528-2.53c-.749 0-1.405-.562-1.405-1.612 0-1.04.656-1.603 1.405-1.603.75 0 1.406.563 1.406 1.603 0 1.05-.656 1.612-1.406 1.612Zm0-4.002c-1.349 0-2.305 1.022-2.305 2.39 0 1.378.956 2.4 2.305 2.4 1.35 0 2.306-1.022 2.306-2.4 0-1.368-.956-2.39-2.306-2.39Zm6.358 4.105c0 .188.019.44.038.544h.843a7.771 7.771 0 0 1-.047-.834v-3.674h-.881v2.718c0 .684-.356 1.152-1.068 1.152-.74 0-1.022-.543-1.022-1.162v-2.708h-.881v2.84c0 1.021.638 1.808 1.687 1.808.525 0 1.088-.215 1.331-.684Zm4.4-.665c0 .712.59 1.35 1.509 1.35.806 0 1.255-.432 1.452-.75 0 .328.028.496.047.609h.862c-.018-.113-.056-.347-.056-.74v-2.26c0-.88-.525-1.649-1.874-1.649-.975 0-1.753.6-1.847 1.462l.844.197c.056-.525.403-.91 1.021-.91.685 0 .975.366.975.807 0 .16-.075.3-.347.337l-1.218.178c-.778.113-1.368.563-1.368 1.369Zm1.63.609c-.449 0-.731-.319-.731-.656 0-.403.282-.619.656-.675l1.378-.206v.206c0 .984-.581 1.33-1.303 1.33Zm11.748.6v-3.252h-3.177v.824h2.305c-.037.685-.572 1.734-2.052 1.734-1.191 0-2.315-.872-2.315-2.633 0-1.762 1.162-2.615 2.352-2.615 1.031 0 1.809.562 2.109 1.518l.834-.356c-.384-1.2-1.5-2.006-2.943-2.006-1.64 0-3.289 1.21-3.289 3.459s1.555 3.467 3.224 3.467c1.115 0 1.836-.553 2.127-1.078l.084.938h.741Zm3.82-4.555a1.648 1.648 0 0 0-.29-.028c-.459 0-1.022.168-1.35.862v-.787h-.862v4.508h.881v-2.259c0-.993.497-1.387 1.237-1.387.122 0 .253.01.384.028v-.937Zm.658 3.346c0 .712.591 1.35 1.509 1.35.806 0 1.256-.432 1.453-.75 0 .328.028.496.047.609h.862a4.223 4.223 0 0 1-.056-.74v-2.26c0-.88-.525-1.649-1.875-1.649-.975 0-1.752.6-1.846 1.462l.843.197c.057-.525.403-.91 1.022-.91.684 0 .975.366.975.807 0 .16-.075.3-.347.337l-1.219.178c-.777.113-1.368.563-1.368 1.369Zm1.631.609c-.45 0-.731-.319-.731-.656 0-.403.281-.619.656-.675l1.378-.206v.206c0 .984-.581 1.33-1.303 1.33Zm4.081-1.668c0-.928.525-1.584 1.331-1.584.806 0 1.293.637 1.293 1.565 0 .928-.497 1.63-1.303 1.63-.843 0-1.321-.683-1.321-1.611Zm2.633 1.659c0 .271.029.506.047.609h.853a7.21 7.21 0 0 1-.047-.834v-5.952h-.871v2.915c-.15-.366-.581-.76-1.378-.76-1.275 0-2.137 1.088-2.137 2.363 0 1.34.816 2.39 2.137 2.39.703 0 1.181-.375 1.396-.806v.074Zm5.277.065c0 .188.019.44.038.544h.843a7.513 7.513 0 0 1-.047-.834v-3.674h-.881v2.718c0 .684-.356 1.152-1.068 1.152-.741 0-1.022-.543-1.022-1.162v-2.708h-.881v2.84c0 1.021.638 1.808 1.687 1.808.525 0 1.087-.215 1.331-.684Zm2.056-.665c0 .712.591 1.35 1.509 1.35.806 0 1.256-.432 1.453-.75 0 .328.028.496.047.609h.862a4.223 4.223 0 0 1-.056-.74v-2.26c0-.88-.525-1.649-1.875-1.649-.974 0-1.752.6-1.846 1.462l.844.197c.056-.525.403-.91 1.021-.91.684 0 .975.366.975.807 0 .16-.075.3-.347.337l-1.218.178c-.778.113-1.369.563-1.369 1.369Zm1.631.609c-.45 0-.731-.319-.731-.656 0-.403.281-.619.656-.675l1.378-.206v.206c0 .984-.581 1.33-1.303 1.33Zm4.737-5.333h-.806v.731c0 .394-.206.694-.693.694h-.244v.796h.862v2.474c0 .816.488 1.285 1.256 1.285.3 0 .525-.057.6-.085v-.75a1.777 1.777 0 0 1-.347.038c-.459 0-.628-.206-.628-.619v-2.343h.975v-.796h-.975v-1.425Zm2.677 3.215c.037-.581.487-1.153 1.227-1.153.797 0 1.219.506 1.238 1.153h-2.465Zm2.596 1.171c-.169.506-.534.91-1.265.91-.76 0-1.341-.563-1.359-1.369h3.392c.01-.056.019-.169.019-.281 0-1.406-.778-2.362-2.165-2.362-1.134 0-2.156.965-2.156 2.38 0 1.528 1.06 2.41 2.269 2.41 1.049 0 1.771-.629 2.024-1.425l-.759-.263Zm8.585-3.59c-.15-.72-.75-1.649-2.25-1.649-1.227 0-2.193.937-2.193 1.978 0 .993.675 1.612 1.622 1.818l.946.206c.666.14.994.553.994 1.031 0 .581-.45 1.06-1.369 1.06-1.003 0-1.527-.685-1.593-1.425l-.881.28c.122.947.881 1.978 2.484 1.978 1.415 0 2.296-.937 2.296-1.968 0-.928-.619-1.621-1.725-1.865l-.993-.216c-.562-.121-.853-.487-.853-.965 0-.618.534-1.106 1.284-1.106.928 0 1.331.656 1.406 1.134l.825-.29Zm2.315-.796h-.806v.731c0 .394-.207.694-.694.694h-.244v.796h.863v2.474c0 .816.487 1.285 1.255 1.285.3 0 .525-.057.6-.085v-.75a1.775 1.775 0 0 1-.346.038c-.46 0-.628-.206-.628-.619v-2.343h.974v-.796h-.974v-1.425Zm5.121 5.39c0 .186.019.44.038.543h.843a7.513 7.513 0 0 1-.047-.834v-3.674h-.881v2.718c0 .684-.356 1.152-1.068 1.152-.741 0-1.022-.543-1.022-1.162v-2.708h-.881v2.84c0 1.021.638 1.808 1.687 1.808.525 0 1.088-.215 1.331-.684Zm2.817-1.725c0-.928.525-1.584 1.331-1.584.806 0 1.293.637 1.293 1.565 0 .928-.497 1.63-1.303 1.63-.843 0-1.321-.683-1.321-1.611Zm2.633 1.659c0 .271.028.506.047.609h.853a7.21 7.21 0 0 1-.047-.834v-5.952h-.871v2.915c-.15-.366-.582-.76-1.378-.76-1.275 0-2.137 1.088-2.137 2.363 0 1.34.815 2.39 2.137 2.39.703 0 1.181-.375 1.396-.806v.074Zm2.923-2.11c.038-.58.488-1.152 1.228-1.152.797 0 1.219.506 1.237 1.153h-2.465Zm2.596 1.172c-.168.506-.534.91-1.265.91-.759 0-1.34-.563-1.359-1.369h3.393a2.03 2.03 0 0 0 .019-.281c0-1.406-.778-2.362-2.165-2.362-1.134 0-2.156.965-2.156 2.38 0 1.528 1.059 2.41 2.268 2.41 1.05 0 1.772-.629 2.025-1.425l-.76-.263Zm2.793-1.059c0-.684.356-1.237 1.05-1.237.787 0 1.05.506 1.05 1.134v2.709h.881v-2.859c0-1.003-.535-1.78-1.612-1.78-.525 0-1.059.215-1.387.777v-.646h-.863v4.508h.881v-2.606Zm5.563-3.327h-.806v.731c0 .394-.206.694-.694.694h-.243v.796h.862v2.474c0 .816.487 1.285 1.256 1.285.3 0 .525-.057.6-.085v-.75a1.786 1.786 0 0 1-.347.038c-.459 0-.628-.206-.628-.619v-2.343h.975v-.796h-.975v-1.425Zm4.108 4.03c-.009-.094-.009-.131-.009-.178 0-.366.122-.703.412-.9l.431-.29c.544-.366.956-.881.956-1.631 0-.956-.74-1.884-2.052-1.884-1.444 0-2.071 1.06-2.071 1.921 0 .17.018.32.056.45l.909.113a1.572 1.572 0 0 1-.066-.46c0-.59.356-1.199 1.172-1.199.75 0 1.115.515 1.115 1.068 0 .366-.178.703-.497.919l-.412.281c-.553.375-.778.843-.778 1.462 0 .122 0 .216.009.328h.825Zm-1.031 1.34c0 .338.272.61.609.61a.616.616 0 0 0 .619-.61.624.624 0 0 0-.619-.618.616.616 0 0 0-.609.618Z" fill="#666"/></g><defs><filter id="a" x=".607" y=".929" width="264.217" height="198.182" filterUnits="userSpaceOnUse" color-interpolation-filters="sRGB"><feFlood flood-opacity="0" result="BackgroundImageFix"/><feColorMatrix in="SourceAlpha" values="0 0 0 0 0 0 0 0 0 0 0 0 0 0 0 0 0 0 127 0" result="hardAlpha"/><feOffset dx="6" dy="6"/><feColorMatrix values="0 0 0 0 0.811765 0 0 0 0 0.847059 0 0 0 0 0.988235 0 0 0 0.25 0"/><feBlend in2="BackgroundImageFix" result="effect1_dropShadow_2_3647"/><feBlend in="SourceGraphic" in2="effect1_dropShadow_2_3647" result="shape"/></filter></defs></svg>