<svg width="300" height="199" viewBox="0 0 300 199" fill="none" xmlns="http://www.w3.org/2000/svg">
<g filter="url(#filter0_d_2_3174)">
<rect x="3.48438" y="3.95068" width="288.586" height="186.13" fill="white"/>
<g filter="url(#filter1_d_2_3174)">
<rect x="16.9969" y="23.9236" width="77.8159" height="80.2184" rx="2.53145" fill="#F1F2F6" stroke="#006FF9" stroke-width="0.723271"/>
<rect x="25.0369" y="47.8086" width="61.7355" height="33.1611" rx="1.08491" fill="white"/>
<path d="M86.7553 44.5991H25.0369V48.5214H86.7723V44.5991H86.7553Z" fill="#DEDFE0"/>
<path d="M28.9808 48.0204C29.7249 48.0204 30.3676 47.4261 30.3676 46.6667C30.3676 45.9403 29.7588 45.313 28.9808 45.313C28.2367 45.313 27.594 45.9073 27.594 46.6667C27.6278 47.4261 28.2367 48.0204 28.9808 48.0204Z" fill="#FA5640"/>
<path d="M33.2088 48.0204C33.953 48.0204 34.5956 47.4261 34.5956 46.6667C34.5956 45.9403 33.9868 45.313 33.2088 45.313C32.4647 45.313 31.822 45.9073 31.822 46.6667C31.822 47.4261 32.4309 48.0204 33.2088 48.0204Z" fill="#FAC555"/>
<path d="M37.4027 48.0204C38.1468 48.0204 38.7895 47.4261 38.7895 46.6667C38.7895 45.9403 38.1806 45.313 37.4027 45.313C36.6585 45.313 36.0159 45.9073 36.0159 46.6667C36.0497 47.4261 36.6585 48.0204 37.4027 48.0204Z" fill="#6DCF6F"/>
<rect x="32.7083" y="61.7148" width="23.7272" height="3.20914" rx="1.08491" fill="#BEC6D3"/>
<rect x="32.708" y="73.8384" width="49.3153" height="3.20914" rx="1.08491" fill="#BEC6D3"/>
<rect x="32.708" y="67.7766" width="23.7272" height="3.20914" rx="1.08491" fill="#9DA8B7"/>
</g>
<ellipse cx="35.9958" cy="54.9402" rx="3.65299" ry="3.56571" fill="#88A4DC"/>
<ellipse cx="69.9686" cy="63.1414" rx="8.76717" ry="8.55771" fill="#F2EFEF"/>
<path d="M69.5854 68.4145C69.7973 68.6264 70.1407 68.6264 70.3526 68.4145L73.8047 64.9624C74.0166 64.7506 74.0166 64.4071 73.8047 64.1952C73.5929 63.9834 73.2494 63.9834 73.0376 64.1952L69.969 67.2638L66.9004 64.1952C66.6886 63.9834 66.3451 63.9834 66.1333 64.1952C65.9214 64.4071 65.9214 64.7506 66.1333 64.9624L69.5854 68.4145ZM69.4265 58.2507L69.4265 68.031L70.5114 68.031L70.5114 58.2507L69.4265 58.2507Z" fill="#4994F7"/>
<path d="M26.4077 116.069V113.698H28.8104V112.967H26.4077V111.153H29.0571V110.429H25.628V116.069H26.4077ZM31.8527 112.203C31.8129 112.195 31.7095 112.179 31.6061 112.179C31.2162 112.179 30.7389 112.322 30.4604 112.911V112.243H29.7285V116.069H30.4763V114.152C30.4763 113.309 30.898 112.974 31.5265 112.974C31.6299 112.974 31.7413 112.982 31.8527 112.998V112.203ZM34.2499 115.52C33.6134 115.52 33.0565 115.043 33.0565 114.152C33.0565 113.269 33.6134 112.791 34.2499 112.791C34.8864 112.791 35.4433 113.269 35.4433 114.152C35.4433 115.043 34.8864 115.52 34.2499 115.52ZM34.2499 112.123C33.1042 112.123 32.2927 112.99 32.2927 114.152C32.2927 115.321 33.1042 116.189 34.2499 116.189C35.3955 116.189 36.2071 115.321 36.2071 114.152C36.2071 112.99 35.3955 112.123 34.2499 112.123ZM37.9038 116.069V113.762C37.9038 113.189 38.2618 112.791 38.7949 112.791C39.3677 112.791 39.6064 113.173 39.6064 113.667V116.069H40.3542V113.754C40.3542 113.205 40.7123 112.791 41.2373 112.791C41.8022 112.791 42.0489 113.165 42.0489 113.667V116.069H42.7888V113.587C42.7888 112.585 42.1364 112.131 41.4681 112.131C40.9828 112.131 40.4895 112.306 40.1872 112.855C39.9803 112.362 39.5189 112.131 39.0415 112.131C38.596 112.131 38.1186 112.33 37.8799 112.752V112.243H37.1639V116.069H37.9038ZM45.7358 115.043C45.7358 115.648 46.2371 116.189 47.0167 116.189C47.701 116.189 48.0828 115.823 48.2499 115.552C48.2499 115.831 48.2738 115.974 48.2897 116.069H49.0216C49.0057 115.974 48.9739 115.775 48.9739 115.441V113.523C48.9739 112.776 48.5284 112.123 47.3827 112.123C46.5553 112.123 45.895 112.632 45.8154 113.364L46.5314 113.531C46.5792 113.086 46.8735 112.76 47.3986 112.76C47.9794 112.76 48.2261 113.07 48.2261 113.444C48.2261 113.579 48.1624 113.698 47.9317 113.73L46.8974 113.881C46.2371 113.977 45.7358 114.359 45.7358 115.043ZM47.1202 115.56C46.7383 115.56 46.4996 115.29 46.4996 115.003C46.4996 114.661 46.7383 114.478 47.0565 114.43L48.2261 114.255V114.43C48.2261 115.266 47.7328 115.56 47.1202 115.56ZM54.284 112.243L53.2895 115.123L52.4303 112.243H51.6108L52.8679 116.069H53.6555L54.65 113.157L55.6684 116.069H56.4401L57.6812 112.243H56.8936L56.0503 115.123L55.0558 112.243H54.284ZM58.8444 113.762C58.8763 113.269 59.2581 112.784 59.8867 112.784C60.5629 112.784 60.9209 113.213 60.9368 113.762H58.8444ZM61.0482 114.757C60.905 115.186 60.5947 115.528 59.9742 115.528C59.3297 115.528 58.8365 115.051 58.8206 114.367H61.7006C61.7086 114.319 61.7165 114.224 61.7165 114.128C61.7165 112.935 61.0562 112.123 59.8787 112.123C58.916 112.123 58.0488 112.943 58.0488 114.144C58.0488 115.441 58.9479 116.189 59.9742 116.189C60.8652 116.189 61.4779 115.656 61.6927 114.979L61.0482 114.757ZM63.4111 116.069V115.512C63.6498 115.926 64.0873 116.173 64.6522 116.173C65.7899 116.173 66.4344 115.274 66.4344 114.136C66.4344 113.022 65.8377 112.131 64.6761 112.131C64.0396 112.131 63.5941 112.441 63.4111 112.784V110.309H62.6712V116.069H63.4111ZM65.6706 114.136C65.6706 114.963 65.2251 115.504 64.5408 115.504C63.8805 115.504 63.4031 114.963 63.4031 114.136C63.4031 113.309 63.8805 112.791 64.5408 112.791C65.233 112.791 65.6706 113.309 65.6706 114.136ZM70.1162 117.581V115.552C70.323 115.894 70.7686 116.173 71.3573 116.173C72.4791 116.173 73.1394 115.29 73.1394 114.152C73.1394 113.038 72.5268 112.155 71.3812 112.155C70.7606 112.155 70.3071 112.457 70.1003 112.839V112.243H69.3763V117.581H70.1162ZM72.3757 114.152C72.3757 114.94 71.9381 115.504 71.2459 115.504C70.5617 115.504 70.1082 114.94 70.1082 114.152C70.1082 113.388 70.5617 112.815 71.2459 112.815C71.9461 112.815 72.3757 113.388 72.3757 114.152ZM73.8537 115.043C73.8537 115.648 74.3549 116.189 75.1346 116.189C75.8188 116.189 76.2007 115.823 76.3678 115.552C76.3678 115.831 76.3916 115.974 76.4076 116.069H77.1395C77.1236 115.974 77.0918 115.775 77.0918 115.441V113.523C77.0918 112.776 76.6462 112.123 75.5006 112.123C74.6732 112.123 74.0128 112.632 73.9332 113.364L74.6493 113.531C74.697 113.086 74.9914 112.76 75.5165 112.76C76.0973 112.76 76.3439 113.07 76.3439 113.444C76.3439 113.579 76.2803 113.698 76.0495 113.73L75.0153 113.881C74.3549 113.977 73.8537 114.359 73.8537 115.043ZM75.238 115.56C74.8561 115.56 74.6175 115.29 74.6175 115.003C74.6175 114.661 74.8561 114.478 75.1744 114.43L76.3439 114.255V114.43C76.3439 115.266 75.8506 115.56 75.238 115.56ZM77.9784 116.276C78.0738 117.096 78.7899 117.7 79.7446 117.7C81.1846 117.7 81.662 116.754 81.662 115.783V112.243H80.9221V112.776C80.7311 112.394 80.3333 112.171 79.7446 112.171C78.6944 112.171 77.9863 112.998 77.9863 114.033C77.9863 115.115 78.7262 115.886 79.7446 115.886C80.3174 115.886 80.7311 115.608 80.9141 115.258V115.807C80.9141 116.634 80.5481 117.048 79.7446 117.048C79.1638 117.048 78.7581 116.642 78.7024 116.109L77.9784 116.276ZM79.856 115.258C79.1797 115.258 78.7501 114.78 78.7501 114.033C78.7501 113.293 79.1956 112.807 79.856 112.807C80.5004 112.807 80.9459 113.293 80.9459 114.033C80.9459 114.773 80.5004 115.258 79.856 115.258ZM83.3417 113.762C83.3735 113.269 83.7554 112.784 84.3839 112.784C85.0602 112.784 85.4182 113.213 85.4341 113.762H83.3417ZM85.5455 114.757C85.4023 115.186 85.092 115.528 84.4714 115.528C83.827 115.528 83.3337 115.051 83.3178 114.367H86.1979C86.2058 114.319 86.2138 114.224 86.2138 114.128C86.2138 112.935 85.5534 112.123 84.376 112.123C83.4133 112.123 82.5461 112.943 82.5461 114.144C82.5461 115.441 83.4451 116.189 84.4714 116.189C85.3625 116.189 85.9751 115.656 86.1899 114.979L85.5455 114.757Z" fill="#1074ED"/>
<path d="M28.7867 145.355V144.548H25.832V142.622H28.5116V141.806H25.832V139.872H28.7867V139.064H24.9624V145.355H28.7867ZM30.7334 142.889C30.7334 142.241 31.0706 141.717 31.7272 141.717C32.4725 141.717 32.721 142.196 32.721 142.791V145.355H33.555V142.649C33.555 141.7 33.0493 140.963 32.0289 140.963C31.532 140.963 31.0263 141.167 30.7157 141.7V141.087H29.8994V145.355H30.7334V142.889ZM35.9997 139.739H35.2367V140.431C35.2367 140.803 35.0415 141.087 34.5801 141.087H34.3494V141.842H35.1657V144.184C35.1657 144.956 35.6271 145.4 36.3546 145.4C36.6386 145.4 36.8515 145.346 36.9225 145.32V144.61C36.8515 144.628 36.7007 144.645 36.5942 144.645C36.1594 144.645 35.9997 144.45 35.9997 144.06V141.842H36.9225V141.087H35.9997V139.739ZM38.5337 142.782C38.5692 142.232 38.9951 141.691 39.6961 141.691C40.4503 141.691 40.8495 142.17 40.8673 142.782H38.5337ZM40.9915 143.891C40.8318 144.37 40.4858 144.752 39.7937 144.752C39.075 144.752 38.5248 144.219 38.5071 143.456H41.7191C41.728 143.403 41.7368 143.297 41.7368 143.19C41.7368 141.859 41.0004 140.954 39.6872 140.954C38.6136 140.954 37.6464 141.868 37.6464 143.208C37.6464 144.654 38.6491 145.488 39.7937 145.488C40.7874 145.488 41.4706 144.894 41.7102 144.14L40.9915 143.891ZM45.1706 141.043C45.1262 141.034 45.0109 141.016 44.8955 141.016C44.4608 141.016 43.9284 141.176 43.6178 141.833V141.087H42.8015V145.355H43.6356V143.217C43.6356 142.276 44.1058 141.904 44.8068 141.904C44.9221 141.904 45.0464 141.913 45.1706 141.93V141.043ZM50.5404 145.488C51.8181 145.488 52.803 144.69 52.803 143.208V139.064H51.9334V143.181C51.9334 144.14 51.4277 144.681 50.5404 144.681C49.6619 144.681 49.1384 144.14 49.1384 143.181V139.064H48.2778V143.208C48.2778 144.69 49.2627 145.488 50.5404 145.488ZM57.567 145.355H58.5785L57.079 142.72C58.0284 142.543 58.6052 141.842 58.6052 140.937C58.6052 139.898 57.8687 139.064 56.6797 139.064H54.3107V145.355H55.1891V142.782H56.1296L57.567 145.355ZM55.1891 142.001V139.845H56.52C57.2299 139.845 57.709 140.271 57.709 140.937C57.709 141.584 57.2299 142.001 56.52 142.001H55.1891ZM63.6462 145.355V144.539H60.6738V139.064H59.8042V145.355H63.6462Z" fill="black"/>
<path d="M16.3023 124.108V119.697H15.6802V124.108H16.3023ZM17.9402 124.108V122.304C17.9402 121.856 18.2202 121.545 18.637 121.545C19.0849 121.545 19.2716 121.843 19.2716 122.229V124.108H19.8564V122.298C19.8564 121.868 20.1363 121.545 20.5469 121.545C20.9886 121.545 21.1815 121.837 21.1815 122.229V124.108H21.7601V122.167C21.7601 121.383 21.2499 121.028 20.7273 121.028C20.3478 121.028 19.9621 121.165 19.7257 121.595C19.564 121.209 19.2031 121.028 18.8298 121.028C18.4815 121.028 18.1082 121.184 17.9215 121.514V121.115H17.3616V124.108H17.9402ZM23.2745 125.29V123.704C23.4362 123.971 23.7846 124.189 24.245 124.189C25.1222 124.189 25.6386 123.498 25.6386 122.609C25.6386 121.738 25.1595 121.047 24.2637 121.047C23.7784 121.047 23.4238 121.283 23.262 121.582V121.115H22.6959V125.29H23.2745ZM25.0413 122.609C25.0413 123.224 24.6992 123.666 24.1579 123.666C23.6229 123.666 23.2683 123.224 23.2683 122.609C23.2683 122.011 23.6229 121.563 24.1579 121.563C24.7054 121.563 25.0413 122.011 25.0413 122.609ZM27.6653 123.679C27.1676 123.679 26.7321 123.305 26.7321 122.609C26.7321 121.918 27.1676 121.545 27.6653 121.545C28.163 121.545 28.5985 121.918 28.5985 122.609C28.5985 123.305 28.163 123.679 27.6653 123.679ZM27.6653 121.022C26.7695 121.022 26.1349 121.7 26.1349 122.609C26.1349 123.523 26.7695 124.201 27.6653 124.201C28.5612 124.201 29.1958 123.523 29.1958 122.609C29.1958 121.7 28.5612 121.022 27.6653 121.022ZM31.6051 121.084C31.574 121.078 31.4931 121.066 31.4122 121.066C31.1074 121.066 30.7341 121.178 30.5163 121.638V121.115H29.944V124.108H30.5288V122.609C30.5288 121.949 30.8585 121.688 31.35 121.688C31.4309 121.688 31.518 121.694 31.6051 121.706V121.084ZM33.1702 120.17H32.6352V120.655C32.6352 120.916 32.4983 121.115 32.1748 121.115H32.013V121.644H32.5854V123.287C32.5854 123.828 32.9089 124.139 33.4191 124.139C33.6181 124.139 33.7675 124.102 33.8172 124.083V123.585C33.7675 123.598 33.6617 123.61 33.587 123.61C33.2822 123.61 33.1702 123.473 33.1702 123.2V121.644H33.8172V121.115H33.1702V120.17ZM35.9665 123.305C35.9665 123.778 36.3584 124.201 36.9681 124.201C37.5032 124.201 37.8018 123.915 37.9324 123.704C37.9324 123.921 37.9511 124.033 37.9635 124.108H38.5359C38.5234 124.033 38.4986 123.878 38.4986 123.616V122.117C38.4986 121.532 38.1502 121.022 37.2543 121.022C36.6073 121.022 36.0909 121.42 36.0287 121.993L36.5886 122.123C36.626 121.775 36.8561 121.52 37.2667 121.52C37.7209 121.52 37.9138 121.762 37.9138 122.055C37.9138 122.161 37.864 122.254 37.6836 122.279L36.8748 122.397C36.3584 122.472 35.9665 122.77 35.9665 123.305ZM37.049 123.71C36.7504 123.71 36.5637 123.498 36.5637 123.274C36.5637 123.007 36.7504 122.864 36.9992 122.826L37.9138 122.689V122.826C37.9138 123.48 37.528 123.71 37.049 123.71ZM42.4705 121.644V121.115H41.7488V120.643C41.7488 120.232 42.0163 120.132 42.2216 120.132C42.3709 120.132 42.4456 120.157 42.4767 120.17V119.647C42.4518 119.629 42.3274 119.585 42.1283 119.585C41.5871 119.585 41.1453 119.946 41.1453 120.612V121.115H40.5916V121.644H41.1453V124.108H41.7488V121.644H42.4705ZM44.2575 123.679C43.7598 123.679 43.3243 123.305 43.3243 122.609C43.3243 121.918 43.7598 121.545 44.2575 121.545C44.7552 121.545 45.1907 121.918 45.1907 122.609C45.1907 123.305 44.7552 123.679 44.2575 123.679ZM44.2575 121.022C43.3616 121.022 42.7271 121.7 42.7271 122.609C42.7271 123.523 43.3616 124.201 44.2575 124.201C45.1534 124.201 45.7879 123.523 45.7879 122.609C45.7879 121.7 45.1534 121.022 44.2575 121.022ZM48.1972 121.084C48.1661 121.078 48.0853 121.066 48.0044 121.066C47.6995 121.066 47.3263 121.178 47.1085 121.638V121.115H46.5362V124.108H47.121V122.609C47.121 121.949 47.4507 121.688 47.9422 121.688C48.023 121.688 48.1101 121.694 48.1972 121.706V121.084ZM49.3991 124.108V122.304C49.3991 121.856 49.6791 121.545 50.0959 121.545C50.5438 121.545 50.7305 121.843 50.7305 122.229V124.108H51.3153V122.298C51.3153 121.868 51.5952 121.545 52.0059 121.545C52.4476 121.545 52.6404 121.837 52.6404 122.229V124.108H53.219V122.167C53.219 121.383 52.7089 121.028 52.1863 121.028C51.8068 121.028 51.421 121.165 51.1846 121.595C51.0229 121.209 50.6621 121.028 50.2888 121.028C49.9404 121.028 49.5671 121.184 49.3805 121.514V121.115H48.8205V124.108H49.3991ZM57.2157 121.644V121.115H56.494V120.643C56.494 120.232 56.7616 120.132 56.9669 120.132C57.1162 120.132 57.1908 120.157 57.2219 120.17V119.647C57.197 119.629 57.0726 119.585 56.8735 119.585C56.3323 119.585 55.8906 119.946 55.8906 120.612V121.115H55.3369V121.644H55.8906V124.108H56.494V121.644H57.2157ZM59.5037 121.084C59.4726 121.078 59.3918 121.066 59.3109 121.066C59.006 121.066 58.6328 121.178 58.415 121.638V121.115H57.8427V124.108H58.4275V122.609C58.4275 121.949 58.7572 121.688 59.2487 121.688C59.3295 121.688 59.4166 121.694 59.5037 121.706V121.084ZM61.3783 123.679C60.8806 123.679 60.4451 123.305 60.4451 122.609C60.4451 121.918 60.8806 121.545 61.3783 121.545C61.876 121.545 62.3115 121.918 62.3115 122.609C62.3115 123.305 61.876 123.679 61.3783 123.679ZM61.3783 121.022C60.4824 121.022 59.8478 121.7 59.8478 122.609C59.8478 123.523 60.4824 124.201 61.3783 124.201C62.2741 124.201 62.9087 123.523 62.9087 122.609C62.9087 121.7 62.2741 121.022 61.3783 121.022ZM64.2355 124.108V122.304C64.2355 121.856 64.5154 121.545 64.9323 121.545C65.3802 121.545 65.5668 121.843 65.5668 122.229V124.108H66.1517V122.298C66.1517 121.868 66.4316 121.545 66.8422 121.545C67.2839 121.545 67.4768 121.837 67.4768 122.229V124.108H68.0554V122.167C68.0554 121.383 67.5452 121.028 67.0226 121.028C66.6431 121.028 66.2574 121.165 66.021 121.595C65.8593 121.209 65.4984 121.028 65.1251 121.028C64.7767 121.028 64.4035 121.184 64.2168 121.514V121.115H63.6569V124.108H64.2355ZM70.3599 123.305C70.3599 123.778 70.7518 124.201 71.3615 124.201C71.8965 124.201 72.1952 123.915 72.3258 123.704C72.3258 123.921 72.3445 124.033 72.3569 124.108H72.9293C72.9168 124.033 72.892 123.878 72.892 123.616V122.117C72.892 121.532 72.5436 121.022 71.6477 121.022C71.0007 121.022 70.4843 121.42 70.4221 121.993L70.982 122.123C71.0193 121.775 71.2495 121.52 71.6601 121.52C72.1143 121.52 72.3071 121.762 72.3071 122.055C72.3071 122.161 72.2574 122.254 72.077 122.279L71.2682 122.397C70.7518 122.472 70.3599 122.77 70.3599 123.305ZM71.4424 123.71C71.1438 123.71 70.9571 123.498 70.9571 123.274C70.9571 123.007 71.1438 122.864 71.3926 122.826L72.3071 122.689V122.826C72.3071 123.48 71.9214 123.71 71.4424 123.71ZM74.3878 122.378C74.3878 121.924 74.6242 121.557 75.0846 121.557C75.6072 121.557 75.7814 121.893 75.7814 122.31V124.108H76.3662V122.21C76.3662 121.545 76.0116 121.028 75.2961 121.028C74.9477 121.028 74.5931 121.171 74.3753 121.545V121.115H73.803V124.108H74.3878V122.378ZM78.043 125.358L79.9902 121.115H79.3619L78.466 123.181L77.5328 121.115H76.8609L78.1487 123.778L77.4022 125.358H78.043ZM82.6868 125.29V123.704C82.8485 123.971 83.1969 124.189 83.6573 124.189C84.5345 124.189 85.0509 123.498 85.0509 122.609C85.0509 121.738 84.5718 121.047 83.676 121.047C83.1907 121.047 82.8361 121.283 82.6743 121.582V121.115H82.1082V125.29H82.6868ZM84.4536 122.609C84.4536 123.224 84.1114 123.666 83.5702 123.666C83.0352 123.666 82.6805 123.224 82.6805 122.609C82.6805 122.011 83.0352 121.563 83.5702 121.563C84.1177 121.563 84.4536 122.011 84.4536 122.609ZM85.6094 123.305C85.6094 123.778 86.0013 124.201 86.611 124.201C87.146 124.201 87.4447 123.915 87.5753 123.704C87.5753 123.921 87.594 124.033 87.6064 124.108H88.1788C88.1663 124.033 88.1414 123.878 88.1414 123.616V122.117C88.1414 121.532 87.7931 121.022 86.8972 121.022C86.2502 121.022 85.7338 121.42 85.6716 121.993L86.2315 122.123C86.2688 121.775 86.499 121.52 86.9096 121.52C87.3638 121.52 87.5566 121.762 87.5566 122.055C87.5566 122.161 87.5069 122.254 87.3265 122.279L86.5177 122.397C86.0013 122.472 85.6094 122.77 85.6094 123.305ZM86.6919 123.71C86.3933 123.71 86.2066 123.498 86.2066 123.274C86.2066 123.007 86.3933 122.864 86.6421 122.826L87.5566 122.689V122.826C87.5566 123.48 87.1709 123.71 86.6919 123.71ZM88.8347 124.27C88.9094 124.91 89.4693 125.383 90.2159 125.383C91.3419 125.383 91.7152 124.643 91.7152 123.884V121.115H91.1366V121.532C90.9873 121.234 90.6762 121.059 90.2159 121.059C89.3947 121.059 88.841 121.706 88.841 122.515C88.841 123.361 89.4195 123.965 90.2159 123.965C90.6638 123.965 90.9873 123.747 91.1304 123.473V123.903C91.1304 124.55 90.8442 124.873 90.2159 124.873C89.7617 124.873 89.4444 124.556 89.4009 124.139L88.8347 124.27ZM90.303 123.473C89.7742 123.473 89.4382 123.1 89.4382 122.515C89.4382 121.937 89.7866 121.557 90.303 121.557C90.8069 121.557 91.1553 121.937 91.1553 122.515C91.1553 123.094 90.8069 123.473 90.303 123.473ZM93.0287 122.304C93.0536 121.918 93.3522 121.539 93.8437 121.539C94.3725 121.539 94.6524 121.874 94.6649 122.304H93.0287ZM94.752 123.081C94.64 123.417 94.3974 123.685 93.9121 123.685C93.4082 123.685 93.0225 123.312 93.01 122.777H95.2621C95.2683 122.739 95.2746 122.665 95.2746 122.59C95.2746 121.657 94.7582 121.022 93.8374 121.022C93.0847 121.022 92.4065 121.663 92.4065 122.602C92.4065 123.616 93.1096 124.201 93.9121 124.201C94.6089 124.201 95.0879 123.784 95.2559 123.256L94.752 123.081ZM95.8677 123.71C95.8677 123.952 96.0544 124.139 96.297 124.139C96.5396 124.139 96.7325 123.952 96.7325 123.71C96.7325 123.467 96.5396 123.274 96.297 123.274C96.0544 123.274 95.8677 123.467 95.8677 123.71Z" fill="#1074ED"/>
<g opacity="0.75">
<rect x="106.864" y="23.563" width="78.5392" height="80.9417" rx="2.89308" fill="#F1F2F6"/>
<rect x="121.11" y="34.9722" width="43.8358" height="52.0594" rx="1.08491" fill="#DEE4EC"/>
<rect x="124.034" y="37.4678" width="37.991" height="12.1234" rx="1.80818" fill="#88A4DC"/>
<rect x="124.033" y="52.4438" width="18.6302" height="3.20914" rx="1.08491" fill="#BEC6D3"/>
<rect x="124.033" y="65.6367" width="17.8996" height="3.20914" rx="1.08491" fill="#BEC6D3"/>
<rect x="124.033" y="57.7925" width="37.2604" height="3.20914" rx="1.08491" fill="#9DA8B7"/>
<rect x="124.033" y="71.698" width="37.2604" height="3.20914" rx="1.08491" fill="#9DA8B7"/>
<rect x="127.686" y="41.3906" width="43.8358" height="52.0594" rx="1.08491" fill="white"/>
<rect x="130.609" y="43.8862" width="37.991" height="12.1234" rx="1.80818" fill="#88A4DC"/>
<rect x="130.608" y="58.8618" width="18.6302" height="3.20914" rx="1.08491" fill="#BEC6D3"/>
<rect x="130.608" y="72.0547" width="17.8996" height="3.20914" rx="1.08491" fill="#BEC6D3"/>
<rect x="130.608" y="64.2107" width="37.2604" height="3.20914" rx="1.08491" fill="#9DA8B7"/>
<rect x="130.608" y="78.1169" width="37.2604" height="3.20914" rx="1.08491" fill="#9DA8B7"/>
<rect x="197.093" y="23.5625" width="78.5392" height="80.9417" rx="2.89308" fill="#F1F2F6"/>
<rect x="214.628" y="38.1816" width="43.8358" height="52.0594" rx="1.08491" fill="white"/>
<path fill-rule="evenodd" clip-rule="evenodd" d="M214.627 54.9408H238.755C239.754 54.9408 240.563 54.1313 240.563 53.1326V44.6256C240.563 43.6269 239.754 42.8174 238.755 42.8174H214.627V54.9408Z" fill="#EB4551"/>
<path d="M220.011 49.0496V46.8117H221.319C222.102 46.8117 222.581 47.2538 222.581 47.9445C222.581 48.6168 222.102 49.0496 221.319 49.0496H220.011ZM221.485 49.86C222.691 49.86 223.502 49.0404 223.502 47.9353C223.502 46.8394 222.691 46.0013 221.485 46.0013H219.109V52.5308H220.011V49.86H221.485ZM225.506 51.7295V46.8025H226.86C228.067 46.8025 229.061 47.6314 229.061 49.2798C229.061 50.9191 228.048 51.7295 226.842 51.7295H225.506ZM226.869 52.5308C228.527 52.5308 229.991 51.4164 229.991 49.2798C229.991 47.1341 228.546 46.0013 226.888 46.0013H224.604V52.5308H226.869ZM232.135 52.5308V49.7864H234.916V48.9391H232.135V46.8394H235.201V46.0013H231.232V52.5308H232.135Z" fill="white"/>
<rect x="217.549" y="59.2195" width="18.6302" height="3.20914" rx="1.08491" fill="#D5DEE9"/>
<rect x="217.549" y="74.1953" width="17.8996" height="3.20914" rx="1.08491" fill="#D5DEE9"/>
<rect x="217.549" y="64.5679" width="37.2604" height="3.20914" rx="1.08491" fill="#D5DEE9"/>
<rect x="217.549" y="79.9004" width="37.2604" height="3.20914" rx="1.08491" fill="#D5DEE9"/>
<g opacity="0.5">
<rect x="122.672" y="110.473" width="46.5387" height="5.70514" fill="#A8AABB"/>
</g>
<g opacity="0.5">
<rect x="211.931" y="110.473" width="47.0209" height="5.70514" fill="#A8AABB"/>
</g>
</g>
<rect x="22.0331" y="150.779" width="253.035" height="24.4356" rx="2.25442" stroke="#E5E5E5" stroke-width="1.12721"/>
<path d="M30.831 163.522C30.8682 162.852 31.2774 162.331 31.9717 162.331C32.7653 162.331 33.1001 162.864 33.1001 163.546V167.105H34.7492V163.261C34.7492 161.922 34.03 160.843 32.4801 160.843C31.8973 160.843 31.2278 161.042 30.831 161.513V158.128H29.1819V167.105H30.831V163.522ZM38.4564 159.182H36.9685V160.037C36.9685 160.583 36.6709 161.005 36.0261 161.005H35.7161V162.468H36.8197V165.307C36.8197 166.485 37.5636 167.192 38.754 167.192C39.2375 167.192 39.5351 167.105 39.6839 167.043V165.679C39.5971 165.704 39.3739 165.729 39.1755 165.729C38.7044 165.729 38.4564 165.555 38.4564 165.022V162.468H39.6839V161.005H38.4564V159.182ZM43.0819 159.182H41.594V160.037C41.594 160.583 41.2964 161.005 40.6516 161.005H40.3417V162.468H41.4452V165.307C41.4452 166.485 42.1892 167.192 43.3795 167.192C43.8631 167.192 44.1607 167.105 44.3094 167.043V165.679C44.2226 165.704 43.9995 165.729 43.8011 165.729C43.3299 165.729 43.0819 165.555 43.0819 165.022V162.468H44.3094V161.005H43.0819V159.182ZM47.2746 169.461V166.51C47.5722 166.919 48.1922 167.254 49.0353 167.254C50.7588 167.254 51.912 165.89 51.912 164.042C51.912 162.232 50.8828 160.868 49.0973 160.868C48.1798 160.868 47.4978 161.277 47.225 161.748V161.005H45.6255V169.461H47.2746ZM50.2877 164.055C50.2877 165.146 49.6181 165.778 48.7749 165.778C47.9318 165.778 47.2498 165.133 47.2498 164.055C47.2498 162.976 47.9318 162.344 48.7749 162.344C49.6181 162.344 50.2877 162.976 50.2877 164.055ZM52.6969 165.406C52.7713 166.101 53.4037 167.291 55.2388 167.291C56.8383 167.291 57.6071 166.274 57.6071 165.282C57.6071 164.39 56.9995 163.658 55.7968 163.41L54.9288 163.224C54.594 163.162 54.3708 162.976 54.3708 162.678C54.3708 162.331 54.718 162.071 55.152 162.071C55.8463 162.071 56.1067 162.53 56.1563 162.889L57.5327 162.579C57.4583 161.922 56.8755 160.819 55.1396 160.819C53.8253 160.819 52.8581 161.724 52.8581 162.815C52.8581 163.67 53.3913 164.377 54.5692 164.638L55.3752 164.824C55.8463 164.923 56.0323 165.146 56.0323 165.419C56.0323 165.741 55.772 166.026 55.2264 166.026C54.5072 166.026 54.1476 165.58 54.1104 165.096L52.6969 165.406ZM58.8834 166.088C58.8834 166.696 59.3794 167.192 59.987 167.192C60.6069 167.192 61.1153 166.696 61.1153 166.088C61.1153 165.468 60.6069 164.972 59.987 164.972C59.3794 164.972 58.8834 165.468 58.8834 166.088ZM58.871 162.034C58.871 162.641 59.367 163.137 59.9746 163.137C60.5945 163.137 61.1029 162.641 61.1029 162.034C61.1029 161.414 60.5945 160.918 59.9746 160.918C59.367 160.918 58.871 161.414 58.871 162.034ZM67.805 158.202H66.3047L61.9153 167.217H63.4033L67.805 158.202ZM72.9997 158.202H71.4993L67.11 167.217H68.5979L72.9997 158.202ZM77.0077 161.005L75.6809 164.923L74.5526 161.005H72.8167L74.7634 167.105H76.4373L77.8384 162.939L79.2643 167.105H80.9134L82.8229 161.005H81.1862L80.0579 164.935L78.7436 161.005H77.0077ZM87.3122 161.005L85.9855 164.923L84.8571 161.005H83.1212L85.0679 167.105H86.7418L88.1429 162.939L89.5689 167.105H91.218L93.1275 161.005H91.4908L90.3624 164.935L89.0481 161.005H87.3122ZM97.6167 161.005L96.29 164.923L95.1616 161.005H93.4257L95.3724 167.105H97.0463L98.4475 162.939L99.8734 167.105H101.522L103.432 161.005H101.795L100.667 164.935L99.3526 161.005H97.6167ZM103.806 166.063C103.806 166.683 104.314 167.192 104.934 167.192C105.567 167.192 106.075 166.683 106.075 166.063C106.075 165.443 105.567 164.935 104.934 164.935C104.314 164.935 103.806 165.443 103.806 166.063ZM107.299 165.443C107.299 166.398 108.092 167.279 109.394 167.279C110.299 167.279 110.882 166.857 111.192 166.373C111.192 166.609 111.217 166.944 111.254 167.105H112.767C112.73 166.894 112.692 166.46 112.692 166.138V163.137C112.692 161.91 111.973 160.819 110.039 160.819C108.402 160.819 107.522 161.872 107.423 162.827L108.886 163.137C108.935 162.604 109.332 162.145 110.051 162.145C110.746 162.145 111.08 162.505 111.08 162.939C111.08 163.15 110.969 163.323 110.622 163.373L109.121 163.596C108.105 163.745 107.299 164.352 107.299 165.443ZM109.741 166.051C109.208 166.051 108.948 165.704 108.948 165.344C108.948 164.873 109.283 164.638 109.704 164.576L111.08 164.365V164.638C111.08 165.716 110.436 166.051 109.741 166.051ZM116.004 167.105V158.128H114.355V167.105H116.004ZM121.738 167.105H123.312C123.288 166.894 123.25 166.473 123.25 166.001V161.005H121.601V164.551C121.601 165.257 121.18 165.753 120.448 165.753C119.679 165.753 119.332 165.208 119.332 164.526V161.005H117.683V164.861C117.683 166.187 118.526 167.266 120.002 167.266C120.647 167.266 121.353 167.018 121.688 166.448C121.688 166.696 121.713 166.981 121.738 167.105ZM126.659 167.105V163.534C126.659 162.864 127.081 162.331 127.8 162.331C128.544 162.331 128.879 162.827 128.879 163.484V167.105H130.516V163.534C130.516 162.877 130.937 162.331 131.644 162.331C132.4 162.331 132.723 162.827 132.723 163.484V167.105H134.322V163.15C134.322 161.513 133.243 160.831 132.115 160.831C131.309 160.831 130.664 161.104 130.181 161.848C129.871 161.19 129.201 160.831 128.371 160.831C127.701 160.831 126.92 161.153 126.585 161.748V161.005H125.01V167.105H126.659ZM137.642 163.596C137.642 162.889 138.064 162.331 138.783 162.331C139.576 162.331 139.911 162.864 139.911 163.546V167.105H141.56V163.261C141.56 161.922 140.866 160.843 139.353 160.843C138.696 160.843 137.964 161.129 137.592 161.761V161.005H135.993V167.105H137.642V163.596ZM144.883 167.105V161.005H143.234V167.105H144.883ZM143.036 159.008C143.036 159.554 143.494 160.013 144.052 160.013C144.623 160.013 145.069 159.554 145.069 159.008C145.069 158.438 144.623 157.979 144.052 157.979C143.494 157.979 143.036 158.438 143.036 159.008ZM152.179 168.457V167.105H145.843V168.457H152.179ZM152.618 165.406C152.693 166.101 153.325 167.291 155.16 167.291C156.76 167.291 157.528 166.274 157.528 165.282C157.528 164.39 156.921 163.658 155.718 163.41L154.85 163.224C154.515 163.162 154.292 162.976 154.292 162.678C154.292 162.331 154.639 162.071 155.073 162.071C155.768 162.071 156.028 162.53 156.078 162.889L157.454 162.579C157.379 161.922 156.797 160.819 155.061 160.819C153.746 160.819 152.779 161.724 152.779 162.815C152.779 163.67 153.312 164.377 154.49 164.638L155.296 164.824C155.768 164.923 155.954 165.146 155.954 165.419C155.954 165.741 155.693 166.026 155.148 166.026C154.428 166.026 154.069 165.58 154.032 165.096L152.618 165.406ZM162.798 167.105H164.373C164.348 166.894 164.311 166.473 164.311 166.001V161.005H162.662V164.551C162.662 165.257 162.24 165.753 161.509 165.753C160.74 165.753 160.393 165.208 160.393 164.526V161.005H158.744V164.861C158.744 166.187 159.587 167.266 161.062 167.266C161.707 167.266 162.414 167.018 162.749 166.448C162.749 166.696 162.774 166.981 162.798 167.105ZM169.791 160.98C169.667 160.967 169.543 160.955 169.406 160.955C168.886 160.955 168.043 161.104 167.671 161.91V161.005H166.071V167.105H167.72V164.315C167.72 163.001 168.452 162.592 169.295 162.592C169.444 162.592 169.605 162.604 169.791 162.641V160.98ZM176.886 161.005H175.15L173.699 165.096L172.186 161.005H170.376L172.868 167.105H174.517L176.886 161.005ZM178.91 163.36C178.947 162.802 179.419 162.158 180.274 162.158C181.217 162.158 181.613 162.753 181.638 163.36H178.91ZM181.799 164.947C181.601 165.493 181.179 165.877 180.411 165.877C179.592 165.877 178.91 165.295 178.873 164.489H183.238C183.238 164.464 183.262 164.216 183.262 163.98C183.262 162.021 182.134 160.819 180.249 160.819C178.687 160.819 177.249 162.083 177.249 164.03C177.249 166.088 178.724 167.291 180.398 167.291C181.898 167.291 182.866 166.411 183.176 165.357L181.799 164.947ZM186.584 169.51L190.416 161.005H188.655L187.155 164.576L185.53 161.005H183.683L186.274 166.336L184.836 169.51H186.584ZM190.117 166.063C190.117 166.683 190.625 167.192 191.245 167.192C191.878 167.192 192.386 166.683 192.386 166.063C192.386 165.443 191.878 164.935 191.245 164.935C190.625 164.935 190.117 165.443 190.117 166.063ZM196.577 162.344C197.395 162.344 197.779 162.864 197.928 163.373L199.404 162.877C199.143 161.848 198.201 160.819 196.539 160.819C194.766 160.819 193.378 162.17 193.378 164.055C193.378 165.927 194.791 167.291 196.589 167.291C198.213 167.291 199.168 166.249 199.441 165.233L197.99 164.749C197.854 165.22 197.432 165.778 196.589 165.778C195.746 165.778 195.027 165.158 195.027 164.055C195.027 162.951 195.733 162.344 196.577 162.344ZM203.333 165.791C202.527 165.791 201.783 165.195 201.783 164.055C201.783 162.902 202.527 162.319 203.333 162.319C204.139 162.319 204.883 162.902 204.883 164.055C204.883 165.208 204.139 165.791 203.333 165.791ZM203.333 160.819C201.511 160.819 200.134 162.17 200.134 164.055C200.134 165.927 201.511 167.291 203.333 167.291C205.156 167.291 206.532 165.927 206.532 164.055C206.532 162.17 205.156 160.819 203.333 160.819ZM209.483 167.105V163.534C209.483 162.864 209.905 162.331 210.624 162.331C211.368 162.331 211.703 162.827 211.703 163.484V167.105H213.339V163.534C213.339 162.877 213.761 162.331 214.468 162.331C215.224 162.331 215.546 162.827 215.546 163.484V167.105H217.146V163.15C217.146 161.513 216.067 160.831 214.939 160.831C214.133 160.831 213.488 161.104 213.005 161.848C212.695 161.19 212.025 160.831 211.194 160.831C210.525 160.831 209.744 161.153 209.409 161.748V161.005H207.834V167.105H209.483Z" fill="#1074ED"/>
</g>
<defs>
<filter id="filter0_d_2_3174" x="0.312517" y="0.778826" width="299.687" height="197.232" filterUnits="userSpaceOnUse" color-interpolation-filters="sRGB">
<feFlood flood-opacity="0" result="BackgroundImageFix"/>
<feColorMatrix in="SourceAlpha" type="matrix" values="0 0 0 0 0 0 0 0 0 0 0 0 0 0 0 0 0 0 127 0" result="hardAlpha"/>
<feOffset dx="2.37889" dy="2.37889"/>
<feGaussianBlur stdDeviation="2.77538"/>
<feColorMatrix type="matrix" values="0 0 0 0 0 0 0 0 0 0 0 0 0 0 0 0 0 0 0.25 0"/>
<feBlend mode="normal" in2="BackgroundImageFix" result="effect1_dropShadow_2_3174"/>
<feBlend mode="normal" in="SourceGraphic" in2="effect1_dropShadow_2_3174" result="shape"/>
</filter>
<filter id="filter1_d_2_3174" x="9.40255" y="16.3293" width="93.0045" height="95.4071" filterUnits="userSpaceOnUse" color-interpolation-filters="sRGB">
<feFlood flood-opacity="0" result="BackgroundImageFix"/>
<feColorMatrix in="SourceAlpha" type="matrix" values="0 0 0 0 0 0 0 0 0 0 0 0 0 0 0 0 0 0 127 0" result="hardAlpha"/>
<feOffset/>
<feGaussianBlur stdDeviation="3.61635"/>
<feColorMatrix type="matrix" values="0 0 0 0 0 0 0 0 0 0 0 0 0 0 0 0 0 0 0.25 0"/>
<feBlend mode="normal" in2="BackgroundImageFix" result="effect1_dropShadow_2_3174"/>
<feBlend mode="normal" in="SourceGraphic" in2="effect1_dropShadow_2_3174" result="shape"/>
</filter>
</defs>
</svg>
