<svg width="650" height="509" fill="none" xmlns="http://www.w3.org/2000/svg"><path d="M601.006 119.917C510.657-2.888 358.153-41.233 176.702 54.379-4.748 149.867-41.716 348.36 45 454.75c86.84 106.64 162.779-54.761 392.475-14.16 229.57 40.726 253.755-197.867 163.531-320.672Z" fill="#DAE6FF"/><g filter="url(#a)"><path d="M242.451 110.36c20.912 0 37.866-16.954 37.866-37.866 0-20.913-16.954-37.866-37.866-37.866-20.913 0-37.866 16.953-37.866 37.866 0 20.912 16.953 37.866 37.866 37.866Z" fill="url(#b)"/><path d="m232.479 57.05 24.591.32c1.63.047 2.972 1.34 2.926 3.047l-.32 24.592c-.047 1.63-1.341 2.972-3.048 2.926l-24.591-.32c-1.63-.048-2.972-1.341-2.926-3.048l.32-24.592c.047-1.63 1.42-2.896 3.048-2.926Z" fill="url(#c)"/><path d="m248.146 61.257 6.439.114c.775-.015 1.409.671 1.423 1.447l-.116 10.472c.014.775-.672 1.409-1.448 1.423l-6.439-.113c-.775.014-1.408-.672-1.423-1.448l.117-10.472c-.015-.775.671-1.408 1.447-1.423ZM234.881 61.115l6.439.114c.776-.015 1.409.672 1.423 1.447l-.207 18.152c.015.775-.671 1.408-1.447 1.423l-6.439-.114c-.775.015-1.409-.671-1.423-1.447l.207-18.152c-.016-.853.67-1.486 1.447-1.423Z" fill="#fff"/></g><g filter="url(#d)"><path d="M365.207 118.187c20.913 0 37.866-16.953 37.866-37.866s-16.953-37.866-37.866-37.866-37.866 16.953-37.866 37.866 16.953 37.866 37.866 37.866Z" fill="url(#e)"/><path d="m363.786 66.125-13.647 5.661c-.155.078-.311.155-.388.31-.078.155-.155.31-.155.543 0 .233.077.388.155.543.077.155.233.233.388.31l13.725 5.428c1.241.465 2.559.465 3.722 0l13.725-5.428c.155-.078.31-.155.388-.31.077-.155.155-.31.155-.543 0-.155-.078-.388-.155-.543-.078-.155-.233-.232-.388-.31l-13.648-5.66a4.819 4.819 0 0 0-3.877 0Z" fill="#FC0"/><path d="M366.966 81.867v13.57c0 .155 0 .31.077.465a.607.607 0 0 0 .31.31c.155.078.233.155.388.155s.31 0 .465-.077l15.276-5.894c.155-.077.311-.155.388-.31.078-.155.155-.31.155-.543V75.896c0-.155 0-.31-.077-.465a.606.606 0 0 0-.311-.31c-.155-.078-.232-.156-.387-.156s-.31 0-.466.078l-15.276 5.893c-.155.078-.31.155-.387.31-.155.233-.233.388-.155.62Z" fill="#31C2F2"/><path d="m363.399 82.565-4.963 2.403-9.538 4.575c-.155.078-.31.078-.465.078-.155 0-.31-.078-.466-.155-.155-.078-.232-.233-.31-.31-.077-.155-.155-.31-.155-.466V75.974c0-.155 0-.232.078-.31.077-.077.155-.232.232-.31.078-.078.155-.155.233-.155.155-.078.233-.078.388-.155.155 0 .31 0 .387.077l14.501 5.739c.155.077.31.155.388.31.077.155.155.31.155.465 0 .155 0 .388-.155.543 0 .155-.155.31-.31.388Z" fill="#ED3049"/><path d="m363.399 82.565-4.498 2.17-11.166-9.382c.077-.078.155-.155.232-.155.156-.078.233-.078.388-.155.155 0 .31 0 .388.077l14.501 5.739c.155.077.31.155.387.31.078.155.155.31.155.465 0 .155 0 .388-.155.543 0 .155-.077.31-.232.388Z" fill="#C62842"/></g><g filter="url(#f)"><path d="M485.222 116.229c20.913 0 37.866-16.953 37.866-37.866s-16.953-37.866-37.866-37.866-37.866 16.953-37.866 37.866 16.953 37.866 37.866 37.866Z" fill="url(#g)"/><path d="M504.466 86.544c.465.698.387 1.55-.233 2.016-.698.465-1.628.388-2.171-.232l-3.412-4.42-3.335 4.264c-.465.698-1.473.698-2.171.233-.698-.465-.775-1.396-.31-2.016l3.877-5.04-3.877-5.04c-.465-.699-.31-1.63.31-2.172.698-.465 1.629-.31 2.171.31l3.335 4.42 3.412-4.187c.465-.698 1.395-.776 2.171-.31.698.465.698 1.473.233 2.171l-3.8 4.963 3.8 5.04Zm-17.758-.62c-2.559 0-4.575-1.939-4.575-4.498 0-2.404 2.016-4.497 4.575-4.497s4.575 2.016 4.575 4.497c-.077 2.56-2.093 4.498-4.575 4.498Zm-13.415 0c-2.559 0-4.575-1.939-4.575-4.498 0-2.404 2.016-4.497 4.575-4.497s4.575 2.016 4.575 4.497c0 2.56-2.094 4.498-4.575 4.498Zm13.415-11.864c-2.791 0-5.35 1.55-6.591 3.877-1.241-2.327-3.8-3.877-6.746-3.877-1.784 0-3.335.62-4.575 1.473v-6.204c0-.775-.698-1.473-1.474-1.473-.853 0-1.551.698-1.551 1.473v12.252c.078 4.11 3.412 7.29 7.522 7.29 2.947 0 5.428-1.629 6.746-4.033 1.241 2.326 3.8 4.032 6.592 4.032 4.187 0 7.599-3.334 7.599-7.521.077-3.955-3.335-7.29-7.522-7.29Z" fill="#0071F7"/></g><g filter="url(#h)"><path d="M179.72 209.991c20.913 0 37.866-16.954 37.866-37.866 0-20.913-16.953-37.866-37.866-37.866s-37.866 16.953-37.866 37.866c0 20.912 16.953 37.866 37.866 37.866Z" fill="url(#i)"/><path d="m180.625 162.872-9.692 6.126 9.692 6.126-9.692 6.126-9.693-6.126 9.693-6.126-9.693-6.126 9.693-6.126 9.692 6.126Zm-9.692 20.472 9.692-6.126 9.693 6.126-9.693 6.125-9.692-6.125Zm9.692-8.143 9.693-6.125-9.693-6.126 9.693-6.126 9.693 6.126-9.693 6.126 9.693 6.125-9.693 6.126-9.693-6.126Z" fill="#0061FF"/></g><g filter="url(#j)"><path d="M568.24 216.104c20.913 0 37.866-16.953 37.866-37.866s-16.953-37.866-37.866-37.866-37.866 16.953-37.866 37.866 16.953 37.866 37.866 37.866Z" fill="url(#k)"/><path fill-rule="evenodd" clip-rule="evenodd" d="M563.873 160.533a3.641 3.641 0 0 0-3.645 3.645 3.64 3.64 0 0 0 3.645 3.644h3.644v-3.644a3.64 3.64 0 0 0-3.644-3.645Zm0 9.771h-9.693a3.64 3.64 0 0 0-3.645 3.644 3.641 3.641 0 0 0 3.645 3.645h9.693a3.64 3.64 0 0 0 3.644-3.645 3.64 3.64 0 0 0-3.644-3.644Z" fill="#36C5F0"/><path fill-rule="evenodd" clip-rule="evenodd" d="M586.981 173.948a3.64 3.64 0 0 0-3.645-3.644 3.64 3.64 0 0 0-3.645 3.644v3.645h3.645a3.641 3.641 0 0 0 3.645-3.645Zm-9.693 0v-9.77a3.64 3.64 0 0 0-3.645-3.645 3.64 3.64 0 0 0-3.644 3.645v9.77a3.64 3.64 0 0 0 3.644 3.645 3.641 3.641 0 0 0 3.645-3.645Z" fill="#2EB67D"/><path fill-rule="evenodd" clip-rule="evenodd" d="M573.643 197.056a3.64 3.64 0 0 0 3.645-3.644 3.64 3.64 0 0 0-3.645-3.645h-3.644v3.645a3.64 3.64 0 0 0 3.644 3.644Zm0-9.693h9.693a3.64 3.64 0 0 0 3.645-3.644 3.64 3.64 0 0 0-3.645-3.645h-9.693a3.64 3.64 0 0 0-3.644 3.645 3.64 3.64 0 0 0 3.644 3.644Z" fill="#ECB22E"/><path fill-rule="evenodd" clip-rule="evenodd" d="M550.535 183.719a3.64 3.64 0 0 0 3.645 3.644 3.64 3.64 0 0 0 3.644-3.644v-3.645h-3.644a3.64 3.64 0 0 0-3.645 3.645Zm9.693 0v9.77a3.64 3.64 0 0 0 3.645 3.645 3.64 3.64 0 0 0 3.644-3.645v-9.77a3.64 3.64 0 0 0-3.644-3.645 3.64 3.64 0 0 0-3.645 3.645Z" fill="#E01E5A"/></g><path d="M231.405 140.372H504.79v337.667H231.405V140.372Z" fill="#398EAE"/><path d="M490.77 152.376H244.672c-3.145 0-5.739 2.445-5.739 5.409v302.841c0 2.964 2.594 5.409 5.739 5.409h246.176c3.145 0 5.74-2.445 5.74-5.409V157.785c-.079-2.964-2.595-5.409-5.818-5.409Z" fill="#fff"/><path d="M231.405 127.634h273.353v12.738H231.405v-12.738Z" fill="#C4C4C4"/><path fill="#fff" d="M244.553 132.13h4.445v4.496h-4.445zM253.443 132.13h4.445v4.496h-4.445zM262.333 132.13h4.445v4.496h-4.445zM314.929 132.13h119.268v4.496H314.929z"/><path d="M496.588 159.349H238.933v28.741h257.655v-28.741Z" fill="#FFDC9B" fill-opacity=".45"/><path d="M339.069 234.697h-62.465v16.079h62.465v-16.079Z" fill="silver"/><path d="M338.625 235.141h-61.576v15.19h61.576v-15.19Z" stroke="#fff" stroke-width="1.061"/><path d="M339.069 249.887h-62.465v18.747h62.465v-18.747Z" fill="#E9E9E9"/><path d="M338.625 250.331h-61.576v17.858h61.576v-17.858Z" stroke="#fff" stroke-width="1.061"/><path d="M400.719 249.887h-62.465v18.747h62.465v-18.747Z" fill="#E9E9E9"/><path d="M400.275 250.331h-61.576v17.858h61.576v-17.858Z" stroke="#fff" stroke-width="1.061"/><path d="M462.295 249.887H399.83v18.747h62.465v-18.747Z" fill="#E9E9E9"/><path d="M461.851 250.331h-61.576v17.858h61.576v-17.858Z" stroke="#fff" stroke-width="1.061"/><path d="M400.719 234.697h-62.465v16.079h62.465v-16.079Z" fill="silver"/><path d="M400.275 235.141h-61.576v15.19h61.576v-15.19Z" stroke="#fff" stroke-width="1.061"/><path d="M462.295 234.697H399.83v16.079h62.465v-16.079Z" fill="silver"/><path d="M461.851 235.141h-61.576v15.19h61.576v-15.19Z" stroke="#fff" stroke-width="1.061"/><path d="M308.318 264.188a4.886 4.886 0 0 0 4.891-4.891 4.886 4.886 0 0 0-4.891-4.89 4.886 4.886 0 0 0-4.89 4.89 4.886 4.886 0 0 0 4.89 4.891ZM369.894 264.188a4.886 4.886 0 0 0 4.891-4.891 4.886 4.886 0 0 0-4.891-4.89 4.886 4.886 0 0 0-4.89 4.89 4.886 4.886 0 0 0 4.89 4.891ZM431.47 264.188a4.885 4.885 0 0 0 4.89-4.891 4.885 4.885 0 0 0-4.89-4.89 4.886 4.886 0 0 0-4.891 4.89c0 2.668 2.223 4.891 4.891 4.891Z" fill="#fff"/><path d="M462.295 299.903H276.604v40.162h185.617v-40.162h.074Z" fill="#F5F5F5"/><path d="M461.851 300.422H277.049v39.198h184.802v-39.198Z" stroke="#DBDBDB" stroke-width="1.061"/><path d="M295.277 386.895a4.886 4.886 0 0 0 4.891-4.89c0-2.668-2.223-4.891-4.891-4.891a4.885 4.885 0 0 0-4.89 4.891 4.885 4.885 0 0 0 4.89 4.89Z" fill="#fff"/><path d="M295.277 386.45c2.445 0 4.446-2 4.446-4.445a4.459 4.459 0 0 0-4.446-4.446c-2.445 0-4.446 2-4.446 4.446-.074 2.445 1.927 4.445 4.446 4.445Z" stroke="#09224C" stroke-width="1.061"/><path d="M295.277 401.122a4.886 4.886 0 0 0 4.891-4.891c0-2.667-2.223-4.89-4.891-4.89a4.885 4.885 0 0 0-4.89 4.89 4.885 4.885 0 0 0 4.89 4.891Z" fill="#fff"/><path d="M295.277 400.677c2.445 0 4.446-2 4.446-4.446a4.46 4.46 0 0 0-4.446-4.446 4.46 4.46 0 0 0-4.446 4.446c-.074 2.446 1.927 4.446 4.446 4.446Z" stroke="#09224C" stroke-width="1.061"/><path d="M295.277 430.243a4.886 4.886 0 0 0 4.891-4.891 4.886 4.886 0 0 0-4.891-4.89 4.886 4.886 0 0 0-4.89 4.89c-.074 2.742 2.149 4.891 4.89 4.891Z" fill="#fff"/><path d="M295.277 429.798a4.46 4.46 0 0 0 4.446-4.446 4.46 4.46 0 0 0-4.446-4.446 4.46 4.46 0 0 0-4.446 4.446c-.074 2.445 1.927 4.446 4.446 4.446Z" stroke="#09224C" stroke-width="1.061"/><path d="M295.277 415.423a4.886 4.886 0 0 0 4.891-4.89 4.886 4.886 0 0 0-4.891-4.891 4.886 4.886 0 0 0-4.89 4.891c-.074 2.667 2.149 4.89 4.89 4.89Z" fill="#fff"/><path d="M295.277 414.978c2.445 0 4.446-2 4.446-4.446a4.459 4.459 0 0 0-4.446-4.445c-2.445 0-4.446 2-4.446 4.445-.074 2.446 1.927 4.446 4.446 4.446Z" stroke="#09224C" stroke-width="1.061"/><path d="M363.967 197.944h-87.214v9.262h87.214v-9.262ZM339.588 217.728h-62.835v9.262h62.835v-9.262Z" fill="#FFDC9B"/><path d="M324.917 239.661h-34.605v6.15h34.605v-6.15ZM387.678 239.661h-34.604v6.15h34.604v-6.15ZM448.365 239.661h-34.604v6.15h34.604v-6.15Z" fill="#E1E1E1"/><path d="M318.989 282.416h-42.236v9.262h42.236v-9.262ZM388.715 282.416h-66.022v9.262h66.022v-9.262ZM334.92 353.032h-57.871v9.262h57.871v-9.262ZM376.934 353.032h-36.901v9.262h36.901v-9.262ZM342.997 377.114h-36.902v9.262h36.902v-9.262ZM361.521 391.415h-55.5v9.262h55.5v-9.262ZM361.521 420.462h-55.5v9.262h55.5v-9.262ZM338.254 405.049h-32.233v9.263h32.233v-9.263ZM424.653 282.416h-31.047v9.262h31.047v-9.262ZM388.789 217.728h-43.644v9.262h43.644v-9.262ZM424.653 197.944h-55.055v9.262h55.055v-9.262Z" fill="#FFDC9B"/><path d="M325.607 179.223v-11.535h-2.261v4.637h-5.028v-4.637h-2.245v11.535h2.245v-4.783h5.028v4.783h2.261Zm4.005-4.913c.048-.732.667-1.578 1.789-1.578 1.237 0 1.757.781 1.79 1.578h-3.579Zm3.79 2.082c-.26.716-.813 1.221-1.822 1.221-1.074 0-1.968-.765-2.017-1.823h5.727c0-.032.032-.358.032-.667 0-2.57-1.48-4.149-3.953-4.149-2.05 0-3.938 1.66-3.938 4.214 0 2.701 1.936 4.28 4.133 4.28 1.969 0 3.238-1.156 3.644-2.539l-1.806-.537Zm3.136.651c0 1.253 1.042 2.408 2.75 2.408 1.188 0 1.952-.553 2.359-1.187 0 .309.033.748.082.959h1.985a8.922 8.922 0 0 1-.098-1.269v-3.937c0-1.611-.944-3.043-3.482-3.043-2.148 0-3.303 1.383-3.433 2.636l1.92.407c.065-.7.586-1.302 1.529-1.302.911 0 1.351.472 1.351 1.042 0 .276-.147.504-.602.569l-1.969.293c-1.334.195-2.392.992-2.392 2.424Zm3.206.797c-.7 0-1.042-.455-1.042-.927 0-.618.44-.927.993-1.009l1.806-.276v.358c0 1.415-.846 1.854-1.757 1.854Zm8.217 1.383v-11.779h-2.164v11.779h2.164Zm4.985-10.396h-1.952v1.122c0 .716-.391 1.269-1.237 1.269h-.407v1.92h1.448v3.726c0 1.546.977 2.473 2.539 2.473.634 0 1.025-.114 1.22-.195v-1.79a3.114 3.114 0 0 1-.667.065c-.618 0-.944-.227-.944-.927v-3.352h1.611v-1.92h-1.611v-2.391Zm5.216 5.694c.049-.878.585-1.562 1.497-1.562 1.041 0 1.48.7 1.48 1.595v4.669h2.164v-5.043c0-1.758-.944-3.173-2.977-3.173-.765 0-1.644.26-2.164.879v-4.442h-2.164v11.779h2.164v-4.702Zm19.281-4.083c-.26-1.302-1.334-2.994-4.133-2.994-2.18 0-4.019 1.562-4.019 3.612 0 1.741 1.188 2.928 3.027 3.303l1.611.325c.894.179 1.399.7 1.399 1.367 0 .813-.667 1.415-1.871 1.415-1.627 0-2.425-1.025-2.522-2.164l-2.083.554c.179 1.643 1.53 3.612 4.588 3.612 2.685 0 4.166-1.79 4.166-3.564 0-1.627-1.123-2.993-3.222-3.4l-1.611-.309c-.846-.163-1.252-.667-1.252-1.302 0-.765.715-1.464 1.806-1.464 1.464 0 1.984.992 2.098 1.627l2.018-.618Zm6.928 8.785h2.066a13.302 13.302 0 0 1-.081-1.448v-6.557h-2.164v4.654c0 .927-.553 1.578-1.513 1.578-1.009 0-1.464-.716-1.464-1.611v-4.621h-2.164v5.061c0 1.74 1.106 3.156 3.042 3.156.846 0 1.774-.325 2.213-1.074 0 .326.033.7.065.862Zm9.175-8.037c-.162-.016-.325-.033-.504-.033-.683 0-1.79.196-2.278 1.253v-1.188h-2.099v8.005h2.164v-3.66c0-1.725.96-2.262 2.067-2.262.195 0 .406.016.65.065v-2.18Zm9.31.032h-2.277l-1.904 5.37-1.985-5.37h-2.376l3.271 8.005h2.164l3.107-8.005Zm2.657 3.092c.049-.732.667-1.578 1.79-1.578 1.236 0 1.757.781 1.789 1.578h-3.579Zm3.791 2.082c-.26.716-.814 1.221-1.822 1.221-1.074 0-1.969-.765-2.018-1.823h5.727c0-.032.033-.358.033-.667 0-2.57-1.481-4.149-3.954-4.149-2.05 0-3.937 1.66-3.937 4.214 0 2.701 1.936 4.28 4.132 4.28 1.969 0 3.238-1.156 3.645-2.539l-1.806-.537Zm6.279 5.988 5.027-11.162h-2.31l-1.969 4.686-2.131-4.686h-2.425l3.401 6.997-1.888 4.165h2.295Z" fill="#5C2EC7"/><path d="m320.011 476.183-77.561-17.174s-28.037-36.025-54.955-67.097c-7.908 7.828-12.301 19.889-20.289 27.637l59.189 65.5a11.269 11.269 0 0 0 8.387 3.754l82.194.24 28.117 2.236v-17.972l-25.082 2.876Z" fill="#FAB99A"/><path d="M174.555 380.969c13.579-3.595 67.896 77.96 67.896 77.96s-7.349 3.435-20.449 21.247l-20.928-23.164s-41.616-39.3-49.524-52.959c-7.908-13.499 9.425-19.41 23.005-23.084Z" fill="#FAB99A"/><path d="M198.198 284.956c-7.748-15.736-25.401-20.688-42.974-20.768-5.751 0-10.943.719-15.736 2.156-7.189 3.196-21.407 23.484-25.96 56.793-1.677 12.142 3.355 10.384 23.804 27.239 18.371 15.096 42.015 4.872 53.198-1.838 14.218-8.547 14.937-7.029 16.535-18.371-.32-13.26-7.669-42.895-8.867-45.211Z" fill="#0E2127"/><path d="M147.955 371.144s-22.206-3.754-34.826 6.709c-12.541 10.544-2.636 102.244-2.636 117.74 0 15.496 14.218 8.227 14.218 8.227s46.489-.639 75.484 0c0 0 2.157-46.169 1.598-57.272-.559-11.103-4.154-44.172-16.375-61.585-3.355-4.873-37.463-13.819-37.463-13.819Z" fill="#F38632"/><path d="M148.514 338.074s-.08.719-.239 1.917c-.719 5.752-3.595 24.603-6.231 29.635-3.195 6.071 12.541 19.65 28.277 18.452 4.713-.4-2.956-10.864-2.716-12.781.479-3.594 1.118-8.467 1.837-13.499.4-2.796.799-5.671 1.118-8.387 1.039-7.668 1.838-13.979 1.838-13.979l-23.884-1.358Z" fill="#FFBD9E"/><path d="M148.195 341.429c.24-1.437.399-2.236.399-2.236l25.082-.559s-1.438 7.428-3.275 16.454c-.639 3.195-1.278 6.55-1.917 9.825-3.834-.559-7.908-2.476-11.982-5.991-4.393-3.834-7.348-8.467-9.026-13.419.24-1.677.479-3.035.719-4.074Z" fill="#D69E78"/><path d="m270.887 476.183-77.561-17.174s-28.037-36.025-54.956-67.097c-7.908 7.828-12.301 19.889-20.289 27.637l59.189 65.5a11.269 11.269 0 0 0 8.387 3.754l82.194.24 28.117 2.236v-17.972l-25.081 2.876Z" fill="#FFBD9E"/><path d="M430.242 387.838H302.359c-3.355 0-6.471 2.077-7.749 5.192l-39.379 96.093h-70.532a3.58 3.58 0 0 0-3.595 3.594 3.58 3.58 0 0 0 3.595 3.595h200.732a14.026 14.026 0 0 0 12.781-8.307l39.699-88.345c2.396-5.512-1.598-11.822-7.669-11.822Z" fill="#C1C1C1"/><path d="M361.388 443.832c-.879 4.314-4.633 7.189-8.387 6.47-3.754-.719-6.151-4.872-5.272-9.186.879-4.313 4.633-7.188 8.387-6.47 3.754.719 6.151 4.873 5.272 9.186Z" fill="#fff"/><path d="m380.159 496.392-195.939-.16a3.58 3.58 0 0 1-3.595-3.595 3.58 3.58 0 0 1 3.595-3.594l213.592.08-2.636 3.355c-3.754 2.715-6.23 4.313-15.017 3.914Z" fill="#919090"/><path d="M168.883 278.166s-13.499-1.517-21.966 9.106c-6.95 8.787-10.943 34.667-4.393 49.924 1.757 4.074 10.064 11.902 14.138 14.697 7.508 5.033 11.422 6.151 15.816 3.675 14.218-8.068 18.371-17.414 20.049-32.59.799-7.429 6.39-12.941 5.751-20.209-1.278-13.659-9.266-25.082-29.395-24.603Z" fill="#FFBD9E"/><path d="M189.412 278.246s4.233 25.321-36.744 32.91c-2.157.399-7.349 13.419-6.39 7.189 2.396-15.417-21.407 9.825-21.407 9.825s-1.598-43.534 17.413-49.045c19.011-5.592 47.128-.879 47.128-.879Z" fill="#0E2127"/><path d="M147.077 308.28c1.038 5.592-1.039 10.704-4.713 11.423-3.674.719-7.509-3.195-8.547-8.787-1.038-5.591 1.038-10.703 4.713-11.422 3.674-.719 7.508 3.195 8.547 8.786ZM120.478 372.661c12.62-3.594 53.837 60.228 53.837 60.228 11.183 15.017 19.011 25.88 19.011 25.88s-14.058-.479-19.65 22.286l-20.369-22.126s-39.539-37.782-44.412-55.435c-4.153-14.937-.958-27.158 11.583-30.833Z" fill="#FFBD9E"/><path d="M97.789 508.525h308.327v-12.301H97.789v12.301Z" fill="#D29420"/><path d="M167.765 376.256c5.831-1.358 7.988 17.333 7.429 23.723-.56 6.391-31.632-16.135-34.348-22.046-2.716-5.911-1.118-8.706 1.198-7.987" stroke="#FFFF6C" stroke-width="1.348" stroke-miterlimit="10"/><path d="M182.381 318.474c-.666.922-.899 2.35-.999 3.52-.666 7.795 2.124 6.174.999 9.052-.891 2.282-5.772.336-7.326 0" stroke="#C98659" stroke-width=".775" stroke-linecap="round"/><path d="M173.676 309.744c-1.383-1.545-5.554-3.718-11.17-.048M185.451 311.6c1.731-1.141 6.319-2.178 10.813 2.803" stroke="#724422" stroke-width=".775" stroke-linecap="round"/><path d="M158.93 334.952c3.475-.241 6.028-4.254 5.702-8.963-.327-4.709-3.408-8.331-6.883-8.09-3.476.24-6.028 4.253-5.702 8.962.326 4.709 3.408 8.331 6.883 8.091Z" fill="#F8AC89"/><path d="M187.483 317.376c-.503.545-.793 1.206-.922 1.954-.091.677.069 1.4.435 1.871.137.256.366.471.633.616.267.144.571.219.861.194.29-.025.633-.02.945-.214.274-.124.587-.318.884-.612.502-.545.792-1.206.921-1.953.091-.678-.069-1.401-.435-1.872a1.56 1.56 0 0 0-.633-.616 1.558 1.558 0 0 0-.861-.194c-.289.025-.579.049-.945.215-.365.165-.678.359-.883.611ZM167.518 314.332c-.41.613-.643 1.379-.694 2.129.001.77.242 1.375.619 1.775.2.247.457.345.714.444.257.098.543.121.806.05.314-.051.605-.196.844-.361.24-.166.508-.405.753-.739.411-.613.644-1.379.695-2.129-.001-.77-.242-1.375-.619-1.775-.2-.247-.458-.345-.715-.443a1.307 1.307 0 0 0-.805-.051 2.128 2.128 0 0 0-.845.362 3.197 3.197 0 0 0-.753.738Z" fill="#724422"/><path d="M189.13 337.906c.139.172.183.256.19.177.392-1.009 1.009-3.442 1.588-6.038.67-3.069 1.209-6.39 1.209-6.39s-2.621.177-3.958 3.27c-1.337 3.093-.607 6.522.971 8.981Z" fill="#FAB18F"/><path d="M182.285 342.19s-13.42-.319-14.378-1.198c-.879-.879.365 6.151 7.349 6.151 3.933 0 7.029-4.953 7.029-4.953Z" fill="#E08A68"/><g filter="url(#l)"><path d="M78.404 263.822c20.913 0 37.866-16.953 37.866-37.866S99.317 188.09 78.404 188.09s-37.866 16.953-37.866 37.866 16.953 37.866 37.866 37.866Z" fill="url(#m)"/><path d="m72.796 208.639-14.423 24.736 6.436 11.709 6.824-11.786 7.677-13.183-6.514-11.476Z" fill="url(#n)"/><path d="m100.401 233.298-13.647.077-15.121.078-6.824 11.786H93.5l6.901-11.941Z" fill="url(#o)"/><path d="m85.513 208.716-13.182-.077 6.513 11.476 7.445 13.183 13.647-.078-14.423-24.504Z" fill="url(#p)"/></g><defs><linearGradient id="b" x1="268.978" y1="45.938" x2="216.526" y2="98.39" gradientUnits="userSpaceOnUse"><stop stop-color="#fff"/><stop offset=".845" stop-color="#fff"/></linearGradient><linearGradient id="c" x1="244.781" y1="57.209" x2="244.366" y2="87.836" gradientUnits="userSpaceOnUse"><stop stop-color="#0091E6"/><stop offset="1" stop-color="#0079BF"/></linearGradient><linearGradient id="e" x1="391.734" y1="53.765" x2="339.282" y2="106.218" gradientUnits="userSpaceOnUse"><stop stop-color="#fff"/><stop offset=".845" stop-color="#fff"/></linearGradient><linearGradient id="g" x1="511.749" y1="51.807" x2="459.297" y2="104.26" gradientUnits="userSpaceOnUse"><stop stop-color="#fff"/><stop offset=".845" stop-color="#fff"/></linearGradient><linearGradient id="i" x1="206.247" y1="145.568" x2="153.795" y2="198.021" gradientUnits="userSpaceOnUse"><stop stop-color="#fff"/><stop offset=".845" stop-color="#fff"/></linearGradient><linearGradient id="k" x1="594.768" y1="151.682" x2="542.315" y2="204.134" gradientUnits="userSpaceOnUse"><stop stop-color="#fff"/><stop offset=".845" stop-color="#fff"/></linearGradient><linearGradient id="m" x1="104.932" y1="199.4" x2="52.479" y2="251.852" gradientUnits="userSpaceOnUse"><stop stop-color="#fff"/><stop offset=".845" stop-color="#fff"/></linearGradient><linearGradient id="n" x1="78.322" y1="218.941" x2="71.284" y2="224.804" gradientUnits="userSpaceOnUse"><stop offset=".491" stop-color="#2EB672"/><stop offset="1" stop-color="#2EB672"/></linearGradient><linearGradient id="o" x1="71.111" y1="234.185" x2="82.694" y2="239.249" gradientUnits="userSpaceOnUse"><stop offset=".557" stop-color="#527ABD"/><stop offset="1" stop-color="#527ABD"/></linearGradient><linearGradient id="p" x1="90.698" y1="234.85" x2="88.436" y2="227.994" gradientUnits="userSpaceOnUse"><stop stop-color="#FED14B"/><stop offset="1" stop-color="#FED14B"/></linearGradient><filter id="a" x="204.585" y="34.628" width="79.732" height="80.732" filterUnits="userSpaceOnUse" color-interpolation-filters="sRGB"><feFlood flood-opacity="0" result="BackgroundImageFix"/><feColorMatrix in="SourceAlpha" values="0 0 0 0 0 0 0 0 0 0 0 0 0 0 0 0 0 0 127 0" result="hardAlpha"/><feOffset dx="4" dy="5"/><feColorMatrix values="0 0 0 0 0.509804 0 0 0 0 0.509804 0 0 0 0 0.509804 0 0 0 0.25 0"/><feBlend in2="BackgroundImageFix" result="effect1_dropShadow_2_2482"/><feBlend in="SourceGraphic" in2="effect1_dropShadow_2_2482" result="shape"/></filter><filter id="d" x="327.341" y="42.455" width="79.732" height="80.732" filterUnits="userSpaceOnUse" color-interpolation-filters="sRGB"><feFlood flood-opacity="0" result="BackgroundImageFix"/><feColorMatrix in="SourceAlpha" values="0 0 0 0 0 0 0 0 0 0 0 0 0 0 0 0 0 0 127 0" result="hardAlpha"/><feOffset dx="4" dy="5"/><feColorMatrix values="0 0 0 0 0.509804 0 0 0 0 0.509804 0 0 0 0 0.509804 0 0 0 0.25 0"/><feBlend in2="BackgroundImageFix" result="effect1_dropShadow_2_2482"/><feBlend in="SourceGraphic" in2="effect1_dropShadow_2_2482" result="shape"/></filter><filter id="f" x="447.356" y="40.497" width="79.732" height="80.732" filterUnits="userSpaceOnUse" color-interpolation-filters="sRGB"><feFlood flood-opacity="0" result="BackgroundImageFix"/><feColorMatrix in="SourceAlpha" values="0 0 0 0 0 0 0 0 0 0 0 0 0 0 0 0 0 0 127 0" result="hardAlpha"/><feOffset dx="4" dy="5"/><feColorMatrix values="0 0 0 0 0.509804 0 0 0 0 0.509804 0 0 0 0 0.509804 0 0 0 0.25 0"/><feBlend in2="BackgroundImageFix" result="effect1_dropShadow_2_2482"/><feBlend in="SourceGraphic" in2="effect1_dropShadow_2_2482" result="shape"/></filter><filter id="h" x="141.854" y="134.259" width="79.732" height="80.732" filterUnits="userSpaceOnUse" color-interpolation-filters="sRGB"><feFlood flood-opacity="0" result="BackgroundImageFix"/><feColorMatrix in="SourceAlpha" values="0 0 0 0 0 0 0 0 0 0 0 0 0 0 0 0 0 0 127 0" result="hardAlpha"/><feOffset dx="4" dy="5"/><feColorMatrix values="0 0 0 0 0.509804 0 0 0 0 0.509804 0 0 0 0 0.509804 0 0 0 0.25 0"/><feBlend in2="BackgroundImageFix" result="effect1_dropShadow_2_2482"/><feBlend in="SourceGraphic" in2="effect1_dropShadow_2_2482" result="shape"/></filter><filter id="j" x="530.374" y="140.372" width="79.732" height="80.732" filterUnits="userSpaceOnUse" color-interpolation-filters="sRGB"><feFlood flood-opacity="0" result="BackgroundImageFix"/><feColorMatrix in="SourceAlpha" values="0 0 0 0 0 0 0 0 0 0 0 0 0 0 0 0 0 0 127 0" result="hardAlpha"/><feOffset dx="4" dy="5"/><feColorMatrix values="0 0 0 0 0.509804 0 0 0 0 0.509804 0 0 0 0 0.509804 0 0 0 0.25 0"/><feBlend in2="BackgroundImageFix" result="effect1_dropShadow_2_2482"/><feBlend in="SourceGraphic" in2="effect1_dropShadow_2_2482" result="shape"/></filter><filter id="l" x="40.538" y="188.09" width="79.732" height="80.732" filterUnits="userSpaceOnUse" color-interpolation-filters="sRGB"><feFlood flood-opacity="0" result="BackgroundImageFix"/><feColorMatrix in="SourceAlpha" values="0 0 0 0 0 0 0 0 0 0 0 0 0 0 0 0 0 0 127 0" result="hardAlpha"/><feOffset dx="4" dy="5"/><feColorMatrix values="0 0 0 0 0.509804 0 0 0 0 0.509804 0 0 0 0 0.509804 0 0 0 0.25 0"/><feBlend in2="BackgroundImageFix" result="effect1_dropShadow_2_2482"/><feBlend in="SourceGraphic" in2="effect1_dropShadow_2_2482" result="shape"/></filter></defs></svg>