<svg width="96" height="96" viewBox="0 0 96 96" fill="none" xmlns="http://www.w3.org/2000/svg">
<path d="M47.9937 95.3765C74.2272 95.3765 95.4937 74.11 95.4937 47.8765C95.4937 21.6429 74.2272 0.376465 47.9937 0.376465C21.7601 0.376465 0.493652 21.6429 0.493652 47.8765C0.493652 74.11 21.7601 95.3765 47.9937 95.3765Z" fill="#ECECEC"/>
<path opacity="0.05" d="M86.8703 55.7023L92.6433 31.6807C88.3433 19.8747 79.5542 10.245 68.1889 4.8877L59.5157 51.6695L27.1892 77.9101L86.8703 55.7023Z" fill="black"/>
<path d="M47.9983 0.376508C43.6721 0.377203 39.3663 0.968866 35.2003 2.13513L30.9465 17.8518L39.8039 19.104L48.9374 22.2437L57.2239 26.3777L63.7979 3.06506C58.7222 1.27839 53.3793 0.369219 47.9983 0.376508Z" fill="#F38632"/>
<path d="M36.1043 63.2159L27.2009 77.9106L28.269 60.6562L30.8746 60.7667L34.0511 61.6414L36.1043 63.2159Z" fill="#4E4E4E"/>
<path d="M36.1032 63.215L34.05 61.6406L30.8735 60.7659L28.2678 60.6554L30.9287 17.8511L39.786 19.1125L48.9196 22.2521L57.1693 26.3862L36.1032 63.215Z" fill="url(#paint0_linear_2_3153)"/>
<path d="M35.1859 2.14495L30.9321 17.8617L39.7895 19.1138L45.1757 0.469238C41.7954 0.669159 38.4463 1.23094 35.1859 2.14495Z" fill="#F6A259"/>
<g style="mix-blend-mode:multiply" opacity="0.2">
<path d="M63.7418 3.0652C61.0027 2.0916 58.1794 1.37345 55.308 0.919922L48.9182 22.2254L27.1892 77.9106L36.0834 63.1791L57.1495 26.3502L63.7418 3.0652Z" fill="#1A1A1A"/>
</g>
<path opacity="0.15" d="M27.2009 77.6887L39.7872 19.1125L30.9298 17.8511L27.2009 77.6887Z" fill="white"/>
<defs>
<linearGradient id="paint0_linear_2_3153" x1="36.8802" y1="39.9028" x2="48.0078" y2="41.2179" gradientUnits="userSpaceOnUse">
<stop stop-color="#F1CEBA"/>
<stop offset="1" stop-color="#B8846F"/>
</linearGradient>
</defs>
</svg>
