<svg width="627" height="498" fill="none" xmlns="http://www.w3.org/2000/svg"><path d="M622.128 324.362c-7.075 24.154-19.455 116.195-142.375 160.901-122.921 44.706-220.358-48.126-340.006-61.469C20.187 410.45-2.908 353.191.275 280.045 3.46 206.9 92.156 101.807 212.954 43.173 354.798-25.59 468.168-5.136 537.499 54.96c96.921 84.152 94.091 237.359 84.629 269.403Z" fill="#DAE6FF"/><rect x="426.951" y="288.487" width="153.097" height="47.508" rx="4" fill="#000" fill-opacity=".1"/><rect x="426.951" y="287.487" width="152.938" height="47.508" rx="4" fill="#fff"/><path d="M467.644 312.241c0 3.82-1.215 7.375-3.266 10.282l-13.939-10.713-7.053-16.209a17.656 17.656 0 0 1 6.42-1.198c9.851 0 17.838 7.987 17.838 17.838Z" fill="#C6A9FE" stroke="#fff"/><path d="M431.969 312.24c0-7.094 4.137-13.216 10.143-16.091l6.864 15.775-15.189 8.164a17.805 17.805 0 0 1-1.818-7.848Z" fill="#F5A2B5" stroke="#fff"/><path d="M447.785 329.964c-5.669-.634-10.551-3.948-13.335-8.639l14.636-7.872-1.301 16.511Z" fill="#FFC14F" stroke="#fff"/><path d="m451.763 329.968-.003.001a17.265 17.265 0 0 1-2.568.096l.662-8.654v-.001l.376-4.733.188-2.368.058-.734 13.049 10.06c-2.881 3.461-7.042 5.823-11.762 6.333Z" fill="#90D9AC" stroke="#fff"/><mask id="a" style="mask-type:alpha" maskUnits="userSpaceOnUse" x="445" y="314" width="11" height="6"><path d="m445.623 319.895 9.822-5.283-9.822 5.283Z" fill="#fff"/></mask><g mask="url(#a)"><path d="m445.623 319.895 9.822-5.283-9.822 5.283ZM445.809 320.241l9.822-5.283-.372-.692-9.822 5.283.372.692Zm9.45-5.975-9.822 5.283.372.692 9.822-5.283-.372-.692Z" fill="#fff"/><path d="M454.308 325.47h-.003c-3.592-.391-6.68-2.507-8.412-5.497l9.328-5.017-.829 10.524-.084-.01Z" fill="#FFC14F" stroke="#fff"/><path d="M456.759 325.47h-.001a10.923 10.923 0 0 1-1.72.055l.417-5.464.232-2.925.117-1.463.052-.661 8.32 6.414a11.107 11.107 0 0 1-7.417 4.044Z" fill="#90D9AC" stroke="#fff"/></g><path d="M478.294 318.13h1.824l-2.704-4.752c1.712-.32 2.752-1.584 2.752-3.216 0-1.872-1.328-3.376-3.472-3.376h-4.272v11.344h1.584v-4.64h1.696l2.592 4.64Zm-4.288-6.048v-3.888h2.4c1.28 0 2.144.768 2.144 1.968 0 1.168-.864 1.92-2.144 1.92h-2.4Zm8.825 1.408c.064-.992.832-1.968 2.096-1.968 1.36 0 2.08.864 2.112 1.968h-4.208Zm4.432 2c-.288.864-.912 1.552-2.16 1.552-1.296 0-2.288-.96-2.32-2.336h5.792a3.38 3.38 0 0 0 .032-.48c0-2.4-1.328-4.032-3.696-4.032-1.936 0-3.68 1.648-3.68 4.064 0 2.608 1.808 4.112 3.872 4.112 1.792 0 3.024-1.072 3.456-2.432l-1.296-.448Zm4.752 5.68v-4.08c.416.688 1.312 1.248 2.496 1.248 2.256 0 3.584-1.776 3.584-4.064 0-2.24-1.232-4.016-3.536-4.016-1.248 0-2.16.608-2.576 1.376v-1.2h-1.456v10.736h1.488Zm4.544-6.896c0 1.584-.88 2.72-2.272 2.72-1.376 0-2.288-1.136-2.288-2.72 0-1.536.912-2.688 2.288-2.688 1.408 0 2.272 1.152 2.272 2.688Zm6.749 2.752c-1.28 0-2.4-.96-2.4-2.752 0-1.776 1.12-2.736 2.4-2.736 1.28 0 2.4.96 2.4 2.736 0 1.792-1.12 2.752-2.4 2.752Zm0-6.832c-2.304 0-3.936 1.744-3.936 4.08 0 2.352 1.632 4.096 3.936 4.096 2.304 0 3.936-1.744 3.936-4.096 0-2.336-1.632-4.08-3.936-4.08Zm10.132.16a2.83 2.83 0 0 0-.496-.048c-.784 0-1.744.288-2.304 1.472v-1.344h-1.472v7.696h1.504v-3.856c0-1.696.848-2.368 2.112-2.368.208 0 .432.016.656.048v-1.6Zm4.025-2.352h-1.376v1.248c0 .672-.352 1.184-1.184 1.184h-.416v1.36h1.472v4.224c0 1.392.832 2.192 2.144 2.192.512 0 .896-.096 1.024-.144v-1.28c-.128.032-.4.064-.592.064-.784 0-1.072-.352-1.072-1.056v-4h1.664v-1.36h-1.664v-2.432Zm7.832-1.216v11.344h3.968c2.08 0 3.504-1.296 3.504-3.088 0-1.264-.752-2.416-2.048-2.736.992-.368 1.696-1.232 1.696-2.448 0-1.792-1.264-3.072-3.424-3.072h-3.696Zm1.568 4.96v-3.584h1.888c1.296 0 2.08.704 2.08 1.776 0 1.056-.752 1.808-2.016 1.808h-1.952Zm0 5.008v-3.664h2.24c1.376 0 2.064.768 2.064 1.856 0 1.104-.864 1.808-2.128 1.808h-2.176Zm12.656.448c0 .32.032.752.064.928h1.44c-.032-.272-.08-.816-.08-1.424v-6.272h-1.504v4.64c0 1.168-.608 1.968-1.824 1.968-1.264 0-1.744-.928-1.744-1.984v-4.624h-1.504v4.848c0 1.744 1.088 3.088 2.88 3.088.896 0 1.856-.368 2.272-1.168Zm5.479.928v-7.696h-1.488v7.696H545Zm-1.824-10.608c0 .592.48 1.072 1.072 1.072.608 0 1.088-.48 1.088-1.072 0-.608-.48-1.088-1.088-1.088-.592 0-1.072.48-1.072 1.088Zm5.886 10.608v-11.584h-1.504v11.584h1.504Zm3.455-3.872c0-1.584.896-2.704 2.272-2.704s2.208 1.088 2.208 2.672-.848 2.784-2.224 2.784c-1.44 0-2.256-1.168-2.256-2.752Zm4.496 2.832c0 .464.048.864.08 1.04h1.456c-.016-.128-.08-.688-.08-1.424v-10.16h-1.488v4.976c-.256-.624-.992-1.296-2.352-1.296-2.176 0-3.648 1.856-3.648 4.032 0 2.288 1.392 4.08 3.648 4.08 1.2 0 2.016-.64 2.384-1.376v.128Zm4.99-3.6c.064-.992.832-1.968 2.096-1.968 1.36 0 2.08.864 2.112 1.968h-4.208Zm4.432 2c-.288.864-.912 1.552-2.16 1.552-1.296 0-2.288-.96-2.32-2.336h5.792a3.38 3.38 0 0 0 .032-.48c0-2.4-1.328-4.032-3.696-4.032-1.936 0-3.68 1.648-3.68 4.064 0 2.608 1.808 4.112 3.872 4.112 1.792 0 3.024-1.072 3.456-2.432l-1.296-.448Zm7.536-5.136a2.83 2.83 0 0 0-.496-.048c-.784 0-1.744.288-2.304 1.472v-1.344h-1.472v7.696h1.504v-3.856c0-1.696.848-2.368 2.112-2.368.208 0 .432.016.656.048v-1.6Z" fill="#18265B"/><path fill="#C4C4C4" d="M57.016 16.911h273.353v12.738H57.016z"/><path fill="#fff" d="M65.165 21.407h4.445v4.496h-4.445zM74.054 21.407h4.445v4.496h-4.445zM82.944 21.407h4.445v4.496h-4.445zM135.54 21.407h119.268v4.496H135.54z"/><path d="M330.369 29.65H57.016v349.118H330.37V29.65Z" fill="#C8CDE1"/><path d="M305.582 42.37H81.72c-3.851 0-6.973 3.107-6.973 6.939v304.673c0 3.832 3.122 6.938 6.973 6.938h223.862c3.851 0 6.973-3.106 6.973-6.938V49.309c0-3.832-3.122-6.939-6.973-6.939Z" fill="#fff"/><path d="M305.582 42.37H81.72c-3.851 0-6.973.293-6.973.654V71.72c0 .36 3.122.653 6.973.653h223.862c3.851 0 6.973-.292 6.973-.653V43.024c0-.361-3.122-.654-6.973-.654Z" fill="#FFD592"/><path d="M158.743 331.81h69.815c1.041 0 2.039.411 2.775 1.143a3.897 3.897 0 0 1 1.149 2.76v8.417a3.897 3.897 0 0 1-1.149 2.76 3.932 3.932 0 0 1-2.775 1.144h-69.815a3.943 3.943 0 0 1-2.774-1.144 3.894 3.894 0 0 1-1.149-2.761v-8.416c0-1.035.413-2.028 1.149-2.76a3.934 3.934 0 0 1 2.774-1.143Z" fill="#FFD083"/><path d="M90.087 80.583H155.1c.399-.028.799 0 1.19.084V86.5a4.28 4.28 0 0 1-1.19.084H90.087c-.398.028-.797 0-1.187-.084v-5.832c.39-.084.79-.112 1.187-.084ZM134.766 93.352h50.854c.313-.027.628.001.931.085v5.83a2.642 2.642 0 0 1-.931.085h-50.859a2.626 2.626 0 0 1-.929-.084v-5.831c.304-.084.62-.113.934-.085ZM166.81 80.583h50.263c.309-.028.62 0 .919.084v5.831c-.299.084-.61.112-.919.085H166.81a2.577 2.577 0 0 1-.919-.085v-5.831c.299-.083.61-.112.919-.084ZM194.006 93.352h37.148c.23-.027.464.002.68.084v5.831c-.216.083-.45.112-.68.085h-37.148a1.432 1.432 0 0 1-.678-.085v-5.83c.216-.083.448-.112.678-.085ZM230.056 80.582h63.557c.39-.027.781.001 1.162.085v5.831a4.08 4.08 0 0 1-1.162.085h-63.557c-.389.027-.78-.001-1.161-.085v-5.831a4.069 4.069 0 0 1 1.161-.085ZM215.772 208.02h-47.226c-.477 0-.863.058-.863.132v9.144c0 .074.388.132.863.132h47.226c.477 0 .859-.058.859-.132v-9.144c.008-.074-.382-.132-.859-.132ZM159.353 208.02H90.165a3.14 3.14 0 0 0-1.264.133v9.144c.41.13.84.175 1.264.132h69.188c.424.043.853-.002 1.264-.132v-9.144a3.12 3.12 0 0 0-1.264-.133ZM144.264 111.894h-54.37a1.97 1.97 0 0 0-.994.132v9.144c.323.131.66.175.994.132h54.37c.334.044.671-.001.994-.132v-9.144a1.97 1.97 0 0 0-.994-.132ZM130.399 160.035H89.645a1.136 1.136 0 0 0-.745.132v9.144c.242.13.495.175.745.132H130.4c.25.043.503-.002.745-.132v-9.144a1.137 1.137 0 0 0-.745-.132Z" fill="#D3D9DE"/><rect x="88.301" y="232.337" width="64.689" height="14.337" rx="1.17" fill="#fff" stroke="#716969" stroke-width=".78"/><rect x="88.301" y="279.167" width="83.75" height="14.337" rx="1.17" fill="#fff" stroke="#716969" stroke-width=".78"/><rect x="178.905" y="279.167" width="47.886" height="14.337" rx="1.17" fill="#fff" stroke="#716969" stroke-width=".78"/><rect x="88.301" y="255.751" width="138.458" height="14.337" rx="1.17" fill="#fff" stroke="#716969" stroke-width=".78"/><rect x="88.301" y="302.581" width="138.458" height="14.337" rx="1.17" fill="#fff" stroke="#716969" stroke-width=".78"/><rect x="162.102" y="232.337" width="64.689" height="14.337" rx="1.17" fill="#fff" stroke="#716969" stroke-width=".78"/><rect x="88.301" y="132.775" width="96.009" height="14.337" rx="1.17" fill="#fff" stroke="#716969" stroke-width=".78"/><rect x="88.301" y="180.915" width="199.224" height="14.337" rx="1.17" fill="#fff" stroke="#716969" stroke-width=".78"/><rect x="191.516" y="132.775" width="96.009" height="14.337" rx="1.17" fill="#fff" stroke="#716969" stroke-width=".78"/><path d="M239.404 329.298H131.258c-1.958 0-3.546 1.566-3.546 3.499v11.738c0 1.932 1.588 3.499 3.546 3.499h108.146c1.958 0 3.545-1.567 3.545-3.499v-11.738c0-1.933-1.587-3.499-3.545-3.499Z" fill="#F59D4C"/><path d="M168.906 336.341c-.169-.843-.864-1.94-2.678-1.94-1.413 0-2.604 1.013-2.604 2.341 0 1.128.769 1.898 1.961 2.141l1.044.21c.58.116.906.454.906.886 0 .527-.432.917-1.212.917-1.054 0-1.571-.664-1.634-1.402l-1.35.359c.116 1.065.991 2.34 2.973 2.34 1.74 0 2.7-1.16 2.7-2.309 0-1.054-.728-1.94-2.088-2.203l-1.044-.201c-.548-.105-.812-.432-.812-.843 0-.496.464-.949 1.171-.949.949 0 1.286.643 1.36 1.054l1.307-.401Zm4.108 5.863c1.602 0 2.878-.981 2.878-2.815v-4.829h-1.455v4.723c0 .981-.538 1.497-1.423 1.497-.865 0-1.413-.516-1.413-1.497v-4.723h-1.455v4.829c0 1.834 1.276 2.815 2.868 2.815Zm4.516-7.644v7.475h2.889c1.403 0 2.309-.875 2.309-2.088 0-.927-.59-1.592-1.318-1.771.623-.211 1.086-.833 1.086-1.603 0-1.159-.822-2.013-2.277-2.013h-2.689Zm1.434 3.089v-1.866h1.023c.706 0 1.075.358 1.075.927 0 .57-.4.939-1.064.939h-1.034Zm0 3.174v-1.972h1.202c.728 0 1.107.411 1.107 1.002 0 .601-.421.97-1.128.97h-1.181Zm13.342 1.212v-7.475h-1.982l-2.193 5.398-2.246-5.398h-1.919v7.475h1.392v-5.198l2.151 5.198h1.212l2.151-5.24v5.24h1.434Zm3.186 0v-7.475h-1.477v7.475h1.477Zm7.209-6.094v-1.381h-6.189v1.381h2.362v6.094h1.465v-6.094h2.362Z" fill="#fff"/><path d="m166.488 397.292-37.406 55.573 69.175 7.517-1.342 20.225H94.002c-5.906-2.774-7.249-21.119-6.175-25.862 8.68-37.049 55.394-113.741 66.133-120.005 10.738-6.175 38.301-17.809 38.301-17.809h58.974l12.618 7.517s32.395 10.918 39.017 21.388c6.622 10.47 21.739 40.798 38.145 108.023 0 0 1.2 26.748-18.407 26.748-21.208 0-86.965-.876-94.035-7.141l10.804-20.601s31.03 5.989 44.526 2.995c13.496-2.995 25.299 0 24.7-2.995-2.774-13.871-26.405-46.176-26.405-46.176l2.774 80.003-120.632-2.148" fill="#398EAE"/><path d="M131.229 488.129c7.965 0 14.498-1.074 14.498-2.506 0-1.342-6.444-2.505-14.498-2.505-7.964 0-14.497 1.074-14.497 2.505.09 1.343 6.533 2.506 14.497 2.506Z" fill="#FFF5E6"/><path d="M197.541 343.514s23.446 14.05 45.908-.805 31.053 22.909 31.053 22.909l-61.211-4.295h-32.663l4.921-11.723 11.992-6.086Z" fill="#398EAE"/><path d="M187.339 281.946s-5.548-2.595-5.637 3.401c-.09 5.995 8.322 12.439 8.322 12.439l-1.432-14.498-1.253-1.342ZM258.125 281.588s5.548-2.595 5.638 3.4c.089 5.996-8.323 12.439-8.323 12.439l1.432-14.497 1.253-1.342Z" fill="#FAB18F"/><path d="M190.74 317.115s4.474.984 7.517-8.501c2.595-8.054 49.577-1.611 49.577-1.611a20.712 20.712 0 0 0 4.922 11.365c6.175 6.98-13.603 24.967-21.567 30.516-11.813 8.143-13.692 3.49-22.82-2.148-7.964-4.922-16.824-25.773-17.629-29.621Z" fill="#E8A489"/><path d="M221.435 353.269c-6.712.537-23.178-6.086-23.178-6.086l8.054-3.848c6.354 7.786 15.124 9.934 15.124 9.934Z" fill="#F0F3F7"/><path d="m191.992 317.115 6.444-2.148-.806-3.758s-5.995 1.253-5.995 2.863l.357 2.506" fill="#35198E"/><path d="M189.934 317.294s-1.7 23.715 11.724 41.523l5.011-15.392s-12.529-16.377-15.124-29.352l-1.611 3.221Z" fill="#fff"/><path d="M221.256 353.269c6.622.537 21.567-5.459 21.567-5.459l-5.459-4.743c-4.833 6.175-16.108 10.202-16.108 10.202Z" fill="#F0F3F7"/><path d="m251.682 317.115-6.443-2.148.805-3.758s5.996 1.253 5.996 2.863l-.358 2.506" fill="#35198E"/><path d="M254.546 317.921s.895 23.088-12.439 40.896l-5.012-15.392s12.529-16.377 15.124-29.352l2.327 3.848Z" fill="#fff"/><path d="M197.72 319.621c27.652 44.745 50.472-.537 50.472-.537-17.808 17.092-30.158 20.046-50.472.537Z" fill="#E28357"/><path d="M192.888 237.022s4.564-14.05 28.457-14.05c27.115 0 43.671 21.478 40.807 40.629-.268 1.879-2.058 7.427-2.058 7.427l-8.144-14.945-42.417-7.159-16.645-11.902Z" fill="#71310D"/><path d="M260.541 280.067c-1.7 27.383-16.913 54.767-37.675 54.767-20.851 0-35.974-27.384-37.675-54.767-1.879-30.337 16.914-49.667 37.675-49.667 20.762-.089 39.376 22.104 37.675 49.667Z" fill="#FAB18F"/><path d="M198.704 260.289c9.934 3.49 33.648 10.381 54.499 6.443.448-.089.895-.089 1.343.09.447.179.894.358 1.163.716.358.358.537.716.716 1.163.179.448.179.895.089 1.343-.537 2.595.448 5.637 1.253 8.233 2.148 6.532 2.327 3.758 2.327 3.758s6.622-22.73-1.521-37.943c-8.054-15.213-45.64-37.586-71.055 0 0 0-10.381 14.407-1.432 37.943 0 0 4.296-.895 7.07-18.435.089-.626.358-1.163.626-1.7.358-.537.806-.895 1.343-1.253.537-.358 1.074-.537 1.7-.537.626-.089 1.253-.089 1.879.179Z" fill="#71310D"/><path d="M213.38 314.52s11.097.805 19.151-.806c-.089 1.701-.626 3.222-1.521 4.654-.895 1.432-2.148 2.505-3.58 3.311-1.61.805-3.4 1.074-5.19.805-1.79-.268-3.401-.984-4.743-2.147-1.879-1.611-3.222-3.58-4.117-5.817Z" fill="#DB5D26"/><path d="M230.294 314.072c-5.638.627-11.276.806-16.914.448 0 0 .001.537 1.074 2.148 14.14 2.058 18.077-1.164 18.077-2.954l-2.237.358Z" fill="#fff"/><path d="M193.514 237.022s-6.622.448-9.486 4.743c-2.774 4.385-9.754 12.171 1.969 40.449 0 0 1.7-31.052 13.244-40.717 11.634-9.665-5.727-4.475-5.727-4.475Z" fill="#71310D"/><path d="M211.591 287.762a3.046 3.046 0 0 0-.537-1.073c-.269-.358-.537-.627-.895-.806-.358-.179-.716-.358-1.163-.447a2.796 2.796 0 0 0-2.238.447c-.626.448-1.163 1.074-1.252 1.879-.09.358 0 .806.089 1.164.09.358.269.716.537 1.074.268.358.537.626.895.805.358.179.716.358 1.163.448.806.179 1.611 0 2.237-.358.627-.448 1.164-1.074 1.253-1.88 0-.447 0-.895-.089-1.253ZM213.828 276.845c-1.342-1.164-2.953-1.969-4.743-2.148-1.79-.268-3.58.09-5.101.895-1.163.626-1.611.895-1.432 1.432.269.626 2.864-.716 6.175-.269 3.311.537 5.548 2.506 5.906 2.148.179-.089.09-.805-.805-2.058ZM236.827 287.762c.089-.357.268-.715.537-1.073.268-.358.537-.627.895-.806.358-.179.716-.358 1.163-.447.805-.179 1.611 0 2.237.447.627.448 1.164 1.074 1.253 1.879.09.358 0 .806-.089 1.164-.09.358-.269.716-.537 1.074-.269.358-.537.626-.895.805-.358.179-.716.358-1.164.448-.805.179-1.61 0-2.237-.358-.626-.448-1.163-1.074-1.253-1.88 0-.447 0-.895.09-1.253ZM234.5 276.845c1.342-1.164 2.953-1.969 4.743-2.148 1.79-.268 3.579.09 5.101.895 1.163.626 1.611.895 1.432 1.432-.269.626-2.864-.716-6.175-.269-3.311.537-5.549 2.506-5.906 2.148-.179-.089 0-.805.805-2.058Z" fill="#724422"/><path opacity=".2" d="M201.747 309.688c4.448 0 8.054-3.526 8.054-7.875 0-4.35-3.606-7.875-8.054-7.875s-8.054 3.525-8.054 7.875c0 4.349 3.606 7.875 8.054 7.875ZM246.134 309.688c4.448 0 8.054-3.526 8.054-7.875 0-4.35-3.606-7.875-8.054-7.875s-8.054 3.525-8.054 7.875c0 4.349 3.606 7.875 8.054 7.875ZM220.271 305.929c2.058.447 4.117 2.416 4.117 2.416s1.879-1.969 3.669-2.416c-3.311-.179-5.907 0-7.786 0Z" fill="#B53908"/><path opacity=".5" d="M282.287 406.157s-6.443-17.272-7.606-25.683c-1.164-8.412-.269 16.823 1.7 20.761 1.969 3.938-6.085-7.159-6.801-11.186-.448-2.237 4.922 14.497 5.459 24.967.358 8.054-4.117 10.202-4.743 10.65-1.164.805 12.26 7.248 12.26 7.248l-.269-26.757Z" fill="#3D1F99"/><path d="M222.777 311.925s-4.474-3.58-7.517-2.059c-3.043 1.522-6.891 5.101-9.217 4.475-2.417-.627 1.521 2.416 4.206 1.521 2.684-.895 3.669-4.027 6.711-4.295 3.49-.269 5.817.358 5.817.358ZM223.672 311.925s4.474-3.58 7.517-2.059c3.042 1.522 6.891 5.101 9.217 4.475 2.327-.627-1.521 2.416-4.206 1.521-2.684-.895-3.669-4.027-6.711-4.295-3.491-.269-5.817.358-5.817.358ZM231.457 328.212c-.268-.09-.536-.179-.894-.179-.537.089-1.611.089-2.685-.179-.984-.269-1.611-.716-1.969-1.074-.268-.269-.716-.447-1.163-.447h-3.49c-.537 0-.985.268-1.343.626-.268.358-.805.895-1.521 1.163-.805.358-1.7.179-2.327 0a1.99 1.99 0 0 0-1.432.269c-.536.447-.715 1.074-.536 1.7.984 3.49 4.295 14.318 8.769 14.318 4.564 0 8.591-10.201 9.934-14.049a1.663 1.663 0 0 0-.895-2.059l-.448-.089Z" fill="#71310D"/><path d="M370.971 479.985H75.478c-2.506 0-4.564 2.059-4.564 4.564v5.728c0 2.505 2.058 4.564 4.564 4.564H371.06c2.505 0 4.564-2.059 4.564-4.564v-5.728c-.09-2.505-2.148-4.564-4.654-4.564Z" fill="#D29420"/><path opacity=".35" d="M129.171 451.886s-10.202-10.47-15.392-10.47c-5.19 0 12.529 10.917 12.081 10.828-.447-.09-15.929-3.848-20.403-.447-1.522 1.163 8.769 1.163 21.656 3.132 25.594 3.758 64.611 9.754 64.611 9.754l1.969-4.564-64.522-8.233ZM309.901 452.725s10.202-10.47 15.392-10.47c5.19 0-12.528 10.917-12.081 10.828.447-.09 15.929-3.848 20.404-.448 1.521 1.164-8.77 1.164-21.657 3.132-25.594 3.759-64.611 9.755-64.611 9.755l-1.969-4.564 64.522-8.233Z" fill="#3D1F99"/><path d="M184.923 463.519s10.381-.805 12.976-2.595c2.595-1.79 25.952-5.011 36.153-1.79 10.202 3.222 24.252 8.77 16.556 9.934 0 0 14.855 4.206 13.692 7.875-1.164 3.758-10.202 2.326-10.202 2.326s-15.84-3.848-31.232-4.116c-10.112-.179-19.866 2.864-25.773 4.206-3.49.805-5.727-.179-5.548.537 1.163 3.579-6.622-16.377-6.622-16.377Z" fill="#FAB18F"/><path d="M199.599 459.94c0 .895-7.427-2.058-6.89 19.956h-14.498s-2.416-10.023 6.891-21.656l14.497 1.7Z" fill="#fff"/><path d="M301.387 473.466H143.859l-4.914-86.666c-.098-1.084.983-2.167 2.359-2.167h162.539c1.376 0 2.359.985 2.359 2.167l-4.815 86.666Z" fill="#C1C0BF"/><path d="M297.262 479.869H147.88c-2.267 0-4.139-1.901-4.139-4.202v-2.201H301.4v2.201c0 2.301-1.872 4.202-4.138 4.202Z" fill="#9C9B9A"/><path d="m143.741 473.466 161.661-81.63-4.932 81.042-156.729.588Z" fill="#BDBCBB"/><path d="M222.171 444.655c7.124 0 12.804-4.801 12.804-10.804 0-6.002-5.776-10.804-12.804-10.804-7.028 0-12.804 4.802-12.804 10.804-.096 5.903 5.68 10.804 12.804 10.804Z" fill="#E0E0DE"/><path d="M305.402 387.034H140.54c0-.905.983-1.601 2.262-1.601h160.436c1.18.07 2.164.766 2.164 1.601Z" fill="#EBE9E8"/><rect x="389.676" y="360.853" width="134.434" height="47.508" rx="4" fill="#000" fill-opacity=".1"/><rect x="388.786" y="359.699" width="133.823" height="47.508" rx="4" fill="#fff"/><path d="M437.825 384.295v-3.888h2.272c1.36 0 2.192.768 2.192 1.968 0 1.168-.832 1.92-2.192 1.92h-2.272Zm2.56 1.408c2.096 0 3.504-1.424 3.504-3.344 0-1.904-1.408-3.36-3.504-3.36h-4.128v11.344h1.568v-4.64h2.56Zm6.987 3.248v-8.56h2.352c2.096 0 3.824 1.44 3.824 4.304 0 2.848-1.76 4.256-3.856 4.256h-2.32Zm2.368 1.392c2.88 0 5.424-1.936 5.424-5.648 0-3.728-2.512-5.696-5.392-5.696h-3.968v11.344h3.936Zm9.148 0v-4.768h4.832v-1.472h-4.832v-3.648h5.328v-1.456h-6.896v11.344h1.568Zm18.14 0v-1.456H471.7v-3.472h4.832v-1.472H471.7v-3.488h5.328v-1.456h-6.896v11.344h6.896Zm2.824-3.872c0-1.584.896-2.704 2.272-2.704s2.208 1.088 2.208 2.672-.848 2.784-2.224 2.784c-1.44 0-2.256-1.168-2.256-2.752Zm4.496 2.832c0 .464.048.864.08 1.04h1.456c-.016-.128-.08-.688-.08-1.424v-10.16h-1.488v4.976c-.256-.624-.992-1.296-2.352-1.296-2.176 0-3.648 1.856-3.648 4.032 0 2.288 1.392 4.08 3.648 4.08 1.2 0 2.016-.64 2.384-1.376v.128Zm5.503 1.04v-7.696h-1.488v7.696h1.488Zm-1.824-10.608c0 .592.48 1.072 1.072 1.072.608 0 1.088-.48 1.088-1.072 0-.608-.48-1.088-1.088-1.088-.592 0-1.072.48-1.072 1.088Zm6.399.48h-1.376v1.248c0 .672-.352 1.184-1.184 1.184h-.416v1.36h1.472v4.224c0 1.392.832 2.192 2.144 2.192.512 0 .896-.096 1.024-.144v-1.28c-.128.032-.4.064-.592.064-.784 0-1.072-.352-1.072-1.056v-4h1.664v-1.36h-1.664v-2.432Zm6.889 9.024c-1.28 0-2.4-.96-2.4-2.752 0-1.776 1.12-2.736 2.4-2.736 1.28 0 2.4.96 2.4 2.736 0 1.792-1.12 2.752-2.4 2.752Zm0-6.832c-2.304 0-3.936 1.744-3.936 4.08 0 2.352 1.632 4.096 3.936 4.096 2.304 0 3.936-1.744 3.936-4.096 0-2.336-1.632-4.08-3.936-4.08Zm10.132.16a2.83 2.83 0 0 0-.496-.048c-.784 0-1.744.288-2.304 1.472v-1.344h-1.472v7.696h1.504v-3.856c0-1.696.848-2.368 2.112-2.368.208 0 .432.016.656.048v-1.6Z" fill="#18265B"/><path d="M402.284 365.861a2.21 2.21 0 0 0-2.206 2.199v30.787a2.21 2.21 0 0 0 2.206 2.199h22.055c1.213 0 2.205-.99 2.205-2.199v-24.19l-8.822-8.796h-15.438Z" fill="#E0E0E0"/><path d="M419.982 374.549h6.562l-8.749-8.688v6.516c0 1.194.984 2.172 2.187 2.172Z" fill="#B0B0B0"/><path d="M422.17 394.312c0 .598-.497 1.087-1.103 1.087h-24.261a1.098 1.098 0 0 1-1.102-1.087v-10.858c0-.598.496-1.087 1.102-1.087h24.261c.606 0 1.103.489 1.103 1.087v10.858Z" fill="#FD567C"/><path d="M400.349 386.895a.6.6 0 0 1 .6-.596h2.043c1.15 0 2.185.752 2.185 2.194 0 1.366-1.035 2.127-2.185 2.127h-1.477v1.142c0 .381-.247.596-.566.596a.589.589 0 0 1-.6-.596v-4.867Zm1.166.492v2.154h1.477c.592 0 1.061-.512 1.061-1.048 0-.604-.469-1.106-1.061-1.106h-1.477ZM406.909 392.358c-.292 0-.611-.156-.611-.536v-4.91c0-.31.319-.536.611-.536h2.024c4.041 0 3.953 5.982.08 5.982h-2.104Zm.557-4.927v3.873h1.467c2.388 0 2.494-3.873 0-3.873h-1.467ZM414.319 387.501v1.373h2.255c.319 0 .637.312.637.613 0 .286-.318.519-.637.519h-2.255v1.816c0 .302-.22.535-.53.535-.389 0-.627-.233-.627-.535v-4.911c0-.31.239-.536.627-.536h3.104c.39 0 .62.226.62.536 0 .277-.23.588-.62.588h-2.574v.002Z" fill="#fff"/><path d="M421.065 395.616h-20.987v1.086h20.987c.608 0 1.105-.489 1.105-1.086v-1.086c0 .597-.497 1.086-1.105 1.086Z" fill="#B0B0B0"/><rect x="416.737" y="136.167" width="142.761" height="55.249" rx="4" fill="#000" fill-opacity=".1"/><rect x="415.805" y="135.004" width="142.613" height="55.249" rx="4" fill="#fff"/><path d="M446.206 141.317h-20.358a3.355 3.355 0 0 0-3.355 3.355v36.484a3.356 3.356 0 0 0 3.355 3.356h20.358a3.356 3.356 0 0 0 3.356-3.356v-36.484a3.355 3.355 0 0 0-3.356-3.355Z" fill="#F38632" stroke="#CDCDCD"/><path d="M430.716 141.317h10.623v1.257c0 .843-.683 1.525-1.525 1.525h-7.573a1.525 1.525 0 0 1-1.525-1.525v-1.257Z" fill="#fff" stroke="#CDCDCD"/><path d="M446.398 145.81h-20.742v38.401h20.742V145.81Z" fill="#fff"/><path d="M435.457 149.773h-8.354v2.945h8.354v-2.945Z" fill="#fff" stroke="#CDCDCD" stroke-width=".5"/><path d="M431.349 147.379h-4.398v1.296h4.398v-1.296ZM435.339 155.872h4.398v-1.296h-4.398v1.296ZM439.737 147.379h-7.69v1.296h7.69v-1.296ZM426.951 155.872h7.69v-1.296h-7.69v1.296ZM426.951 162.864h5.675v-1.296h-5.675v1.296Z" fill="#CDCDCD"/><path d="M444.951 156.765h-17.848v2.945h17.848v-2.945Z" fill="#fff" stroke="#CDCDCD" stroke-width=".5"/><path d="M444.493 173.156h-16.932a.61.61 0 0 0-.61.61v2.03c0 .337.273.61.61.61h16.932a.61.61 0 0 0 .61-.61v-2.03a.61.61 0 0 0-.61-.61Z" fill="#FFC14F"/><path opacity=".5" d="M441.431 173.929h-10.807v1.704h10.807v-1.704Z" fill="#fff"/><path d="M444.951 163.757h-17.848v7.491h17.848v-7.491ZM444.951 149.773h-8.353v2.945h8.353v-2.945Z" fill="#fff" stroke="#CDCDCD" stroke-width=".5"/><path d="M467.024 168.216v-11.344h-2.096l-4.032 9.232-4-9.232h-2.128v11.344h1.552v-8.832l3.84 8.832h1.44l3.872-8.832v8.832h1.552Zm6.021-1.104c-1.28 0-2.4-.96-2.4-2.752 0-1.776 1.12-2.736 2.4-2.736 1.28 0 2.4.96 2.4 2.736 0 1.792-1.12 2.752-2.4 2.752Zm0-6.832c-2.304 0-3.936 1.744-3.936 4.08 0 2.352 1.632 4.096 3.936 4.096 2.304 0 3.936-1.744 3.936-4.096 0-2.336-1.632-4.08-3.936-4.08Zm7.348 7.936v-1.12c.48.832 1.36 1.328 2.496 1.328 2.288 0 3.584-1.808 3.584-4.096 0-2.24-1.2-4.032-3.536-4.032-1.28 0-2.176.624-2.544 1.312v-4.976h-1.488v11.584h1.488Zm4.544-3.888c0 1.664-.896 2.752-2.272 2.752-1.328 0-2.288-1.088-2.288-2.752 0-1.664.96-2.704 2.288-2.704 1.392 0 2.272 1.04 2.272 2.704Zm4.941 3.888v-7.696h-1.488v7.696h1.488Zm-1.824-10.608c0 .592.48 1.072 1.072 1.072.608 0 1.088-.48 1.088-1.072 0-.608-.48-1.088-1.088-1.088-.592 0-1.072.48-1.072 1.088Zm5.887 10.608v-11.584h-1.504v11.584h1.504Zm3.534-4.64c.064-.992.832-1.968 2.096-1.968 1.36 0 2.08.864 2.112 1.968h-4.208Zm4.432 2c-.288.864-.912 1.552-2.16 1.552-1.296 0-2.288-.96-2.32-2.336h5.792a3.38 3.38 0 0 0 .032-.48c0-2.4-1.328-4.032-3.696-4.032-1.936 0-3.68 1.648-3.68 4.064 0 2.608 1.808 4.112 3.872 4.112 1.792 0 3.024-1.072 3.456-2.432l-1.296-.448Zm8.992 2.64v-4.768h4.832v-1.472h-4.832v-3.648h5.328v-1.456h-6.896v11.344h1.568Zm9.818-1.104c-1.28 0-2.4-.96-2.4-2.752 0-1.776 1.12-2.736 2.4-2.736 1.28 0 2.4.96 2.4 2.736 0 1.792-1.12 2.752-2.4 2.752Zm0-6.832c-2.304 0-3.936 1.744-3.936 4.08 0 2.352 1.632 4.096 3.936 4.096 2.304 0 3.936-1.744 3.936-4.096 0-2.336-1.632-4.08-3.936-4.08Zm10.132.16a2.83 2.83 0 0 0-.496-.048c-.784 0-1.744.288-2.304 1.472v-1.344h-1.472v7.696h1.504v-3.856c0-1.696.848-2.368 2.112-2.368.208 0 .432.016.656.048v-1.6Zm3.091 7.776v-4.64c0-1.152.72-1.952 1.792-1.952 1.152 0 1.632.768 1.632 1.76v4.832h1.504v-4.656c0-1.104.72-1.936 1.776-1.936 1.136 0 1.632.752 1.632 1.76v4.832h1.488v-4.992c0-2.016-1.312-2.928-2.656-2.928-.976 0-1.968.352-2.576 1.456-.416-.992-1.344-1.456-2.304-1.456-.896 0-1.856.4-2.336 1.248v-1.024h-1.44v7.696h1.488Zm11.511-2c.128.88 1.024 2.24 3.136 2.24 1.904 0 2.816-1.296 2.816-2.384 0-1.136-.736-1.984-2.128-2.288l-1.248-.272c-.592-.128-.88-.464-.88-.928 0-.528.512-1.024 1.28-1.024 1.216 0 1.536.88 1.6 1.28l1.328-.496c-.16-.688-.816-2.064-2.928-2.064-1.504 0-2.736 1.12-2.736 2.432 0 1.088.72 1.904 1.92 2.16l1.312.288c.64.144.992.512.992.992 0 .544-.464 1.024-1.312 1.024-1.088 0-1.696-.64-1.792-1.44l-1.36.48Z" fill="#18265B"/><rect x="376.624" y="63.791" width="153.097" height="47.508" rx="4" fill="#000" fill-opacity=".1"/><rect x="375.624" y="62.791" width="152.938" height="47.508" rx="4" fill="#fff"/><path d="M427.907 93.633v-5.066h5.134v-1.563h-5.134v-3.877h5.661v-1.546h-7.327v12.052h1.666Zm10.431-1.172c-1.36 0-2.55-1.02-2.55-2.924 0-1.888 1.19-2.908 2.55-2.908 1.36 0 2.55 1.02 2.55 2.907 0 1.904-1.19 2.924-2.55 2.924Zm0-7.26c-2.448 0-4.182 1.854-4.182 4.336 0 2.498 1.734 4.351 4.182 4.351 2.448 0 4.182-1.853 4.182-4.352 0-2.481-1.734-4.335-4.182-4.335Zm10.766.17a3.007 3.007 0 0 0-.527-.05c-.833 0-1.853.305-2.448 1.564v-1.428h-1.564v8.177h1.598v-4.097c0-1.803.901-2.517 2.244-2.517.221 0 .459.017.697.052v-1.7Zm3.284 8.263v-4.93c0-1.224.765-2.075 1.904-2.075 1.224 0 1.734.816 1.734 1.87v5.135h1.598v-4.948c0-1.173.765-2.057 1.887-2.057 1.207 0 1.734.8 1.734 1.87v5.135h1.581v-5.305c0-2.141-1.394-3.11-2.822-3.11-1.037 0-2.091.374-2.737 1.547-.442-1.055-1.428-1.547-2.448-1.547-.952 0-1.972.425-2.482 1.326v-1.088h-1.53v8.177h1.581Zm17.415-12.053v12.052h4.216c2.21 0 3.723-1.376 3.723-3.28 0-1.343-.799-2.567-2.176-2.907 1.054-.391 1.802-1.31 1.802-2.602 0-1.903-1.343-3.263-3.638-3.263h-3.927Zm1.666 5.27v-3.808h2.006c1.377 0 2.21.747 2.21 1.886 0 1.123-.799 1.921-2.142 1.921h-2.074Zm0 5.32v-3.893h2.38c1.462 0 2.193.816 2.193 1.972 0 1.174-.918 1.921-2.261 1.921h-2.312Zm13.448.476c0 .34.034.8.068.986h1.53a13.757 13.757 0 0 1-.085-1.512v-6.664h-1.598v4.93c0 1.24-.646 2.09-1.938 2.09-1.343 0-1.853-.986-1.853-2.108v-4.912h-1.598v5.15c0 1.853 1.156 3.281 3.06 3.281.952 0 1.972-.39 2.414-1.24Zm5.821.986v-8.176h-1.581v8.177h1.581Zm-1.938-11.27c0 .629.51 1.138 1.139 1.138.646 0 1.156-.51 1.156-1.139 0-.645-.51-1.155-1.156-1.155-.629 0-1.139.51-1.139 1.156Zm6.254 11.27V81.326h-1.598v12.308h1.598Zm3.671-4.114c0-1.683.952-2.873 2.414-2.873 1.462 0 2.346 1.156 2.346 2.84 0 1.682-.901 2.957-2.363 2.957-1.53 0-2.397-1.24-2.397-2.924Zm4.777 3.01c0 .493.051.918.085 1.105h1.547a12.937 12.937 0 0 1-.085-1.513V81.326h-1.581v5.287c-.272-.663-1.054-1.377-2.499-1.377-2.312 0-3.876 1.971-3.876 4.283 0 2.431 1.479 4.335 3.876 4.335 1.275 0 2.142-.68 2.533-1.462v.136Zm5.302-3.825c.068-1.054.884-2.091 2.227-2.091 1.445 0 2.21.918 2.244 2.09h-4.471Zm4.709 2.125c-.306.918-.969 1.649-2.295 1.649-1.377 0-2.431-1.02-2.465-2.482h6.154c.017-.102.034-.306.034-.51 0-2.55-1.411-4.285-3.927-4.285-2.057 0-3.91 1.752-3.91 4.319 0 2.77 1.921 4.368 4.114 4.368 1.904 0 3.213-1.139 3.672-2.584l-1.377-.475Zm8.007-5.457a3.007 3.007 0 0 0-.527-.052c-.833 0-1.853.306-2.448 1.565v-1.428h-1.564v8.177h1.598v-4.097c0-1.803.901-2.517 2.244-2.517.221 0 .459.017.697.052v-1.7Z" fill="#18265B"/><g opacity=".71"><path d="M420.64 69.013h-40.407l-.065 38.145h40.408l.064-38.145Z" fill="#CECECE"/><path d="M420.194 68.807h-39.129v38.022h39.129V68.807Z" fill="#FCFCFC"/><path d="M420.643 65.932h-40.762v3.083h40.762v-3.083Z" fill="#EDECEC"/><path d="M420.643 69.015h-40.762v3.083h40.762v-3.083Z" fill="#ED8A18"/><path d="M394.268 72.098h-14.387v34.425h14.387V72.098Z" fill="#3F4651"/><path fill="#fff" d="M400.113 70.002h5.109v1.195h-5.109z"/><path fill="#7E8B9F" d="M382.279 74.667h9.591v1.541h-9.591zM382.279 80.832h9.591v2.055h-9.591zM382.279 87.512h9.591v1.541h-9.591zM382.279 93.677h9.591v2.055h-9.591zM382.279 100.357h9.591v1.541h-9.591z"/><path fill="#fff" d="M406.286 70.002h5.109v1.195h-5.109zM412.353 70.002h5.109v1.195h-5.109z"/><path d="M396.676 75.438h21.58v28.611h-21.58V75.437Z" fill="#47C405"/><path d="M416.421 77.532h-17.862c-.26 0-.471.195-.471.436v24.494c0 .241.211.436.471.436h17.862c.26 0 .471-.195.471-.436V77.968c0-.24-.211-.436-.471-.436Z" fill="#fff"/><path d="M416.006 92.288h-16.984v3.403h16.984v-3.403Z" fill="#F5F5F5"/><path d="M415.966 92.33h-16.902v3.321h16.902v-3.32Z" stroke="#DBDBDB" stroke-width=".989"/><path fill="#CBCBCB" d="M399.022 88.131h3.866v1.004h-3.866zM403.288 88.13h6.039v1.004h-6.039zM409.708 88.13h2.843v1.004h-2.843zM399.022 84.41h5.745v1.004h-5.745zM405.274 84.41h3.99v1.004h-3.99zM399.022 80.69h7.977v1.004h-7.977zM407.506 80.689h5.037v1.004h-5.037z"/><path d="M403.584 98.8h8.257c.162 0 .292.128.292.287v.984c0 .159-.13.286-.292.286h-8.257a.287.287 0 0 1-.291-.286v-.953c-.033-.158.097-.317.291-.317Z" fill="#FFC14F"/><path opacity=".5" d="M410.352 99.182h-5.278v.826h5.278v-.826Z" fill="#fff"/></g><rect x="374.567" y="215.412" width="134.434" height="47.508" rx="4" fill="#000" fill-opacity=".1"/><rect x="373.677" y="214.259" width="133.823" height="47.508" rx="4" fill="#fff"/><path d="M414.883 229.476h-26.814v9.1h26.814v-9.1Z" fill="#F2F3FB" stroke="#B7B7B7" stroke-width=".735"/><path d="M441.417 229.476h-26.814v9.1h26.814v-9.1Z" fill="#F2F3FB" stroke="#B7B7B7" stroke-width=".735"/><path d="M415.25 219.274h-27.548v9.835h27.548v-9.835Z" fill="#90D9AC"/><path d="M441.784 219.274h-27.549v9.835h27.549v-9.835Z" fill="#C6A9FE"/><path d="M414.883 238.533h-26.814v9.1h26.814v-9.1Z" fill="#fff" stroke="#B7B7B7" stroke-width=".735"/><path d="M441.417 238.533h-26.814v9.1h26.814v-9.1ZM414.883 247.652h-26.814v9.1h26.814v-9.1Z" fill="#fff" stroke="#B7B7B7" stroke-width=".735"/><path d="M441.417 247.652h-26.814v9.1h26.814v-9.1Z" fill="#fff" stroke="#B7B7B7" stroke-width=".735"/><path d="M408.303 232.624h-13.654v2.793h13.654v-2.793Z" fill="#C4C4C4"/><path opacity=".5" d="M410.333 223.221h-17.715v2.794h17.715v-2.794Z" fill="#fff"/><path d="M436.867 232.624h-17.715v2.793h17.715v-2.793Z" fill="#C4C4C4"/><path opacity=".5" d="M435.453 223.221h-14.887v2.794h14.887v-2.794Z" fill="#fff"/><path d="M388.076 229.476h-8.608v9.1h8.608v-9.1Z" fill="#F2F3FB" stroke="#B7B7B7" stroke-width=".735"/><path d="M388.076 238.496h-8.608v9.1h8.608v-9.1Z" fill="#F2F3FB" stroke="#B7B7B7" stroke-width=".735"/><path d="M388.076 247.517h-8.608v9.099h8.608v-9.099Z" fill="#F2F3FB" stroke="#B7B7B7" stroke-width=".735"/><path d="M385.291 232.507h-3.038v3.039h3.038v-3.039Z" fill="#fff" stroke="#B7B7B7" stroke-width=".7"/><path d="m383.988 241.367-.216-.371-.216.371-.459.787-.89.193-.42.091.286.32.607.68-.091.906-.044.427.393-.173.834-.367.834.367.393.173-.044-.427-.091-.906.607-.68.286-.32-.42-.091-.89-.193-.459-.787ZM383.988 250.33l-.216-.371-.216.371-.459.788-.89.192-.42.091.286.32.607.68-.091.906-.044.427.393-.173.834-.367.834.367.393.173-.044-.427-.091-.906.607-.68.286-.32-.42-.091-.89-.192-.459-.788Z" fill="#fff" stroke="#B7B7B7" stroke-width=".5"/><path d="M459.415 235.015v-1.456h-9.152v1.456h3.792v9.888h1.568v-9.888h3.792Zm-.403 7.824c0 1.216 1.008 2.304 2.576 2.304 1.376 0 2.144-.736 2.48-1.28 0 .56.048.848.08 1.04h1.472a7.24 7.24 0 0 1-.096-1.264v-3.856c0-1.504-.896-2.816-3.2-2.816-1.664 0-2.992 1.024-3.152 2.496l1.44.336c.096-.896.688-1.552 1.744-1.552 1.168 0 1.664.624 1.664 1.376 0 .272-.128.512-.592.576l-2.08.304c-1.328.192-2.336.96-2.336 2.336Zm2.784 1.04c-.768 0-1.248-.544-1.248-1.12 0-.688.48-1.056 1.12-1.152l2.352-.352v.352c0 1.68-.992 2.272-2.224 2.272Zm7.559 1.024v-1.12c.48.832 1.36 1.328 2.496 1.328 2.288 0 3.584-1.808 3.584-4.096 0-2.24-1.2-4.032-3.536-4.032-1.28 0-2.176.624-2.544 1.312v-4.976h-1.488v11.584h1.488Zm4.544-3.888c0 1.664-.896 2.752-2.272 2.752-1.328 0-2.288-1.088-2.288-2.752 0-1.664.96-2.704 2.288-2.704 1.392 0 2.272 1.04 2.272 2.704Zm4.956 3.888v-11.584h-1.504v11.584h1.504Zm3.535-4.64c.064-.992.832-1.968 2.096-1.968 1.36 0 2.08.864 2.112 1.968h-4.208Zm4.432 2c-.288.864-.912 1.552-2.16 1.552-1.296 0-2.288-.96-2.32-2.336h5.792a3.38 3.38 0 0 0 .032-.48c0-2.4-1.328-4.032-3.696-4.032-1.936 0-3.68 1.648-3.68 4.064 0 2.608 1.808 4.112 3.872 4.112 1.792 0 3.024-1.072 3.456-2.432l-1.296-.448Zm2.544.64c.128.88 1.024 2.24 3.136 2.24 1.904 0 2.816-1.296 2.816-2.384 0-1.136-.736-1.984-2.128-2.288l-1.248-.272c-.592-.128-.88-.464-.88-.928 0-.528.512-1.024 1.28-1.024 1.216 0 1.536.88 1.6 1.28l1.328-.496c-.16-.688-.816-2.064-2.928-2.064-1.504 0-2.736 1.12-2.736 2.432 0 1.088.72 1.904 1.92 2.16l1.312.288c.64.144.992.512.992.992 0 .544-.464 1.024-1.312 1.024-1.088 0-1.696-.64-1.792-1.44l-1.36.48Z" fill="#18265B"/></svg>