<svg width="200" height="287" viewBox="0 0 200 287" fill="none" xmlns="http://www.w3.org/2000/svg">
<g opacity="0.75">
<path d="M0 8.52002H199.297V286.311H0V8.52002Z" fill="#FEC14F"/>
<path d="M199.268 0.730957H0V9.79866H199.268V0.730957Z" fill="#EAEAEA"/>
<rect x="14.7627" y="3.43848" width="3.97463" height="3.97463" fill="white"/>
<rect x="22.7122" y="3.43848" width="3.97463" height="3.97463" fill="white"/>
<rect x="30.6614" y="3.43848" width="3.97463" height="3.97463" fill="white"/>
<rect x="77.6941" y="3.43848" width="106.653" height="3.97463" fill="white"/>
<path d="M182.349 21.6123H17.384C14.9832 21.6123 13.037 23.5585 13.037 25.9593V270.204C13.037 272.605 14.9832 274.551 17.384 274.551H182.349C184.75 274.551 186.696 272.605 186.696 270.204V25.9593C186.696 23.5585 184.75 21.6123 182.349 21.6123Z" fill="white"/>
<path d="M143.513 248.745H57.2058C55.643 248.745 54.3761 250.012 54.3761 251.575V261.069C54.3761 262.631 55.643 263.898 57.2058 263.898H143.513C145.076 263.898 146.343 262.631 146.343 261.069V251.575C146.343 250.012 145.076 248.745 143.513 248.745Z" fill="#F59D4C"/>
<path d="M94.0429 255.504C93.9637 255.108 93.6374 254.594 92.7868 254.594C92.1241 254.594 91.5653 255.068 91.5653 255.692C91.5653 256.221 91.9263 256.582 92.4851 256.695L92.9747 256.794C93.2467 256.849 93.4 257.007 93.4 257.21C93.4 257.457 93.1972 257.64 92.8313 257.64C92.3368 257.64 92.0945 257.328 92.0648 256.982L91.4318 257.15C91.4862 257.65 91.8967 258.248 92.8263 258.248C93.6423 258.248 94.0923 257.704 94.0923 257.165C94.0923 256.671 93.7511 256.255 93.1132 256.132L92.6236 256.038C92.3664 255.988 92.2428 255.835 92.2428 255.642C92.2428 255.41 92.4604 255.197 92.7917 255.197C93.2368 255.197 93.395 255.499 93.4297 255.692L94.0429 255.504ZM95.9693 258.253C96.721 258.253 97.3194 257.793 97.3194 256.933V254.668H96.6369V256.883C96.6369 257.343 96.3847 257.586 95.9693 257.586C95.5638 257.586 95.3067 257.343 95.3067 256.883V254.668H94.6242V256.933C94.6242 257.793 95.2226 258.253 95.9693 258.253ZM98.0876 254.668V258.174H99.4426C100.1 258.174 100.526 257.764 100.526 257.195C100.526 256.76 100.249 256.448 99.9075 256.364C100.199 256.265 100.417 255.973 100.417 255.612C100.417 255.068 100.031 254.668 99.3487 254.668H98.0876ZM98.7602 256.117V255.242H99.2399C99.5712 255.242 99.7443 255.41 99.7443 255.677C99.7443 255.944 99.5564 256.117 99.2448 256.117H98.7602ZM98.7602 257.605V256.681H99.3239C99.6652 256.681 99.8432 256.873 99.8432 257.15C99.8432 257.432 99.6454 257.605 99.314 257.605H98.7602ZM105.018 258.174V254.668H104.088L103.059 257.2L102.006 254.668H101.106V258.174H101.759V255.736L102.768 258.174H103.336L104.345 255.716V258.174H105.018ZM106.512 258.174V254.668H105.819V258.174H106.512ZM109.893 255.316V254.668H106.99V255.316H108.098V258.174H108.785V255.316H109.893Z" fill="white"/>
<path d="M23.7283 73.5502V71.414H24.8753C25.6014 71.414 26.0434 71.8244 26.0434 72.4874C26.0434 73.1293 25.6014 73.5502 24.8753 73.5502H23.7283ZM25.0542 74.8025C26.5275 74.8025 27.5062 73.8344 27.5062 72.4768C27.5062 71.1298 26.5275 70.1512 25.0542 70.1512H22.2655V77.6123H23.7177V74.8025H25.0542ZM29.2341 74.4342C29.2657 73.9607 29.6656 73.4134 30.3917 73.4134C31.1915 73.4134 31.5282 73.9186 31.5493 74.4342H29.2341ZM31.6861 75.7812C31.5177 76.2443 31.1599 76.5705 30.5074 76.5705C29.8129 76.5705 29.2341 76.0759 29.2025 75.3918H32.9068C32.9068 75.3708 32.9278 75.1603 32.9278 74.9604C32.9278 73.2977 31.9702 72.2769 30.3706 72.2769C29.0447 72.2769 27.8239 73.3503 27.8239 75.0025C27.8239 76.7494 29.0762 77.7702 30.4969 77.7702C31.7703 77.7702 32.5911 77.023 32.8542 76.1285L31.6861 75.7812ZM37.1871 72.4137C37.0818 72.4032 36.9766 72.3927 36.8608 72.3927C36.4188 72.3927 35.7032 72.5189 35.3875 73.203V72.4347H34.03V77.6123H35.4296V75.2445C35.4296 74.129 36.0505 73.7818 36.7661 73.7818C36.8924 73.7818 37.0292 73.7923 37.1871 73.8238V72.4137ZM37.7604 76.1706C37.8236 76.7599 38.3603 77.7702 39.9177 77.7702C41.2753 77.7702 41.9277 76.9072 41.9277 76.0654C41.9277 75.3077 41.4121 74.6868 40.3913 74.4763L39.6546 74.3185C39.3705 74.2658 39.1811 74.108 39.1811 73.8554C39.1811 73.5608 39.4758 73.3398 39.8441 73.3398C40.4334 73.3398 40.6544 73.7291 40.6965 74.0343L41.8646 73.7712C41.8014 73.2135 41.3068 72.2769 39.8335 72.2769C38.7181 72.2769 37.8972 73.0451 37.8972 73.9712C37.8972 74.6973 38.3497 75.2971 39.3495 75.5181L40.0335 75.676C40.4334 75.7602 40.5912 75.9496 40.5912 76.1811C40.5912 76.4547 40.3702 76.6968 39.9072 76.6968C39.2969 76.6968 38.9917 76.3179 38.9601 75.9075L37.7604 76.1706ZM45.3582 76.4968C44.6742 76.4968 44.0428 75.9917 44.0428 75.0235C44.0428 74.0448 44.6742 73.5502 45.3582 73.5502C46.0422 73.5502 46.6737 74.0448 46.6737 75.0235C46.6737 76.0022 46.0422 76.4968 45.3582 76.4968ZM45.3582 72.2769C43.8113 72.2769 42.6432 73.424 42.6432 75.0235C42.6432 76.6126 43.8113 77.7702 45.3582 77.7702C46.9052 77.7702 48.0733 76.6126 48.0733 75.0235C48.0733 73.424 46.9052 72.2769 45.3582 72.2769ZM50.5777 74.6342C50.5777 74.0343 50.9355 73.5608 51.5459 73.5608C52.2194 73.5608 52.5035 74.0133 52.5035 74.5921V77.6123H53.9031V74.35C53.9031 73.2135 53.3138 72.2979 52.0299 72.2979C51.4722 72.2979 50.8513 72.54 50.5356 73.0767V72.4347H49.1781V77.6123H50.5777V74.6342ZM55.0079 76.2022C55.0079 77.0125 55.6814 77.7596 56.7864 77.7596C57.5546 77.7596 58.0492 77.4018 58.3123 76.9914C58.3123 77.1914 58.3334 77.4755 58.3649 77.6123H59.6488C59.6172 77.4334 59.5856 77.0651 59.5856 76.7915V74.2448C59.5856 73.203 58.9753 72.2769 57.3336 72.2769C55.9445 72.2769 55.1974 73.1714 55.1132 73.9817L56.3549 74.2448C56.397 73.7923 56.7338 73.4029 57.3441 73.4029C57.9335 73.4029 58.2176 73.7081 58.2176 74.0764C58.2176 74.2553 58.1229 74.4026 57.8282 74.4447L56.5549 74.6342C55.692 74.7604 55.0079 75.2761 55.0079 76.2022ZM57.0811 76.7178C56.6285 76.7178 56.4076 76.4232 56.4076 76.118C56.4076 75.7181 56.6917 75.5181 57.0495 75.4655L58.2176 75.2866V75.5181C58.2176 76.4337 57.6704 76.7178 57.0811 76.7178ZM62.3961 77.6123V69.9933H60.9965V77.6123H62.3961ZM68.0731 77.6123V70.1512H66.5998V77.6123H68.0731ZM71.0697 74.6342C71.0697 74.0343 71.4275 73.5608 72.0379 73.5608C72.7114 73.5608 72.9955 74.0133 72.9955 74.5921V77.6123H74.3952V74.35C74.3952 73.2135 73.8058 72.2979 72.522 72.2979C71.9642 72.2979 71.3433 72.54 71.0276 73.0767V72.4347H69.6701V77.6123H71.0697V74.6342ZM78.215 71.1509C78.4465 71.1509 78.5833 71.1825 78.657 71.2035V70.0249C78.5412 69.9723 78.2571 69.9196 77.9625 69.9196C76.8154 69.9196 76.0787 70.6773 76.0787 71.8454V72.4347H75.2158V73.6344H76.0787V77.6123H77.4889V73.6344H78.657V72.4347H77.4889V71.8665C77.4889 71.2877 77.8993 71.1509 78.215 71.1509ZM81.7794 76.4968C81.0953 76.4968 80.4639 75.9917 80.4639 75.0235C80.4639 74.0448 81.0953 73.5502 81.7794 73.5502C82.4634 73.5502 83.0948 74.0448 83.0948 75.0235C83.0948 76.0022 82.4634 76.4968 81.7794 76.4968ZM81.7794 72.2769C80.2324 72.2769 79.0643 73.424 79.0643 75.0235C79.0643 76.6126 80.2324 77.7702 81.7794 77.7702C83.3263 77.7702 84.4944 76.6126 84.4944 75.0235C84.4944 73.424 83.3263 72.2769 81.7794 72.2769ZM88.7563 72.4137C88.651 72.4032 88.5458 72.3927 88.43 72.3927C87.988 72.3927 87.2724 72.5189 86.9567 73.203V72.4347H85.5992V77.6123H86.9988V75.2445C86.9988 74.129 87.6197 73.7818 88.3353 73.7818C88.4616 73.7818 88.5984 73.7923 88.7563 73.8238V72.4137ZM91.1404 77.6123V74.5815C91.1404 74.0133 91.4982 73.5608 92.1086 73.5608C92.74 73.5608 93.0241 73.9817 93.0241 74.5394V77.6123H94.4132V74.5815C94.4132 74.0238 94.771 73.5608 95.3708 73.5608C96.0128 73.5608 96.2864 73.9817 96.2864 74.5394V77.6123H97.6439V74.2553C97.6439 72.8662 96.7284 72.2874 95.7707 72.2874C95.0867 72.2874 94.5395 72.5189 94.1291 73.1503C93.866 72.5926 93.2977 72.2874 92.5926 72.2874C92.0244 72.2874 91.3614 72.561 91.0773 73.0662V72.4347H89.7408V77.6123H91.1404ZM98.7462 76.2022C98.7462 77.0125 99.4197 77.7596 100.525 77.7596C101.293 77.7596 101.787 77.4018 102.051 76.9914C102.051 77.1914 102.072 77.4755 102.103 77.6123H103.387C103.355 77.4334 103.324 77.0651 103.324 76.7915V74.2448C103.324 73.203 102.714 72.2769 101.072 72.2769C99.6828 72.2769 98.9356 73.1714 98.8514 73.9817L100.093 74.2448C100.135 73.7923 100.472 73.4029 101.082 73.4029C101.672 73.4029 101.956 73.7081 101.956 74.0764C101.956 74.2553 101.861 74.4026 101.566 74.4447L100.293 74.6342C99.4302 74.7604 98.7462 75.2761 98.7462 76.2022ZM100.819 76.7178C100.367 76.7178 100.146 76.4232 100.146 76.118C100.146 75.7181 100.43 75.5181 100.788 75.4655L101.956 75.2866V75.5181C101.956 76.4337 101.409 76.7178 100.819 76.7178ZM106.43 70.8878H105.167V71.6139C105.167 72.0769 104.914 72.4347 104.367 72.4347H104.104V73.6765H105.041V76.0864C105.041 77.0861 105.672 77.686 106.682 77.686C107.093 77.686 107.345 77.6123 107.472 77.5597V76.4021C107.398 76.4232 107.208 76.4442 107.04 76.4442C106.64 76.4442 106.43 76.2969 106.43 75.8444V73.6765H107.472V72.4347H106.43V70.8878ZM110.06 77.6123V72.4347H108.66V77.6123H110.06ZM108.492 70.7405C108.492 71.2035 108.881 71.5929 109.355 71.5929C109.839 71.5929 110.218 71.2035 110.218 70.7405C110.218 70.2564 109.839 69.867 109.355 69.867C108.881 69.867 108.492 70.2564 108.492 70.7405ZM113.884 76.4968C113.2 76.4968 112.569 75.9917 112.569 75.0235C112.569 74.0448 113.2 73.5502 113.884 73.5502C114.568 73.5502 115.2 74.0448 115.2 75.0235C115.2 76.0022 114.568 76.4968 113.884 76.4968ZM113.884 72.2769C112.337 72.2769 111.169 73.424 111.169 75.0235C111.169 76.6126 112.337 77.7702 113.884 77.7702C115.431 77.7702 116.599 76.6126 116.599 75.0235C116.599 73.424 115.431 72.2769 113.884 72.2769ZM119.104 74.6342C119.104 74.0343 119.461 73.5608 120.072 73.5608C120.745 73.5608 121.029 74.0133 121.029 74.5921V77.6123H122.429V74.35C122.429 73.2135 121.84 72.2979 120.556 72.2979C119.998 72.2979 119.377 72.54 119.062 73.0767V72.4347H117.704V77.6123H119.104V74.6342Z" fill="#09224C"/>
<path d="M82.7102 99.2847H19.4365V109.031H82.7102V99.2847Z" fill="#DBDBDB"/>
<path d="M154.557 98.9707H91.2831V108.717H154.557V98.9707Z" fill="#DBDBDB"/>
<path d="M154.104 99.2031H91.735V108.485H154.104V99.2031Z" stroke="white" stroke-width="0.654558"/>
<path d="M82.7102 127.347H19.4365V137.093H82.7102V127.347Z" fill="#DBDBDB"/>
<path d="M82.7102 190.784H19.4365V200.53H82.7102V190.784Z" fill="#DBDBDB"/>
<path d="M172.64 159.594H19.4365V169.34H172.64V159.594Z" fill="#DBDBDB"/>
<path d="M172.64 174.377H19.4365V184.123H172.64V174.377Z" fill="#DBDBDB"/>
<path d="M154.557 127.033H91.2831V136.779H154.557V127.033Z" fill="#DBDBDB"/>
<path d="M153.776 190.47H90.5026V200.216H153.776V190.47Z" fill="#DBDBDB"/>
<path d="M124.291 214.793H90.9039V224.539H124.291V214.793Z" fill="#DBDBDB"/>
<path d="M65.3003 215.526H32.91V225.273H65.3003V215.526Z" fill="#DBDBDB"/>
<path d="M25.944 94.5361V88.6524H25.1307V93.1669L22.193 88.6524H21.1059V94.5361H21.9191V89.7395L25.0975 94.5361H25.944ZM27.0627 93.4656C27.0627 94.0963 27.5855 94.6606 28.3988 94.6606C29.1125 94.6606 29.5108 94.2789 29.6851 93.9967C29.6851 94.2872 29.71 94.4365 29.7266 94.5361H30.49C30.4734 94.4365 30.4403 94.2291 30.4403 93.8805V91.8806C30.4403 91.1005 29.9755 90.42 28.7805 90.42C27.9175 90.42 27.2287 90.9511 27.1457 91.7146L27.8926 91.8889C27.9424 91.4242 28.2494 91.0839 28.7971 91.0839C29.4029 91.0839 29.6602 91.4076 29.6602 91.7976C29.6602 91.9387 29.5938 92.0631 29.3531 92.0963L28.2743 92.254C27.5855 92.3536 27.0627 92.7519 27.0627 93.4656ZM28.5067 94.005C28.1083 94.005 27.8594 93.7229 27.8594 93.4241C27.8594 93.0673 28.1083 92.8764 28.4403 92.8266L29.6602 92.6441V92.8266C29.6602 93.698 29.1457 94.005 28.5067 94.005ZM32.4273 94.5361V92.1295C32.4273 91.532 32.8007 91.1171 33.3567 91.1171C33.9542 91.1171 34.2032 91.5154 34.2032 92.03V94.5361H34.9832V92.1212C34.9832 91.5486 35.3567 91.1171 35.9044 91.1171C36.4936 91.1171 36.7508 91.5071 36.7508 92.03V94.5361H37.5226V91.947C37.5226 90.9013 36.8421 90.4283 36.145 90.4283C35.6388 90.4283 35.1243 90.6109 34.809 91.1835C34.5932 90.669 34.1119 90.4283 33.614 90.4283C33.1492 90.4283 32.6513 90.6358 32.4024 91.0756V90.5445H31.6555V94.5361H32.4273ZM39.2771 92.1295C39.3103 91.615 39.7086 91.1088 40.3642 91.1088C41.0696 91.1088 41.443 91.5569 41.4596 92.1295H39.2771ZM41.5758 93.1669C41.4264 93.615 41.1028 93.9718 40.4555 93.9718C39.7833 93.9718 39.2688 93.4739 39.2522 92.7602H42.2563C42.2646 92.7104 42.2729 92.6109 42.2729 92.5113C42.2729 91.2665 41.5841 90.42 40.3559 90.42C39.3518 90.42 38.4472 91.2748 38.4472 92.5279C38.4472 93.8805 39.385 94.6606 40.4555 94.6606C41.3849 94.6606 42.0239 94.1046 42.248 93.3992L41.5758 93.1669Z" fill="black"/>
<path d="M21.9188 121.642V119.625H23.0972C23.8026 119.625 24.2341 120.024 24.2341 120.646C24.2341 121.252 23.8026 121.642 23.0972 121.642H21.9188ZM23.2466 122.372C24.3337 122.372 25.064 121.634 25.064 120.638C25.064 119.65 24.3337 118.895 23.2466 118.895H21.1055V124.779H21.9188V122.372H23.2466ZM26.6732 122.43C26.6898 121.841 27.0051 121.376 27.6026 121.376C28.2997 121.376 28.5321 121.825 28.5321 122.381V124.779H29.3121V122.248C29.3121 121.36 28.8391 120.671 27.8848 120.671C27.4283 120.671 26.9636 120.829 26.6732 121.252V118.771H25.8931V124.779H26.6732V122.43ZM32.2625 124.206C31.5986 124.206 31.0177 123.708 31.0177 122.779C31.0177 121.858 31.5986 121.36 32.2625 121.36C32.9264 121.36 33.5073 121.858 33.5073 122.779C33.5073 123.708 32.9264 124.206 32.2625 124.206ZM32.2625 120.663C31.0675 120.663 30.221 121.567 30.221 122.779C30.221 123.999 31.0675 124.903 32.2625 124.903C33.4575 124.903 34.3039 123.999 34.3039 122.779C34.3039 121.567 33.4575 120.663 32.2625 120.663ZM36.082 122.472C36.082 121.866 36.3974 121.376 37.0115 121.376C37.7086 121.376 37.9409 121.825 37.9409 122.381V124.779H38.721V122.248C38.721 121.36 38.248 120.671 37.2936 120.671C36.8289 120.671 36.3559 120.862 36.0654 121.36V120.787H35.302V124.779H36.082V122.472ZM40.468 122.372C40.5012 121.858 40.8996 121.351 41.5552 121.351C42.2605 121.351 42.634 121.8 42.6506 122.372H40.468ZM42.7668 123.41C42.6174 123.858 42.2937 124.215 41.6464 124.215C40.9743 124.215 40.4597 123.717 40.4431 123.003H43.4472C43.4555 122.953 43.4638 122.854 43.4638 122.754C43.4638 121.509 42.7751 120.663 41.5469 120.663C40.5427 120.663 39.6382 121.517 39.6382 122.771C39.6382 124.123 40.5759 124.903 41.6464 124.903C42.5759 124.903 43.2149 124.347 43.4389 123.642L42.7668 123.41Z" fill="black"/>
<path d="M25.1801 156.581H26.0598L23.7196 150.697H22.7818L20.4416 156.581H21.313L21.9354 154.938H24.5411L25.1801 156.581ZM23.23 151.544L24.2507 154.183H22.2258L23.23 151.544ZM27.1925 154.573C27.1925 153.751 27.6573 153.17 28.3709 153.17C29.0846 153.17 29.5162 153.735 29.5162 154.556C29.5162 155.378 29.0763 156 28.3626 156C27.6158 156 27.1925 155.394 27.1925 154.573ZM29.5245 156.042C29.5245 156.282 29.5493 156.49 29.5659 156.581H30.3211C30.3128 156.515 30.2796 156.224 30.2796 155.842V150.573H29.5079V153.154C29.3751 152.83 28.9933 152.482 28.288 152.482C27.1593 152.482 26.3959 153.444 26.3959 154.573C26.3959 155.759 27.1179 156.689 28.288 156.689C28.9104 156.689 29.3336 156.357 29.5245 155.975V156.042ZM33.8222 152.548C33.7807 152.54 33.6728 152.523 33.565 152.523C33.1583 152.523 32.6604 152.672 32.37 153.287V152.589H31.6065V156.581H32.3866V154.581C32.3866 153.701 32.8264 153.353 33.482 153.353C33.5899 153.353 33.706 153.361 33.8222 153.378V152.548ZM35.1193 154.174C35.1525 153.66 35.5509 153.154 36.2064 153.154C36.9118 153.154 37.2853 153.602 37.3019 154.174H35.1193ZM37.418 155.212C37.2687 155.66 36.945 156.017 36.2977 156.017C35.6255 156.017 35.111 155.519 35.0944 154.805H38.0985C38.1068 154.755 38.1151 154.656 38.1151 154.556C38.1151 153.311 37.4263 152.465 36.1981 152.465C35.194 152.465 34.2895 153.32 34.2895 154.573C34.2895 155.925 35.2272 156.706 36.2977 156.706C37.2272 156.706 37.8662 156.15 38.0902 155.444L37.418 155.212ZM38.7375 155.544C38.8038 156 39.2686 156.706 40.364 156.706C41.3515 156.706 41.8245 156.033 41.8245 155.469C41.8245 154.88 41.4428 154.44 40.7208 154.282L40.0735 154.141C39.7665 154.075 39.6171 153.901 39.6171 153.66C39.6171 153.386 39.8827 153.129 40.281 153.129C40.9117 153.129 41.0777 153.585 41.1109 153.793L41.7996 153.535C41.7167 153.179 41.3764 152.465 40.281 152.465C39.5009 152.465 38.8619 153.046 38.8619 153.726C38.8619 154.291 39.2354 154.714 39.8578 154.847L40.5383 154.996C40.8702 155.071 41.0528 155.262 41.0528 155.511C41.0528 155.793 40.8121 156.042 40.3723 156.042C39.808 156.042 39.4926 155.71 39.4428 155.295L38.7375 155.544ZM42.4897 155.544C42.556 156 43.0208 156.706 44.1162 156.706C45.1037 156.706 45.5767 156.033 45.5767 155.469C45.5767 154.88 45.195 154.44 44.473 154.282L43.8257 154.141C43.5187 154.075 43.3693 153.901 43.3693 153.66C43.3693 153.386 43.6349 153.129 44.0332 153.129C44.6639 153.129 44.8299 153.585 44.8631 153.793L45.5518 153.535C45.4689 153.179 45.1286 152.465 44.0332 152.465C43.2531 152.465 42.6141 153.046 42.6141 153.726C42.6141 154.291 42.9876 154.714 43.61 154.847L44.2905 154.996C44.6224 155.071 44.805 155.262 44.805 155.511C44.805 155.793 44.5643 156.042 44.1245 156.042C43.5602 156.042 43.2448 155.71 43.195 155.295L42.4897 155.544Z" fill="black"/>
<path d="M26.2009 210.39V207.51H23.3876V208.24H25.4291C25.3959 208.846 24.9229 209.776 23.6117 209.776C22.5578 209.776 21.5619 209.004 21.5619 207.444C21.5619 205.884 22.591 205.128 23.6449 205.128C24.5577 205.128 25.2465 205.626 25.5121 206.473L26.2507 206.157C25.9104 205.095 24.9229 204.381 23.6449 204.381C22.1926 204.381 20.7321 205.452 20.7321 207.444C20.7321 209.435 22.1096 210.514 23.5868 210.514C24.5743 210.514 25.2133 210.025 25.4706 209.56L25.5453 210.39H26.2009ZM27.8743 207.983C27.9075 207.469 28.3058 206.962 28.9614 206.962C29.6668 206.962 30.0402 207.41 30.0568 207.983H27.8743ZM30.173 209.02C30.0236 209.469 29.7 209.825 29.0527 209.825C28.3805 209.825 27.866 209.327 27.8494 208.614H30.8535C30.8618 208.564 30.8701 208.464 30.8701 208.365C30.8701 207.12 30.1813 206.274 28.9531 206.274C27.9489 206.274 27.0444 207.128 27.0444 208.381C27.0444 209.734 27.9821 210.514 29.0527 210.514C29.9821 210.514 30.6211 209.958 30.8452 209.253L30.173 209.02ZM32.6459 208.083C32.6459 207.477 32.9612 206.987 33.5753 206.987C34.2724 206.987 34.5048 207.435 34.5048 207.991V210.39H35.2848V207.859C35.2848 206.971 34.8118 206.282 33.8575 206.282C33.3928 206.282 32.9197 206.473 32.6293 206.971V206.398H31.8658V210.39H32.6459V208.083ZM36.9904 208.381C36.9904 207.56 37.4551 206.979 38.1688 206.979C38.8825 206.979 39.314 207.543 39.314 208.365C39.314 209.186 38.8742 209.809 38.1605 209.809C37.4136 209.809 36.9904 209.203 36.9904 208.381ZM39.3223 209.85C39.3223 210.091 39.3472 210.298 39.3638 210.39H40.119C40.1107 210.323 40.0775 210.033 40.0775 209.651V204.381H39.3057V206.962C39.1729 206.639 38.7912 206.29 38.0858 206.29C36.9572 206.29 36.1937 207.253 36.1937 208.381C36.1937 209.568 36.9157 210.498 38.0858 210.498C38.7082 210.498 39.1314 210.166 39.3223 209.784V209.85ZM41.9106 207.983C41.9438 207.469 42.3421 206.962 42.9977 206.962C43.7031 206.962 44.0765 207.41 44.0931 207.983H41.9106ZM44.2093 209.02C44.0599 209.469 43.7363 209.825 43.089 209.825C42.4168 209.825 41.9023 209.327 41.8857 208.614H44.8898C44.8981 208.564 44.9064 208.464 44.9064 208.365C44.9064 207.12 44.2176 206.274 42.9894 206.274C41.9853 206.274 41.0807 207.128 41.0807 208.381C41.0807 209.734 42.0185 210.514 43.089 210.514C44.0184 210.514 44.6574 209.958 44.8815 209.253L44.2093 209.02ZM48.1179 206.357C48.0764 206.348 47.9685 206.332 47.8606 206.332C47.454 206.332 46.9561 206.481 46.6656 207.095V206.398H45.9021V210.39H46.6822V208.39C46.6822 207.51 47.122 207.161 47.7776 207.161C47.8855 207.161 48.0017 207.17 48.1179 207.186V206.357Z" fill="black"/>
<path d="M96.1269 124.191V123.436H93.3635V121.635H95.8697V120.871H93.3635V119.062H96.1269V118.307H92.5502V124.191H96.1269ZM97.9394 124.191V121.784C97.9394 121.187 98.3128 120.772 98.8688 120.772C99.4663 120.772 99.7153 121.17 99.7153 121.685V124.191H100.495V121.776C100.495 121.203 100.869 120.772 101.416 120.772C102.006 120.772 102.263 121.162 102.263 121.685V124.191H103.035V121.602C103.035 120.556 102.354 120.083 101.657 120.083C101.151 120.083 100.636 120.266 100.321 120.838C100.105 120.324 99.624 120.083 99.1261 120.083C98.6614 120.083 98.1634 120.291 97.9145 120.73V120.199H97.1676V124.191H97.9394ZM104.034 123.12C104.034 123.751 104.557 124.315 105.37 124.315C106.084 124.315 106.482 123.934 106.656 123.652C106.656 123.942 106.681 124.091 106.698 124.191H107.461C107.445 124.091 107.412 123.884 107.412 123.535V121.535C107.412 120.755 106.947 120.075 105.752 120.075C104.889 120.075 104.2 120.606 104.117 121.369L104.864 121.544C104.914 121.079 105.221 120.739 105.768 120.739C106.374 120.739 106.632 121.062 106.632 121.452C106.632 121.593 106.565 121.718 106.324 121.751L105.246 121.909C104.557 122.008 104.034 122.407 104.034 123.12ZM105.478 123.66C105.08 123.66 104.831 123.378 104.831 123.079C104.831 122.722 105.08 122.531 105.412 122.481L106.632 122.299V122.481C106.632 123.353 106.117 123.66 105.478 123.66ZM109.399 124.191V120.199H108.627V124.191H109.399ZM108.453 118.689C108.453 118.996 108.702 119.245 109.009 119.245C109.324 119.245 109.573 118.996 109.573 118.689C109.573 118.374 109.324 118.125 109.009 118.125C108.702 118.125 108.453 118.374 108.453 118.689ZM111.506 124.191V118.183H110.726V124.191H111.506Z" fill="black"/>
<path d="M13.0371 20.8599H186.696V55.5478H13.0371V20.8599Z" fill="#3D93B4"/>
<path d="M54.9584 42.3774H57.1148L53.2333 32.1849H50.9332L47.0229 42.3774H49.1218L49.97 40.0485H54.1103L54.9584 42.3774ZM52.0401 34.3844L53.449 38.2372H50.6313L52.0401 34.3844ZM60.1867 42.3774V31.9692H58.2747V42.3774H60.1867ZM66.8347 42.3774H68.6604C68.6317 42.1331 68.5885 41.6443 68.5885 41.098V35.3045H66.6765V39.416C66.6765 40.2354 66.1877 40.8105 65.3396 40.8105C64.4483 40.8105 64.0457 40.1779 64.0457 39.3872V35.3045H62.1337V39.7754C62.1337 41.3136 63.1113 42.5643 64.822 42.5643C65.5696 42.5643 66.389 42.2768 66.7772 41.6155C66.7772 41.903 66.8059 42.2337 66.8347 42.3774ZM72.541 42.3774V38.2372C72.541 37.4609 73.0298 36.8427 73.8636 36.8427C74.7262 36.8427 75.1143 37.4177 75.1143 38.1797V42.3774H77.0119V38.2372C77.0119 37.4752 77.5007 36.8427 78.3201 36.8427C79.1971 36.8427 79.5709 37.4177 79.5709 38.1797V42.3774H81.4254V37.7915C81.4254 35.8939 80.1746 35.1032 78.8664 35.1032C77.932 35.1032 77.1844 35.4195 76.6238 36.282C76.2644 35.5201 75.4881 35.1032 74.5249 35.1032C73.7486 35.1032 72.8429 35.477 72.4548 36.167V35.3045H70.629V42.3774H72.541ZM85.2744 38.309C85.2744 37.4896 85.7632 36.8427 86.597 36.8427C87.5171 36.8427 87.9052 37.4609 87.9052 38.2515V42.3774H89.8172V37.9209C89.8172 36.3683 89.0122 35.1176 87.2583 35.1176C86.4964 35.1176 85.6482 35.4482 85.2169 36.1814V35.3045H83.3624V42.3774H85.2744V38.309ZM93.6697 42.3774V35.3045H91.7577V42.3774H93.6697ZM91.5277 32.9899C91.5277 33.6225 92.0596 34.1544 92.7066 34.1544C93.3678 34.1544 93.8854 33.6225 93.8854 32.9899C93.8854 32.3286 93.3678 31.7967 92.7066 31.7967C92.0596 31.7967 91.5277 32.3286 91.5277 32.9899ZM106.27 34.6144C106.04 33.4643 105.091 31.9692 102.618 31.9692C100.692 31.9692 99.0673 33.3493 99.0673 35.1607C99.0673 36.6989 100.117 37.7484 101.741 38.079L103.164 38.3665C103.955 38.5247 104.401 38.9847 104.401 39.5741C104.401 40.2929 103.811 40.8248 102.748 40.8248C101.31 40.8248 100.606 39.9192 100.519 38.9128L98.6792 39.4016C98.8373 40.8536 100.031 42.5931 102.733 42.5931C105.105 42.5931 106.413 41.0117 106.413 39.4447C106.413 38.0072 105.422 36.7996 103.567 36.4402L102.144 36.167C101.396 36.0233 101.037 35.5776 101.037 35.017C101.037 34.3413 101.669 33.7231 102.633 33.7231C103.926 33.7231 104.386 34.6 104.487 35.1607L106.27 34.6144ZM112.391 42.3774H114.217C114.188 42.1331 114.145 41.6443 114.145 41.098V35.3045H112.233V39.416C112.233 40.2354 111.744 40.8105 110.896 40.8105C110.005 40.8105 109.602 40.1779 109.602 39.3872V35.3045H107.69V39.7754C107.69 41.3136 108.668 42.5643 110.379 42.5643C111.126 42.5643 111.946 42.2768 112.334 41.6155C112.334 41.903 112.363 42.2337 112.391 42.3774ZM120.498 35.2757C120.355 35.2613 120.211 35.247 120.053 35.247C119.449 35.247 118.471 35.4195 118.04 36.3539V35.3045H116.186V42.3774H118.098V39.1429C118.098 37.619 118.946 37.1446 119.923 37.1446C120.096 37.1446 120.283 37.159 120.498 37.2021V35.2757ZM128.724 35.3045H126.712L125.03 40.0485L123.276 35.3045H121.177L124.067 42.3774H125.979L128.724 35.3045ZM131.072 38.0359C131.115 37.389 131.661 36.6414 132.653 36.6414C133.746 36.6414 134.206 37.3315 134.234 38.0359H131.072ZM134.421 39.876C134.191 40.5086 133.702 40.9542 132.811 40.9542C131.862 40.9542 131.072 40.2786 131.028 39.3441H136.089C136.089 39.3154 136.118 39.0278 136.118 38.7547C136.118 36.4833 134.809 35.0888 132.624 35.0888C130.813 35.0888 129.145 36.5552 129.145 38.8122C129.145 41.1986 130.856 42.5931 132.797 42.5931C134.536 42.5931 135.658 41.5724 136.017 40.3504L134.421 39.876ZM139.969 45.1664L144.411 35.3045H142.37L140.63 39.4447L138.747 35.3045H136.605L139.609 41.4861L137.942 45.1664H139.969Z" fill="white"/>
</g>
</svg>
