<svg width="251" height="354" viewBox="0 0 251 354" fill="none" xmlns="http://www.w3.org/2000/svg">
<path d="M0.375 9.92432H250.1V353.402H0.375V9.92432Z" fill="#FEC14F"/>
<path d="M250.063 0.293945H0.375V11.5058H250.063V0.293945Z" fill="#EAEAEA"/>
<rect x="18.8733" y="3.64062" width="4.98033" height="4.91447" fill="white"/>
<rect x="28.834" y="3.64014" width="4.98033" height="4.91447" fill="white"/>
<rect x="38.7944" y="3.64014" width="4.98033" height="4.91447" fill="white"/>
<rect x="97.728" y="3.64014" width="133.639" height="4.91447" fill="white"/>
<path d="M228.863 26.1138H22.1576C19.1494 26.1138 16.7107 28.5202 16.7107 31.4887V333.488C16.7107 336.456 19.1494 338.863 22.1576 338.863H228.863C231.872 338.863 234.31 336.456 234.31 333.488V31.4887C234.31 28.5202 231.872 26.1138 228.863 26.1138Z" fill="white"/>
<path d="M40.2676 271.904C40.2676 273.811 38.6997 275.367 36.7522 275.367C34.8046 275.367 33.2367 273.811 33.2367 271.904C33.2367 269.998 34.8046 268.442 36.7522 268.442C38.6997 268.442 40.2676 269.998 40.2676 271.904Z" stroke="#398EAE" stroke-width="0.956388"/>
<path d="M113.219 271.904C113.219 273.811 111.651 275.367 109.703 275.367C107.756 275.367 106.188 273.811 106.188 271.904C106.188 269.998 107.756 268.442 109.703 268.442C111.651 268.442 113.219 269.998 113.219 271.904Z" stroke="#398EAE" stroke-width="0.956388"/>
<path d="M180.201 306.954H72.0555C70.0972 306.954 68.5098 308.52 68.5098 310.452V322.191C68.5098 324.123 70.0972 325.69 72.0555 325.69H180.201C182.16 325.69 183.747 324.123 183.747 322.191V310.452C183.747 308.52 182.16 306.954 180.201 306.954Z" fill="#F59D4C"/>
<path d="M120.461 313.997C120.293 313.154 119.597 312.057 117.783 312.057C116.37 312.057 115.179 313.07 115.179 314.398C115.179 315.526 115.949 316.296 117.14 316.539L118.184 316.749C118.764 316.865 119.091 317.203 119.091 317.635C119.091 318.162 118.658 318.552 117.878 318.552C116.824 318.552 116.307 317.888 116.244 317.15L114.894 317.509C115.01 318.574 115.885 319.849 117.868 319.849C119.607 319.849 120.567 318.689 120.567 317.54C120.567 316.486 119.839 315.6 118.479 315.337L117.435 315.136C116.887 315.031 116.623 314.704 116.623 314.293C116.623 313.797 117.087 313.344 117.794 313.344C118.743 313.344 119.08 313.987 119.154 314.398L120.461 313.997ZM124.569 319.86C126.172 319.86 127.447 318.879 127.447 317.045V312.216H125.992V316.939C125.992 317.92 125.455 318.436 124.569 318.436C123.704 318.436 123.156 317.92 123.156 316.939V312.216H121.701V317.045C121.701 318.879 122.977 319.86 124.569 319.86ZM129.085 312.216V319.691H131.974C133.377 319.691 134.284 318.816 134.284 317.603C134.284 316.676 133.693 316.011 132.966 315.832C133.588 315.621 134.052 314.999 134.052 314.229C134.052 313.07 133.229 312.216 131.774 312.216H129.085ZM130.519 315.305V313.439H131.542C132.249 313.439 132.618 313.797 132.618 314.366C132.618 314.936 132.217 315.305 131.553 315.305H130.519ZM130.519 318.479V316.507H131.721C132.449 316.507 132.829 316.918 132.829 317.509C132.829 318.11 132.407 318.479 131.7 318.479H130.519ZM143.861 319.691V312.216H141.879L139.686 317.614L137.44 312.216H135.521V319.691H136.913V314.493L139.064 319.691H140.276L142.427 314.451V319.691H143.861ZM147.047 319.691V312.216H145.571V319.691H147.047ZM154.256 313.597V312.216H148.067V313.597H150.429V319.691H151.894V313.597H154.256Z" fill="white"/>
<path d="M30.0374 91.0219V88.4095H31.4402C32.3281 88.4095 32.8686 88.9114 32.8686 89.7221C32.8686 90.5071 32.3281 91.0219 31.4402 91.0219H30.0374ZM31.6589 92.5533C33.4606 92.5533 34.6574 91.3693 34.6574 89.7093C34.6574 88.062 33.4606 86.8652 31.6589 86.8652H28.2487V95.9893H30.0246V92.5533H31.6589ZM36.7704 92.1029C36.809 91.5238 37.298 90.8546 38.186 90.8546C39.164 90.8546 39.5758 91.4723 39.6015 92.1029H36.7704ZM39.7688 93.7501C39.5629 94.3163 39.1254 94.7152 38.3275 94.7152C37.4782 94.7152 36.7704 94.1104 36.7318 93.2739H41.2616C41.2616 93.2482 41.2874 92.9908 41.2874 92.7463C41.2874 90.713 40.1163 89.4647 38.1602 89.4647C36.5387 89.4647 35.046 90.7774 35.046 92.7978C35.046 94.934 36.5773 96.1823 38.3146 96.1823C39.8718 96.1823 40.8755 95.2686 41.1973 94.1747L39.7688 93.7501ZM46.4958 89.632C46.3671 89.6192 46.2384 89.6063 46.0969 89.6063C45.5564 89.6063 44.6813 89.7607 44.2952 90.5972V89.6578H42.6352V95.9893H44.3467V93.0938C44.3467 91.7297 45.106 91.305 45.9811 91.305C46.1355 91.305 46.3028 91.3179 46.4958 91.3565V89.632ZM47.197 94.2262C47.2742 94.9469 47.9305 96.1823 49.8351 96.1823C51.4952 96.1823 52.293 95.127 52.293 94.0975C52.293 93.171 51.6625 92.4117 50.4142 92.1543L49.5134 91.9613C49.1659 91.897 48.9343 91.7039 48.9343 91.3951C48.9343 91.0347 49.2946 90.7645 49.745 90.7645C50.4657 90.7645 50.7359 91.2406 50.7874 91.6138L52.2158 91.2921C52.1386 90.6101 51.5338 89.4647 49.7321 89.4647C48.368 89.4647 47.3643 90.4042 47.3643 91.5366C47.3643 92.4246 47.9176 93.1581 49.1402 93.4284L49.9767 93.6214C50.4657 93.7243 50.6587 93.956 50.6587 94.2391C50.6587 94.5737 50.3885 94.8697 49.8222 94.8697C49.0758 94.8697 48.7026 94.4064 48.664 93.9045L47.197 94.2262ZM56.4881 94.6252C55.6516 94.6252 54.8795 94.0075 54.8795 92.8235C54.8795 91.6267 55.6516 91.0219 56.4881 91.0219C57.3246 91.0219 58.0967 91.6267 58.0967 92.8235C58.0967 94.0203 57.3246 94.6252 56.4881 94.6252ZM56.4881 89.4647C54.5964 89.4647 53.1679 90.8674 53.1679 92.8235C53.1679 94.7667 54.5964 96.1823 56.4881 96.1823C58.3798 96.1823 59.8083 94.7667 59.8083 92.8235C59.8083 90.8674 58.3798 89.4647 56.4881 89.4647ZM62.8709 92.3474C62.8709 91.6138 63.3084 91.0347 64.0548 91.0347C64.8784 91.0347 65.2259 91.5881 65.2259 92.2959V95.9893H66.9374V91.9999C66.9374 90.6101 66.2168 89.4905 64.6468 89.4905C63.9647 89.4905 63.2054 89.7865 62.8194 90.4428V89.6578H61.1593V95.9893H62.8709V92.3474ZM68.2884 94.2648C68.2884 95.2557 69.112 96.1694 70.4633 96.1694C71.4027 96.1694 72.0075 95.7319 72.3293 95.23C72.3293 95.4745 72.355 95.822 72.3936 95.9893H73.9636C73.925 95.7705 73.8864 95.3201 73.8864 94.9855V91.8712C73.8864 90.5972 73.14 89.4647 71.1325 89.4647C69.4338 89.4647 68.5201 90.5586 68.4171 91.5495L69.9357 91.8712C69.9871 91.3179 70.3989 90.8417 71.1453 90.8417C71.866 90.8417 72.2134 91.2149 72.2134 91.6653C72.2134 91.8841 72.0976 92.0643 71.7373 92.1157L70.1802 92.3474C69.1249 92.5018 68.2884 93.1324 68.2884 94.2648ZM70.8236 94.8954C70.2702 94.8954 70 94.5351 70 94.1619C70 93.6729 70.3475 93.4284 70.785 93.364L72.2134 93.1452V93.4284C72.2134 94.5479 71.5443 94.8954 70.8236 94.8954ZM77.3232 95.9893V86.6722H75.6116V95.9893H77.3232ZM84.2654 95.9893V86.8652H82.4638V95.9893H84.2654ZM87.9299 92.3474C87.9299 91.6138 88.3675 91.0347 89.1139 91.0347C89.9375 91.0347 90.285 91.5881 90.285 92.2959V95.9893H91.9965V91.9999C91.9965 90.6101 91.2759 89.4905 89.7059 89.4905C89.0238 89.4905 88.2645 89.7865 87.8785 90.4428V89.6578H86.2184V95.9893H87.9299V92.3474ZM96.6677 88.0878C96.9508 88.0878 97.1181 88.1264 97.2082 88.1521V86.7108C97.0666 86.6465 96.7192 86.5821 96.3589 86.5821C94.9561 86.5821 94.0553 87.5087 94.0553 88.9371V89.6578H93.0001V91.1248H94.0553V95.9893H95.7798V91.1248H97.2082V89.6578H95.7798V88.9629C95.7798 88.2551 96.2816 88.0878 96.6677 88.0878ZM101.026 94.6252C100.19 94.6252 99.4178 94.0075 99.4178 92.8235C99.4178 91.6267 100.19 91.0219 101.026 91.0219C101.863 91.0219 102.635 91.6267 102.635 92.8235C102.635 94.0203 101.863 94.6252 101.026 94.6252ZM101.026 89.4647C99.1347 89.4647 97.7063 90.8674 97.7063 92.8235C97.7063 94.7667 99.1347 96.1823 101.026 96.1823C102.918 96.1823 104.347 94.7667 104.347 92.8235C104.347 90.8674 102.918 89.4647 101.026 89.4647ZM109.558 89.632C109.43 89.6192 109.301 89.6063 109.159 89.6063C108.619 89.6063 107.744 89.7607 107.358 90.5972V89.6578H105.698V95.9893H107.409V93.0938C107.409 91.7297 108.168 91.305 109.044 91.305C109.198 91.305 109.365 91.3179 109.558 91.3565V89.632ZM112.474 95.9893V92.283C112.474 91.5881 112.911 91.0347 113.658 91.0347C114.43 91.0347 114.777 91.5495 114.777 92.2315V95.9893H116.476V92.283C116.476 91.601 116.914 91.0347 117.647 91.0347C118.432 91.0347 118.767 91.5495 118.767 92.2315V95.9893H120.427V91.8841C120.427 90.1854 119.307 89.4776 118.136 89.4776C117.3 89.4776 116.63 89.7607 116.129 90.5329C115.807 89.8508 115.112 89.4776 114.25 89.4776C113.555 89.4776 112.744 89.8122 112.397 90.4299V89.6578H110.762V95.9893H112.474ZM121.775 94.2648C121.775 95.2557 122.598 96.1694 123.95 96.1694C124.889 96.1694 125.494 95.7319 125.815 95.23C125.815 95.4745 125.841 95.822 125.88 95.9893H127.45C127.411 95.7705 127.373 95.3201 127.373 94.9855V91.8712C127.373 90.5972 126.626 89.4647 124.619 89.4647C122.92 89.4647 122.006 90.5586 121.903 91.5495L123.422 91.8712C123.473 91.3179 123.885 90.8417 124.632 90.8417C125.352 90.8417 125.7 91.2149 125.7 91.6653C125.7 91.8841 125.584 92.0643 125.224 92.1157L123.666 92.3474C122.611 92.5018 121.775 93.1324 121.775 94.2648ZM124.31 94.8954C123.756 94.8954 123.486 94.5351 123.486 94.1619C123.486 93.6729 123.834 93.4284 124.271 93.364L125.7 93.1452V93.4284C125.7 94.5479 125.03 94.8954 124.31 94.8954ZM131.171 87.7661H129.626V88.654C129.626 89.2202 129.318 89.6578 128.648 89.6578H128.327V91.1763H129.472V94.1233C129.472 95.3458 130.244 96.0793 131.479 96.0793C131.981 96.0793 132.29 95.9893 132.445 95.9249V94.5093C132.355 94.5351 132.123 94.5608 131.917 94.5608C131.428 94.5608 131.171 94.3806 131.171 93.8273V91.1763H132.445V89.6578H131.171V87.7661ZM135.61 95.9893V89.6578H133.899V95.9893H135.61ZM133.693 87.5859C133.693 88.1521 134.169 88.6283 134.748 88.6283C135.34 88.6283 135.803 88.1521 135.803 87.5859C135.803 86.9939 135.34 86.5178 134.748 86.5178C134.169 86.5178 133.693 86.9939 133.693 87.5859ZM140.287 94.6252C139.45 94.6252 138.678 94.0075 138.678 92.8235C138.678 91.6267 139.45 91.0219 140.287 91.0219C141.123 91.0219 141.895 91.6267 141.895 92.8235C141.895 94.0203 141.123 94.6252 140.287 94.6252ZM140.287 89.4647C138.395 89.4647 136.966 90.8674 136.966 92.8235C136.966 94.7667 138.395 96.1823 140.287 96.1823C142.178 96.1823 143.607 94.7667 143.607 92.8235C143.607 90.8674 142.178 89.4647 140.287 89.4647ZM146.669 92.3474C146.669 91.6138 147.107 91.0347 147.853 91.0347C148.677 91.0347 149.024 91.5881 149.024 92.2959V95.9893H150.736V91.9999C150.736 90.6101 150.015 89.4905 148.445 89.4905C147.763 89.4905 147.004 89.7865 146.618 90.4428V89.6578H144.958V95.9893H146.669V92.3474Z" fill="#398EAE"/>
<path d="M106.389 122.15H27.1057V134.201H106.389V122.15Z" fill="#DBDBDB"/>
<path d="M194.039 121.763H114.755V133.814H194.039V121.763Z" fill="#DBDBDB"/>
<path d="M104.013 156.849H24.7295V168.9H104.013V156.849Z" fill="#DBDBDB"/>
<path d="M104.013 235.287H24.7295V247.337H104.013V235.287Z" fill="#DBDBDB"/>
<path d="M216.698 196.721H24.7295V208.772H216.698V196.721Z" fill="#DBDBDB"/>
<path d="M216.698 215H24.7295V227.05H216.698V215Z" fill="#DBDBDB"/>
<path d="M194.039 156.461H114.755V168.512H194.039V156.461Z" fill="#DBDBDB"/>
<path d="M193.061 234.898H113.777V246.949H193.061V234.898Z" fill="#DBDBDB"/>
<path d="M156.115 264.972H114.281V277.023H156.115V264.972Z" fill="#DBDBDB"/>
<path d="M82.1983 265.878H41.6123V277.929H82.1983V265.878Z" fill="#DBDBDB"/>
<path d="M35.7917 119.388V110.133H34.5124V117.234L29.8914 110.133H28.1814V119.388H29.4607V111.843L34.4602 119.388H35.7917ZM37.5515 117.704C37.5515 118.696 38.3739 119.584 39.6531 119.584C40.7757 119.584 41.4023 118.984 41.6764 118.54C41.6764 118.997 41.7156 119.232 41.7417 119.388H42.9426C42.9165 119.232 42.8643 118.905 42.8643 118.357V115.211C42.8643 113.984 42.1333 112.914 40.2536 112.914C38.896 112.914 37.8125 113.749 37.682 114.95L38.8568 115.224C38.9352 114.493 39.4181 113.958 40.2797 113.958C41.2326 113.958 41.6373 114.467 41.6373 115.08C41.6373 115.302 41.5328 115.498 41.1543 115.55L39.4573 115.798C38.3739 115.955 37.5515 116.582 37.5515 117.704ZM39.8228 118.553C39.1962 118.553 38.8046 118.109 38.8046 117.639C38.8046 117.078 39.1962 116.777 39.7184 116.699L41.6373 116.412V116.699C41.6373 118.07 40.8279 118.553 39.8228 118.553ZM45.9898 119.388V115.603C45.9898 114.663 46.5772 114.01 47.4518 114.01C48.3917 114.01 48.7833 114.637 48.7833 115.446V119.388H50.0103V115.59C50.0103 114.689 50.5978 114.01 51.4593 114.01C52.3861 114.01 52.7908 114.624 52.7908 115.446V119.388H54.0048V115.315C54.0048 113.671 52.9344 112.927 51.8379 112.927C51.0416 112.927 50.2323 113.214 49.7362 114.115C49.3968 113.305 48.6397 112.927 47.8565 112.927C47.1255 112.927 46.3423 113.253 45.9507 113.945V113.109H44.7758V119.388H45.9898ZM56.7646 115.603C56.8168 114.793 57.4434 113.997 58.4746 113.997C59.5842 113.997 60.1716 114.702 60.1977 115.603H56.7646ZM60.3804 117.234C60.1455 117.939 59.6364 118.501 58.6182 118.501C57.5608 118.501 56.7515 117.717 56.7254 116.595H61.4508C61.4639 116.516 61.4769 116.36 61.4769 116.203C61.4769 114.245 60.3935 112.914 58.4615 112.914C56.8821 112.914 55.4592 114.258 55.4592 116.229C55.4592 118.357 56.9343 119.584 58.6182 119.584C60.0802 119.584 61.0853 118.709 61.4378 117.6L60.3804 117.234Z" fill="#398EAE"/>
<path d="M27.1833 149.153V145.981H29.0369C30.1465 145.981 30.8253 146.608 30.8253 147.587C30.8253 148.54 30.1465 149.153 29.0369 149.153H27.1833ZM29.2719 150.302C30.9819 150.302 32.1307 149.14 32.1307 147.574C32.1307 146.02 30.9819 144.832 29.2719 144.832H25.9041V154.087H27.1833V150.302H29.2719ZM34.6619 150.393C34.688 149.466 35.1841 148.735 36.1239 148.735C37.2204 148.735 37.5859 149.44 37.5859 150.315V154.087H38.813V150.106C38.813 148.709 38.0689 147.626 36.5678 147.626C35.8498 147.626 35.1188 147.874 34.6619 148.54V144.637H33.4349V154.087H34.6619V150.393ZM43.4539 153.187C42.4096 153.187 41.4958 152.403 41.4958 150.941C41.4958 149.493 42.4096 148.709 43.4539 148.709C44.4981 148.709 45.4119 149.493 45.4119 150.941C45.4119 152.403 44.4981 153.187 43.4539 153.187ZM43.4539 147.613C41.5741 147.613 40.2427 149.036 40.2427 150.941C40.2427 152.86 41.5741 154.283 43.4539 154.283C45.3336 154.283 46.6651 152.86 46.6651 150.941C46.6651 149.036 45.3336 147.613 43.4539 147.613ZM49.462 150.458C49.462 149.506 49.958 148.735 50.924 148.735C52.0205 148.735 52.386 149.44 52.386 150.315V154.087H53.613V150.106C53.613 148.709 52.869 147.626 51.3678 147.626C50.6368 147.626 49.8928 147.926 49.4359 148.709V147.809H48.235V154.087H49.462V150.458ZM56.3611 150.302C56.4134 149.493 57.0399 148.696 58.0712 148.696C59.1807 148.696 59.7681 149.401 59.7942 150.302H56.3611ZM59.977 151.934C59.742 152.638 59.2329 153.2 58.2148 153.2C57.1574 153.2 56.3481 152.417 56.322 151.294H61.0474C61.0604 151.216 61.0735 151.059 61.0735 150.902C61.0735 148.944 59.99 147.613 58.0581 147.613C56.4786 147.613 55.0558 148.957 55.0558 150.928C55.0558 153.056 56.5308 154.283 58.2148 154.283C59.6768 154.283 60.6819 153.409 61.0343 152.299L59.977 151.934Z" fill="#398EAE"/>
<path d="M32.3134 193.241H33.6971L30.016 183.986H28.5409L24.8598 193.241H26.2304L27.2094 190.656H31.3083L32.3134 193.241ZM29.2458 185.317L30.8514 189.468H27.6663L29.2458 185.317ZM35.4789 190.082C35.4789 188.789 36.2099 187.876 37.3325 187.876C38.4551 187.876 39.1339 188.763 39.1339 190.056C39.1339 191.348 38.4421 192.327 37.3195 192.327C36.1446 192.327 35.4789 191.374 35.4789 190.082ZM39.147 192.392C39.147 192.771 39.1861 193.097 39.2122 193.241H40.4001C40.3871 193.136 40.3349 192.679 40.3349 192.079V183.79H39.1209V187.85C38.912 187.34 38.3115 186.792 37.202 186.792C35.4267 186.792 34.2258 188.306 34.2258 190.082C34.2258 191.948 35.3614 193.41 37.202 193.41C38.181 193.41 38.8467 192.888 39.147 192.288V192.392ZM45.9073 186.897C45.8421 186.884 45.6724 186.857 45.5027 186.857C44.863 186.857 44.0798 187.092 43.6229 188.058V186.962H42.422V193.241H43.6491V190.095C43.6491 188.711 44.3409 188.163 45.3721 188.163C45.5418 188.163 45.7246 188.176 45.9073 188.202V186.897ZM47.9477 189.455C47.9999 188.646 48.6265 187.85 49.6577 187.85C50.7673 187.85 51.3547 188.554 51.3808 189.455H47.9477ZM51.5635 191.087C51.3286 191.792 50.8195 192.353 49.8013 192.353C48.7439 192.353 47.9346 191.57 47.9085 190.447H52.6339C52.647 190.369 52.66 190.212 52.66 190.056C52.66 188.098 51.5766 186.766 49.6446 186.766C48.0652 186.766 46.6423 188.111 46.6423 190.082C46.6423 192.209 48.1174 193.437 49.8013 193.437C51.2633 193.437 52.2684 192.562 52.6209 191.452L51.5635 191.087ZM53.639 191.609C53.7434 192.327 54.4744 193.437 56.1975 193.437C57.7508 193.437 58.4949 192.379 58.4949 191.492C58.4949 190.565 57.8944 189.873 56.7588 189.625L55.7406 189.403C55.2576 189.299 55.0226 189.024 55.0226 188.646C55.0226 188.215 55.4404 187.81 56.0669 187.81C57.059 187.81 57.3201 188.528 57.3723 188.855L58.4557 188.45C58.3252 187.889 57.79 186.766 56.0669 186.766C54.8399 186.766 53.8348 187.68 53.8348 188.75C53.8348 189.638 54.4222 190.304 55.4012 190.513L56.4716 190.747C56.9937 190.865 57.2809 191.165 57.2809 191.557C57.2809 192.001 56.9024 192.392 56.2105 192.392C55.3229 192.392 54.8268 191.87 54.7485 191.217L53.639 191.609ZM59.5411 191.609C59.6456 192.327 60.3766 193.437 62.0996 193.437C63.653 193.437 64.3971 192.379 64.3971 191.492C64.3971 190.565 63.7966 189.873 62.6609 189.625L61.6428 189.403C61.1598 189.299 60.9248 189.024 60.9248 188.646C60.9248 188.215 61.3425 187.81 61.9691 187.81C62.9612 187.81 63.2223 188.528 63.2745 188.855L64.3579 188.45C64.2274 187.889 63.6922 186.766 61.9691 186.766C60.7421 186.766 59.7369 187.68 59.7369 188.75C59.7369 189.638 60.3243 190.304 61.3034 190.513L62.3738 190.747C62.8959 190.865 63.1831 191.165 63.1831 191.557C63.1831 192.001 62.8045 192.392 62.1127 192.392C61.225 192.392 60.729 191.87 60.6507 191.217L59.5411 191.609Z" fill="#398EAE"/>
<path d="M33.919 262.636V258.107H29.4938V259.255H32.705C32.6528 260.208 31.9087 261.67 29.8463 261.67C28.1885 261.67 26.622 260.456 26.622 258.002C26.622 255.548 28.2407 254.36 29.8985 254.36C31.3344 254.36 32.4178 255.143 32.8356 256.475L33.9973 255.979C33.4621 254.308 31.9087 253.185 29.8985 253.185C27.6141 253.185 25.3167 254.869 25.3167 258.002C25.3167 261.135 27.4836 262.832 29.8071 262.832C31.3605 262.832 32.3656 262.062 32.7703 261.331L32.8878 262.636H33.919ZM36.5512 258.851C36.6035 258.041 37.23 257.245 38.2613 257.245C39.3708 257.245 39.9582 257.95 39.9843 258.851H36.5512ZM40.1671 260.482C39.9321 261.187 39.423 261.749 38.4049 261.749C37.3475 261.749 36.5382 260.965 36.5121 259.843H41.2375C41.2506 259.764 41.2636 259.608 41.2636 259.451C41.2636 257.493 40.1802 256.162 38.2482 256.162C36.6687 256.162 35.2459 257.506 35.2459 259.477C35.2459 261.605 36.7209 262.832 38.4049 262.832C39.8669 262.832 40.872 261.957 41.2244 260.848L40.1671 260.482ZM44.057 259.007C44.057 258.054 44.553 257.284 45.519 257.284C46.6155 257.284 46.981 257.989 46.981 258.864V262.636H48.208V258.655C48.208 257.258 47.464 256.175 45.9628 256.175C45.2318 256.175 44.4877 256.475 44.0309 257.258V256.357H42.8299V262.636H44.057V259.007ZM50.8909 259.477C50.8909 258.185 51.6219 257.271 52.7445 257.271C53.8671 257.271 54.5459 258.159 54.5459 259.451C54.5459 260.743 53.854 261.722 52.7314 261.722C51.5566 261.722 50.8909 260.77 50.8909 259.477ZM54.5589 261.788C54.5589 262.166 54.5981 262.493 54.6242 262.636H55.8121C55.799 262.532 55.7468 262.075 55.7468 261.474V253.185H54.5328V257.245C54.324 256.736 53.7235 256.188 52.6139 256.188C50.8386 256.188 49.6377 257.702 49.6377 259.477C49.6377 261.344 50.7734 262.806 52.6139 262.806C53.593 262.806 54.2587 262.284 54.5589 261.683V261.788ZM58.6302 258.851C58.6824 258.041 59.309 257.245 60.3403 257.245C61.4498 257.245 62.0372 257.95 62.0633 258.851H58.6302ZM62.2461 260.482C62.0111 261.187 61.502 261.749 60.4838 261.749C59.4265 261.749 58.6172 260.965 58.5911 259.843H63.3165C63.3295 259.764 63.3426 259.608 63.3426 259.451C63.3426 257.493 62.2591 256.162 60.3272 256.162C58.7477 256.162 57.3249 257.506 57.3249 259.477C57.3249 261.605 58.7999 262.832 60.4838 262.832C61.9459 262.832 62.951 261.957 63.3034 260.848L62.2461 260.482ZM68.3942 256.292C68.329 256.279 68.1593 256.253 67.9896 256.253C67.35 256.253 66.5667 256.488 66.1099 257.454V256.357H64.9089V262.636H66.136V259.49C66.136 258.107 66.8278 257.558 67.859 257.558C68.0287 257.558 68.2115 257.571 68.3942 257.598V256.292Z" fill="#398EAE"/>
<path d="M122.794 153.267V152.079H118.447V149.246H122.389V148.045H118.447V145.199H122.794V144.012H117.168V153.267H122.794ZM125.645 153.267V149.481C125.645 148.541 126.233 147.889 127.107 147.889C128.047 147.889 128.439 148.515 128.439 149.324V153.267H129.666V149.468C129.666 148.567 130.253 147.889 131.115 147.889C132.041 147.889 132.446 148.502 132.446 149.324V153.267H133.66V149.194C133.66 147.549 132.59 146.805 131.493 146.805C130.697 146.805 129.888 147.092 129.391 147.993C129.052 147.184 128.295 146.805 127.512 146.805C126.781 146.805 125.998 147.131 125.606 147.823V146.988H124.431V153.267H125.645ZM135.232 151.583C135.232 152.575 136.054 153.462 137.334 153.462C138.456 153.462 139.083 152.862 139.357 152.418C139.357 152.875 139.396 153.11 139.422 153.267H140.623C140.597 153.11 140.545 152.784 140.545 152.235V149.089C140.545 147.862 139.814 146.792 137.934 146.792C136.576 146.792 135.493 147.627 135.363 148.828L136.537 149.102C136.616 148.371 137.099 147.836 137.96 147.836C138.913 147.836 139.318 148.345 139.318 148.959C139.318 149.181 139.213 149.377 138.835 149.429L137.138 149.677C136.054 149.833 135.232 150.46 135.232 151.583ZM137.503 152.431C136.877 152.431 136.485 151.987 136.485 151.517C136.485 150.956 136.877 150.656 137.399 150.578L139.318 150.29V150.578C139.318 151.948 138.508 152.431 137.503 152.431ZM143.67 153.267V146.988H142.456V153.267H143.67ZM142.182 144.612C142.182 145.095 142.574 145.487 143.057 145.487C143.553 145.487 143.944 145.095 143.944 144.612C143.944 144.116 143.553 143.724 143.057 143.724C142.574 143.724 142.182 144.116 142.182 144.612ZM146.985 153.267V143.816H145.758V153.267H146.985Z" fill="#398EAE"/>
<path d="M16.7107 25.1816H234.31V68.0719H16.7107V25.1816Z" fill="#3D93B4"/>
<path d="M68.9956 51.4771H71.6326L66.8861 39.0129H64.0733L59.2915 51.4771H61.8582L62.8954 48.6291H67.9584L68.9956 51.4771ZM65.4269 41.7026L67.1498 46.414H63.7041L65.4269 41.7026ZM75.3891 51.4771V38.7492H73.051V51.4771H75.3891ZM83.5187 51.4771H85.7514C85.7162 51.1782 85.6635 50.5805 85.6635 49.9124V42.8277H83.3253V47.8556C83.3253 48.8576 82.7276 49.5608 81.6904 49.5608C80.6005 49.5608 80.1082 48.7873 80.1082 47.8204V42.8277H77.7701V48.2951C77.7701 50.1761 78.9655 51.7056 81.0575 51.7056C81.9717 51.7056 82.9737 51.354 83.4484 50.5453C83.4484 50.8969 83.4836 51.3013 83.5187 51.4771ZM90.4969 51.4771V46.414C90.4969 45.4647 91.0946 44.7088 92.1142 44.7088C93.169 44.7088 93.6437 45.412 93.6437 46.3437V51.4771H95.9642V46.414C95.9642 45.4823 96.5619 44.7088 97.564 44.7088C98.6364 44.7088 99.0934 45.412 99.0934 46.3437V51.4771H101.361V45.8691C101.361 43.5485 99.8318 42.5816 98.232 42.5816C97.0893 42.5816 96.1752 42.9684 95.4896 44.0232C95.0501 43.0914 94.1007 42.5816 92.9229 42.5816C91.9736 42.5816 90.866 43.0387 90.3914 43.8825V42.8277H88.1587V51.4771H90.4969ZM106.068 46.5019C106.068 45.4999 106.666 44.7088 107.686 44.7088C108.811 44.7088 109.285 45.4647 109.285 46.4316V51.4771H111.623V46.0273C111.623 44.1286 110.639 42.5992 108.494 42.5992C107.562 42.5992 106.525 43.0035 105.998 43.9001V42.8277H103.73V51.4771H106.068V46.5019ZM116.335 51.4771V42.8277H113.996V51.4771H116.335ZM113.715 39.9974C113.715 40.7709 114.366 41.4213 115.157 41.4213C115.965 41.4213 116.598 40.7709 116.598 39.9974C116.598 39.1887 115.965 38.5382 115.157 38.5382C114.366 38.5382 113.715 39.1887 113.715 39.9974ZM131.743 41.9839C131.461 40.5775 130.301 38.7492 127.277 38.7492C124.922 38.7492 122.935 40.4369 122.935 42.6519C122.935 44.533 124.218 45.8163 126.205 46.2207L127.945 46.5722C128.912 46.7656 129.457 47.3282 129.457 48.049C129.457 48.928 128.737 49.5784 127.436 49.5784C125.678 49.5784 124.816 48.4709 124.711 47.2403L122.46 47.838C122.654 49.6136 124.113 51.7407 127.418 51.7407C130.319 51.7407 131.918 49.807 131.918 47.8907C131.918 46.1328 130.705 44.656 128.438 44.2165L126.697 43.8825C125.783 43.7067 125.344 43.1617 125.344 42.4761C125.344 41.6499 126.117 40.8939 127.295 40.8939C128.877 40.8939 129.44 41.9663 129.563 42.6519L131.743 41.9839ZM139.229 51.4771H141.461C141.426 51.1782 141.373 50.5805 141.373 49.9124V42.8277H139.035V47.8556C139.035 48.8576 138.437 49.5608 137.4 49.5608C136.31 49.5608 135.818 48.7873 135.818 47.8204V42.8277H133.48V48.2951C133.48 50.1761 134.675 51.7056 136.767 51.7056C137.682 51.7056 138.684 51.354 139.158 50.5453C139.158 50.8969 139.193 51.3013 139.229 51.4771ZM149.143 42.7926C148.967 42.775 148.791 42.7574 148.598 42.7574C147.859 42.7574 146.664 42.9684 146.136 44.1111V42.8277H143.869V51.4771H146.207V47.5216C146.207 45.6581 147.244 45.078 148.439 45.078C148.65 45.078 148.879 45.0955 149.143 45.1483V42.7926ZM159.202 42.8277H156.741L154.684 48.6291L152.539 42.8277H149.972L153.506 51.4771H155.844L159.202 42.8277ZM162.072 46.1679C162.125 45.3768 162.793 44.4627 164.006 44.4627C165.342 44.4627 165.905 45.3065 165.94 46.1679H162.072ZM166.168 48.4181C165.887 49.1917 165.289 49.7366 164.199 49.7366C163.039 49.7366 162.072 48.9104 162.019 47.7677H168.208C168.208 47.7325 168.243 47.3809 168.243 47.0469C168.243 44.2693 166.643 42.564 163.971 42.564C161.756 42.564 159.716 44.3572 159.716 47.1172C159.716 50.0355 161.808 51.7407 164.182 51.7407C166.309 51.7407 167.68 50.4926 168.12 48.9983L166.168 48.4181ZM172.952 54.8876L178.385 42.8277H175.888L173.761 47.8907L171.458 42.8277H168.839L172.513 50.3871L170.474 54.8876H172.952Z" fill="white"/>
</svg>
