<svg width="657" height="495" fill="none" xmlns="http://www.w3.org/2000/svg"><path d="M4.69 325.02c7.408 24.154 20.373 116.196 149.092 160.901 128.72 44.706 217.249-96.034 342.543-109.378 125.2-13.343 162.89-22.693 159.556-95.839-3.333-73.146-96.215-178.239-222.712-236.872C284.632-24.931 165.913-4.478 93.312 55.617-8.182 139.769-5.218 292.976 4.69 325.02Z" fill="#DAE6FF"/><path d="M237.421 50.316h276.578v375.222H237.421V50.316Z" fill="#D29420"/><path d="M493.951 59.09H255.919c-3.464 0-6.273 2.629-6.273 5.871v329.871c0 3.243 2.809 5.871 6.273 5.871h238.032c3.464 0 6.272-2.628 6.272-5.871V64.962c0-3.243-2.808-5.872-6.272-5.872Z" fill="#fff"/><path fill="#CBCBCB" d="M360.98 127.13h47.405v10H360.98z"/><path d="M336.298 371.061h77.118c1.56 0 2.754 1.174 2.754 2.711v13.555c0 1.536-1.194 2.71-2.754 2.71h-77.118c-1.561 0-2.754-1.174-2.754-2.71v-13.555c0-1.446 1.285-2.711 2.754-2.711Z" fill="#58B966"/><path d="M354.659 379.374c-.092-.632-.643-1.536-2.112-1.536-1.101 0-2.019.813-2.019 1.807 0 .904.642 1.446 1.56 1.627l.827.181c.459.09.734.361.734.722 0 .362-.367.723-.918.723-.826 0-1.193-.542-1.285-1.084l-1.102.271c.092.813.735 1.807 2.295 1.807 1.377 0 2.112-.903 2.112-1.807 0-.813-.551-1.536-1.653-1.717l-.826-.181c-.459-.09-.643-.361-.643-.632 0-.362.368-.723.918-.723.735 0 1.01.452 1.102.813l1.01-.271Zm3.489 4.338h1.01v-3.976h-1.102v2.349c0 .452-.276.813-.735.813-.55 0-.734-.361-.734-.813v-2.349h-1.102v2.53c0 .904.551 1.536 1.561 1.536.459 0 .918-.181 1.102-.542v.452Zm3.305 0v-.452c.183.361.642.542 1.193.542 1.194 0 1.928-.904 1.928-2.078 0-1.175-.642-2.079-1.836-2.079-.643 0-1.01.271-1.193.542v-2.349h-1.102v5.874h1.01Zm2.019-1.988c0 .723-.459 1.174-1.009 1.174-.551 0-1.01-.451-1.01-1.174 0-.723.459-1.175 1.01-1.175.55.09 1.009.452 1.009 1.175Zm3.03 1.988v-2.35c0-.452.276-.813.735-.813.459 0 .734.361.734.723v2.349h1.102v-2.349c0-.452.275-.813.734-.813.459 0 .735.361.735.722v2.35h1.101v-2.621c0-1.084-.734-1.536-1.469-1.536-.55 0-1.009.181-1.285.633-.184-.452-.643-.633-1.193-.633-.459 0-1.01.181-1.194.633v-.452h-1.01v3.976h1.01v.181Zm7.345 0v-3.976h-1.102v3.976h1.102Zm-1.286-5.242c0 .362.276.633.643.633a.623.623 0 0 0 .643-.633.623.623 0 0 0-.643-.632c-.275-.09-.643.181-.643.632Zm3.764.091h-1.009v.542c0 .361-.184.633-.643.633h-.184v.994h.735v1.897c0 .814.459 1.265 1.285 1.265.367 0 .551-.09.643-.09v-.904h-.368c-.275 0-.459-.09-.459-.451v-1.717h.827v-.994h-.827v-1.175Zm5.05 5.151v-2.259h2.295v-.994h-2.295v-1.446h2.57v-.994h-3.672v5.783h1.102v-.09Zm4.957-.814c-.55 0-1.01-.361-1.01-1.174 0-.723.46-1.175 1.01-1.175.551 0 1.01.361 1.01 1.175 0 .813-.459 1.174-1.01 1.174Zm0-3.253c-1.193 0-2.111.904-2.111 2.079 0 1.265.918 2.078 2.111 2.078 1.194 0 2.112-.904 2.112-2.078 0-1.175-.918-2.079-2.112-2.079Zm5.509.091h-.276c-.367 0-.918.09-1.193.632v-.632h-1.102v3.976h1.102v-1.808c0-.903.459-1.174 1.01-1.174h.367v-.994h.092Zm1.836 3.976v-2.35c0-.452.275-.813.734-.813.459 0 .735.361.735.723v2.349h1.101v-2.349c0-.452.276-.813.735-.813.459 0 .734.361.734.722v2.35h1.102v-2.621c0-1.084-.734-1.536-1.469-1.536-.551 0-1.01.181-1.285.633-.184-.452-.643-.633-1.194-.633-.459 0-1.009.181-1.193.633v-.452h-1.01v3.976h1.01v.181Zm12.944-3.163 26.349 62.172 10.098-17.622 7.62 6.868c3.581 3.163 9.089 2.982 12.394-.542 3.214-3.524 3.03-8.946-.551-12.199l-7.619-6.868 16.892-11.477-65.183-20.332Z" fill="#fff"/><path d="m463.725 402.056-50.86-15.814 20.564 48.436 8.722-15.181 11.017 9.85c2.111 1.897 5.324 1.717 7.252-.362 1.928-2.078 1.745-5.241-.367-7.139l-11.017-9.85 14.689-9.94Z" fill="#303339"/><path d="M478.761 221.472H276.994v43.5h201.767v-43.5Z" fill="#F5F5F5"/><path d="M478.275 221.996H277.48v42.452h200.795v-42.452Z" stroke="#DBDBDB" stroke-width="1.152"/><path d="M297.225 315.605c2.946 0 5.335-2.38 5.335-5.317 0-2.936-2.389-5.316-5.335-5.316-2.947 0-5.335 2.38-5.335 5.316 0 2.937 2.388 5.317 5.335 5.317Z" fill="#fff"/><path d="M297.224 315.121c2.678 0 4.85-2.164 4.85-4.833s-2.172-4.833-4.85-4.833c-2.679 0-4.85 2.164-4.85 4.833s2.171 4.833 4.85 4.833Z" stroke="#09224C" stroke-width="1.152"/><path d="M297.225 331.071c2.946 0 5.335-2.38 5.335-5.316 0-2.937-2.389-5.317-5.335-5.317-2.947 0-5.335 2.38-5.335 5.317 0 2.936 2.388 5.316 5.335 5.316Z" fill="#fff"/><path d="M297.224 330.587c2.678 0 4.85-2.163 4.85-4.833 0-2.669-2.172-4.833-4.85-4.833-2.679 0-4.85 2.164-4.85 4.833 0 2.67 2.171 4.833 4.85 4.833Z" stroke="#09224C" stroke-width="1.152"/><path d="M297.225 362.605c2.946 0 5.335-2.38 5.335-5.317 0-2.936-2.389-5.316-5.335-5.316-2.947 0-5.335 2.38-5.335 5.316 0 2.937 2.388 5.317 5.335 5.317Z" fill="#fff"/><path d="M297.224 362.121c2.678 0 4.85-2.164 4.85-4.833s-2.172-4.833-4.85-4.833c-2.679 0-4.85 2.164-4.85 4.833s2.171 4.833 4.85 4.833Z" stroke="#09224C" stroke-width="1.152"/><path d="M297.225 346.537c2.946 0 5.335-2.38 5.335-5.316s-2.389-5.317-5.335-5.317c-2.947 0-5.335 2.381-5.335 5.317 0 2.936 2.388 5.316 5.335 5.316Z" fill="#fff"/><path d="M297.224 346.054c2.678 0 4.85-2.164 4.85-4.833s-2.172-4.833-4.85-4.833c-2.679 0-4.85 2.164-4.85 4.833s2.171 4.833 4.85 4.833Z" stroke="#09224C" stroke-width="1.152"/><path d="M297.035 150.949c2.947 0 5.336-2.38 5.336-5.316 0-2.937-2.389-5.317-5.336-5.317-2.946 0-5.335 2.38-5.335 5.317 0 2.936 2.389 5.316 5.335 5.316Z" fill="#fff"/><path d="M297.034 150.466c2.679 0 4.85-2.164 4.85-4.833 0-2.67-2.171-4.833-4.85-4.833-2.678 0-4.85 2.163-4.85 4.833 0 2.669 2.172 4.833 4.85 4.833Z" stroke="#09224C" stroke-width="1.152"/><path d="M297.035 166.416c2.947 0 5.336-2.381 5.336-5.317 0-2.936-2.389-5.317-5.336-5.317-2.946 0-5.335 2.381-5.335 5.317 0 2.936 2.389 5.317 5.335 5.317Z" fill="#fff"/><path d="M297.034 165.932c2.679 0 4.85-2.164 4.85-4.833s-2.171-4.833-4.85-4.833c-2.678 0-4.85 2.164-4.85 4.833s2.172 4.833 4.85 4.833Z" stroke="#09224C" stroke-width="1.152"/><path d="M297.035 197.949c2.947 0 5.336-2.38 5.336-5.316 0-2.937-2.389-5.317-5.336-5.317-2.946 0-5.335 2.38-5.335 5.317 0 2.936 2.389 5.316 5.335 5.316Z" fill="#fff"/><path d="M297.034 197.465c2.679 0 4.85-2.163 4.85-4.833 0-2.669-2.171-4.833-4.85-4.833-2.678 0-4.85 2.164-4.85 4.833 0 2.67 2.172 4.833 4.85 4.833Z" stroke="#09224C" stroke-width="1.152"/><path d="M297.035 181.882c2.947 0 5.336-2.381 5.336-5.317 0-2.936-2.389-5.316-5.336-5.316-2.946 0-5.335 2.38-5.335 5.316s2.389 5.317 5.335 5.317Z" fill="#fff"/><path d="M297.034 181.398c2.679 0 4.85-2.164 4.85-4.833s-2.171-4.833-4.85-4.833c-2.678 0-4.85 2.164-4.85 4.833s2.172 4.833 4.85 4.833Z" stroke="#09224C" stroke-width="1.152"/><path fill="#CBCBCB" d="M278.152 127.13h68.255v10h-68.255zm0 75.342h45.928v10h-45.928zm51.949 0h71.743v10h-71.743zm-52.621 76.5h62.907v10H277.48zm68.437 0h40.129v10h-40.129zm-36.922 26.061h40.129v10h-40.129zm-2.181-107.717h40.129v-10h-40.129zm2.119 123.183h60.304v10h-60.304zm-2.18-138.649h60.304v-10h-60.304zm2.18 170.183h60.304v10h-60.304zm-2.18-201.717h60.304v-10h-60.304zm2.18 185.016h34.993v10h-34.993zm-2.18-168.315h34.993v-10h-34.993zm98.339 35.455h33.769v10h-33.769z"/><path d="M308.598 102.105c.228.075.379.301.303.603 0 .151-.075.227-.075.377 0 .604.378 1.057.908 1.283.227.076.379.377.303.604-.076.226-.227.301-.454.301h-.152c-.908-.301-1.514-1.207-1.514-2.112 0-.226 0-.453.076-.679.075-.302.303-.453.605-.377Zm8.026-5.282c.228-.226.379-.604.379-.98 0-.755-.606-1.359-1.363-1.359-.227 0-.454-.226-.454-.453 0-.226.227-.452.454-.452a2.274 2.274 0 0 1 2.272 2.263c0 .604-.228 1.207-.682 1.66-.076.076-.227.151-.303.151-.075 0-.227-.076-.303-.15-.227-.227-.227-.53 0-.68Zm41.189 1.962V87.543h-2.574l-3.635 8.601-3.634-8.601h-2.574v11.242h1.893V90.56l3.483 8.224h1.665l3.483-8.3v8.3h1.893Zm3.861-4.678c.076-.83.758-1.736 1.893-1.736 1.287 0 1.893.83 1.893 1.736h-3.786Zm4.013 1.962c-.227.754-.833 1.358-1.968 1.358-1.136 0-2.045-.83-2.12-2.038h5.678s.076-.301.076-.603c0-2.415-1.363-3.999-3.786-3.999-1.968 0-3.785 1.584-3.785 4.074 0 2.641 1.892 4.15 3.937 4.15 1.893 0 3.104-1.056 3.483-2.414l-1.515-.528Zm4.619-1.132c0-1.51.908-2.415 2.12-2.415 1.211 0 2.044.906 2.044 2.415s-.833 2.49-2.044 2.49c-1.287-.076-2.12-1.057-2.12-2.49Zm5.906-7.62h-1.817v4.677c-.228-.528-.909-1.132-2.272-1.132-2.196 0-3.71 1.811-3.71 4.075 0 2.339 1.514 4.074 3.71 4.074 1.06 0 1.893-.528 2.272-1.207 0 .302.075.83.075.98h1.742c0-.15-.076-.678-.076-1.433V87.316h.076Zm4.24 11.468v-7.696h-1.817v7.696h1.817Zm-2.12-10.412c0 .679.53 1.207 1.211 1.207.682 0 1.212-.528 1.212-1.207 0-.68-.53-1.208-1.212-1.208-.681 0-1.211.529-1.211 1.208Zm7.874 4.15c1.211 0 1.666.754 1.893 1.433l1.666-.604c-.303-1.207-1.439-2.565-3.559-2.565-2.196 0-3.937 1.735-3.937 4.074 0 2.34 1.741 4.075 4.013 4.075 2.044 0 3.18-1.283 3.558-2.49l-1.59-.604c-.151.604-.757 1.434-1.968 1.434-1.136 0-2.196-.906-2.196-2.415s.984-2.339 2.12-2.339Zm4.694 4.15c0 1.206.985 2.338 2.65 2.338 1.288 0 2.045-.603 2.348-1.207 0 .603.075.905.075.98h1.742c0-.075-.076-.527-.076-1.206V93.73c0-1.51-.909-2.868-3.256-2.868-1.893 0-3.104 1.208-3.256 2.49l1.666.378c.076-.755.606-1.359 1.59-1.359.985 0 1.439.529 1.439 1.208 0 .302-.152.528-.606.528l-1.969.302c-1.287.15-2.347.905-2.347 2.263Zm3.029.905c-.757 0-1.136-.453-1.136-.981 0-.604.455-.981 1.06-1.057l2.045-.301v.377c-.076 1.509-.985 1.962-1.969 1.962Zm7.799 1.207V87.316h-1.818v11.469h1.818Zm15.597 0V87.543h-1.893v4.678h-5.3v-4.678h-1.893v11.242h1.893v-4.83h5.3v4.83h1.893Zm4.391 0v-7.696h-1.817v7.696h1.817Zm-2.12-10.412c0 .679.53 1.207 1.212 1.207.681 0 1.211-.528 1.211-1.207 0-.68-.53-1.208-1.211-1.208-.682 0-1.212.529-1.212 1.208Zm3.786 8.3c.076.905.984 2.338 3.18 2.338 1.969 0 2.953-1.282 2.953-2.49 0-1.132-.757-2.037-2.196-2.339l-1.211-.226c-.455-.076-.757-.377-.757-.83 0-.453.454-.905 1.135-.905 1.06 0 1.363.679 1.439 1.131l1.59-.452c-.152-.755-.833-2.188-2.953-2.188-1.59 0-2.877 1.131-2.877 2.49 0 1.056.681 1.961 2.12 2.263l1.136.226c.605.151.908.453.908.83 0 .453-.378.906-1.136.906-.984 0-1.514-.604-1.59-1.283l-1.741.528Zm10.297-7.999h-1.666v1.132c0 .68-.378 1.207-1.211 1.207h-.379v1.66h1.439v3.848c0 1.434.909 2.264 2.347 2.264.682 0 .984-.151 1.136-.151v-1.51c-.076 0-.379.076-.606.076-.681 0-.984-.302-.984-.98v-3.547h1.59v-1.66h-1.59v-2.339h-.076Zm6.815 8.677c-1.136 0-2.196-.83-2.196-2.49 0-1.66 1.06-2.414 2.196-2.414 1.135 0 2.195.83 2.195 2.414 0 1.66-1.06 2.49-2.195 2.49Zm0-6.489c-2.272 0-4.013 1.736-4.013 4.075 0 2.414 1.665 4.074 4.013 4.074 2.347 0 4.012-1.735 4.012-4.074 0-2.415-1.665-4.075-4.012-4.075Zm10.372.151c-.075 0-.302-.075-.53-.075-.984 0-1.892.528-2.271 1.358v-1.207h-1.817v7.696h1.817v-3.697c0-1.434.681-2.264 2.12-2.264.227 0 .379 0 .606.076v-1.887h.075Zm4.165 10.865 4.921-10.865h-1.968l-2.12 4.905-2.196-4.905h-2.12l3.331 6.79-1.893 4.075h2.045Z" fill="#167A9A"/><path d="M296.863 83.921h13.325c.379-.377.985-.604 1.515-.604a2.12 2.12 0 0 1 1.514.604h13.326c.606 0 1.06.453 1.06 1.056a2.274 2.274 0 0 1-2.272 2.264h-.151v.15a2.274 2.274 0 0 1-2.271 2.264h-.152v.151a2.274 2.274 0 0 1-2.271 2.264h-5.528c-.227 0-.454-.227-.454-.453s.227-.453.454-.453h5.528c.757 0 1.363-.603 1.363-1.358 0-.075-.076-.15-.152-.15h-1.893c-.227 0-.454-.227-.454-.453 0-.227.227-.453.454-.453h3.18c.757 0 1.363-.604 1.363-1.358 0-.076-.076-.151-.151-.151h-8.48c-.228 0-.455-.227-.455-.453s.227-.453.455-.453h9.615c.758 0 1.363-.603 1.363-1.358a.162.162 0 0 0-.151-.15h-12.72c.075.226.075.528.075.754l-.151 3.093h4.391c.228 0 .455.227.455.453 0 .227-.227.453-.455.453h-4.467l-.378 7.545h1.135a2.274 2.274 0 0 1 2.272 2.263c0 .604-.303 1.283-.757 1.66a.57.57 0 0 1-.682 0 .565.565 0 0 1 0-.679c.303-.226.455-.603.455-.98 0-.755-.606-1.359-1.363-1.359h-1.212l.076 2.792h.151a2.274 2.274 0 0 1 2.272 2.263 2.2 2.2 0 0 1-1.514 2.113c-.228.076-.53-.075-.606-.302-.076-.226.076-.528.303-.603.53-.227.908-.679.908-1.283 0-.755-.605-1.358-1.363-1.358h-.151l-.303 6.187c0 .603-.53 1.056-1.136 1.056-.605 0-1.06-.453-1.135-1.056l-.303-6.187h-1.363a2.273 2.273 0 0 1-2.271-2.264v-.377c.075-.226.302-.453.53-.377.227.075.454.302.378.528v.226c0 .755.606 1.358 1.363 1.358h1.363l-.152-2.64h-2.347a2.274 2.274 0 0 1-2.271-2.264c0-1.282.984-2.263 2.271-2.263.227 0 .455.226.455.452 0 .227-.228.453-.455.453-.757 0-1.363.604-1.363 1.358 0 .755.606 1.358 1.363 1.358h2.272l-.379-7.545h-4.846c-.227 0-.454-.226-.454-.452 0-.227.227-.453.454-.453h4.77l-.151-3.094c0-.226 0-.528.076-.754h-12.72c-.076 0-.152.075-.152.15 0 .755.606 1.359 1.363 1.359h9.767c.227 0 .455.226.455.453 0 .226-.228.452-.455.452h-8.556c-.075 0-.151.076-.151.151 0 .755.606 1.358 1.363 1.358h2.726c.227 0 .454.227.454.453s-.227.453-.454.453h-1.515c-.075 0-.151.075-.151.15 0 .755.606 1.359 1.363 1.359h5.603c.227 0 .454.226.454.452 0 .227-.227.453-.454.453h-5.603c-1.212 0-2.272-.98-2.272-2.263v-.151h-.151c-1.212 0-2.272-.981-2.272-2.264v-.15h-.151c-1.211 0-2.271-.981-2.271-2.264 0-.68.454-1.132 1.06-1.132Zm14.688 23.993c0 .076.076.151.152.151.075 0 .151-.075.151-.151l.303-6.187h-.909l.303 6.187Zm-.303-7.092h1.06l.152-2.716h-1.287l.075 2.716Zm-.227-3.622h1.439l.53-11.619c0-.377-.076-.68-.379-.905a1.255 1.255 0 0 0-.908-.378c-.379 0-.682.151-.909.378a1.39 1.39 0 0 0-.378.905l.605 11.62Zm.757-14.713c-1.438 0-2.65-1.207-2.65-2.64 0-1.434 1.212-2.641 2.65-2.641 1.439 0 2.65 1.207 2.65 2.64-.075 1.51-1.211 2.641-2.65 2.641Zm0-4.3c-.908 0-1.665.754-1.665 1.735 0 .981.757 1.736 1.665 1.736.909 0 1.666-.755 1.666-1.736 0-.98-.757-1.735-1.666-1.735Z" fill="#167A9A"/><path d="M336.234 76.527v33.198" stroke="#167A9A" stroke-width=".755" stroke-linecap="round" stroke-linejoin="round"/><path d="M237.421 37.578h273.353v12.738H237.421V37.578Z" fill="#C4C4C4"/><path fill="#fff" d="M250.569 42.075h4.445v4.496h-4.445zm8.89-.001h4.445v4.496h-4.445zm8.89 0h4.445v4.496h-4.445zm52.596 0h119.268v4.496H320.945z"/><g filter="url(#a)"><path d="M523.45 106.558c26.969 0 48.832-21.862 48.832-48.832 0-26.969-21.863-48.831-48.832-48.831s-48.832 21.862-48.832 48.832c0 26.969 21.863 48.831 48.832 48.831Z" fill="#FDF9F9"/></g><path d="m546.213 36.287-18.444-5.764c-2.079-.662-4.494-.662-6.573 0l-18.444 5.764c-1.61.464-2.683 1.988-2.683 3.578v6.823c0 15.966 7.981 31.004 21.328 40.213a5.494 5.494 0 0 0 3.085.993c1.006 0 2.147-.265 3.086-.993 6.706-4.571 12.072-10.6 15.694-17.49 3.689-6.89 5.701-14.707 5.701-22.657v-6.69c.134-1.723-1.006-3.18-2.75-3.777Z" fill="#0D8DF0" stroke="#51B2FF" stroke-width="3.493"/><path d="m546.415 36.155-18.444-5.764c-2.079-.662-4.494-.662-6.573 0l-18.444 5.764c-1.61.464-2.683 1.987-2.683 3.577v6.824c0 15.966 7.981 31.004 21.328 40.213a5.494 5.494 0 0 0 3.085.993c1.006 0 2.146-.265 3.085-.993 6.707-4.571 12.073-10.6 15.695-17.49 3.688-6.89 5.701-14.707 5.701-22.657v-6.69c.067-1.723-1.074-3.247-2.75-3.777Z" fill="url(#b)"/><path d="M533.268 40.262c-1.207-.993-2.146-.728-3.353 1.392-.805 1.457-2.146 1.656-2.951 1.59v-.265c.939-.464 1.61-1.392 1.61-2.452 0-1.523-1.275-2.782-2.884-2.782-1.543 0-2.884 1.259-2.884 2.782 0 1.06.67 1.988 1.609 2.452v.264c-.805.067-2.146-.132-2.951-1.59-1.207-2.186-2.146-2.45-3.353-1.39-1.275.993-6.305 6.89-12.408 6.36 0 0 1.207 2.65 4.561 2.12 0 0 1.743 1.788 4.627.53 0 0 1.476 1.324 3.823.132 0 0 1.744 1.325 3.555.198 0 0 1.073.73 2.213.53l.067 6.758c-.134-.066-.268-.066-.402-.066 0 0-2.012-.398-4.225-.994-2.012-.53-4.36-1.392-4.695-1.855.067-.066.067-.066.134-.066.201-.067.536-.2.872-.265.738-.2 1.811-.2 2.817-.266 2.012-.066 2.414 0 2.481.067 0-.066 1.208.132 1.476-1.06 0 0 .067-.066 0-.066-.067-.795-.738-.862-1.207-.928-.872-.132-.403-.066-1.543-.066-1.878.132-7.713-.331-8.451 2.65v.199c.269 2.583 5.768 3.71 9.792 4.57-1.341.928-2.079 2.12-2.347 3.578-.134 1.656 1.207 3.18 4.292 4.969-2.28 1.656-3.823 3.113-3.688 4.968.201 1.524 1.542 3.445 4.225 4.77 0 0-1.811-2.782-1.945-4.306-.134-.861.402-2.186 2.616-3.776l.067 5.565c0 .463.402.861.872.861a.882.882 0 0 0 .871-.861l.068-5.433c2.012 1.524 2.481 2.783 2.414 3.578-.134 1.523-1.945 4.306-1.945 4.306 2.616-1.259 4.024-3.246 4.225-4.77.135-1.855-1.408-3.312-3.688-4.969 3.085-1.722 4.426-3.246 4.292-4.968-.268-1.524-1.006-2.716-2.347-3.578 4.024-.795 9.523-1.92 9.792-4.57v-.2c-.738-2.98-6.573-2.517-8.451-2.65-1.14 0-.671-.066-1.543.067-.536.066-1.14.132-1.207.927v.067c.336 1.192 1.476.927 1.476 1.06.067 0 .402-.067 2.481-.067 1.006.066 2.012.133 2.817.265.403.066.671.199.872.265a.209.209 0 0 0 .134.066c-.335.464-2.616 1.325-4.695 1.855a59.694 59.694 0 0 1-4.225.994c-.067 0-.067 0-.134.066l.067-6.69c1.207.198 2.213-.53 2.213-.53 1.811 1.126 3.555-.2 3.555-.2 2.347 1.193 3.823-.132 3.823-.132 2.817 1.259 4.628-.53 4.628-.53 3.286.596 4.56-2.12 4.56-2.12-6.237.53-11.267-5.366-12.475-6.36ZM522.94 64.244c-.738-.463-1.14-1.06-1.006-1.523.067-.597-.201-1.988 2.615-2.982l.067 5.632c-.536-.464-1.073-.795-1.676-1.127Zm6.103-1.523c.067.397-.268 1.06-1.006 1.523-.537.265-1.006.597-1.476.928l.068-5.366c2.548.993 2.414 2.318 2.414 2.915Z" fill="#fff"/><path d="M169.302 161.819c16.63-10.432 43.347 2.669 56.805 18.539 6.646 18.756 7.279 25.086 8.466 39.465 1.503 17.895-5.158 27.624-18.721 35.43-15.948 9.179-46.549-7.297-46.549-7.297s-90.766-29.201-.001-86.137Z" fill="#BD5D00"/><path d="m169.777 216.565-2.69 65.175c9.099 12.034 31.646 13.128 35.523-.391-4.51-14.145-6.883-38.683-6.013-64.706l-26.82-.078Z" fill="#F3B484"/><path d="m219.461 453.038 2.136 10.394-6.25 20.63s37.264 1.72 34.495-1.875c-2.453-3.126-27.137-77.756-27.137-77.756l-4.589 1.094 1.345 47.513Z" fill="#00A7A3"/><path d="m225.633 348.946 14.478 53.844-53.008 12.581-18.196-140.039h37.975l18.751 73.614Z" fill="#00A7A3"/><path d="M210.917 335.036s9.811 102.295 20.57 132.225c1.503 4.22 4.114 6.408 5.617 7.268 8.782 4.61 22.232-2.579 22.232-2.579l-48.419-136.914Z" fill="#00A7A3"/><path d="M235.759 342.851c7.358-2.657 12.421-9.143 11.947-16.646-.238-4.61-2.928-10.784-6.883-16.332-4.51-8.049-4.906-14.458-4.193-18.99.474-14.692-5.064-22.037-20.175-23.522-5.775-.235-11.472-.469-17.247-.625l33.149 193.179c2.057 12.113.554 24.929 12.58 24.929 7.595 0 24.763 0 30.696-1.876-10.443-17.348-44.779-105.42-39.874-140.117Zm-106.568-61.893c-2.136 27.274 18.513 61.268 23.497 93.855 3.165 20.474-24.842 91.354-25.237 109.328 17.326.781 67.406 2.735 86.077 1.875 10.839-.547 10.76-18.521 10.048-29.071-3.719-53.608-11.472-103.232-32.2-148.635-6.488-14.067-16.298-36.495-24.447-48.842-22.706 5.548-35.443 12.347-37.738 21.49Z" fill="#fff"/><path d="M217.167 356.995s19.621-13.91 20.333-11.097c.712 2.814-6.409 9.378-6.409 9.378l-13.924 1.719Z" fill="#F3B484"/><path d="m168.67 234.304-2.057-1.328c5.063 11.878 14.953 23.053 31.725 27.82a96.872 96.872 0 0 1-.554-6.877c-15.506-3.751-23.418-8.908-29.114-19.615Z" fill="#EA9C68"/><path d="M157.04 210.548c0 1.485 5.854 38.214 43.592 43.84 2.057.235 7.991-.234 9.652-2.422 6.488-8.206 11.393-20.709 10.523-35.166-1.187-19.537-8.782-32.431-20.016-34.698-21.995-4.532-17.168-10.002-28.086-4.376-10.839 5.783-15.665 32.822-15.665 32.822Z" fill="#F3B484" stroke="#F3B484" stroke-miterlimit="10"/><path opacity=".31" d="m198.1 260.718 14.637 85.571 9.098-55.25-10.602-7.111 6.804-11.41-19.937-11.8Zm-42.484 153.247 38.133 5.079s-4.193 12.269-18.276 12.269c-14.082 0-27.294-6.017-26.345-8.596.791-2.735 6.488-8.752 6.488-8.752Zm50.238-66.738c-9.573-36.104-38.767-87.837-38.767-87.837l-16.219 9.377 20.57 19.381-11.788 10.081c14.795 3.204 46.204 48.998 46.204 48.998Z" fill="#D7D6D9"/><path d="M175.735 254.455c-6.645 11.8-35.908-7.748-43.209-16.986-7.301-9.237-13.856-39.335 9.644-51.815 9.969-39.855 53.72-38.058 61.552-18.99.554 1.172-2.136-2.501-2.927-2.11-.396.156 1.187 2.188.712 4.689-.158 1.406-.95 2.266-1.345 2.735-.554.703-.712.86-.633.938.079.156.396.078.475.078.712.234.77 14.121-4.504 20.292-6.079 7.114-16.58 3.175-19.765 7.687-3.184 4.512-2.352 6.392-4.33 9.049-.393.388-2.38 3.353-3.364 6.656-.87 2.813.396 4.845 1.345 8.127 0 0 12.837 16.834 6.349 29.65Z" fill="#BD5D00"/><path d="m310.365 309.56-53.166 1.407c-2.057.078-3.876 1.172-4.746 2.891l-34.574 66.191c-.554.938-.237 2.11.554 2.813.237.234.633.391.949.391l50.792-3.048c.712-.078 1.424-.469 1.82-1.094l40.191-67.206c.395-.626.237-1.329-.238-1.798l-.158-.156c-.237-.156-.791-.391-1.424-.391Z" fill="#E8E7E6"/><path d="m254.747 314.327-35.207 67.441c-.395.703.159 1.563.95 1.485l50.001-3.048c.553 0 1.107-.391 1.424-.86l40.348-67.441c.238-.39-.079-.859-.553-.859l-54.353 1.485c-1.107.078-2.057.781-2.61 1.797Z" fill="#AFADAC"/><path opacity=".18" d="m220.569 377.157-2.532 2.657s-.554 1.954 1.82 1.172c2.294-.703 24.605-3.907 29.352-8.596 4.746-4.689 4.746-6.33 4.746-6.33l-33.386 11.097Z" fill="#606060"/><path d="M254.589 367.545c-2.136 3.36-6.725 5.861-18.197 8.518-6.013 1.407-15.269 2.657-26.741.938-.158-.235.396-2.579.158-2.813-2.057-3.83-3.797-7.19-6.012-10.707 13.37-11.8 34.098-7.111 37.975-8.049 8.07-1.953 11.788-5.548 14.557-3.751 2.532 1.563 2.453 6.486 1.266 9.378l-3.006 6.486Z" fill="#F3B484"/><path opacity=".31" d="m144.223 343.476 7.516-27.586s10.522 41.027 9.336 55.015c-1.187 13.989-14.32 58.533-21.441 67.754 0 0 11.868-50.327 10.918-63.221-.87-12.738-6.329-31.962-6.329-31.962Z" fill="#D7D8D9"/><path d="M206.724 357.699c-2.453.39-4.589.781-6.408 1.25-24.051 5.783-66.299 21.178-66.299 21.178l20.57-80.961s6.487-21.412-13.291-21.959c-9.099-.234-12.184 3.829-12.184 3.829s-55.618 142.306-2.532 132.069c33.15-6.408 81.647-29.774 81.647-29.774s4.272-12.66-1.503-25.632Z" fill="#fff"/><path opacity=".31" d="M206.724 357.699c-2.452.39-4.588.781-6.408 1.25-24.051 5.783-66.299 21.178-66.299 21.178s-19.462 5.861-7.357 6.095c11.076.235 57.042-12.581 74.447-21.178-.316-2.5 6.804-4.688 5.617-7.345Z" fill="#D7D6D9"/><path d="M206.724 357.699c-2.453.39-4.51.781-6.25 1.25 2.294 9.299 1.978 21.022 1.582 27.273 3.956-1.797 6.25-2.891 6.25-2.891s4.193-12.66-1.582-25.632Z" fill="#fff"/><path d="m200.553 273.222-7.595 11.722-17.247-9.534s9.494 22.35 14.478 24.616c4.905 2.267 12.737-8.83 12.737-8.83l-2.373-17.974Z" fill="#00BBB6"/><path d="M228.164 327.534c-.791-5.236-5.855-8.831-11.234-8.206-5.38.626-9.099 5.393-8.228 10.55.791 5.158 5.854 8.831 11.234 8.206s9.098-5.314 8.228-10.55Z" fill="#A6A6A6"/><path d="M218.829 323.783h-.238c-.87 0-1.74-.625-1.74-1.329.237-47.982-13.529-58.766-13.766-58.922-.95-.86-5.855-2.814-5.064-3.517.633-.625 4.747 0 7.358 1.563.633.391 14.953 11.8 14.795 60.876.158.704-.475 1.251-1.345 1.329Z" fill="#8E8E8E"/><path d="M223.734 328.081c-.475-3.204-3.244-5.549-6.092-5.236-2.927.391-4.905 3.282-4.51 6.486.475 3.204 3.244 5.549 6.092 5.236 2.927-.312 5.063-3.204 4.51-6.486Z" fill="#878787"/><path d="M173.812 292.68c-1.82-1.406-4.114-2.031-6.962-1.875-3.323-19.537-.238-25.945-.158-26.179.474-.782 0-1.72-.792-2.032-.87-.391-1.977 0-2.452.781-.158.235-3.719 7.033-.158 27.899-2.611.703-4.589 1.953-5.776 3.751-2.611 4.063-.237 9.221-.158 9.377.396.782 1.424 1.173 2.294.782.871-.391 1.345-1.25.95-2.032 0 0-1.82-3.985-.079-6.721.87-1.328 2.452-2.11 4.905-2.578 2.531-.391 4.509-.079 5.854.859 2.69 2.11 2.216 6.565 2.216 6.565-.08.859.632 1.562 1.582 1.719h.475c.791-.078 1.424-.704 1.503-1.407.158 0 .712-5.705-3.244-8.909Z" fill="#8E8E8E"/><path d="M164.951 345.117c-.079 0-.237 0-.395.078-.633.078-1.187-.156-1.187-.625-.079-.469.474-.782.949-.86 10.681-1.172 10.918-29.93 10.127-40.949 0-.469.475-.781 1.108-.859.632-.079 1.107.234 1.186.625.396 4.063 2.532 40.402-11.788 42.59Z" fill="#C9C9CD"/><path d="M166.613 343.554c-.238-1.25-1.266-2.11-2.295-2.032-1.107.157-1.74 1.329-1.424 2.579.237 1.25 1.266 2.11 2.294 2.032 1.029-.156 1.741-1.329 1.425-2.579Z" fill="#878787"/><path d="M186.233 340.897c.079 0 .237 0 .396-.078.633-.078.949-.547.87-.938-.079-.469-.712-.625-1.266-.547-10.522 2.11-22.073-24.851-25.712-35.401-.159-.468-.712-.625-1.345-.468-.633.078-.95.547-.792.937 1.266 4.064 13.45 38.918 27.849 36.495Z" fill="#C9C9CD"/><path d="M184.018 340.037c-.237-1.25.396-2.422 1.424-2.578 1.029-.157 2.057.703 2.295 1.953.237 1.251-.396 2.423-1.425 2.579-.949.156-1.977-.703-2.294-1.954Z" fill="#878787"/><path opacity=".61" d="M202.689 231.179c-.395.078-.633-.079-.791-.391a1.052 1.052 0 0 1 .158-1.25c1.583-1.173 2.769-1.251 3.798-1.329.712-.078 1.107-.078 1.424-.469.395-.391.554-.781.554-1.328s-.396-.938-.712-1.251c-4.747-2.891-4.826-6.798-4.826-8.83 0-.469.395-.86.87-.86s.87.391.87.86c0 1.953.079 5.001 4.035 7.424.87.547 1.503 1.484 1.582 2.579.079 1.094-.395 2.031-1.186 2.735-.792.703-1.583.781-2.453.859-.791.078-1.741.157-2.848 1.094-.158.078-.396.157-.475.157Z" fill="#DF7E5A"/><path opacity=".2" d="M189.915 233.493c-3.037 1.543-7.089-.339-9.051-4.202-1.961-3.863-1.09-8.244 1.947-9.786 3.038-1.543 7.09.339 9.051 4.202 1.962 3.862 1.09 8.244-1.947 9.786Zm28.12-4.073c-3.388-.359-5.764-4.142-5.308-8.451.456-4.308 3.572-7.51 6.959-7.151 3.388.358 5.764 4.142 5.308 8.45-.456 4.308-3.572 7.51-6.959 7.152Z" fill="#DD6637"/><path d="M191.031 205.333c-2.377-1.136-8.331-1.648-13.126 5.399m27.233-7.831c1.864-.96 6.723-2.504 12.17.708" stroke="#C98659" stroke-width="1.5" stroke-linecap="round"/><path d="M209.241 209.149c-.142.934.033 1.834.446 2.708.403.774 1.112 1.414 1.858 1.641.338.168.745.227 1.142.185a2.087 2.087 0 0 0 1.078-.42c.296-.235.671-.479.866-.908.206-.328.401-.756.507-1.278.142-.933-.034-1.833-.447-2.708-.402-.774-1.111-1.413-1.857-1.64a2.093 2.093 0 0 0-1.142-.186 2.104 2.104 0 0 0-1.079.42c-.295.236-.591.471-.866.908-.274.437-.47.866-.506 1.278Zm-24.823 3.411c-.095.936.121 1.93.545 2.793.497.852 1.174 1.371 1.883 1.579.398.148.768.096 1.138.044.37-.052.726-.205.993-.448.342-.253.595-.596.774-.929a3.91 3.91 0 0 0 .422-1.289c.094-.936-.121-1.931-.545-2.793-.498-.852-1.175-1.372-1.883-1.579-.398-.149-.768-.097-1.138-.045-.37.053-.726.205-.993.448-.342.253-.595.597-.775.929a3.932 3.932 0 0 0-.421 1.29Z" fill="#724422"/><path d="M196.597 237.04s9.177-.235 15.586-2.189c0 0 .395 4.533-3.481 6.799-2.532 1.485-5.855 1.407-8.228-.234-2.69-1.719-3.877-4.376-3.877-4.376Z" fill="#D86437"/><path opacity=".31" d="m147.862 407.478 54.352-21.178c.079 0-19.779 13.207-54.352 21.178Z" fill="#D7D6D9"/><path d="M268.513 340.35c-2.452-.469-5.933 2.266-7.753 6.096-1.82 3.829-1.345 7.267 1.108 7.736 2.452.469 5.854-2.266 7.753-6.095 1.74-3.83 1.266-7.268-1.108-7.737Z" fill="#E1E2E3"/><defs><linearGradient id="b" x1="500.214" y1="58.878" x2="549.129" y2="58.878" gradientUnits="userSpaceOnUse"><stop offset=".004" stop-color="#0D3BF0" stop-opacity="0"/><stop offset="1" stop-color="#0D3BF0" stop-opacity=".3"/></linearGradient><filter id="a" x="474.618" y="8.895" width="101.664" height="101.664" filterUnits="userSpaceOnUse" color-interpolation-filters="sRGB"><feFlood flood-opacity="0" result="BackgroundImageFix"/><feColorMatrix in="SourceAlpha" values="0 0 0 0 0 0 0 0 0 0 0 0 0 0 0 0 0 0 127 0" result="hardAlpha"/><feOffset dx="4" dy="4"/><feColorMatrix values="0 0 0 0 0.509804 0 0 0 0 0.509804 0 0 0 0 0.509804 0 0 0 0.25 0"/><feBlend in2="BackgroundImageFix" result="effect1_dropShadow_2_2345"/><feBlend in="SourceGraphic" in2="effect1_dropShadow_2_2345" result="shape"/></filter></defs></svg>