<svg width="770" height="438" fill="none" xmlns="http://www.w3.org/2000/svg"><path d="M765.846 287.457c-6.556 21.375-18.029 102.826-131.939 142.388-113.909 39.562-192.253-84.985-303.131-96.793-110.795-11.808-144.149-20.083-141.198-84.813 2.95-64.73 85.145-157.73 197.088-209.618C518.113-22.231 623.172-4.13 687.42 49.05c89.817 74.47 87.194 210.049 78.426 238.407Z" fill="#DAE6FF"/><path d="M658.33 198.419c-5.283-16.156-13.538-27.202-22.948-26.707-13.703-2.143-57.288-7.749-76.108 2.802l-1.816.495a23.02 23.02 0 0 0-4.458 3.462c-8.09 6.759-15.684 26.708-24.764 46.491-12.712 27.697-28.892 64.065 5.613 67.857 3.797.33-5.613 4.352 3.632-9.166l-3.632 36.269c1.156 13.354 20.637 13.189 34.175 13.519l20.801.659c14.033.495 50.684 18.3 62.076 10.222 11.722-8.243 16.509-25.389 17.335-45.337 1.816.33 3.632.165 5.283-.495 9.905-4.946-9.411-82.266-15.189-100.071Z" fill="#F38632"/><path d="M582.222 140.223h28.066c-1.651 3.792-1.981 7.913-1.321 12.035l2.641 14.013c1.651 12.859-3.797 19.454-11.391 21.432-3.962.825-8.255-.329-11.226-3.132-3.633-3.297-3.633-9.727-2.642-15.002l1.156-3.792c1.32-5.111-5.283-25.554-5.283-25.554Z" fill="#FED1BA"/><path d="m585.169 160.929 23.105-1.865s-5.034 8.237-10.525 8.962c-5.17.682-12.58-7.097-12.58-7.097Z" fill="#F1BDA2"/><path d="M618.542 108.075s12.713 33.302-11.721 51.437c-23.774 17.805-41.109-33.137-41.109-33.137l20.472-27.202 32.358 8.902Z" fill="#FED1BA"/><path d="M617.222 83.565c-3.302-6.1-13.868-19.618-39.128-4.121-.66.494-1.486.66-2.311.824-5.118.33-25.094 3.297-22.618 26.872.991 6.925-3.137 17.476-11.887 20.938-17.5 6.924-29.221 40.886 6.604 50.448 1.486.329 2.972 0 4.127-.825l2.807-1.978c2.807-1.978 6.108-2.803 9.41-2.638l14.694 1.154h1.155c2.642-.494 11.227-2.638 9.246-13.024-.165-1.154-.826-2.308-1.651-2.967-3.797-3.298-15.024-13.849-17.17-21.268l-.495-1.648c-1.156-2.638.165-5.77 2.806-6.924 0 0 .165 0 .33-.165 6.491-16.349 22.949-11.211 32.029-20.278 1.981-1.979 5.283-1.979 7.264 0l6.769 6.924c.66.659 1.321 1.649 1.486 2.638 1.155 5.77 3.467 26.048-12.382 38.907-1.156.824-1.816 2.143-1.982 3.462-.33 3.133-.825 8.903.661 12.694.825 1.814 2.641 3.133 4.788 2.968h20.801c.496 0 .991 0 1.486-.165 3.797-1.154 19.316-7.089 11.062-23.575-4.623-9.892-7.265-20.443-7.76-31.324v-.659c.33-3.297 3.302-31.654-16.014-33.467-1.651-.165-3.302-1.154-4.127-2.803Z" fill="#6E0403"/><path d="M569.675 133.629s1.485 20.443 17.995 29.015c16.509 8.573 30.047-13.683 30.047-13.683s5.283-13.024 3.797-23.575c-1.486-10.551-7.429-9.727-7.429-9.727l-18.821 5.77-16.014 6.759-9.575 5.441Z" fill="#FED1BA"/><path opacity=".24" d="M588.052 150.555s1.846 4.66 7.462 4.66c5.617 0 7.463-4.66 7.463-4.66h-14.925Z" fill="#7D160E"/><path d="M588.534 150.314h14.282s-2.246 4.098-7.863 3.777c-5.617-.241-6.419-3.777-6.419-3.777Z" fill="#fff"/><path d="M580.726 126.131a3.653 3.653 0 0 0 .115 2.089c.23.642.691 1.124 1.21 1.365.231.161.519.161.807.161.288 0 .519-.08.749-.241.231-.161.461-.321.634-.643.173-.241.346-.562.404-.884a3.658 3.658 0 0 0-.115-2.088c-.231-.643-.692-1.125-1.211-1.366-.23-.161-.519-.161-.807-.161-.288 0-.518.08-.749.241-.231.161-.461.321-.634.643-.115.241-.288.562-.403.884Z" fill="#724422"/><path d="M589.124 119.107c-2.079-1.105-3.672-1.905-6.631-1.382-2.96.523-4.865 2.23-6.391 4.82M604.152 120.389c2.117-1.029 3.738-1.772 6.677-1.142 2.939.63 4.78 2.406 6.212 5.048" stroke="#510605" stroke-linecap="round"/><path d="M612.565 126.131a3.67 3.67 0 0 1-.115 2.089c-.229.643-.688 1.125-1.205 1.366-.23.16-.517.16-.804.16-.287 0-.516-.08-.746-.241-.23-.16-.459-.321-.632-.642-.172-.241-.344-.563-.401-.884a3.67 3.67 0 0 1 .114-2.089c.23-.643.689-1.125 1.206-1.366.23-.161.517-.161.804-.161.287 0 .516.081.746.241.23.161.459.322.631.643.173.241.287.562.402.884Z" fill="#724422"/><path d="M613.073 146.197c2.334.527 4.911-2.076 5.755-5.815.845-3.74-.363-7.198-2.697-7.725-2.334-.527-4.911 2.077-5.755 5.816-.845 3.739.363 7.197 2.697 7.724ZM579.226 145.497c2.575-.623 3.933-4.148 3.031-7.874-.901-3.726-3.72-6.241-6.296-5.618-2.575.623-3.932 4.149-3.031 7.875.902 3.725 3.72 6.241 6.296 5.617Z" fill="#FAB18F"/><path opacity=".61" d="M598.47 143.689c.359.075.575-.075.719-.375.215-.375.143-.9-.144-1.2-1.437-1.126-2.515-1.201-3.449-1.276-.647-.075-1.006-.075-1.294-.45-.359-.375-.503-.75-.503-1.276 0-.525.359-.9.647-1.2 4.311-2.776 4.383-6.528 4.383-8.479 0-.45-.359-.825-.79-.825-.431 0-.791.375-.791.825 0 1.876-.071 4.802-3.664 7.128a3.25 3.25 0 0 0-1.438 2.476c-.072 1.051.36 1.951 1.078 2.627.719.675 1.437.75 2.228.825.718.075 1.581.15 2.587 1.05.144.075.359.15.431.15Z" fill="#DF7E5A"/><path d="m517.698 266.547-2.682-.742c-1.453-.41-2.42-1.716-2.087-2.829l4.8-16.829c.294-1.044 1.562-1.562 2.907-1.191 1.337.371 2.273 1.523 2.157 2.605l-2.126 17.571c-.139 1.152-1.485 1.825-2.969 1.415ZM677.711 270.08l2.682-.742c1.454-.41 2.42-1.716 2.088-2.83l-4.801-16.828c-.294-1.044-1.562-1.562-2.907-1.191-1.337.371-2.272 1.523-2.156 2.605l2.125 17.571c.14 1.152 1.485 1.825 2.969 1.415Z" fill="#FFAB75"/><path d="M652.466 208.087H547.383v23.644h105.083v-23.644Z" fill="#E6E6E6"/><path d="M649.246 189.698H546.803v131.516h102.443V189.698Z" fill="#FFBE5C"/><path d="M641.353 194.499h-86.657a4.331 4.331 0 0 0-4.352 4.352v113.458a4.332 4.332 0 0 0 4.352 4.352h86.696a4.332 4.332 0 0 0 4.352-4.352V198.858a4.391 4.391 0 0 0-4.391-4.359Z" fill="#fff"/><path d="M568.324 208.39h61.943c.371 0 .742 0 1.114.039v2.713c-.372.039-.743.039-1.114.039h-61.943c-.371 0-.742 0-1.121-.039v-2.713c.371-.039.742-.039 1.121-.039ZM582.092 203.767h34.392c.225 0 .41 0 .634.039v2.721c-.185.038-.409.038-.634.038h-34.392c-.224 0-.41 0-.634-.038v-2.721c.194-.039.41-.07.634-.039Z" fill="#B3B3B3"/><path d="M559.875 256.403h19.581c.108 0 .263 0 .371.038v2.714c-.108.038-.224.038-.371.038h-19.581c-.108 0-.263 0-.371-.038v-2.714c.147-.038.255-.038.371-.038ZM582.989 256.403h13.961c.077 0 .185 0 .263.038v2.714c-.078.038-.186.038-.263.038h-13.961c-.077 0-.186 0-.263-.038v-2.714c.116-.038.186-.038.263-.038Z" fill="#B9B9B9"/><path d="M583.136 263.035h-22.743c-.595 0-1.043.487-1.043 1.044v2.868c0 .595.487 1.044 1.043 1.044h22.743c.595 0 1.043-.487 1.043-1.044v-2.868c.039-.564-.448-1.044-1.043-1.044ZM611.313 263.035h-23.972c-.595 0-1.043.487-1.043 1.044v2.868c0 .595.487 1.044 1.043 1.044h23.972c.595 0 1.044-.487 1.044-1.044v-2.868c.038-.564-.449-1.044-1.044-1.044Z" stroke="#989898" stroke-width=".391" stroke-miterlimit="10"/><path d="M560.471 279.563h19.874c.294.038.595.147.82.409.224.225.293.518.293.859v2.496c0 .294-.077.634-.293.858a1.34 1.34 0 0 1-.82.41h-19.874c-.294-.038-.596-.147-.82-.41-.224-.262-.301-.517-.301-.858v-2.496c0-.294.077-.634.301-.859.224-.262.518-.378.82-.409Z" stroke="#989898" stroke-width=".369" stroke-miterlimit="10"/><path d="M585.555 279.563h25.502c.333 0 .673.108.928.332.263.224.41.557.41.897v2.497c0 .332-.147.672-.41.896-.263.225-.595.372-.928.333h-25.502a1.41 1.41 0 0 1-.928-.333 1.182 1.182 0 0 1-.409-.896v-2.497c0-.333.147-.673.409-.897.256-.224.596-.332.928-.332Z" stroke="#989898" stroke-width=".407" stroke-miterlimit="10"/><path d="M611.313 271.222h-50.889c-.595 0-1.044.487-1.044 1.043v2.868c0 .595.487 1.044 1.044 1.044h50.92c.595 0 1.043-.487 1.043-1.044v-2.868c.008-.595-.479-1.043-1.074-1.043Z" stroke="#989898" stroke-width=".391" stroke-miterlimit="10"/><path d="M567.613 219.854h18.313c.109 0 .224 0 .333.039v2.126c-.109.038-.224.038-.333.038h-18.313c-.108 0-.224 0-.332-.038v-2.126c.108-.039.224-.039.332-.039ZM590.17 219.854h22.82c.147 0 .294 0 .41.039v2.126c-.147.038-.263.038-.41.038h-22.82c-.146 0-.293 0-.409-.038v-2.126c.116-.039.263-.039.409-.039Z" fill="#B3B3B3"/><path d="M559.35 248.325h78.656" stroke="#989898" stroke-width=".391" stroke-miterlimit="10"/><path d="M583.066 299.028h30.226c.332 0 .634.147.896.371.225.224.371.556.371.897v4.352c0 .147-.038.332-.108.487-.077.147-.147.301-.263.41-.108.108-.262.224-.409.262a.998.998 0 0 1-.487.109h-30.226c-.147 0-.332-.039-.487-.109-.147-.077-.294-.147-.41-.262-.108-.109-.224-.263-.262-.41a.978.978 0 0 1-.109-.487v-4.352c0-.333.147-.634.371-.897.263-.224.557-.371.897-.371Z" fill="#B9B9B9"/><path d="M561.545 222.977c1.113 0 2.01-.897 2.01-2.01 0-1.113-.897-2.01-2.01-2.01-1.121 0-2.01.897-2.01 2.01 0 1.121.897 2.01 2.01 2.01Z" fill="#C4C4C4"/><path d="M567.574 228.489h14.889c.077 0 .185 0 .263.038v2.119c-.078.038-.186.038-.263.038h-14.889c-.077 0-.185 0-.262-.038v-2.119c.077-.038.154-.038.262-.038ZM586.599 228.489h17.045c.109 0 .224 0 .302.038v2.119c-.108.038-.224.038-.302.038h-17.045c-.108 0-.224 0-.294-.038v-2.119c.07-.038.178-.038.294-.038Z" fill="#B3B3B3"/><path d="M561.545 231.612c1.113 0 2.01-.897 2.01-2.01 0-1.113-.897-2.01-2.01-2.01-1.121 0-2.01.897-2.01 2.01 0 1.121.897 2.01 2.01 2.01Z" fill="#C4C4C4"/><path d="M567.652 237.123h20.06c.108 0 .263 0 .371.039v2.126c-.108.038-.263.038-.371.038h-20.06c-.108 0-.263 0-.371-.038v-2.126c.147-.039.255-.039.371-.039ZM591.361 237.123h18.498c.109 0 .225 0 .333.039v2.126c-.108.038-.224.038-.333.038h-18.498c-.109 0-.224 0-.333-.038v-2.126c.109-.039.224-.039.333-.039Z" fill="#BBBDBF"/><path d="M561.545 240.246c1.113 0 2.01-.896 2.01-2.01 0-1.12-.897-2.009-2.01-2.009a2 2 0 0 0-2.01 2.009c0 1.121.897 2.01 2.01 2.01Z" stroke="#989898" stroke-width=".391" stroke-miterlimit="10"/><path d="M671.563 235.408H523.566a3.866 3.866 0 0 0-3.865 3.865v91.001a3.866 3.866 0 0 0 3.865 3.865h147.997a3.866 3.866 0 0 0 3.865-3.865v-91.001a3.876 3.876 0 0 0-3.865-3.865Z" fill="#FFD382"/><path d="M596.818 323.301c17.85.085 32.359-14.293 32.444-32.15.085-17.849-14.301-32.359-32.15-32.444-17.849-.085-32.359 14.301-32.444 32.15-.085 17.811 14.301 32.359 32.15 32.444Z" fill="#fff"/><path opacity=".05" d="m623.38 296.439 4.02-16.327a32.46 32.46 0 0 0-16.535-18.313l-6.053 31.764-22.078 17.764 40.646-14.888Z" fill="#000"/><path d="M597.112 258.707c-2.96 0-5.883.379-8.712 1.144l-2.961 10.66 6.007.889 6.215 2.157 5.628 2.837 4.53-15.824a31.824 31.824 0 0 0-10.707-1.863Z" fill="#F38632"/><path d="m588.825 301.393-6.091 9.941.804-11.719 1.778.085 2.157.596 1.352 1.097Z" fill="#4E4E4E"/><path d="m588.825 301.394-1.399-1.059-2.157-.596-1.778-.085 1.948-29.104 6.007.889 6.215 2.156 5.581 2.837-14.417 24.962Z" fill="url(#a)"/><path d="m588.4 259.85-2.961 10.661 6.007.888 3.718-12.646c-2.28.123-4.522.51-6.764 1.097Z" fill="#F6A259"/><path opacity=".2" d="M607.819 260.57a29.992 29.992 0 0 0-5.713-1.485l-4.445 14.464-14.935 37.77 6.092-9.98 14.424-24.953 4.577-15.816Z" fill="#1A1A1A"/><path opacity=".15" d="m582.734 311.203 8.758-39.764-6.006-.889-2.752 40.653Z" fill="#fff"/><path d="M538.539 284.713c.186-1.6-.742-3.092-2.087-3.424l-13.25-3.054 17.015-1.306c1.6-.108 2.829-1.678 2.829-3.533 0-1.863-1.268-3.424-2.829-3.533l-19.318-1.337 15.26-1.113c1.376-.108 2.458-1.453 2.458-3.054 0-1.6-1.082-2.937-2.458-3.053l-19.62-1.415c-.557-.332-1.191-.556-1.902-.556-2.272 0-4.135 2.156-4.135 4.839a5.47 5.47 0 0 0 .896 3.015c.186.518.487.927.858 1.267-1.492.859-2.527 2.683-2.527 4.762 0 1.531.556 2.907 1.414 3.873a5.765 5.765 0 0 0-1.229 3.572c0 2.868 1.971 5.21 4.43 5.21l21.443 1.531c1.376.1 2.567-1.09 2.752-2.691ZM657.099 285.132c-.185-1.6.742-3.092 2.088-3.424l13.249-3.054-17.014-1.306c-1.6-.109-2.829-1.678-2.829-3.533 0-1.863 1.267-3.425 2.829-3.533l19.318-1.337-15.26-1.113c-1.376-.109-2.458-1.454-2.458-3.054 0-1.6 1.082-2.937 2.458-3.053l19.62-1.415c.556-.332 1.19-.557 1.901-.557 2.273 0 4.136 2.157 4.136 4.84 0 1.12-.332 2.156-.897 3.014a3.125 3.125 0 0 1-.858 1.268c1.492.858 2.528 2.683 2.528 4.762 0 1.531-.556 2.907-1.414 3.873a5.762 5.762 0 0 1 1.229 3.571c0 2.868-1.972 5.211-4.43 5.211l-21.444 1.53c-1.337.101-2.566-1.09-2.752-2.69Z" fill="#FFBB8F"/><path d="M675.204 235.446h-155.31l1.005-4.058h153.3l1.005 4.058Z" fill="#E6E6E6"/><path d="M519.701 229.555a3.866 3.866 0 0 1 3.865-3.865h24.636a5.413 5.413 0 0 1 5.412 5.411v8.218h-33.913v-9.764Z" fill="#FFD382"/><path d="M143.76 84.892h87.931c3.227 0 5.841-2.737 5.841-6.115v-4.515c0-3.378-2.614-6.114-5.841-6.114H143.76c-3.227 0-5.842 2.736-5.842 6.114v4.515c-.007 3.378 2.615 6.115 5.842 6.115Z" fill="#6DBCDB"/><path d="M152.352 76.246c.317.641-.835 67.261-.835 67.261l-4.416-.069-.886-67.355 6.137.163Z" fill="#6DBCDB"/><path d="m143.718 124.289 10.495.333.258 16.558 12.009 6.215.155 10.885-7.518 11.417-.658-15.646-9.8-5.079-8.183 4.716.864 16.875-8.803-10.776.266-10.073 10.827-8.828.088-16.597ZM217.26 85.185l42.879 54.144c4.49 5.674 12.533 6.462 17.954 1.754 5.421-4.7 6.174-13.118 1.676-18.784L236.89 68.155c-4.49-5.674-12.533-6.462-17.947-1.754-5.428 4.7-6.174 13.11-1.683 18.784Z" fill="#6DBCDB"/><path d="M267.502 233.453c9.889 0 17.91-8.396 17.91-18.746v-80.473c0-10.351-8.021-18.746-17.91-18.746s-17.909 8.395-17.909 18.746v80.473c0 10.35 8.02 18.746 17.909 18.746Z" fill="#6DBCDB"/><path d="M268.92 140.79c4.812-.818 8.079-5.563 7.298-10.599-.781-5.036-5.314-8.456-10.125-7.638-4.812.817-8.079 5.562-7.298 10.598.781 5.036 5.314 8.456 10.125 7.639ZM228.433 82.124c2.958 0 5.355-2.51 5.355-5.605 0-3.095-2.397-5.604-5.355-5.604-2.957 0-5.354 2.51-5.354 5.604 0 3.096 2.397 5.605 5.354 5.605ZM147.012 73.83c-1.418 1.484-1.418 3.895 0 5.388 1.418 1.484 3.722 1.484 5.148 0 1.418-1.485 1.418-3.897 0-5.389-1.426-1.491-3.73-1.491-5.148 0Z" fill="#398EAE"/><path d="M145.917 188.841H48.046v131.516h97.871V188.841Z" fill="#FFBE5C"/><path d="M138.376 193.642h-82.79c-2.312 0-4.158 1.932-4.158 4.352v113.458c0 2.419 1.846 4.352 4.158 4.352h82.827c2.312 0 4.158-1.933 4.158-4.352v-113.45c-.03-2.42-1.883-4.36-4.195-4.36Z" fill="#fff"/><path d="M68.606 207.533h59.18c.354 0 .709 0 1.063.039v2.713c-.354.039-.709.039-1.063.039h-59.18c-.354 0-.709 0-1.07-.039v-2.713c.354-.039.709-.039 1.07-.039ZM81.76 202.911h32.857c.215 0 .392 0 .606.038v2.721c-.177.039-.391.039-.606.039H81.76c-.214 0-.392 0-.606-.039v-2.721c.178-.038.392-.069.606-.038ZM67.927 218.997h17.496c.103 0 .214 0 .317.039v2.126c-.103.038-.214.038-.317.038H67.927c-.104 0-.214 0-.318-.038v-2.126c.104-.039.214-.039.318-.039ZM89.478 218.997h21.801c.141 0 .281 0 .392.039v2.126c-.141.038-.251.038-.392.038H89.478c-.14 0-.281 0-.392-.038v-2.126c.111-.039.251-.039.392-.039Z" fill="#B3B3B3"/><path d="M60.032 247.468h75.146" stroke="#989898" stroke-width=".391" stroke-miterlimit="10"/><path d="M62.13 222.12c1.063 0 1.92-.897 1.92-2.01 0-1.113-.857-2.01-1.92-2.01-1.071 0-1.92.897-1.92 2.01 0 1.121.856 2.01 1.92 2.01ZM67.89 227.632h14.224a.58.58 0 0 1 .251.038v2.119c-.074.038-.177.038-.25.038H67.89c-.074 0-.177 0-.251-.038v-2.119c.074-.038.148-.038.25-.038ZM86.065 227.632h16.285c.104 0 .214 0 .288.038v2.119c-.103.038-.214.038-.288.038H86.065c-.103 0-.214 0-.28-.038v-2.119c.066-.038.17-.038.28-.038ZM62.13 230.755c1.063 0 1.92-.897 1.92-2.01 0-1.113-.857-2.01-1.92-2.01-1.071 0-1.92.897-1.92 2.01 0 1.121.856 2.01 1.92 2.01Z" fill="#B3B3B3"/><path d="M67.964 236.267h19.165c.103 0 .25 0 .354.038v2.126c-.103.039-.25.039-.354.039H67.964c-.104 0-.251 0-.355-.039v-2.126c.14-.038.244-.038.355-.038ZM90.615 236.267h17.673c.103 0 .214 0 .317.038v2.126c-.103.039-.214.039-.317.039H90.615c-.104 0-.215 0-.318-.039v-2.126c.103-.038.214-.038.318-.038Z" fill="#BBBDBF"/><path d="M62.13 239.39c1.063 0 1.92-.897 1.92-2.01 0-1.121-.857-2.01-1.92-2.01-1.071 0-1.92.897-1.92 2.01 0 1.121.856 2.01 1.92 2.01Z" stroke="#989898" stroke-width=".391" stroke-miterlimit="10"/><path d="M167.238 234.551H25.845c-2.038 0-3.692 1.731-3.692 3.865v91.001c0 2.134 1.654 3.866 3.692 3.866h141.393c2.039 0 3.693-1.732 3.693-3.866v-91.001c-.007-2.134-1.662-3.865-3.693-3.865Z" fill="#FFD382"/><path d="M146.035 234.59H22.337l.797-4.059h122.901v4.059Z" fill="#E6E6E6"/><path d="M22.152 228.698c0-2.133 1.655-3.865 3.693-3.865h23.537c2.851 0 5.17 2.42 5.17 5.411v8.218h-32.4v-9.764Z" fill="#FFD382"/><path d="M239.829 374.857H21.133c-10.398 0-18.832-8.828-18.832-19.713 0-10.892 8.426-19.712 18.832-19.712h218.704v39.425h-.008Z" fill="#6DBCDB" stroke="#6DBCDB" stroke-width="3.248" stroke-miterlimit="10"/><path d="M25.83 366.932c6.22 0 11.263-5.278 11.263-11.788 0-6.511-5.042-11.789-11.263-11.789-6.22 0-11.262 5.278-11.262 11.789 0 6.51 5.042 11.788 11.263 11.788ZM64.338 366.932c6.22 0 11.263-5.278 11.263-11.788 0-6.511-5.043-11.789-11.263-11.789s-11.263 5.278-11.263 11.789c0 6.51 5.043 11.788 11.263 11.788ZM102.845 366.932c6.22 0 11.263-5.278 11.263-11.788 0-6.511-5.043-11.789-11.263-11.789s-11.263 5.278-11.263 11.789c0 6.51 5.043 11.788 11.263 11.788ZM141.353 366.932c6.22 0 11.262-5.278 11.262-11.788 0-6.511-5.042-11.789-11.262-11.789-6.221 0-11.263 5.278-11.263 11.789 0 6.51 5.042 11.788 11.263 11.788ZM179.86 366.932c6.22 0 11.263-5.278 11.263-11.788 0-6.511-5.043-11.789-11.263-11.789s-11.263 5.278-11.263 11.789c0 6.51 5.043 11.788 11.263 11.788ZM218.367 366.932c6.221 0 11.263-5.278 11.263-11.788 0-6.511-5.042-11.789-11.263-11.789-6.22 0-11.262 5.278-11.262 11.789 0 6.51 5.042 11.788 11.262 11.788Z" fill="#3D93B4"/><path d="M449.855 374.856h218.696c10.398 0 18.833-8.828 18.833-19.712s-8.427-19.712-18.833-19.712H449.855v39.424Z" fill="#6DBCDB" stroke="#6DBCDB" stroke-width="3.248" stroke-miterlimit="10"/><path d="M663.854 366.932c6.22 0 11.262-5.278 11.262-11.789 0-6.51-5.042-11.788-11.262-11.788-6.22 0-11.263 5.278-11.263 11.788 0 6.511 5.043 11.789 11.263 11.789ZM625.346 366.932c6.22 0 11.263-5.278 11.263-11.789 0-6.51-5.043-11.788-11.263-11.788s-11.263 5.278-11.263 11.788c0 6.511 5.043 11.789 11.263 11.789ZM586.839 366.932c6.22 0 11.263-5.278 11.263-11.789 0-6.51-5.043-11.788-11.263-11.788s-11.263 5.278-11.263 11.788c0 6.511 5.043 11.789 11.263 11.789ZM548.331 366.932c6.221 0 11.263-5.278 11.263-11.789 0-6.51-5.042-11.788-11.263-11.788-6.22 0-11.262 5.278-11.262 11.788 0 6.511 5.042 11.789 11.262 11.789ZM509.824 366.932c6.22 0 11.263-5.278 11.263-11.789 0-6.51-5.043-11.788-11.263-11.788s-11.262 5.278-11.262 11.788c0 6.511 5.042 11.789 11.262 11.789ZM471.317 366.932c6.22 0 11.262-5.278 11.262-11.789 0-6.51-5.042-11.788-11.262-11.788-6.221 0-11.263 5.278-11.263 11.788 0 6.511 5.042 11.789 11.263 11.789Z" fill="#3D93B4"/><path d="M460.054 210.324H223.079v168.997h236.975V210.324Z" fill="#6DBCDB"/><path d="M411.01 233.938h-22.371v23.415h22.371v-23.415Z" fill="#257493"/><path d="M407.269 245.201c0 4.306-3.331 7.792-7.445 7.792-4.113 0-7.444-3.486-7.444-7.792 0-4.306 3.331-7.792 7.444-7.792 4.114-.008 7.445 3.486 7.445 7.792Z" fill="#CCEA2A"/><path d="M379.847 270.496H272.123v92.81h107.724v-92.81Z" fill="#44A4C9"/><path d="M373.813 275.691H278.15v82.42h95.663v-82.42Z" fill="#FFF6ED"/><path d="M272.123 230.58v32.026h107.724V230.58H272.123Z" fill="#44A4C9"/><path d="M278.15 233.689v26.173h95.663v-26.173H278.15Z" fill="#FFFBF8"/><path d="M294.872 237.117c5.423 0 9.812 4.239 9.812 9.476 0 5.236-4.389 9.475-9.812 9.475-5.422 0-9.812-4.239-9.812-9.475 0-5.229 4.398-9.476 9.812-9.476Z" fill="#455A64"/><path d="M294.872 238.713c4.513 0 8.168 3.53 8.168 7.887 0 4.358-3.655 7.888-8.168 7.888-4.512 0-8.167-3.53-8.167-7.888 0-4.357 3.655-7.887 8.167-7.887Z" fill="#EBEBEB"/><path d="M294.88 238.713v15.767c-4.513 0-8.168-3.522-8.168-7.872 0-4.373 3.655-7.895 8.168-7.895Z" fill="#44A4C9"/><path d="M294.887 246.659v7.821a8.35 8.35 0 0 1-5.713-2.237l5.713-5.584Z" fill="#CCEA2A"/><path d="m288.876 248.151-.091-.421 6.638-1.743.214.938-6.761 1.226Z" fill="#5C2EC7"/><path d="M325.827 237.117c5.422 0 9.812 4.239 9.812 9.476 0 5.236-4.39 9.475-9.812 9.475-5.423 0-9.812-4.239-9.812-9.475 0-5.229 4.389-9.476 9.812-9.476Z" fill="#455A64"/><path d="M325.827 238.713c4.512 0 8.167 3.53 8.167 7.887 0 4.358-3.655 7.888-8.167 7.888-4.513 0-8.168-3.53-8.168-7.888 0-4.357 3.655-7.887 8.168-7.887Z" fill="#EBEBEB"/><path d="M325.827 238.713v15.767c-4.513 0-8.168-3.522-8.168-7.872 0-4.373 3.663-7.895 8.168-7.895Z" fill="#44A4C9"/><path d="M325.835 246.659v7.821a8.35 8.35 0 0 1-5.713-2.237l5.713-5.584Z" fill="#CCEA2A"/><path d="m319.686 246.63.015-.421 6.883-.037-.046.967-6.852-.509Z" fill="#5C2EC7"/><path d="M356.782 237.117c5.422 0 9.812 4.239 9.812 9.476 0 5.236-4.39 9.475-9.812 9.475-5.423 0-9.813-4.239-9.813-9.475 0-5.229 4.398-9.476 9.813-9.476Z" fill="#455A64"/><path d="M356.782 238.713c4.512 0 8.168 3.53 8.168 7.887 0 4.358-3.656 7.888-8.168 7.888-4.512 0-8.168-3.53-8.168-7.888.008-4.357 3.663-7.887 8.168-7.887Z" fill="#EBEBEB"/><path d="M356.79 238.713v15.767c-4.512 0-8.168-3.522-8.168-7.872 0-4.373 3.656-7.895 8.168-7.895Z" fill="#44A4C9"/><path d="M356.798 246.659v7.821a8.35 8.35 0 0 1-5.713-2.237l5.713-5.584Z" fill="#CCEA2A"/><path d="m351.298 243.654.222-.37 6.072 3.124-.504.828-5.79-3.582Z" fill="#5C2EC7"/><path d="M403.81 271.629h-9.807v91.677h9.807v-91.677Z" fill="#257493"/><path d="M400.619 277.998h-3.435v78.951h3.435v-78.951Z" fill="#133A78"/><path d="M398.906 316.438c-.642 0-1.166-.549-1.166-1.222v-32.762c0-.672.524-1.221 1.166-1.221.643 0 1.167.549 1.167 1.221v32.762c-.007.68-.524 1.222-1.167 1.222Z" fill="#fff"/><path d="M402.906 281.631c0 2.21-1.789 4-3.999 4a4 4 0 0 1-4.001-4c0-2.211 1.79-4 4.001-4a3.997 3.997 0 0 1 3.999 4Z" fill="#6DBCDB"/><path d="M305.515 334.331v-9.176h-2.809l-2.394 6.199-2.523-6.199h-2.666v9.176h1.941v-6.005l2.394 6.005h1.657l2.394-6.083v6.083h2.006Zm3.831 0v-6.433h-1.967v6.433h1.967Zm-2.135-8.4a1.151 1.151 0 1 0 2.303.001 1.151 1.151 0 0 0-2.303-.001Zm3.405 8.762c.181 1.152 1.359 2.291 3.21 2.291 2.407 0 3.442-1.605 3.442-3.456v-5.63h-1.876v.686c-.181-.336-.738-.802-1.786-.802-1.76 0-2.99 1.449-2.99 3.145 0 1.786 1.282 3.132 2.99 3.132.932 0 1.488-.376 1.721-.725v.298c0 1.164-.608 1.643-1.592 1.643-.737 0-1.255-.453-1.384-1.074l-1.735.492Zm3.352-2.343c-.789 0-1.385-.543-1.385-1.423s.648-1.424 1.385-1.424c.738 0 1.372.544 1.372 1.424 0 .88-.569 1.423-1.372 1.423Zm9.052-4.452a1.982 1.982 0 0 0-.518-.064c-.517 0-1.333.207-1.669.932v-.868h-1.903v6.433h1.968v-2.809c0-1.281.711-1.747 1.501-1.747.194 0 .401.013.621.065v-1.942Zm.856 4.66c0 1.022.815 1.954 2.226 1.954.854 0 1.475-.363 1.811-.906 0 .44.052.673.065.725h1.773a6.36 6.36 0 0 1-.077-.997v-3.145c0-1.32-.764-2.485-2.848-2.485-1.889 0-2.743 1.217-2.821 2.136l1.708.349c.039-.479.414-.945 1.1-.945.622 0 .945.324.945.699 0 .22-.116.389-.466.44l-1.514.233c-1.061.156-1.902.803-1.902 1.942Zm2.704.53c-.543 0-.763-.323-.763-.66 0-.453.31-.647.725-.712l1.216-.194v.285c0 .996-.595 1.281-1.178 1.281Zm7.041-7.066h-1.76v.828c0 .596-.324 1.048-.997 1.048h-.323v1.722h1.139v2.756c0 1.282.815 2.071 2.148 2.071.621 0 .945-.142 1.022-.181v-1.631c-.116.026-.31.065-.517.065-.427 0-.712-.142-.712-.673v-2.407h1.255v-1.722h-1.255v-1.876Zm4.617 8.309v-6.433h-1.968v6.433h1.968Zm-2.136-8.4c0 .634.518 1.152 1.139 1.152.647 0 1.165-.518 1.165-1.152a1.151 1.151 0 0 0-2.304 0Zm5.826 4.711c0-.647.414-1.126 1.061-1.126.712 0 1.048.479 1.048 1.113v3.702h1.968v-4.038c0-1.411-.725-2.563-2.343-2.563-.66 0-1.449.298-1.799.906v-.738h-1.902v6.433h1.967v-3.689Zm5.277 4.051c.181 1.152 1.359 2.291 3.209 2.291 2.407 0 3.443-1.605 3.443-3.456v-5.63h-1.877v.686c-.181-.336-.737-.802-1.786-.802-1.76 0-2.989 1.449-2.989 3.145 0 1.786 1.281 3.132 2.989 3.132.932 0 1.489-.376 1.722-.725v.298c0 1.164-.609 1.643-1.592 1.643-.738 0-1.256-.453-1.385-1.074l-1.734.492Zm3.352-2.343c-.79 0-1.385-.543-1.385-1.423s.647-1.424 1.385-1.424c.737 0 1.371.544 1.371 1.424 0 .88-.569 1.423-1.371 1.423Zm-46.653 17.981v-3.43h3.391v-1.864h-3.404v-1.941h3.87v-1.941h-5.915v9.176h2.058Zm7.715-1.618c-.738 0-1.45-.531-1.45-1.605 0-1.087.712-1.592 1.45-1.592.75 0 1.449.505 1.449 1.592 0 1.087-.699 1.605-1.449 1.605Zm0-5.009c-1.916 0-3.417 1.411-3.417 3.404 0 1.993 1.501 3.417 3.417 3.417 1.928 0 3.416-1.424 3.416-3.417 0-1.993-1.488-3.404-3.416-3.404Zm8.772.194a1.974 1.974 0 0 0-.517-.064c-.518 0-1.333.207-1.67.932v-.868h-1.902v6.433h1.967v-2.809c0-1.281.712-1.747 1.501-1.747.194 0 .401.013.621.065v-1.942Zm3.161 6.433v-3.702c0-.582.375-1.113 1.061-1.113.712 0 1.035.479 1.035 1.087v3.728h1.941v-3.715c0-.569.376-1.1 1.075-1.1s1.022.479 1.022 1.087v3.728h1.902v-4.168c0-1.747-1.164-2.459-2.381-2.459-.867 0-1.488.285-1.993 1.01-.323-.634-.983-1.01-1.902-1.01-.699 0-1.527.363-1.851.932v-.738h-1.877v6.433h1.968Zm9.167-1.825c.052.712.699 2.019 2.718 2.019 1.721 0 2.562-1.074 2.562-2.175 0-.944-.647-1.747-1.98-2.018l-.854-.169c-.285-.051-.505-.207-.505-.479 0-.336.324-.556.699-.556.596 0 .867.362.919.789l1.631-.297c-.065-.751-.712-1.916-2.576-1.916-1.436 0-2.471.958-2.471 2.136 0 .906.543 1.682 1.915 1.98l.738.168c.478.104.634.298.634.531 0 .284-.246.556-.751.556-.673 0-.983-.427-1.009-.867l-1.67.298Zm6.482.608c0 .712.595 1.333 1.32 1.333.725 0 1.333-.621 1.333-1.333 0-.725-.608-1.32-1.333-1.32s-1.32.595-1.32 1.32Zm4.234 0c0 .712.595 1.333 1.32 1.333.724 0 1.333-.621 1.333-1.333 0-.725-.609-1.32-1.333-1.32-.725 0-1.32.595-1.32 1.32Zm4.233 0c0 .712.596 1.333 1.321 1.333.724 0 1.333-.621 1.333-1.333 0-.725-.609-1.32-1.333-1.32-.725 0-1.321.595-1.321 1.32Z" fill="#44A4C9"/><path opacity=".8" d="M316.41 301.848a10.327 10.327 0 0 1 1.913-4.832l-3.582-3.749a15.716 15.716 0 0 0-3.405 8.581h5.074Z" fill="#398EAE"/><path opacity=".1" d="M327.244 287.848v5.303a9.402 9.402 0 0 1 4.616 2.003l3.582-3.75c-2.26-1.986-5.096-3.277-8.198-3.556Z" fill="#398EAE"/><path opacity=".7" d="M318.331 309.316a10.27 10.27 0 0 1-1.913-4.832h-5.066a15.687 15.687 0 0 0 3.404 8.581l3.575-3.749Z" fill="#398EAE"/><path d="M320.11 295.154a9.33 9.33 0 0 1 4.616-2.003v-5.303c-3.11.279-5.938 1.57-8.198 3.564l3.582 3.742Z" fill="#398EAE"/><path opacity=".3" d="M335.553 304.484a10.353 10.353 0 0 1-1.913 4.832l3.582 3.749a15.715 15.715 0 0 0 3.404-8.581h-5.073Z" fill="#398EAE"/><path opacity=".2" d="M333.64 297.016a10.265 10.265 0 0 1 1.913 4.832h5.066a15.677 15.677 0 0 0-3.405-8.581l-3.574 3.749Z" fill="#398EAE"/><path opacity=".5" d="M324.726 313.189c-1.721-.232-3.302-.951-4.616-2.002l-3.582 3.749c2.252 1.986 5.088 3.285 8.198 3.563v-5.31Z" fill="#398EAE"/><path opacity=".4" d="M331.853 311.179a9.342 9.342 0 0 1-4.616 2.002v5.303c3.109-.278 5.938-1.569 8.198-3.564l-3.582-3.741Z" fill="#398EAE"/><path d="m79.069 313.647 7.71-5.255a24.294 24.294 0 0 0 6.569 2.798l1.629 8.999h8.118l1.629-9.288a26.882 26.882 0 0 0 6.66-2.627l7.658 5.255 5.728-5.728-5.255-7.658a26.035 26.035 0 0 0 2.798-6.66l9.117-1.629v-8.171l-9.104-1.616a25.615 25.615 0 0 0-2.811-6.66l5.255-7.645-5.728-5.727-7.658 5.372a41.892 41.892 0 0 0-6.568-2.627l-1.668-9.405h-8.066l-1.747 9.34a24.471 24.471 0 0 0-6.49 2.627l-7.658-5.255-5.727 5.373 5.254 8.184a20.782 20.782 0 0 0-2.627 6.568l-9.458 1.629v8.171l9.287 1.681a25.203 25.203 0 0 0 2.733 6.489l-5.19 7.593 5.61 5.872Z" fill="#D85528"/><path d="M93.913 293.299a6.74 6.74 0 0 0 5.11 2.101 6.775 6.775 0 0 0 4.965-1.878 7.172 7.172 0 0 0 1.603-2.798l7.711 1.458 2.443.525c0 .184-.696 2.05-.696 2.05a19.592 19.592 0 0 1-4.151 6.069 16.293 16.293 0 0 1-11.744 4.334 16.955 16.955 0 0 1-17.209-16.59 6.418 6.418 0 0 1 0-.71 16.72 16.72 0 0 1 5.137-12.44 16.852 16.852 0 0 1 12.505-5.031 16.036 16.036 0 0 1 12.151 5.031 16.893 16.893 0 0 1 3.337 4.966c.436.927.749 1.908.933 2.916l-9.997 1.852a6.635 6.635 0 0 0-6.844-4.847 6.685 6.685 0 0 0-5.189 2.154 7.615 7.615 0 0 0-2.049 5.452 7.621 7.621 0 0 0 1.984 5.386Z" fill="#fff"/><defs><linearGradient id="a" x1="589.342" y1="286.245" x2="596.904" y2="287.176" gradientUnits="userSpaceOnUse"><stop stop-color="#F1CEBA"/><stop offset="1" stop-color="#B8846F"/></linearGradient></defs></svg>