<svg width="657" height="571" fill="none" xmlns="http://www.w3.org/2000/svg"><path d="M652.229 325.018c-7.408 24.155-20.373 116.196-149.092 160.901-128.72 44.706-217.249-96.034-342.542-109.378C35.394 363.198-2.295 353.848 1.038 280.702 4.372 207.556 97.254 102.463 223.75 43.83 372.287-24.933 491.006-4.48 563.607 55.615c101.494 84.152 98.531 237.359 88.622 269.403Z" fill="#DAE6FF"/><path d="M446.28 431.878s-22.159 74.548-61.315 87.783l61.315-87.783Z" fill="#C6D6F9"/><path d="M443.483 482.675s-10.54-34.01 1.669-57.322l-1.669 57.322Z" fill="#C6D6F9"/><path d="M442.542 488.192c6.169-.037 4.742-10.279-.4-10.176-5.163.186-5.173 10.266.4 10.176ZM432.527 484.638c6.169-.038 4.742-10.279-.401-10.176-5.142.103-5.153 10.183.401 10.176Z" fill="#C6D6F9"/><path d="M439.574 461.512c-.623.81-6.637 4.274-7.317 16.109l7.317-16.109ZM447.891 471.971c-6.114.919-6.23-9.364-1.117-10.082 5.011-.656 6.597 9.275 1.117 10.082Z" fill="#C6D6F9"/><path d="M439.302 450.41c.708.687 5.312 2.891 7.786 14.594l-7.786-14.594Z" fill="#C6D6F9"/><path d="M422.387 444.019c3.772-5.831 13.947-10.336 14.547-10.66-.684.322-11.368 4.815-18.342 2.462-7.226-2.444-19.483-10.831-19.483-10.831s15.635-6.326 24.771-6.037c8.714.28 16.015 6.951 16.594 7.555-.664-.606-8.369-8.131-11.635-17.247-3.512-9.544-1.612-26.319-1.612-26.319s16.126 5.77 22.421 23.32c2.231 6.22 1.951 14.918 2.327 17.039 3.221-22.83 29.988-31.019 29.988-31.019s2.446 11.717-2.577 20.562c-4.94 8.848-22.447 15.639-22.447 15.639s12.781-3.686 21.339-.198c8.388 3.484 16.798 9.757 16.798 9.757s-13.894 7.971-25.972 6.686c-7.516-.845-11.936-3.817-14.258-5.982 2.553 3.184 6.911 8.944 8.225 14.551 1.933 8.156.704 21.481.704 21.481s-16.069-12.107-18.939-20.03c-2.87-7.924-.503-15.308-.503-15.308s-4.645 14.601-12.657 20.759c-8.011 6.159-14.54 6.604-14.54 6.604s1.307-16.788 5.251-22.784Z" fill="#C6D6F9"/><path d="M446.65 422.928c-12.575 2-8.265 17.477 1.727 17.363 12.277-.063 10.847-19.363-1.727-17.363Z" fill="#C6D6F9"/><path d="M450.705 427.075c-4.428-2.634-8.641 4.032-5.172 7.913 3.471 3.796 11.606-4.135 5.172-7.913Z" fill="#C6D6F9"/><path d="M187.587 327.06c-2.061-3.749-5.807-7.31-9.929-9.56-.187-5.81-2.997-11.621-7.306-16.12 2.248-2.811 3.185-6.56 2.81-10.122-.187-2.624-1.873-5.81-4.309-8.434.75-.375 1.312-.75 1.874-1.125.187-.188.374-.375.562-.375.374-.375.749-.562 1.124-.937l.562-.563c.374-.374.749-.562.936-.937.188-.187.375-.375.562-.75.375-.374.562-.749.937-1.124.187-.188.375-.563.562-.75.187-.375.562-.75.749-1.125.188-.187.375-.562.562-.749.188-.375.562-.938.75-1.312.187-.188.187-.563.374-.75.375-.563.562-1.312.937-1.875 0 0 0-.187.187-.187.375-.75.562-1.5.75-2.249 0-.188.187-.563.187-.75.188-.562.375-.937.375-1.5 0-.375.187-.562.187-.937.188-.375.187-.937.375-1.312 0-.375.187-.75.187-.937 0-.375.187-.937.187-1.312s.001-.75.188-1.125c0-.375 0-.937.187-1.312V253.395c0-1.499-.187-2.999-.375-4.498-1.124-6.748-4.121-13.309-9.741-17.433-1.311-.937-2.81-1.687-4.121-2.249 13.488-15.37-.562-38.8-17.984-48.922.936-4.311 1.124-8.81.562-12.184-1.312-7.498-6.932-14.433-13.863-16.307-3.934-19.494-30.348-34.864-48.52-32.053-16.298 2.624-28.287 15.933-31.472 30.928-3.56.375-6.931 2.249-10.116 4.686-.75.562-1.499 1.312-2.248 1.875l-.562.562c-.562.562-1.124 1.124-1.686 1.874l-.375.375c-.562.75-1.311 1.5-1.873 2.437 0 .187-.187.187-.187.375-.562.75-.937 1.499-1.312 2.062-.187.187-.187.375-.374.749l-1.124 2.25c0 .187-.188.187-.188.375-.374.937-.75 1.687-1.124 2.624-.187 0-.187.187-.187.375-.188.562-.562 1.312-.75 1.874 0 .188-.187.562-.187.75-.187.75-.375 1.687-.562 2.437-1.498 6.935-.75 14.807 1.873 21.93-9.553 6.373-15.736 17.432-16.86 29.804-.562 8.247.188 19.119 6.745 24.929-4.684 8.997-3.747 20.244 2.06 29.241 2.06 3.187 4.87 5.623 8.055 7.31-.187 0-.187.188-.374.188-5.807 3.749-9.741 10.309-10.865 17.057-.937 5.248-.188 10.872 2.435 15.558-2.248 1.874-3.747 4.311-4.309 7.497 0 .375-.187.938-.187 1.313v1.686c0 1.125.187 2.062.562 3.187.187.562.374.937.562 1.5-.375.374-.75.937-1.124 1.499-2.06 2.624-3.185 5.811-3.56 9.185 0 .562-.187 1.124-.187 1.687-.187 2.249 0 4.498.375 6.748.562 2.811 1.311 5.623 2.435 8.06 3.185 7.31 9.742 13.495 17.797 14.433.187.562.375 1.312.75 1.874.561 1.312 1.123 2.624 1.685 3.749 1.499 2.999 3.747 5.623 7.119 6.748 3.372 1.124 6.744.562 9.929-1.312 5.245 7.31 12.738 11.808 22.105 9.747.937 2.624 1.874 5.248 2.623 8.06 1.124 3.936 1.873 7.872 2.435 11.996.562 3.936 1.124 8.06 1.499 11.996-2.06 23.993-5.058 47.798-9.929 71.228v.75c0 .75.188 1.499.75 2.062l.562.562c.562.562 1.31.75 2.06.75h.75c13.675.187 27.35.187 41.026.375 1.873 0 4.121-2.25 3.184-4.124-3.184-7.685-5.807-15.558-8.055-23.43-1.499-9.935-2.435-20.057-3.185-30.178-.374-4.686-.749-9.373-.936-14.059.374-3.936.936-7.872 1.498-11.808.375-2.625.937-5.249 1.499-7.685.187-.75.375-1.313.375-2.062 5.245 2.624 11.427 3.561 16.86.749 3.372-1.687 5.807-4.498 7.493-7.497 1.686.562 3.56.937 5.433.937 1.311 0 2.435 0 3.747-.187 1.873-.375 3.746-.938 5.432-1.875 5.433-2.812 9.18-8.435 11.428-14.808a45.184 45.184 0 0 0 2.248-11.996l1.124-.562c.374-.188.749-.375 1.124-.75l2.248-1.687c1.311-1.312 2.622-2.812 3.559-4.499.562-.937 1.124-2.062 1.311-2.999.188-.937.562-2.062.562-3.186v-1.687c-.187-1.687-.749-3.187-1.686-4.686l-.187-.188c.562-.375.937-.937 1.499-1.499l.374-.375c.375-.375.75-.937 1.312-1.312l.187-.188c.375-.562.937-.937 1.312-1.499.187-.188.374-.375.374-.563.375-.375.562-.749.937-1.124.187-.188.187-.375.375-.563.374-.562.749-.937 1.124-1.499.187-.188.374-.562.562-.75.187-.375.374-.562.562-.937l.562-1.125c.187-.375.374-.75.749-1.312.187-.375.375-.562.375-.937.187-.187.187-.562.374-.75.188-.562.375-.937.562-1.499.188-.375.188-.563.375-.938.187-.374.187-.749.375-1.124 0-.188.187-.563.187-.75 0-.375.187-.75.187-1.125 0-.562.188-.937.188-1.499.187-3.374-.375-7.31-2.623-11.059Z" fill="#EBF2FF"/><path d="M207.33 362.074c-1.674-3.046-4.718-5.939-8.067-7.767-.152-4.72-2.435-9.441-5.935-13.096 1.826-2.284 2.587-5.33 2.283-8.223-.153-2.132-1.522-4.721-3.501-6.853.609-.305 1.065-.609 1.522-.914.152-.152.304-.305.457-.305.304-.304.608-.456.913-.761l.456-.457c.305-.304.609-.457.761-.761.153-.153.305-.305.457-.609.304-.305.457-.61.761-.914.152-.152.304-.457.457-.609.152-.305.456-.609.608-.914.153-.152.305-.457.457-.609.152-.305.457-.762.609-1.066.152-.152.152-.457.304-.609.305-.457.457-1.066.761-1.523 0 0 0-.152.152-.152.305-.61.457-1.219.609-1.828 0-.152.152-.457.152-.609.153-.457.305-.761.305-1.218 0-.305.152-.457.152-.762.152-.304.152-.761.304-1.066 0-.304.153-.609.153-.761 0-.305.152-.761.152-1.066 0-.305 0-.609.152-.914 0-.304 0-.761.152-1.066v-4.416c0-1.218-.152-2.437-.304-3.655-.913-5.482-3.349-10.812-7.915-14.162-1.065-.762-2.283-1.371-3.348-1.828 10.958-12.487-.457-31.523-14.611-39.746.761-3.503.913-7.157.457-9.899-1.066-6.091-5.632-11.726-11.263-13.248-3.196-15.838-24.656-28.325-39.419-26.041-13.241 2.132-22.982 12.944-25.569 25.127-2.892.304-5.632 1.827-8.219 3.807-.609.457-1.218 1.066-1.826 1.523l-.457.457c-.457.457-.913.913-1.37 1.523l-.304.304c-.457.609-1.066 1.218-1.522 1.98 0 .152-.152.152-.152.304-.457.61-.761 1.219-1.066 1.676-.152.152-.152.304-.304.609l-.913 1.827c0 .152-.153.152-.153.305-.304.761-.608 1.37-.913 2.132-.152 0-.152.152-.152.304-.152.457-.457 1.066-.609 1.523 0 .152-.152.457-.152.609-.152.609-.304 1.371-.456 1.98-1.218 5.634-.61 12.03 1.521 17.817-7.762 5.178-12.784 14.163-13.697 24.214-.457 6.7.152 15.533 5.479 20.253-3.805 7.31-3.044 16.447 1.674 23.757 1.674 2.589 3.957 4.568 6.544 5.939-.152 0-.152.152-.304.152-4.718 3.046-7.914 8.376-8.827 13.858-.761 4.264-.153 8.833 1.978 12.64-1.826 1.523-3.044 3.502-3.5 6.091 0 .305-.153.762-.153 1.066v1.371c0 .913.153 1.675.457 2.589.152.456.304.761.457 1.218-.305.304-.61.761-.913 1.218-1.675 2.132-2.588 4.721-2.892 7.462 0 .457-.153.914-.153 1.371-.152 1.827 0 3.654.305 5.482.456 2.284 1.065 4.568 1.978 6.548 2.588 5.939 7.915 10.965 14.46 11.726.151.457.304 1.066.608 1.523.457 1.066.913 2.132 1.37 3.046 1.217 2.436 3.044 4.568 5.783 5.482 2.74.914 5.479.457 8.067-1.066 4.261 5.939 10.349 9.594 17.959 7.919.761 2.132 1.522 4.264 2.131 6.548.913 3.198 1.522 6.396 1.978 9.746.457 3.198.914 6.548 1.218 9.746-1.674 19.493-4.109 38.833-8.066 57.869v.609c0 .609.152 1.218.608 1.675l.457.457c.457.457 1.065.609 1.674.609h.609c11.11.152 22.221.152 33.331.304 1.522 0 3.349-1.827 2.588-3.35-2.588-6.243-4.719-12.639-6.545-19.035-1.217-8.072-1.978-16.295-2.587-24.518-.305-3.807-.609-7.615-.761-11.422.304-3.198.761-6.396 1.217-9.594.305-2.132.761-4.264 1.218-6.243.152-.609.304-1.066.304-1.675 4.262 2.132 9.284 2.893 13.698.609 2.74-1.371 4.718-3.655 6.088-6.092 1.37.457 2.892.762 4.414.762 1.065 0 1.978 0 3.044-.152 1.522-.305 3.044-.762 4.413-1.523 4.414-2.285 7.458-6.853 9.284-12.031a36.645 36.645 0 0 0 1.827-9.746l.913-.457c.304-.152.609-.304.913-.609l1.827-1.371c1.065-1.066 2.13-2.284 2.891-3.654.457-.762.914-1.676 1.066-2.437.152-.761.456-1.675.456-2.589v-1.37c-.152-1.371-.608-2.589-1.369-3.808l-.153-.152c.457-.304.761-.761 1.218-1.218l.304-.305c.305-.304.609-.761 1.066-1.066l.152-.152c.304-.457.761-.761 1.065-1.218.152-.153.305-.305.305-.457.304-.305.456-.609.761-.914.152-.152.152-.304.304-.457.304-.456.609-.761.913-1.218.152-.152.305-.457.457-.609.152-.305.304-.457.456-.761l.457-.914c.152-.305.304-.609.609-1.066.152-.305.304-.457.304-.762.152-.152.152-.456.305-.609.152-.457.304-.761.456-1.218.152-.305.152-.457.305-.761.152-.305.152-.61.304-.914 0-.152.152-.457.152-.609 0-.305.152-.609.152-.914 0-.457.153-.761.153-1.218.152-2.741-.305-5.939-2.131-8.985Z" fill="#F3F7FF"/><path d="M493.625 47.316c-9.748 75.728-90.603 138.527-90.603 138.527" stroke="#D7761C" stroke-miterlimit="10" stroke-dasharray="11 11"/><g filter="url(#a)"><path d="M487.915 121.613c26.969 0 48.832-21.863 48.832-48.832 0-26.97-21.863-48.832-48.832-48.832s-48.832 21.863-48.832 48.832c0 26.97 21.863 48.832 48.832 48.832Z" fill="url(#b)"/><path d="M482.418 92.65c-.23 3.348 2.293 6.35 5.619 6.58 3.326.231 6.308-2.308 6.538-5.656l-6.538-6.58c-3.096.115-5.505 2.54-5.619 5.656ZM502.144 83.877l6.078-6.58c-5.046-5.541-12.271-8.774-19.726-8.774-2.638 0-5.161.347-7.684 1.155l7.684 8.08c5.161 0 10.093 2.194 13.648 6.119ZM475.996 73.141a35.964 35.964 0 0 0-5.849 4.502l6.078 6.234c1.72-1.732 3.785-3.233 6.079-4.156l-6.308-6.58ZM514.531 71.64l5.849-6.233c-8.143-8.774-19.497-13.622-31.31-13.738-7.111 0-14.107 1.848-20.414 5.195l6.307 6.58c4.473-1.962 9.175-3.001 13.992-3.001 9.749 0 18.924 4.04 25.576 11.197ZM463.953 60.905a46.778 46.778 0 0 0-5.963 4.733l6.193 5.887a46.717 46.717 0 0 1 5.964-4.733l-6.194-5.887Z" fill="#B5B9DB"/><path d="m508.337 100.731-48.742-50.562 2.982-3.002 48.742 50.563-2.982 3.001Z" fill="#B5B9DB"/></g><path d="M427.225 172.148h-3.622V84.415c-.043-8.314-3.334-16.27-9.15-22.12-5.817-5.848-13.681-9.11-21.864-9.066H180.111c-8.183-.043-16.047 3.218-21.863 9.067-5.816 5.848-9.108 13.805-9.15 22.119v44.755h-3.846a2.154 2.154 0 0 0-1.535.637 2.22 2.22 0 0 0-.642 1.553v18.475a2.204 2.204 0 0 0 .642 1.553c.202.203.442.364.705.473.263.109.545.165.83.163h3.846v20.118h-3.797a2.206 2.206 0 0 0-1.57.651 2.286 2.286 0 0 0-.658 1.589v36.916a2.285 2.285 0 0 0 .658 1.588 2.206 2.206 0 0 0 1.57.651h3.797v11.177h-3.797a2.193 2.193 0 0 0-1.57.651 2.29 2.29 0 0 0-.658 1.589v36.91c.002.295.061.588.174.861a2.241 2.241 0 0 0 1.205 1.212c.27.111.558.168.849.166h3.797v272.842c.042 8.314 3.334 16.271 9.15 22.119 5.816 5.849 13.68 9.11 21.863 9.067h212.478c8.183.043 16.047-3.218 21.864-9.067 5.816-5.848 9.107-13.805 9.15-22.119v-314.23h3.622a2.198 2.198 0 0 0 1.57-.651c.417-.42.654-.991.657-1.588v-48.087a2.285 2.285 0 0 0-.657-1.589 2.224 2.224 0 0 0-.721-.485 2.175 2.175 0 0 0-.849-.167Z" fill="#C5DBFF" style="mix-blend-mode:multiply"/><path d="M425.333 173.989h-3.569V86.663c0-8.233-3.218-16.128-8.947-21.95-5.729-5.82-13.5-9.091-21.602-9.091H181.912c-8.103 0-15.873 3.27-21.602 9.092-5.729 5.82-8.948 13.716-8.948 21.949v44.549h-3.789c-.569 0-1.115.23-1.517.639a2.197 2.197 0 0 0-.628 1.541v18.393a2.205 2.205 0 0 0 .628 1.541 2.133 2.133 0 0 0 1.517.639h3.789v20.024h-3.74a2.166 2.166 0 0 0-1.552.653 2.266 2.266 0 0 0-.643 1.577v36.741a2.245 2.245 0 0 0 .643 1.576 2.197 2.197 0 0 0 1.552.653h3.739v11.12h-3.739a2.166 2.166 0 0 0-1.552.653 2.266 2.266 0 0 0-.643 1.577v36.74c0 .292.057.582.167.853a2.222 2.222 0 0 0 1.188 1.207c.266.112.552.17.84.17h3.739v271.579c0 8.233 3.218 16.129 8.948 21.95 5.729 5.821 13.499 9.092 21.601 9.092h209.305c8.102 0 15.873-3.271 21.602-9.092 5.729-5.821 8.947-13.717 8.947-21.95V226.314h3.569a2.176 2.176 0 0 0 1.551-.653 2.238 2.238 0 0 0 .642-1.577v-47.865a2.245 2.245 0 0 0-.642-1.576 2.163 2.163 0 0 0-1.551-.654Z" fill="#fff"/><path d="M393.113 65.492h-213.27c-9.749 0-17.653 8.03-17.653 17.936v457.409c0 9.906 7.904 17.936 17.653 17.936h213.27c9.75 0 17.653-8.03 17.653-17.936V83.428c0-9.906-7.903-17.936-17.653-17.936Z" fill="#6DBCDB"/><path d="M183.344 139.72h204.128c1.873 0 3.669.795 4.993 2.21 1.324 1.415 2.068 3.335 2.068 5.336v393.14c0 2.002-.744 3.921-2.068 5.337-1.324 1.415-3.12 2.21-4.993 2.21H183.344c-1.872 0-3.668-.795-4.993-2.21-1.324-1.416-2.068-3.335-2.068-5.337v-393.14c0-2.001.744-3.921 2.068-5.336 1.325-1.415 3.121-2.21 4.993-2.21Z" fill="#C9E6F1"/><path d="M211.636 124.373c2.969.055 4.527-1.885 4.96-3.503l-1.913-.618c-.302.979-1.204 2.141-3.009 2.108-1.7-.032-3.258-1.3-3.216-3.552.045-2.401 1.736-3.504 3.317-3.474 1.835.034 2.634 1.168 2.869 2.187l1.95-.575c-.385-1.723-1.858-3.541-4.782-3.596-2.833-.053-5.424 2.047-5.487 5.418-.063 3.371 2.358 5.55 5.311 5.605Zm5.844-2.114c-.022 1.149.913 2.225 2.479 2.255 1.089.02 1.8-.474 2.183-1.049-.005.284.017.687.059.882l1.819.034a8.271 8.271 0 0 1-.068-1.166l.068-3.609c.027-1.477-.813-2.805-3.14-2.849-1.969-.037-3.051 1.211-3.192 2.358l1.753.405c.071-.64.559-1.183 1.424-1.167.835.016 1.23.456 1.22.978-.004.254-.143.46-.561.512l-1.81.235c-1.226.156-2.21.869-2.234 2.181Zm2.925.786c-.642-.012-.947-.436-.939-.868.01-.567.418-.843.927-.908l1.66-.223-.006.329c-.024 1.297-.807 1.685-1.642 1.67Zm7.509 1.408.08-4.295c.015-.806.534-1.438 1.399-1.421.895.016 1.287.62 1.272 1.411l-.081 4.355 1.969.037.08-4.296c.015-.79.534-1.437 1.384-1.421.91.017 1.287.621 1.272 1.411l-.082 4.355 1.925.036.088-4.758c.037-1.968-1.245-2.813-2.602-2.838-.97-.018-1.752.295-2.35 1.179-.358-.797-1.155-1.245-2.155-1.263-.805-.015-1.752.355-2.168 1.063l.017-.895-1.895-.035-.137 7.338 1.984.037Zm13.158 3.081.066-3.55c.349.499 1.087.916 2.102.934 2.073.039 3.491-1.576 3.532-3.798.041-2.178-1.167-3.841-3.314-3.881-1.104-.021-1.934.456-2.272 1.016l.016-.894-1.924-.036-.19 10.172 1.984.037Zm3.746-6.436c-.025 1.313-.844 2.059-1.858 2.04-1.015-.019-1.821-.81-1.796-2.108.024-1.297.858-2.043 1.873-2.024 1.014.019 1.805.795 1.781 2.092Zm11.753-3.48c-.149-.018-.298-.036-.462-.039-.626-.011-1.644.149-2.109 1.11l.02-1.089-1.924-.036-.137 7.338 1.984.037.062-3.356c.03-1.581.919-2.056 1.933-2.037.179.003.373.021.596.07l.037-1.998Zm2.716 2.915c.057-.67.639-1.435 1.668-1.416 1.133.021 1.597.746 1.613 1.477l-3.281-.061Zm3.44 1.974c-.251.652-.767 1.105-1.692 1.088-.984-.019-1.791-.735-1.818-1.705l5.25.098c.001-.03.036-.328.041-.611.044-2.357-1.286-3.829-3.553-3.871-1.879-.035-3.638 1.454-3.682 3.795-.046 2.476 1.702 3.956 3.716 3.994 1.804.033 2.987-1.004 3.384-2.265l-1.646-.523Zm2.744 3.05c.182 1.406 1.501 2.684 3.515 2.722 2.759.051 3.882-1.763 3.92-3.776l.122-6.548-1.909-.036-.016.865c-.245-.497-.906-1.016-2.07-1.038-2.013-.038-3.446 1.577-3.482 3.516-.039 2.058 1.395 3.592 3.349 3.628 1.059.02 1.754-.429 2.061-.901l-.01.537c-.027 1.417-.739 2.03-1.992 2.007-.94-.018-1.57-.612-1.69-1.419l-1.798.443Zm3.804-2.361c-1.029-.019-1.747-.748-1.725-1.897.021-1.133.81-1.835 1.794-1.816.955.017 1.717.748 1.696 1.881-.021 1.134-.751 1.851-1.765 1.832Zm7.609 2.172.137-7.339-1.984-.037-.137 7.339 1.984.037Zm-2.041-9.781a1.226 1.226 0 0 0 1.201 1.231 1.216 1.216 0 0 0 1.245-1.186 1.223 1.223 0 0 0-1.2-1.261 1.233 1.233 0 0 0-1.246 1.216Zm3.576 7.765c.074.837.808 2.283 3.015 2.324 1.924.036 2.872-1.169 2.894-2.363.02-1.073-.694-1.967-2.135-2.292l-1.04-.244c-.402-.082-.666-.311-.659-.668.008-.418.431-.724.953-.714.835.016 1.138.574 1.19 1.007l1.662-.342c-.074-.792-.75-2.132-2.839-2.171-1.581-.03-2.764 1.037-2.789 2.35-.019 1.029.606 1.891 2.017 2.231l.966.241c.564.13.783.403.777.731-.007.388-.327.725-.983.713-.865-.016-1.288-.561-1.322-1.144l-1.707.341Zm10.087-7.301-1.789-.034-.02 1.029c-.012.657-.379 1.157-1.155 1.143l-.373-.007-.033 1.76 1.328.024-.064 3.416c-.027 1.417.853 2.284 2.284 2.31.582.011.942-.086 1.122-.158l.031-1.64a2.907 2.907 0 0 1-.613.048c-.566-.011-.861-.225-.849-.866l.058-3.073 1.476.028.033-1.76-1.477-.028.041-2.192Zm7.494 2.303a4.428 4.428 0 0 0-.462-.038c-.626-.012-1.644.148-2.109 1.109l.02-1.089-1.924-.036-.137 7.339 1.984.037.062-3.356c.03-1.581.919-2.057 1.933-2.038.179.003.373.022.596.071l.037-1.999Zm.892 5.388c-.022 1.148.913 2.225 2.479 2.255 1.089.02 1.799-.474 2.183-1.049-.005.283.017.687.058.881l1.82.034a8.246 8.246 0 0 1-.068-1.165l.067-3.609c.028-1.477-.813-2.805-3.139-2.849-1.969-.037-3.052 1.211-3.192 2.358l1.753.405c.071-.64.559-1.183 1.424-1.167.835.016 1.23.456 1.22.978-.005.254-.143.46-.562.512l-1.809.235c-1.227.156-2.21.868-2.234 2.181Zm2.924.786c-.641-.012-.947-.436-.938-.868.01-.567.418-.843.927-.908l1.66-.223-.006.328c-.024 1.298-.808 1.686-1.643 1.671Zm8.106-8.115-1.79-.033-.019 1.029c-.012.656-.379 1.157-1.155 1.142l-.373-.007-.033 1.76 1.328.025-.064 3.416c-.027 1.416.852 2.283 2.284 2.31.582.011.942-.087 1.122-.158l.031-1.641a2.894 2.894 0 0 1-.613.049c-.566-.011-.861-.225-.849-.867l.057-3.072 1.477.027.033-1.76-1.477-.027.041-2.193Zm4.968 9.627.137-7.338-1.984-.037-.137 7.338 1.984.037Zm-2.041-9.781a1.227 1.227 0 0 0 1.201 1.231 1.215 1.215 0 0 0 1.245-1.185 1.223 1.223 0 0 0-1.2-1.261 1.232 1.232 0 0 0-1.246 1.215Zm7.49 8.301c-.969-.018-1.851-.75-1.825-2.123.026-1.387.934-2.071 1.903-2.053.97.018 1.852.736 1.826 2.123-.026 1.387-.934 2.071-1.904 2.053Zm.112-5.981c-2.193-.041-3.879 1.554-3.921 3.821-.042 2.252 1.583 3.924 3.776 3.965 2.192.041 3.878-1.569 3.92-3.821.043-2.267-1.583-3.924-3.775-3.965Zm7.335 3.479c.016-.85.536-1.511 1.401-1.495.954.018 1.345.666 1.33 1.487l-.08 4.28 1.984.037.086-4.623c.03-1.611-.781-2.924-2.601-2.958-.79-.015-1.677.312-2.138 1.064l.017-.91-1.924-.036-.137 7.338 1.983.037.079-4.221Zm12.555 4.457.077-4.116 4.102.076.035-1.894-4.116-.077.048-2.61 4.624.086.037-1.953-6.682-.125-.198 10.575 2.073.038Zm8.998-1.413c-.969-.018-1.851-.751-1.825-2.123.026-1.387.934-2.072 1.903-2.053.97.018 1.852.735 1.826 2.123-.026 1.387-.934 2.071-1.904 2.053Zm.112-5.981c-2.192-.041-3.878 1.554-3.921 3.821-.042 2.252 1.583 3.924 3.776 3.965 2.192.04 3.878-1.569 3.92-3.821.043-2.268-1.582-3.924-3.775-3.965Zm9.885.378c-.149-.017-.298-.035-.462-.038-.626-.012-1.644.148-2.109 1.109l.02-1.088-1.924-.036-.137 7.338 1.984.037.062-3.356c.03-1.581.919-2.057 1.933-2.038.179.004.373.022.596.071l.037-1.999Zm3.241 7.432.081-4.296c.015-.805.534-1.437 1.399-1.421.895.017 1.286.621 1.272 1.411l-.082 4.355 1.969.037.08-4.295c.015-.791.534-1.438 1.385-1.422.909.017 1.286.621 1.271 1.412l-.081 4.355 1.924.036.089-4.758c.037-1.969-1.246-2.814-2.603-2.839-.969-.018-1.751.296-2.349 1.18-.359-.798-1.156-1.245-2.155-1.264-.806-.015-1.753.355-2.169 1.064l.017-.895-1.894-.036-.137 7.339 1.983.037Z" fill="#fff"/><path d="M376.253 508.281h-179.55c-4.242 0-7.68 3.48-7.68 7.772v14.601c0 4.292 3.438 7.772 7.68 7.772h179.55c4.242 0 7.681-3.48 7.681-7.772v-14.601c0-4.292-3.439-7.772-7.681-7.772Z" fill="#FEC14F"/><path d="M271.588 520.549c-.22-1.087-1.115-2.492-3.415-2.492-1.818 0-3.319 1.349-3.319 2.988 0 1.46.992 2.437 2.479 2.74l1.377.29c.84.179 1.308.688 1.308 1.321 0 .758-.606 1.35-1.776 1.35-1.405 0-2.135-.936-2.231-1.955l-1.542.44c.151 1.405 1.294 3.002 3.773 3.002 2.231 0 3.456-1.446 3.456-2.96 0-1.377-.922-2.465-2.644-2.81l-1.404-.289c-.758-.165-1.143-.633-1.143-1.253 0-.743.688-1.404 1.68-1.404 1.308 0 1.817.895 1.914 1.501l1.487-.469Zm5.812 6.734c0 .275.027.592.055.744h1.528a11.11 11.11 0 0 1-.068-1.226v-5.481h-1.598v3.966c0 .882-.482 1.501-1.404 1.501-.964 0-1.35-.702-1.35-1.528v-3.939h-1.597v4.228c0 1.487.936 2.671 2.534 2.671.784 0 1.569-.33 1.9-.936Zm5.138.744v-.895c.386.647 1.116 1.06 2.066 1.06 1.955 0 3.153-1.529 3.153-3.553 0-1.969-1.088-3.498-3.098-3.498-1.033 0-1.804.482-2.107 1.006v-4.09h-1.57v9.97h1.556Zm3.608-3.374c0 1.322-.757 2.121-1.804 2.121-1.019 0-1.804-.799-1.804-2.121 0-1.336.785-2.093 1.804-2.093 1.06 0 1.804.757 1.804 2.093Zm4.73 3.374v-3.98c0-.854.537-1.487 1.391-1.487.909 0 1.295.606 1.295 1.377v4.09h1.569v-3.98c0-.826.551-1.487 1.391-1.487.895 0 1.295.592 1.295 1.377v4.09h1.542v-4.352c0-1.776-1.157-2.547-2.369-2.547-.867 0-1.652.303-2.175 1.184-.358-.785-1.13-1.184-2.011-1.184-.757 0-1.597.358-1.983 1.046v-.854h-1.528v6.707h1.583Zm12.022 0v-6.707h-1.583v6.707h1.583Zm-1.831-9.061c0 .578.468 1.033 1.033 1.033.578 0 1.046-.455 1.046-1.033 0-.579-.468-1.047-1.046-1.047-.565 0-1.033.468-1.033 1.047Zm5.916.303h-1.446v1.005c0 .592-.316 1.046-1.032 1.046h-.345v1.419h1.24v3.374c0 1.253.771 1.996 2.01 1.996.579 0 .881-.11.978-.151v-1.322a3.395 3.395 0 0 1-.551.055c-.592 0-.854-.248-.854-.84v-3.112h1.391v-1.419h-1.391v-2.051Z" fill="#fff"/><path d="M173.753 83.18c.107.24.287.44.514.57.226.13.488.184.746.153 1.379 0 1.892-1.356 1.847-3.018h-.069a1.929 1.929 0 0 1-.767.897c-.342.21-.74.305-1.138.273a2.379 2.379 0 0 1-.989-.179 2.42 2.42 0 0 1-.833-.573 2.456 2.456 0 0 1-.531-.867 2.501 2.501 0 0 1-.138-1.011 2.63 2.63 0 0 1 .784-1.973 2.553 2.553 0 0 1 1.969-.721c1.413 0 2.834.852 2.834 3.963 0 2.808-.964 4.258-2.992 4.258a2.13 2.13 0 0 1-1.543-.4 2.193 2.193 0 0 1-.852-1.368l1.158-.004Zm1.333-5.411a1.5 1.5 0 0 0-1.128.48 1.543 1.543 0 0 0-.411 1.17 1.518 1.518 0 0 0 .42 1.168 1.48 1.48 0 0 0 1.141.448 1.464 1.464 0 0 0 1.133-.44 1.515 1.515 0 0 0 .43-1.152 1.564 1.564 0 0 0-.416-1.204 1.523 1.523 0 0 0-1.165-.476l-.004.006ZM180.555 79.234a.852.852 0 0 1 .826.554c.043.11.063.23.059.35a.874.874 0 0 1-.253.639.848.848 0 0 1-.632.248.835.835 0 0 1-.614-.259.875.875 0 0 1-.242-.629.877.877 0 0 1 .237-.638.848.848 0 0 1 .619-.265Zm0 3.882a.841.841 0 0 1 .636.255.875.875 0 0 1 .249.648.865.865 0 0 1-.545.825.83.83 0 0 1-.34.056.828.828 0 0 1-.613-.255.864.864 0 0 1-.243-.626.877.877 0 0 1 .237-.639.849.849 0 0 1 .619-.264ZM187.854 76.888v5.283h.998v1.077h-.998v1.554h-1.111v-1.554h-3.78v-1.09c.957-1.761 2.092-3.51 3.177-5.261l1.714-.009Zm-1.111 5.283v-4.25h-.063c-.873 1.326-1.801 2.798-2.589 4.2v.05h2.652ZM192.057 84.796v-6.61h-.058l-1.796 1.303v-1.228l1.853-1.373h1.157v7.908h-1.156Z" fill="#EFEFE5"/><path d="M367.895 75.836h-1.089a.337.337 0 0 0-.334.34v8.28c0 .188.15.34.334.34h1.089a.337.337 0 0 0 .334-.34v-8.28a.336.336 0 0 0-.334-.34ZM364.682 78.228h-1.089a.337.337 0 0 0-.334.34v5.889c0 .187.15.34.334.34h1.089a.336.336 0 0 0 .334-.34v-5.89a.337.337 0 0 0-.334-.339ZM361.469 80.62h-1.088a.337.337 0 0 0-.334.34v3.497c0 .187.149.34.334.34h1.088a.337.337 0 0 0 .335-.34v-3.498c0-.187-.15-.34-.335-.34ZM358.256 83.011h-1.088a.337.337 0 0 0-.335.34v1.106c0 .187.15.34.335.34h1.088a.337.337 0 0 0 .335-.34V83.35c0-.188-.15-.34-.335-.34Z" fill="#EFEFE5" fill-opacity=".1"/><path opacity=".4" d="M400.546 76.692h-11.994c-.463 0-.907.188-1.234.52a1.786 1.786 0 0 0-.512 1.255v4.753c0 .47.184.922.512 1.255.327.332.771.52 1.234.52h11.994c.463-.001.907-.188 1.235-.52.327-.334.511-.784.512-1.255v-4.753a1.795 1.795 0 0 0-.512-1.254 1.738 1.738 0 0 0-1.235-.52Zm1.049 6.528c0 .282-.111.553-.307.753-.197.2-.464.312-.742.313h-11.994c-.278 0-.545-.113-.742-.313-.197-.2-.307-.47-.308-.753v-4.753c.001-.283.111-.554.308-.754.197-.2.464-.312.742-.312h11.994c.279 0 .545.113.742.313.197.2.307.47.307.753v4.753Z" fill="#EFEFE5"/><path d="M388.742 78.11h11.614c.144 0 .282.057.383.16a.555.555 0 0 1 .159.39v4.366a.562.562 0 0 1-.158.39.548.548 0 0 1-.383.16h-11.614a.536.536 0 0 1-.383-.16.558.558 0 0 1-.16-.39V78.66c0-.146.057-.285.159-.389a.536.536 0 0 1 .383-.16ZM403.964 80.844a.963.963 0 0 1-.276.677.933.933 0 0 1-.666.28v-1.913c.25 0 .49.1.666.28.177.179.276.422.276.676Z" fill="#EFEFE5"/><path fill-rule="evenodd" clip-rule="evenodd" d="m372.948 80.161-1.446-1.435a7.948 7.948 0 0 1 5.625-2.343c2.105 0 4.126.842 5.626 2.343l-1.421 1.453a5.996 5.996 0 0 0-4.188-1.731 5.995 5.995 0 0 0-4.199 1.704l.003.01Z" fill="#F9F9F0" fill-opacity=".1"/><path fill-rule="evenodd" clip-rule="evenodd" d="m375.009 82.289-1.431-1.42a5.017 5.017 0 0 1 3.53-1.474 5.018 5.018 0 0 1 3.539 1.452l-1.398 1.454a3.11 3.11 0 0 0-2.118-.844 3.108 3.108 0 0 0-2.122.832ZM378.515 83.02l-1.39 1.434c-.478-.478-.935-.944-1.4-1.417a2.052 2.052 0 0 1 1.392-.558 2.052 2.052 0 0 1 1.398.54Z" fill="#F9F9F0" fill-opacity=".1"/><path d="M220.022 62.237h133.924v11.195a18.24 18.24 0 0 1-5.212 12.789c-3.338 3.392-7.864 5.299-12.585 5.3h-98.324c-4.722 0-9.25-1.905-12.589-5.298a18.24 18.24 0 0 1-5.214-12.791V62.237Z" fill="#fff"/><path d="M300.974 73.433h-30.516c-1.17 0-2.119.964-2.119 2.153s.949 2.153 2.119 2.153h30.516c1.17 0 2.119-.964 2.119-2.153 0-1.19-.949-2.153-2.119-2.153ZM321.741 78.601c1.873 0 3.391-1.542 3.391-3.445 0-1.903-1.518-3.445-3.391-3.445-1.872 0-3.39 1.543-3.39 3.445 0 1.903 1.518 3.445 3.39 3.445Z" fill="#9B9B9B" stroke="#7D7D7D" stroke-opacity=".57" stroke-width="1.274"/><path d="M192.007 170.809v-3.61h3.636v-1.401h-3.636v-2.512h4.052v-1.426h-5.566v8.949h1.514Zm8.857-.682c0 .253.025.543.051.682h1.401a9.818 9.818 0 0 1-.063-1.123v-5.024h-1.465v3.635c0 .808-.441 1.376-1.287 1.376-.884 0-1.237-.644-1.237-1.401v-3.61H196.8v3.875c0 1.363.858 2.449 2.322 2.449.72 0 1.439-.303 1.742-.859Zm4.748.682v-9.139h-1.464v9.139h1.464Zm3.353 0v-9.139h-1.464v9.139h1.464Zm12.656 0v-8.949h-1.514v6.349l-4.065-6.349h-1.931v8.949h1.515v-6.778l4.418 6.778h1.577Zm1.6-1.666c0 .972.795 1.855 2.083 1.855.997 0 1.603-.504 1.893-.972 0 .493.051.745.063.783h1.364a5.514 5.514 0 0 1-.076-.984v-3.055c0-1.225-.72-2.298-2.613-2.298-1.515 0-2.474.947-2.588 2.007l1.338.303c.063-.618.493-1.11 1.263-1.11.807 0 1.161.416 1.161.934 0 .214-.101.391-.455.442l-1.577.239c-1.048.152-1.856.758-1.856 1.856Zm2.36.707c-.58 0-.896-.379-.896-.795 0-.505.366-.758.821-.834l1.603-.239v.277c0 1.199-.707 1.591-1.528 1.591Zm6.188.959v-3.648c0-.782.493-1.363 1.275-1.363.833 0 1.187.555 1.187 1.262v3.749h1.439v-3.648c0-.757.505-1.363 1.275-1.363.82 0 1.186.543 1.186 1.262v3.749h1.414v-3.989c0-1.628-1.06-2.335-2.171-2.335-.795 0-1.515.278-1.994 1.086-.329-.72-1.036-1.086-1.843-1.086-.695 0-1.465.328-1.818.959v-.782h-1.401v6.147h1.451Zm10.592-3.749c.05-.656.58-1.363 1.502-1.363 1.009 0 1.489.644 1.514 1.363h-3.016Zm3.18 1.603c-.202.606-.656 1.073-1.54 1.073-.908 0-1.64-.669-1.678-1.603h4.493c.013-.025.038-.227.038-.467 0-1.944-1.111-3.194-3.004-3.194-1.553 0-2.992 1.288-2.992 3.232 0 2.083 1.477 3.294 3.143 3.294 1.477 0 2.449-.871 2.777-1.943l-1.237-.392Z" fill="#000"/><path d="M253.859 161.86h-1.187v1.653l-1.502-.517-.366 1.085 1.527.505-.959 1.275.934.682.947-1.313 1.009 1.325.922-.681-.985-1.288 1.528-.505-.366-1.085-1.502.505v-1.641Z" fill="red"/><path d="M378.83 181.914H194.131c-2.6 0-4.708 2.142-4.708 4.784v26.895c0 2.642 2.108 4.783 4.708 4.783H378.83c2.6 0 4.707-2.141 4.707-4.783v-26.895c0-2.642-2.107-4.784-4.707-4.784Z" fill="#fff"/><path d="M196.021 253.798v-1.414h-4.014v-2.373h3.636v-1.376h-3.636v-2.373h4.014v-1.413h-5.528v8.949h5.528Zm3.021 0v-3.648c0-.782.492-1.363 1.274-1.363.834 0 1.187.555 1.187 1.262v3.749h1.439v-3.648c0-.757.505-1.363 1.275-1.363.82 0 1.186.543 1.186 1.262v3.749h1.414v-3.989c0-1.628-1.06-2.335-2.171-2.335-.795 0-1.515.278-1.994 1.086-.329-.72-1.035-1.086-1.843-1.086-.695 0-1.464.328-1.818.959v-.782h-1.401v6.147h1.452Zm9.189-1.666c0 .972.796 1.855 2.083 1.855.997 0 1.603-.504 1.894-.972 0 .493.05.745.063.783h1.363a5.514 5.514 0 0 1-.076-.984v-3.055c0-1.225-.719-2.298-2.613-2.298-1.514 0-2.474.947-2.587 2.007l1.338.303c.063-.618.492-1.11 1.262-1.11.808 0 1.161.416 1.161.934 0 .214-.101.391-.454.442l-1.578.239c-1.048.152-1.856.758-1.856 1.856Zm2.361.707c-.581 0-.896-.379-.896-.795 0-.505.366-.758.82-.834l1.603-.239v.277c0 1.199-.707 1.591-1.527 1.591Zm6.188.959v-6.147h-1.452v6.147h1.452Zm-1.679-8.306c0 .53.429.947.947.947.53 0 .959-.417.959-.947a.959.959 0 0 0-.959-.959.956.956 0 0 0-.947.959Zm5.032 8.306v-9.139h-1.464v9.139h1.464Z" fill="#000"/><path d="M227.627 244.849h-1.187v1.653l-1.502-.517-.366 1.085 1.528.505-.96 1.275.934.682.947-1.313 1.01 1.325.921-.681-.984-1.288 1.527-.505-.366-1.085-1.502.505v-1.641Z" fill="red"/><path d="M378.83 264.904H194.131c-2.6 0-4.708 2.141-4.708 4.783v26.895c0 2.642 2.108 4.783 4.708 4.783H378.83c2.6 0 4.707-2.141 4.707-4.783v-26.895c0-2.642-2.107-4.783-4.707-4.783Z" fill="#fff"/><path d="M195.012 418.442h1.716l-2.019-3.686c1.249-.303 2.019-1.275 2.019-2.549 0-1.515-1.073-2.714-2.802-2.714h-3.433v8.949h1.527v-3.534h1.111l1.881 3.534Zm-2.992-4.872v-2.739h1.628c.934 0 1.54.542 1.54 1.376 0 .82-.606 1.363-1.54 1.363h-1.628Zm8.69 3.749c-.896 0-1.716-.682-1.716-1.957s.82-1.931 1.716-1.931c.909 0 1.717.656 1.717 1.931 0 1.288-.808 1.957-1.717 1.957Zm0-5.213c-1.83 0-3.181 1.375-3.181 3.256 0 1.894 1.351 3.269 3.181 3.269 1.843 0 3.194-1.375 3.194-3.269 0-1.881-1.351-3.256-3.194-3.256Zm7.31 5.213c-.896 0-1.717-.682-1.717-1.957s.821-1.931 1.717-1.931c.909 0 1.717.656 1.717 1.931 0 1.288-.808 1.957-1.717 1.957Zm0-5.213c-1.83 0-3.181 1.375-3.181 3.256 0 1.894 1.351 3.269 3.181 3.269 1.843 0 3.194-1.375 3.194-3.269 0-1.881-1.351-3.256-3.194-3.256Zm6.06 6.336v-3.648c0-.782.493-1.363 1.275-1.363.833 0 1.187.555 1.187 1.262v3.749h1.439v-3.648c0-.757.505-1.363 1.275-1.363.82 0 1.186.543 1.186 1.262v3.749h1.414v-3.989c0-1.628-1.06-2.335-2.171-2.335-.795 0-1.515.278-1.995 1.086-.328-.72-1.035-1.086-1.842-1.086-.695 0-1.465.328-1.818.959v-.782h-1.401v6.147h1.451Zm19.251-7.523v-1.426h-7.334v1.426h2.904v7.523h1.514v-7.523h2.916Zm2.183 10.01 3.913-8.634h-1.552l-1.654 3.888-1.767-3.888H232.8l2.626 5.415-1.477 3.219h1.565Zm6.437-.089v-3.092c.316.467.985.846 1.869.846 1.767 0 2.89-1.389 2.89-3.232 0-1.817-1.022-3.206-2.84-3.206-.947 0-1.653.442-1.956.972v-.833H240.5v8.545h1.451Zm3.295-5.478c0 1.174-.682 1.931-1.654 1.931-.959 0-1.653-.757-1.653-1.931 0-1.148.694-1.906 1.653-1.906.985 0 1.654.758 1.654 1.906Zm3.894-.669a1.476 1.476 0 0 1 1.502-1.363c1.01 0 1.49.644 1.515 1.363h-3.017Zm3.181 1.603c-.202.606-.656 1.073-1.54 1.073-.909 0-1.641-.669-1.679-1.603h4.494c.013-.025.038-.227.038-.467 0-1.944-1.111-3.193-3.004-3.193-1.553 0-2.992 1.287-2.992 3.231 0 2.083 1.477 3.294 3.143 3.294 1.477 0 2.449-.87 2.777-1.943l-1.237-.392Z" fill="#000"/><path d="M378.83 429.547H194.131c-2.6 0-4.708 2.142-4.708 4.784v26.895c0 2.642 2.108 4.783 4.708 4.783H378.83c2.6 0 4.707-2.141 4.707-4.783v-26.895c0-2.642-2.107-4.784-4.707-4.784Z" fill="#fff"/><path d="M203.238 446.289v-2.2h1.25c.76 0 1.22.43 1.22 1.11 0 .67-.46 1.09-1.22 1.09h-1.25Zm1.43 1.06c1.36 0 2.26-.91 2.26-2.16 0-1.24-.9-2.16-2.26-2.16h-2.63v7.09h1.2v-2.77h1.43Zm4.368 2.77v-7.24h-1.16v7.24h1.16Zm2.306-2.97c.04-.52.46-1.08 1.19-1.08.8 0 1.18.51 1.2 1.08h-2.39Zm2.52 1.27c-.16.48-.52.85-1.22.85-.72 0-1.3-.53-1.33-1.27h3.56c.01-.02.03-.18.03-.37 0-1.54-.88-2.53-2.38-2.53-1.23 0-2.37 1.02-2.37 2.56 0 1.65 1.17 2.61 2.49 2.61 1.17 0 1.94-.69 2.2-1.54l-.98-.31Zm1.848.38c0 .77.63 1.47 1.65 1.47.79 0 1.27-.4 1.5-.77 0 .39.04.59.05.62h1.08c-.01-.05-.06-.34-.06-.78v-2.42c0-.97-.57-1.82-2.07-1.82-1.2 0-1.96.75-2.05 1.59l1.06.24c.05-.49.39-.88 1-.88.64 0 .92.33.92.74 0 .17-.08.31-.36.35l-1.25.19c-.83.12-1.47.6-1.47 1.47Zm1.87.56c-.46 0-.71-.3-.71-.63 0-.4.29-.6.65-.66l1.27-.19v.22c0 .95-.56 1.26-1.21 1.26Zm3.323-.56c.06.55.6 1.47 2.01 1.47 1.24 0 1.84-.82 1.84-1.56 0-.72-.48-1.28-1.4-1.48l-.74-.15c-.3-.06-.49-.25-.49-.51 0-.3.29-.56.7-.56.65 0 .86.45.9.73l.98-.28c-.08-.48-.52-1.36-1.88-1.36-1.01 0-1.79.72-1.79 1.57 0 .67.45 1.23 1.31 1.42l.72.16c.39.08.57.28.57.54 0 .3-.25.56-.73.56-.62 0-.95-.39-.99-.83l-1.01.28Zm5.781-1.65c.04-.52.46-1.08 1.19-1.08.8 0 1.18.51 1.2 1.08h-2.39Zm2.52 1.27c-.16.48-.52.85-1.22.85-.72 0-1.3-.53-1.33-1.27h3.56c.01-.02.03-.18.03-.37 0-1.54-.88-2.53-2.38-2.53-1.23 0-2.37 1.02-2.37 2.56 0 1.65 1.17 2.61 2.49 2.61 1.17 0 1.94-.69 2.2-1.54l-.98-.31Zm9.389-3.73c-.16-.79-.81-1.81-2.48-1.81-1.32 0-2.41.98-2.41 2.17 0 1.06.72 1.77 1.8 1.99l1 .21c.61.13.95.5.95.96 0 .55-.44.98-1.29.98-1.02 0-1.55-.68-1.62-1.42l-1.12.32c.11 1.02.94 2.18 2.74 2.18 1.62 0 2.51-1.05 2.51-2.15 0-1-.67-1.79-1.92-2.04l-1.02-.21c-.55-.12-.83-.46-.83-.91 0-.54.5-1.02 1.22-1.02.95 0 1.32.65 1.39 1.09l1.08-.34Zm1.968 2.46c.04-.52.46-1.08 1.19-1.08.8 0 1.18.51 1.2 1.08h-2.39Zm2.52 1.27c-.16.48-.52.85-1.22.85-.72 0-1.3-.53-1.33-1.27h3.56c.01-.02.03-.18.03-.37 0-1.54-.88-2.53-2.38-2.53-1.23 0-2.37 1.02-2.37 2.56 0 1.65 1.17 2.61 2.49 2.61 1.17 0 1.94-.69 2.2-1.54l-.98-.31Zm3.308 1.7v-7.24h-1.16v7.24h1.16Zm2.306-2.97c.04-.52.46-1.08 1.19-1.08.8 0 1.18.51 1.2 1.08h-2.39Zm2.52 1.27c-.16.48-.52.85-1.22.85-.72 0-1.3-.53-1.33-1.27h3.56c.01-.02.03-.18.03-.37 0-1.54-.88-2.53-2.38-2.53-1.23 0-2.37 1.02-2.37 2.56 0 1.65 1.17 2.61 2.49 2.61 1.17 0 1.94-.69 2.2-1.54l-.98-.31Zm4.269-2.25c.74 0 1.07.48 1.18.91l1.04-.38c-.2-.78-.92-1.6-2.23-1.6-1.4 0-2.49 1.08-2.49 2.58 0 1.48 1.09 2.59 2.52 2.59 1.28 0 2.01-.83 2.24-1.59l-1.02-.37c-.11.37-.46.9-1.22.9-.73 0-1.36-.55-1.36-1.53s.63-1.51 1.34-1.51Zm4.76-2.41h-1.05v.73c0 .43-.23.76-.75.76h-.25v1.03h.9v2.45c0 .91.56 1.45 1.46 1.45.42 0 .64-.08.71-.11v-.96c-.05.01-.24.04-.4.04-.43 0-.62-.18-.62-.61v-2.26h1.01v-1.03h-1.01v-1.49Z" fill="#000" fill-opacity=".5"/><path d="M355.23 444.425s7.075 8.518 7.071 8.614c-.005.095 7.069-8.614 7.069-8.614" stroke="#09224C" stroke-width="2.066" stroke-linecap="round"/><rect x="189.423" y="346.038" width="35.735" height="36.649" rx="5" fill="#fff"/><path d="M190.034 326.564v8.95h3.308c1.666 0 2.777-1.036 2.777-2.475 0-1.06-.657-1.88-1.604-2.133.77-.277 1.326-.984 1.326-1.931 0-1.401-1.01-2.411-2.727-2.411h-3.08Zm1.502 3.787v-2.499h1.338c.922 0 1.452.492 1.452 1.249 0 .745-.53 1.25-1.414 1.25h-1.376Zm0 3.875v-2.6h1.591c.934 0 1.452.543 1.452 1.313 0 .795-.594 1.287-1.503 1.287h-1.54Zm8.802.164c-.896 0-1.716-.682-1.716-1.956 0-1.275.82-1.932 1.716-1.932.909 0 1.717.657 1.717 1.932 0 1.287-.808 1.956-1.717 1.956Zm0-5.213c-1.83 0-3.181 1.376-3.181 3.257 0 1.893 1.351 3.269 3.181 3.269 1.843 0 3.194-1.376 3.194-3.269 0-1.881-1.351-3.257-3.194-3.257Zm7.31 5.213c-.896 0-1.716-.682-1.716-1.956 0-1.275.82-1.932 1.716-1.932.909 0 1.717.657 1.717 1.932 0 1.287-.808 1.956-1.717 1.956Zm0-5.213c-1.83 0-3.181 1.376-3.181 3.257 0 1.893 1.351 3.269 3.181 3.269 1.843 0 3.194-1.376 3.194-3.269 0-1.881-1.351-3.257-3.194-3.257Zm10.365.189h-1.944l-2.361 2.487v-5.478h-1.451v9.139h1.451v-1.717l.758-.795 1.805 2.512h1.792l-2.575-3.547 2.525-2.601Zm2.561 6.148v-6.148h-1.451v6.148h1.451Zm-1.678-8.306c0 .53.429.946.946.946.531 0 .96-.416.96-.946a.96.96 0 0 0-.96-.96.957.957 0 0 0-.946.96Zm5.032 4.759c0-.808.441-1.452 1.275-1.452.921 0 1.262.606 1.262 1.363v3.636h1.464v-3.888c0-1.351-.719-2.436-2.222-2.436-.681 0-1.413.29-1.817.997v-.821h-1.427v6.148h1.465v-3.547Zm5.342 3.887c.164 1.237 1.3 2.247 2.928 2.247 2.31 0 3.156-1.527 3.156-3.168v-5.567h-1.414v.783c-.265-.505-.858-.896-1.817-.896-1.692 0-2.841 1.35-2.841 2.991 0 1.73 1.2 2.992 2.841 2.992.896 0 1.514-.417 1.779-.896v.643c0 1.25-.58 1.843-1.742 1.843-.845 0-1.439-.568-1.54-1.325l-1.35.353Zm3.092-1.868c-.959 0-1.603-.669-1.603-1.742 0-1.047.669-1.729 1.603-1.729.909 0 1.578.682 1.578 1.729 0 1.061-.643 1.742-1.578 1.742Zm9.555.139v-6.172h1.603c1.552 0 2.827 1.009 2.827 3.105 0 2.07-1.287 3.067-2.84 3.067h-1.59Zm1.641 1.389c2.423 0 4.367-1.591 4.367-4.456 0-2.878-1.918-4.494-4.355-4.494h-3.168v8.95h3.156Zm5.449-1.667c0 .972.795 1.856 2.082 1.856.998 0 1.604-.505 1.894-.972 0 .492.05.745.063.783h1.363a5.653 5.653 0 0 1-.076-.985v-3.055c0-1.224-.719-2.297-2.612-2.297-1.515 0-2.474.947-2.588 2.007l1.338.303c.063-.619.492-1.111 1.262-1.111.808 0 1.162.417 1.162.934 0 .215-.101.391-.455.442l-1.578.24c-1.047.151-1.855.757-1.855 1.855Zm2.36.707c-.58 0-.896-.378-.896-.795 0-.505.366-.757.82-.833l1.604-.24v.278c0 1.199-.707 1.59-1.528 1.59Zm6.567-7.069h-1.325v.922c0 .543-.29.959-.947.959h-.315v1.3h1.136v3.093c0 1.149.707 1.83 1.843 1.83.53 0 .808-.101.896-.139v-1.211c-.063.012-.303.05-.505.05-.543 0-.783-.227-.783-.77v-2.853h1.275v-1.3h-1.275v-1.881Zm3.741 4.28c.05-.657.58-1.364 1.502-1.364 1.01 0 1.489.644 1.514 1.364h-3.016Zm3.181 1.603c-.202.606-.657 1.073-1.54 1.073-.909 0-1.641-.669-1.679-1.603h4.493c.013-.026.038-.228.038-.468 0-1.943-1.111-3.193-3.004-3.193-1.553 0-2.992 1.287-2.992 3.231 0 2.083 1.477 3.295 3.144 3.295 1.476 0 2.448-.871 2.777-1.944l-1.237-.391Zm7.459-6.867h-1.35l-4.406 9.076h1.351l4.405-9.076Zm7.918 1.489v-1.426h-7.334v1.426h2.903v7.524h1.515v-7.524h2.916Zm2.407 7.524v-6.148h-1.451v6.148h1.451Zm-1.678-8.306c0 .53.429.946.946.946.53 0 .96-.416.96-.946a.96.96 0 0 0-.96-.96.957.957 0 0 0-.946.96Zm5.019 8.306v-3.648c0-.783.492-1.364 1.275-1.364.833 0 1.186.556 1.186 1.263v3.749h1.439v-3.648c0-.758.505-1.364 1.275-1.364.821 0 1.187.543 1.187 1.263v3.749h1.414v-3.989c0-1.629-1.061-2.335-2.172-2.335-.795 0-1.514.277-1.994 1.085-.328-.719-1.035-1.085-1.843-1.085-.694 0-1.464.328-1.818.959v-.783h-1.401v6.148h1.452Zm10.591-3.749a1.477 1.477 0 0 1 1.502-1.364c1.01 0 1.49.644 1.515 1.364h-3.017Zm3.181 1.603c-.202.606-.656 1.073-1.54 1.073-.909 0-1.641-.669-1.679-1.603h4.494c.012-.026.038-.228.038-.468 0-1.943-1.111-3.193-3.004-3.193-1.553 0-2.992 1.287-2.992 3.231 0 2.083 1.477 3.295 3.143 3.295 1.477 0 2.449-.871 2.777-1.944l-1.237-.391Z" fill="#000"/><path d="M308.07 326.564h-1.186v1.654l-1.503-.518-.366 1.086 1.528.505-.96 1.274.934.682.947-1.313 1.01 1.326.921-.682-.984-1.287 1.527-.505-.366-1.086-1.502.505v-1.641Z" fill="red"/><rect x="230.836" y="346.038" width="35.735" height="36.649" rx="5" fill="#fff"/><rect x="272.248" y="346.038" width="71.264" height="36.649" rx="5" fill="#fff"/><path d="M372.623 369.079a1 1 0 0 0-.382-.786 1 1 0 0 0 .382-.786v-3.144a.996.996 0 0 0-.18-.572h.5v9.003h-.5a.996.996 0 0 0 .18-.571v-3.144Zm-5.095 3.144c0 .212.066.409.179.571h-.679a.995.995 0 0 0 .179-.571v-3.144a.999.999 0 0 0-.381-.786.999.999 0 0 0 .381-.786v-3.144a.996.996 0 0 0-.179-.572h.679a.996.996 0 0 0-.179.572v3.144c0 .319.149.603.382.786a.997.997 0 0 0-.382.786v3.144Zm-5.415 0c0 .212.066.409.179.571h-.678a.995.995 0 0 0 .179-.571v-3.144a.999.999 0 0 0-.381-.786.999.999 0 0 0 .381-.786v-3.144a.996.996 0 0 0-.179-.572h.678a.996.996 0 0 0-.179.572v3.144c0 .319.149.603.381.786a.999.999 0 0 0-.381.786v3.144Zm-5.414 0c0 .212.066.409.179.571h-.5v-9.003h.5a.996.996 0 0 0-.179.572v3.144c0 .319.149.603.381.786a.999.999 0 0 0-.381.786v3.144Zm18.018-19.078a1 1 0 0 0-.548.163v-.735a1 1 0 0 0-1-1h-3.867a1 1 0 0 0-1 1v.734a.993.993 0 0 0-.547-.162h-6.188c-.202 0-.39.06-.547.163v-.735a1 1 0 0 0-1-1h-3.868a1 1 0 0 0-1 1v.734a.992.992 0 0 0-.546-.162h-2.321a1 1 0 0 0-1 1v22.007a1 1 0 0 0 1 1h24.753a1 1 0 0 0 1-1v-22.007a1 1 0 0 0-1-1h-2.321Z" fill="#F38632" stroke="#fff" stroke-width="2" stroke-linejoin="round"/><path d="M569.127 242.944s16.206 28.196 17.045 21.507c0 0-2.994-42.917-13.86-50.259-10.874-7.321-30.149-12.472-30.149-12.472l26.964 41.224Z" fill="#349102"/><path d="M542.164 201.72s-32.313-10.535-39.7 0c-7.38 10.513 22.333 64.006 12.511 81.872-9.822 17.867-1.807 38.829 22.987 49.327 24.757 10.515 33.098 8.119 41.677-4.359 8.578-12.478 12.941-14.872 10.208-38.384-2.733-23.511-8.524-51.052-15.367-62.284-8.148-13.401-32.316-26.172-32.316-26.172Z" fill="#47C405"/><path d="M484.648 202.795c1.451-1.819 3.84-3.182 6.759-4.199 21.673-11.319 47.693 7.349 49.032 15.222 2.338 13.853-7.099 46.13 9.486 68.951 13.822 18.991 7.039 43.306 5.527 55.271-7.108-.827-8.582-1.742-18.078-5.338-31.531-11.947-48.677-34.754-58.949-56.42-5.131-23.019-2.084-63.171 6.223-73.487Z" fill="#349102"/><path d="m576.959 263.099-26.223 6.867s9.413 21.424 12.706 21.864c14.205 1.932 24.38-8.034 24.38-8.034l-10.863-20.697Z" fill="#349102"/><path d="m560.837 280.697-4.522-12.204 15.827-4.131 4.719 12.739c.393 1.071-.811 2.277-2.703 2.697l-9.192 2.066c-1.868.421-3.711-.095-4.129-1.167Z" fill="#CCEA2A"/><path d="m475.33 498.498-.76 6.37 11.139.892 1.519-6.88-11.898-.382Z" fill="#F3B484"/><path d="M493.429 213.491c-13.037-10.32-32.403 22.805-50.757 28.793l-24.556-20.385-6.582 3.695c6.076 7.262 13.671 21.404 25.948 31.724 9.367 8.027 47.72-23.825 53.922-30.832 9.62-11.084 2.025-12.995 2.025-12.995Z" fill="#C4891D"/><path d="m510.138 304.968-14.177 93.771c13.164 3.313 31.95 36.049 51.443 68.538l-17.506 11.897s-50.518-46.927-58.493-71.389c-7.847-23.952 5.696-100.524 5.696-100.524l33.037-2.293Z" fill="#22698B"/><g clip-path="url(#c)"><path d="M525.37 475.551s5.421 7.918 7.102 10.558c1.682 2.639-4.164 11.269-4.708 17.499-.545 6.23 7.529 8.008 7.529 8.008l15.91-13.02 5.139-11.303s6.738-5.58 7.482-8.759c.745-3.178-14.6-13.721-16.749-12.333-2.148 1.388-10.303 7.253-14.67 6.286-4.367-.904-7.035 3.064-7.035 3.064Z" fill="#FEC14F"/><path d="M535.594 511.807s-3.134.003-4.912-2.227c0 0 6.333-.598 10.94-5.183 4.608-4.585 5.892-8.256 5.892-8.256l5.124-10.037c.885-.568 4.955-7.181 8.82-11.341 1.563 1.571 2.561 2.953 2.366 3.834-.744 3.179-7.482 8.759-7.482 8.759l-4.699 11.302s-3.788 5.868-7.199 8.575c-3.369 2.673-8.85 4.574-8.85 4.574Z" fill="#D29420"/></g><path d="M511.403 144.818s-8.86-1.784-22.91 14.907c-8.86 10.574-13.544 29.813-5.443 30.322 8.101.51 10.379-13.887 10.379-13.887l-.759-8.027.506-5.096 5.696-4.459 8.734-5.861 3.797-7.899Z" fill="#BD5D00"/><path d="M515.96 185.844c-.253 0-.38-.128-.506-.128-.127 0-17.088.765-16.455 9.428 1.012 13.25 1.266 10.702-2.532 14.27-1.265 1.146 3.291 5.223 7.468 14.524 9.873-9.683 10-8.918 12.531-11.721.507-.637 8.608 2.548 8.608 1.783 0-.254-9.747-5.606-10-5.988-1.013-1.911-.633-8.918.886-22.168Z" fill="#F3B484"/><path d="m529.757 172.593-3.544-12.104c-8.987-15.925-19.746-18.346-32.151-7.134-6.075 5.351-7.847 10.956-8.986 17.327-2.279 13.377 3.417 26.882 13.417 26.882 9.872 0 17.72-3.439 23.796-10.447l7.468-14.524Z" fill="#F3B484"/><path d="M483.81 163.929c0-12.74 5.063-19.875 15.062-21.659 10.886-1.783 23.29.128 30.758 9.938 15.569 20.512-13.29 44.337-14.176 40.642-.507-2.42 2.658-7.644 5.316-11.466 1.519-.255 2.785-.892 3.924-1.911 2.658-1.911 2.784-9.173-1.772-9.173-4.557 0-4.431 10.702-6.076 6.37-1.013-2.803-2.532-4.459-4.304-4.842-3.417-1.146-5.822-2.038-7.214-2.548-2.026-.892 0-14.906-1.14-9.173-.379 2.421-1.012 4.969-1.645 7.39-10.253 1.274-16.582 0-18.733-3.568Z" fill="#BD5D00"/><path d="m517.986 159.342 7.341 7.517 4.683 5.606-.633 5.097-2.405 7.644s-.759 14.524 7.215 15.798c7.975 1.274 7.468-18.601.886-30.832-10.252-19.238-19.366-19.366-19.366-19.366l2.279 8.536Z" fill="#BD5D00"/><path d="m530.896 334.908-21.138-20.64h-15.822l-5.823 46.886-7.214 50.325-6.582 94.408 21.391 7.007s3.038-11.976 8.354-31.087c5.316-19.111 6.202-68.544 7.595-80.775 1.392-12.231 18.606-55.931 18.606-55.931l.633-10.193Z" fill="#297BA3"/><g clip-path="url(#d)"><path d="M474.226 494.763s-1.742 9.436-2.412 12.493c-.67 3.057-10.901 5.051-15.682 9.083-4.78 4.031-.313 10.987-.313 10.987l20.462 1.994 11.616-4.387s8.712.798 11.482-.93c2.77-1.728-.67-20.025-3.172-20.557-2.502-.532-12.42-2.126-14.832-5.892-2.458-3.722-7.149-2.791-7.149-2.791Z" fill="#FEC14F"/><path d="M455.898 527.674s-2.223-2.209-1.91-5.044c0 0 4.91 4.044 11.41 4.044s10-1.696 10-1.696l10.712-3.5c1.028.221 8.578-1.595 14.252-1.817 0 2.216-.268 3.899-1.027 4.386-2.77 1.728-11.482.931-11.482.931l-11.303 4.696s-6.824 1.488-11.152 1c-4.274-.482-9.5-3-9.5-3Z" fill="#D29420"/></g><path d="M410.902 220.116c-1.772.127-3.418-1.147-3.545-2.931l-6.328-32.871c-.507-1.783.506-3.567 2.278-4.077l10.759 5.224c1.646.637 3.544 1.656 3.924 3.695l6.329 32.871c.506 1.783-.507 3.567-2.279 4.077l-11.138-5.988Z" fill="#30393E"/><path d="M417.357 230.818c-10.379-4.077-12.404-16.691-12.404-16.691s3.417-7.771 6.962-8.663c3.544-.892-3.165 8.026-3.165 8.026l4.937-4.586c4.936-4.587 4.683-.637 4.683-.637l-4.304 5.605 2.658-1.656c6.203-3.949 4.937.51 4.937.51s-3.671 2.293-3.544 4.586a33.497 33.497 0 0 0 1.519 6.88l-2.279 6.626Z" fill="#F3B484"/><path d="M526.212 355.293s-54.174-31.087-53.162-32.616c1.013-1.529 8.228-57.46 4.051-69.946-8.228-24.716 10.126-44.082 10.126-44.082 11.898-.637 23.923.637 35.441 3.949 3.418.892 5.696 4.077 5.57 7.645l3.417 68.417s8.86 50.198-5.443 66.633Z" fill="#D29420"/><path d="M514.898 193.174c3.6-3.2 4.167.833 4 2.5 0 1-.2 3.5-1 5.5-1 2.5 1 2.5 1 5 0 2-2.166 3.167-3 3l-1.5 2c-.5.333-2.3 1.1-3.5 3.5-1.5 3-16 4-19 2.5s-6.5-6-1.5-9-1.183-4.422 1.5-8c1.5-2 1.5-3 4.5-3 .5 2.5 4.5 3 8.5 2s5.5-2 10-6Z" fill="#D29420"/><path d="m518.768 208.174 12 6c-3.5 0-9.2.6-12 9-2.333 7 .66 23.5 1.5 28 .846 4.531-15.37-23.5-12.87-31.5 2-6.4 7.5-11.5 11.37-11.5ZM488.052 206.464h4.284c-2.782 1-6.937 6.204-11.135 14-3.106 5.77-5.927 18.654-5.934 24.624.255 2.241.381 3.214.138 1.909-.095-.507-.139-1.152-.138-1.909-.632-5.538-2.056-18.824-.65-24.624 2.83-11.674 9.812-13.584 13.435-14Z" fill="#307E06"/><path d="M500.773 199.674c-.5.167-1.6 1.2-2 4-.5 3.5.763 2.073 0 6-.875 4.5.164 2.943-3.875 9-2 3-10.5 18.5-7 31.5s2.626 26.5 3 28.5m.5 13c-.333 6.667-1.5 21.3-3.5 26.5-2 5.2-3.5 10.167-4 12" stroke="#FEC14F" stroke-width="2"/><path d="M454.824 287.386c.506.764 6.582-.255 10.126-.51-1.013.383-6.202 1.784-6.202 2.421-.127.255-.127.382-.127.765 0 .127.506.509.633.509.759.382 2.278.382 5.949 0-2.785 1.019-3.544 1.529-3.544 2.421-.127.51.253.892.633 1.274 1.012.637 3.164.127 6.329-.765-1.772 1.02-2.532 1.529-2.532 2.294 0 .509.253.892.506 1.146.633.383 2.279 1.529 20.253-5.86 4.81-2.039 16.455-3.058 16.581-2.931l.886-.127.76-11.084-17.468 3.44c-2.911-2.294-5.822-4.205-8.987-6.116-1.519-.892-3.038-1.783-4.303-2.548-3.545-2.293-4.81-2.803-5.57-2.166-.253.255-.633.765-.253 1.656.759 1.274 1.899 2.421 3.038 3.44 1.266 1.274 4.05 4.077 4.05 4.969-.633.637-6.455 2.166-10.379 3.313-8.607 2.293-10 2.93-10.379 3.949v.51Z" fill="#F3B484"/><path d="M524.061 214c-15.822 4.841 0 39.751-5.696 58.352l-30.631 6.822v12.5c9.366-.892 24.556-2.25 39.998-6.454 11.898-3.058 7.974-53.001 5.822-62.174-3.544-14.27-9.493-9.046-9.493-9.046Z" fill="#C4891D"/><path opacity=".61" d="M497.14 185.87c.21.042.336-.041.419-.207a.557.557 0 0 0-.083-.662c-.838-.62-1.467-.662-2.011-.703-.377-.042-.587-.042-.754-.248a.9.9 0 0 1-.293-.704c0-.289.209-.496.377-.662 2.513-1.531 2.555-3.6 2.555-4.676a.463.463 0 0 0-.461-.455.463.463 0 0 0-.461.455c0 1.035-.042 2.649-2.136 3.931-.461.29-.796.786-.838 1.366-.042.579.21 1.076.628 1.448.419.372.838.414 1.299.455.419.042.922.083 1.508.579.084.042.21.083.251.083Z" fill="#DF7E5A"/><path d="M501.708 190.282s-4.859-.124-8.252-1.158c0 0-.21 2.4 1.843 3.6 1.34.786 3.1.745 4.356-.124 1.425-.911 2.053-2.318 2.053-2.318Z" fill="#D86437"/><path opacity=".2" d="M504.883 187.645c1.608.817 3.754-.179 4.793-2.225 1.038-2.045.576-4.365-1.032-5.182-1.608-.816-3.753.18-4.792 2.225-1.039 2.046-.577 4.366 1.031 5.182ZM487.681 184.918c1.357-.143 2.26-2.109 2.019-4.39-.242-2.282-1.537-4.014-2.893-3.871-1.356.144-2.26 2.109-2.019 4.391.242 2.281 1.537 4.014 2.893 3.87Z" fill="#DD6637"/><path d="M502.23 172.107c1.259-.601 4.411-.872 6.95 2.859M494.76 170.82c-.987-.509-3.559-1.326-6.444.375" stroke="#C98659" stroke-linecap="round"/><path d="M492.588 174.128c.075.494-.018.971-.236 1.434-.214.41-.589.748-.984.869-.179.089-.395.12-.605.098a1.108 1.108 0 0 1-.571-.223c-.156-.124-.355-.253-.458-.48a2.018 2.018 0 0 1-.268-.677c-.076-.494.017-.971.236-1.434.213-.41.589-.748.983-.869.18-.089.395-.12.605-.098.21.022.415.098.571.222.157.125.313.25.459.481.145.232.249.459.268.677ZM505.732 175.934c.05.495-.065 1.022-.289 1.479-.264.451-.622.726-.997.836-.211.078-.407.051-.603.023a.985.985 0 0 1-.526-.237 1.5 1.5 0 0 1-.41-.492 2.083 2.083 0 0 1-.223-.683 2.777 2.777 0 0 1 .289-1.478c.263-.452.622-.727.997-.836.211-.079.407-.052.602-.024a.996.996 0 0 1 .526.237c.181.134.315.316.41.492.095.176.183.406.224.683Z" fill="#724422"/><defs><clipPath id="c"><path fill="#fff" transform="scale(-1 1) rotate(44.862 -825.25 -430.836)" d="M0 0h47v35H0z"/></clipPath><clipPath id="d"><path fill="#fff" transform="matrix(-1 0 0 1 500.898 494.674)" d="M0 0h47v35H0z"/></clipPath><linearGradient id="b" x1="522.125" y1="38.534" x2="454.482" y2="106.177" gradientUnits="userSpaceOnUse"><stop stop-color="#fff"/><stop offset=".845" stop-color="#fff"/></linearGradient><filter id="a" x="439.083" y="23.949" width="101.664" height="101.664" filterUnits="userSpaceOnUse" color-interpolation-filters="sRGB"><feFlood flood-opacity="0" result="BackgroundImageFix"/><feColorMatrix in="SourceAlpha" values="0 0 0 0 0 0 0 0 0 0 0 0 0 0 0 0 0 0 127 0" result="hardAlpha"/><feOffset dx="4" dy="4"/><feColorMatrix values="0 0 0 0 0.509804 0 0 0 0 0.509804 0 0 0 0 0.509804 0 0 0 0.25 0"/><feBlend in2="BackgroundImageFix" result="effect1_dropShadow_2_2073"/><feBlend in="SourceGraphic" in2="effect1_dropShadow_2_2073" result="shape"/></filter></defs></svg>