<svg width="608" height="493" fill="none" xmlns="http://www.w3.org/2000/svg"><path d="M605.997 251.159C590.334 110.248 485.344 8.456 294.754 1.089 104.223-6.382-17.843 136.288 2.526 262.29c20.353 126.261 156.558 31.585 322.666 171.086 165.95 139.543 296.366-41.364 280.805-182.218Z" fill="#DAE6FF"/><path d="M169.265 112.385h272.153v347.986H169.265V112.385Z" fill="#E0E1E4"/><path d="M183.152 161.051h247.476v282.63H183.152v-282.63Z" fill="#F7F7F7"/><path d="M430.629 112.712H182.867v48.838h247.762v-48.838Z" fill="#6DBCDB"/><path d="M256.56 132.675v-1.211H249v1.211h3.138v8.116h1.284v-8.116h3.138Zm3.566 4.841v-1.068h-3.566v1.068h3.566Zm7.631-3.987c-.214-.997-1.07-2.349-3.138-2.349-1.712 0-3.067 1.352-3.067 2.776 0 1.424.927 2.278 2.282 2.563l1.355.285c.928.213 1.427.783 1.427 1.424 0 .783-.642 1.495-1.926 1.495-1.426 0-2.139-.997-2.211-1.994l-1.212.427c.142 1.353 1.212 2.777 3.494 2.777 1.997 0 3.21-1.353 3.21-2.777 0-1.281-.856-2.278-2.425-2.634l-1.426-.284c-.785-.143-1.213-.712-1.213-1.353 0-.854.785-1.566 1.783-1.566 1.284 0 1.854.925 1.997 1.566l1.07-.356Zm2.853 3.56c0-.926.499-1.709 1.497-1.709 1.141 0 1.498.712 1.498 1.566v3.773h1.212v-3.986c0-1.424-.784-2.492-2.282-2.492-.713 0-1.497.285-1.925.925v-3.915h-1.213v9.54h1.213v-3.702Zm7.417 3.702v-6.337h-1.213v6.337h1.213Zm-1.498-8.757c0 .498.428.854.856.854.499 0 .927-.427.927-.854a.944.944 0 0 0-.927-.926c-.499.072-.856.428-.856.926Zm7.132 2.349c-.071 0-.214-.071-.428-.071-.642 0-1.426.214-1.926 1.21v-1.139h-1.212v6.336h1.212v-3.203c0-1.424.714-1.922 1.712-1.922.143 0 .357 0 .571.071v-1.282h.071Zm3.352-1.922h-1.141v.997c0 .569-.285.996-.999.996h-.356v1.14h1.212v3.488c0 1.139.713 1.78 1.783 1.78.428 0 .713-.071.856-.143v-1.068c-.071 0-.357.072-.499.072-.642 0-.856-.285-.856-.855v-3.274h1.355v-1.14h-1.355v-1.993Zm7.132 3.631c0-2.421 1.64-3.702 3.352-3.702 1.711 0 3.352 1.21 3.352 3.702 0 2.42-1.641 3.702-3.352 3.702-1.712 0-3.352-1.282-3.352-3.702Zm-1.284 0c0 3.132 2.354 4.841 4.707 4.841 2.354 0 4.707-1.78 4.707-4.841s-2.353-4.841-4.707-4.841c-2.353 0-4.707 1.708-4.707 4.841Zm14.549-1.709c-.071 0-.214-.071-.428-.071-.642 0-1.426.214-1.925 1.21v-1.139h-1.213v6.336h1.213v-3.203c0-1.424.713-1.922 1.711-1.922.143 0 .357 0 .571.071v-1.282h.071Zm1.997 3.204c0-1.282.713-2.207 1.854-2.207s1.855.925 1.855 2.207c0 1.281-.714 2.278-1.855 2.278s-1.854-.997-1.854-2.278Zm3.709 2.349c0 .356.071.712.071.855h1.212c0-.072-.071-.57-.071-1.14v-8.4h-1.212v4.129c-.214-.498-.785-1.068-1.926-1.068-1.783 0-2.995 1.495-2.995 3.346s1.141 3.346 2.995 3.346c.998 0 1.64-.498 1.997-1.139v.071h-.071Zm4.136-2.99c.071-.783.713-1.637 1.712-1.637 1.141 0 1.711.712 1.711 1.637h-3.423Zm3.637 1.638c-.214.711-.784 1.281-1.783 1.281-1.069 0-1.854-.783-1.925-1.922h4.778v-.427c0-1.994-1.07-3.346-3.067-3.346-1.569 0-3.066 1.352-3.066 3.346 0 2.135 1.497 3.417 3.209 3.417 1.498 0 2.496-.854 2.853-1.993l-.999-.356Zm6.205-4.201c-.071 0-.214-.071-.428-.071-.642 0-1.426.214-1.925 1.21v-1.139h-1.213v6.336h1.213v-3.203c0-1.424.713-1.922 1.711-1.922.143 0 .357 0 .571.071v-1.282h.071Zm6.062 6.408v-3.916h3.994v-1.21h-3.994v-2.99h4.422v-1.211h-5.706v9.327h1.284Zm8.131-.926c-1.07 0-1.997-.783-1.997-2.278s.927-2.278 1.997-2.278c1.069 0 1.996.783 1.996 2.278s-.927 2.278-1.996 2.278Zm0-5.624c-1.926 0-3.281 1.424-3.281 3.346 0 1.922 1.355 3.346 3.281 3.346 1.925 0 3.28-1.424 3.28-3.346-.071-1.922-1.355-3.346-3.28-3.346Zm8.344.142c-.071 0-.214-.071-.428-.071-.642 0-1.426.214-1.926 1.21v-1.139h-1.212v6.336h1.212v-3.203c0-1.424.714-1.922 1.712-1.922.143 0 .357 0 .571.071v-1.282h.071Zm2.567 6.408v-3.845c0-.925.571-1.637 1.498-1.637s1.355.64 1.355 1.424v3.986h1.213v-3.844c0-.926.57-1.566 1.497-1.566.927 0 1.355.64 1.355 1.424v3.986h1.213v-4.129c0-1.637-1.07-2.42-2.211-2.42-.785 0-1.641.284-2.14 1.21-.356-.783-1.141-1.21-1.925-1.21-.714 0-1.498.356-1.926.996v-.854h-1.212v6.336h1.283v.143ZM281.307 145.489v6.479h2.283c1.212 0 1.997-.712 1.997-1.78 0-.712-.428-1.353-1.142-1.566.571-.214.999-.712.999-1.424 0-.997-.713-1.78-1.926-1.78h-2.211v.071Zm.928 2.777v-2.065h1.069c.713 0 1.213.427 1.213.997 0 .569-.428.996-1.141.996h-1.141v.072Zm0 2.918v-2.064h1.283c.785 0 1.213.427 1.213 1.068 0 .64-.5.996-1.213.996h-1.283Zm7.203.214c0 .214 0 .427.071.498h.856c0-.142-.071-.498-.071-.783v-3.559h-.856v2.634c0 .64-.357 1.139-1.07 1.139-.713 0-.999-.499-.999-1.139v-2.634h-.855v2.776c0 .997.642 1.78 1.64 1.78.499-.071 1.07-.214 1.284-.712Zm3.352 2.349 2.852-6.193h-.927l-1.283 3.061-1.355-3.061h-.999l1.926 3.915-1.07 2.349h.856v-.071Zm5.705-2.99c0 .712.571 1.282 1.498 1.282a1.71 1.71 0 0 0 1.426-.712c0 .285 0 .498.072.569h.855c0-.142-.071-.356-.071-.712v-2.207c0-.854-.499-1.637-1.854-1.637-.927 0-1.712.57-1.783 1.424l.856.213c.071-.498.428-.854.998-.854.642 0 .927.356.927.783 0 .143-.071.285-.356.356l-1.213.143c-.784.142-1.355.569-1.355 1.352Zm1.569.57c-.428 0-.713-.285-.713-.641 0-.427.285-.569.642-.641l1.355-.213v.213c0 .997-.571 1.282-1.284 1.282Zm10.341-5.055v-.854h-5.206v.854h2.14v5.624h.927v-5.624h2.139Zm2.497 3.417v-.783h-2.497v.783h2.497Zm.713 1.139c.071.499.57 1.282 1.783 1.282 1.07 0 1.64-.712 1.64-1.353 0-.64-.428-1.139-1.212-1.281l-.713-.143c-.357-.071-.5-.284-.5-.498 0-.285.286-.569.713-.569.714 0 .856.498.928.711l.784-.284c-.071-.427-.499-1.211-1.64-1.211-.856 0-1.569.641-1.569 1.353 0 .641.428 1.068 1.07 1.21l.784.143c.357.071.571.284.571.569s-.286.57-.785.57c-.642 0-.998-.356-.998-.854l-.856.355Zm5.42-1.495c0-.64.357-1.139.999-1.139.784 0 .998.499.998 1.139v2.635h.856v-2.777c0-.997-.499-1.709-1.569-1.709-.499 0-.999.143-1.355.641v-2.705h-.856v6.621h.856v-2.706h.071Zm5.064 2.635v-4.414h-.856v4.414h.856Zm-.999-6.052c0 .356.285.641.642.641a.639.639 0 0 0 .642-.641.638.638 0 0 0-.642-.64.638.638 0 0 0-.642.64Zm4.921 1.566h-.285c-.428 0-.999.143-1.284.855v-.783h-.856v4.414h.856v-2.207c0-.997.499-1.353 1.213-1.353h.356v-.926Zm2.282-1.352h-.784v.712c0 .356-.214.64-.642.64h-.214v.784h.856v2.42c0 .783.499 1.282 1.212 1.282.286 0 .5-.072.571-.072v-.712c-.071 0-.214.072-.357.072-.428 0-.642-.214-.642-.57v-2.278h.928v-.783h-.928v-1.495Z" fill="#fff"/><path d="M219.616 182.366v-7.902h-1.783l-2.567 6.051-2.568-6.051h-1.783v7.902h1.284V176.6l2.425 5.766h1.141l2.496-5.837v5.837h1.355Zm3.424 2.207 3.494-7.617h-1.355l-1.498 3.417-1.569-3.417h-1.426l2.354 4.77-1.284 2.847h1.284Zm8.629-6.478v-2.421h1.427c.855 0 1.355.499 1.355 1.211 0 .711-.5 1.21-1.355 1.21h-1.427Zm1.641 1.139c1.497 0 2.496-.997 2.496-2.421 0-1.352-.999-2.42-2.496-2.42h-2.925v7.902h1.356v-3.061h1.569Zm6.704-2.349h-.357c-.713 0-1.284.355-1.569.925v-.854h-1.284v5.41h1.284v-2.563c0-.996.428-1.566 1.498-1.566h.428v-1.352Zm3.423 4.485c-.785 0-1.498-.57-1.498-1.709 0-1.139.713-1.709 1.498-1.709.784 0 1.498.57 1.498 1.709 0 1.068-.714 1.709-1.498 1.709Zm0-4.628c-1.641 0-2.782 1.21-2.782 2.848 0 1.637 1.213 2.919 2.782 2.919 1.64 0 2.853-1.211 2.853-2.919 0-1.638-1.213-2.848-2.853-2.848Zm4.921 2.848c0-1.068.642-1.709 1.498-1.709.855 0 1.426.641 1.426 1.709s-.571 1.708-1.426 1.708c-.928.072-1.498-.64-1.498-1.708Zm4.208-5.34h-1.284v3.275c-.143-.356-.642-.783-1.569-.783-1.498 0-2.568 1.282-2.568 2.848 0 1.637 1.07 2.847 2.639 2.847.785 0 1.355-.356 1.569-.854 0 .214 0 .57.072.712h1.212c0-.071-.071-.498-.071-.997v-7.048Zm5.206 7.476c0 .213 0 .498.071.569h1.213c0-.214-.072-.569-.072-.997v-4.413h-1.283v3.203c0 .712-.357 1.21-1.142 1.21-.784 0-1.069-.569-1.069-1.21v-3.203h-1.284v3.417c0 1.21.784 2.135 2.068 2.135.571.072 1.213-.213 1.498-.711Zm5.206-3.774c.856 0 1.213.57 1.284.997l1.141-.427c-.214-.854-.998-1.78-2.496-1.78-1.569 0-2.782 1.21-2.782 2.848 0 1.637 1.213 2.919 2.782 2.919 1.426 0 2.211-.926 2.496-1.78l-1.141-.427c-.143.427-.499.996-1.355.996-.785 0-1.498-.64-1.498-1.708.071-1.068.785-1.638 1.569-1.638Zm5.349-2.705h-1.141v.783c0 .499-.285.855-.856.855h-.285v1.139h.998v2.705c0 .997.642 1.637 1.641 1.637.499 0 .713-.071.784-.142v-.997c-.071 0-.285.071-.428.071-.499 0-.713-.213-.713-.712v-2.491h1.141v-1.139h-1.141v-1.709Zm2.068 5.624c.072.641.642 1.638 2.211 1.638 1.355 0 2.068-.926 2.068-1.709s-.57-1.424-1.569-1.637l-.855-.143c-.357-.071-.571-.285-.571-.569 0-.356.357-.641.785-.641.713 0 .927.498.998.783l1.07-.285c-.071-.569-.571-1.495-2.068-1.495-1.142 0-1.997.783-1.997 1.78 0 .712.499 1.353 1.497 1.566l.785.214c.428.071.642.285.642.569 0 .356-.286.641-.785.641-.713 0-1.07-.427-1.141-.925l-1.07.213Z" fill="#000"/><path d="m246.718 211.555-7.489 5.268v17.015h-21.895v-17.015l-1.212-.854-6.347-4.414 6.347-9.042a4.387 4.387 0 0 1 1.355-1.21c.499-.285 1.141-.427 1.783-.427h17.901a3.87 3.87 0 0 1 1.783.427c.57.285.998.712 1.355 1.21l6.419 9.042Z" fill="#CCEA2A"/><path d="m223.325 200.876 1.641-1.922 3.28 4.343v4.271l-4.921-6.692ZM233.167 200.876l-1.64-1.922-3.281 4.343v4.271l4.921-6.692Z" fill="#B0CA24"/><path d="M224.965 198.954h6.562l-3.281 4.343-3.281-4.343Z" fill="#369D00"/><path d="m217.341 208.257.427.285v8.258c0 .071 0 .071-.071.142s-.071.071-.143.071c-.071 0-.071 0-.142-.071s-.071-.071-.071-.142v-8.543ZM239.334 208.066l-.428.285v8.258c0 .072 0 .072.072.143.071.071.071.071.142.071.072 0 .072 0 .143-.071s.071-.071.071-.143v-8.543Z" fill="#4B9641"/><path d="m246.718 260.25-7.489 5.268v17.015h-21.895v-17.015l-1.212-.854-6.347-4.414 6.347-9.042a4.387 4.387 0 0 1 1.355-1.21 3.87 3.87 0 0 1 1.783-.427h17.901a3.87 3.87 0 0 1 1.783.427c.57.285.998.712 1.355 1.21l6.419 9.042Z" fill="#F38632"/><path d="m223.325 249.571 1.641-1.922 3.28 4.343v4.271l-4.921-6.692ZM233.167 249.571l-1.64-1.922-3.281 4.343v4.271l4.921-6.692Z" fill="#FFCB6A"/><path d="M224.965 247.649h6.562l-3.281 4.343-3.281-4.343Z" fill="#C63737"/><path d="m217.334 265.518-.428-.285v-8.258c0-.071 0-.071.072-.143.071-.071.071-.071.142-.071.072 0 .072 0 .143.071.071.072.071.072.071.143v8.543Z" fill="#9B5400"/><path d="M298.203 411.57H210.69c-2.089 0-3.788 2.535-3.788 5.649v12.096c0 3.115 1.699 5.65 3.788 5.65h87.513c2.088 0 3.788-2.535 3.788-5.65v-12.096c0-3.114-1.7-5.649-3.788-5.649Z" fill="#FFB200"/><path d="M226.838 423.032v-2.777h1.641c.998 0 1.569.57 1.569 1.424 0 .855-.571 1.353-1.569 1.353h-1.641Zm1.855.997c1.497 0 2.496-.997 2.496-2.35 0-1.352-.999-2.349-2.496-2.349h-2.924v8.045h1.141V424.1h1.783v-.071Zm6.561 3.488c1.64 0 2.924-.997 2.924-2.919v-5.268h-1.141v5.268c0 1.21-.642 1.922-1.783 1.922s-1.783-.712-1.783-1.922v-5.268h-1.07v5.268c-.071 1.851 1.213 2.919 2.853 2.919Zm8.986-.214h1.284l-1.926-3.346c1.213-.213 1.926-1.139 1.926-2.278 0-1.352-.927-2.42-2.496-2.42h-2.924v8.044h1.141v-3.274h1.212l1.783 3.274Zm-3.066-4.271v-2.777h1.711c.927 0 1.498.57 1.498 1.424 0 .855-.642 1.353-1.498 1.353h-1.711Zm9.342 4.485c1.855 0 3.138-1.068 3.566-2.563l-.998-.356c-.357 1.068-1.213 1.922-2.568 1.922-1.497 0-2.852-1.068-2.852-3.203 0-2.065 1.426-3.133 2.852-3.133 1.284 0 2.211.712 2.496 1.922l.999-.356c-.428-1.566-1.712-2.562-3.566-2.562-1.997 0-3.994 1.495-3.994 4.2.071 2.634 1.997 4.129 4.065 4.129Zm11.34-.214v-8.044h-1.07v3.417h-4.136v-3.417h-1.141v8.044h1.141v-3.559h4.136v3.559h1.07Zm7.631 0h1.213l-3.21-8.044h-1.284l-3.209 8.044h1.213l.855-2.278h3.566l.856 2.278Zm-2.639-6.834 1.427 3.631h-2.782l1.355-3.631Zm9.985.641c-.214-.855-.927-1.994-2.71-1.994-1.498 0-2.639 1.139-2.639 2.421 0 1.21.785 1.922 1.997 2.207l1.141.213c.785.143 1.213.641 1.213 1.282 0 .712-.571 1.281-1.641 1.281-1.212 0-1.854-.854-1.925-1.708l-1.07.356c.142 1.139 1.07 2.42 2.995 2.42 1.712 0 2.782-1.139 2.782-2.349 0-1.139-.785-1.994-2.069-2.278l-1.212-.285c-.713-.142-.999-.57-.999-1.139 0-.783.642-1.353 1.569-1.353 1.142 0 1.641.783 1.712 1.353l.856-.427Zm6.49 6.193v-.996h-3.78v-2.492h3.423v-1.068h-3.423v-2.492h3.78v-.996h-4.921v8.044h4.921Z" fill="#fff"/><path d="M209.418 305.527h194.986" stroke="#B7B7B7" stroke-width="1.075" stroke-linecap="round"/><path d="M270.895 208.707h-4.066a1.991 1.991 0 0 0-1.996 1.993v4.058c0 1.139.927 1.994 1.996 1.994h4.066a1.992 1.992 0 0 0 1.997-1.994V210.7a1.992 1.992 0 0 0-1.997-1.993ZM270.895 256.334h-4.066a1.991 1.991 0 0 0-1.996 1.993v4.058c0 1.139.927 1.994 1.996 1.994h4.066a1.992 1.992 0 0 0 1.997-1.994v-4.058a1.992 1.992 0 0 0-1.997-1.993Z" fill="#fff"/><path d="M331.231 334.36h-54.844a3.042 3.042 0 0 0-3.067 3.061v6.051a3.042 3.042 0 0 0 3.067 3.062h54.844a3.041 3.041 0 0 0 3.066-3.062v-6.051a3.041 3.041 0 0 0-3.066-3.061ZM400.338 334.36h-57.91a3.042 3.042 0 0 0-3.067 3.061v6.051a3.042 3.042 0 0 0 3.067 3.062h57.91a3.042 3.042 0 0 0 3.067-3.062v-6.051c0-1.708-1.426-3.061-3.067-3.061ZM400.338 352.585H276.457a3.041 3.041 0 0 0-3.066 3.061v6.051a3.041 3.041 0 0 0 3.066 3.062h123.881a3.042 3.042 0 0 0 3.067-3.062v-6.051c0-1.708-1.426-3.061-3.067-3.061ZM347.491 371.807h-71.105a3.04 3.04 0 0 0-3.067 3.061v6.051a3.04 3.04 0 0 0 3.067 3.061h71.105a3.04 3.04 0 0 0 3.067-3.061v-6.051c0-1.638-1.355-3.061-3.067-3.061ZM400.338 390.103H276.457a3.04 3.04 0 0 0-3.066 3.061v6.051a3.041 3.041 0 0 0 3.066 3.062h123.881a3.042 3.042 0 0 0 3.067-3.062v-6.051c0-1.709-1.426-3.061-3.067-3.061ZM400.338 371.807H357.69a3.04 3.04 0 0 0-3.067 3.061v6.051a3.04 3.04 0 0 0 3.067 3.061h42.648a3.04 3.04 0 0 0 3.067-3.061v-6.051c0-1.638-1.426-3.061-3.067-3.061ZM322.244 222.803h-13.122a1.43 1.43 0 0 0-1.427 1.424v6.122a1.43 1.43 0 0 0 1.427 1.424h13.194a1.43 1.43 0 0 0 1.426-1.424v-6.122c-.071-.854-.713-1.424-1.498-1.424Z" stroke="#B7B7B7" stroke-width="1.075" stroke-miterlimit="10"/><path d="m320.248 223.729 1.711 2.776h-3.494l1.783-2.776ZM320.248 230.705l-1.712-2.776h3.495l-1.783 2.776Z" fill="#B7B7B7"/><path d="M270.895 209.205h-4.065c-.856 0-1.498.712-1.498 1.495v4.058c0 .855.713 1.495 1.498 1.495h4.065c.856 0 1.498-.712 1.498-1.495V210.7c0-.783-.642-1.495-1.498-1.495Z" stroke="#B7B7B7" stroke-width="1.075"/><path d="M332.443 209.205h-53.632v6.194h53.632v-6.194ZM299.922 223.871h-21.111v6.193h21.111v-6.193ZM406.971 209.205h-21.11v6.194h21.11v-6.194Z" fill="#B7B7B7"/><path d="M322.244 271.356h-13.122c-.785 0-1.427.64-1.427 1.423v6.123a1.43 1.43 0 0 0 1.427 1.424h13.194a1.43 1.43 0 0 0 1.426-1.424v-6.123c-.071-.783-.713-1.423-1.498-1.423Z" stroke="#B7B7B7" stroke-width="1.075" stroke-miterlimit="10"/><path d="m320.248 272.352 1.711 2.777h-3.494l1.783-2.777ZM320.248 279.329l-1.712-2.776h3.495l-1.783 2.776Z" fill="#B7B7B7"/><path d="M270.895 257.829h-4.065c-.856 0-1.498.712-1.498 1.495v4.058c0 .854.713 1.495 1.498 1.495h4.065c.856 0 1.498-.712 1.498-1.495v-4.058c0-.854-.642-1.495-1.498-1.495Z" stroke="#B7B7B7" stroke-width="1.075"/><path d="M332.443 257.829h-53.632v6.194h53.632v-6.194ZM299.922 272.495h-21.111v6.193h21.111v-6.193ZM406.971 257.829h-21.11v6.194h21.11v-6.194ZM263.335 337.136h-53.632v6.194h53.632v-6.194ZM263.335 354.436h-53.632v6.194h53.632v-6.194ZM263.335 374.939h-53.632v6.194h53.632v-6.194ZM263.335 392.595h-53.632v6.193h53.632v-6.193ZM362.183 313.999H252.28v6.194h109.903v-6.194Z" fill="#B7B7B7"/><path d="M168.95 99.647h272.468v12.738H168.95V99.647Z" fill="#C4C4C4"/><path fill="#fff" d="M182.056 104.143h4.43v4.496h-4.43zM190.917 104.143h4.43v4.496h-4.43zM199.778 104.143h4.43v4.496h-4.43zM252.204 104.143h118.882v4.496H252.204z"/><g filter="url(#a)"><path d="M484.077 190.671c20.353 0 36.852-16.5 36.852-36.853s-16.499-36.852-36.852-36.852c-20.353 0-36.853 16.499-36.853 36.852 0 20.353 16.5 36.853 36.853 36.853Z" fill="url(#b)"/><path d="M500.862 154.673v10.394c0 .712-.071 1.424-.356 2.136-.285.641-.642 1.282-1.213 1.78a6.081 6.081 0 0 1-1.783 1.21c-.641.285-1.426.356-2.139.356h-20.897c-.713 0-1.426-.071-2.139-.356-.642-.285-1.284-.641-1.783-1.21-.499-.498-.927-1.139-1.141-1.78-.285-.641-.357-1.424-.357-2.136v-20.859c0-.712.143-1.424.357-2.064.285-.641.642-1.282 1.141-1.78s1.141-.926 1.783-1.139a4.113 4.113 0 0 1 2.068-.356c7.061.071 13.979 0 20.968 0 .713 0 1.426.142 2.068.356.642.285 1.284.641 1.783 1.139.499.498.927 1.068 1.141 1.78.285.64.428 1.352.357 2.064.142 3.489.142 6.977.142 10.465Zm-5.776 0v-8.187c.071-.284 0-.569-.072-.783-.071-.284-.214-.498-.428-.64-.214-.214-.428-.356-.642-.428-.285-.071-.499-.142-.784-.071h-16.403c-.286 0-.571 0-.785.071-.285.072-.499.214-.642.428-.214.213-.356.427-.428.64-.071.285-.142.499-.071.783v16.303c-.071.285 0 .57.071.783.072.285.214.499.428.712.214.214.428.356.713.427.286.072.571.143.785.072h16.332c.285.071.571 0 .784-.072.214-.071.5-.213.714-.427.214-.213.356-.427.428-.64.071-.285.142-.499.071-.784-.071-2.705-.071-5.481-.071-8.187Z" fill="#000"/><path d="M489.309 154.673v3.133c0 .854-.357 1.139-1.141 1.139h-6.348c-.856 0-1.141-.285-1.141-1.139v-6.336c0-.854.357-1.139 1.213-1.139h6.276c.856 0 1.212.356 1.212 1.21-.071 1.068-.071 2.136-.071 3.132Z" fill="#000"/></g><g filter="url(#c)"><g filter="url(#d)"><path d="M85.27 231.773c20.352 0 36.851-16.499 36.851-36.852 0-20.353-16.499-36.853-36.852-36.853-20.353 0-36.852 16.5-36.852 36.853s16.5 36.852 36.852 36.852Z" fill="url(#e)"/><path fill-rule="evenodd" clip-rule="evenodd" d="M83.674 189.431c0-1.353 1.141-1.851 2.995-1.851 2.996.071 5.991.854 8.701 2.207v-8.259c-2.781-1.067-5.705-1.637-8.7-1.637-7.132 0-11.84 3.702-11.84 9.896 0 9.61 13.266 8.115 13.266 12.245 0 1.637-1.427 2.135-3.352 2.135-3.352-.213-6.633-1.139-9.557-2.776v8.329c2.996 1.282 6.276 1.994 9.557 1.994 7.274 0 12.267-3.631 12.267-9.825 0-10.394-13.337-8.543-13.337-12.458Z" fill="#6772E5"/></g></g><g filter="url(#f)"><path d="M363.947 82.583c20.353 0 36.852-16.5 36.852-36.853 0-20.352-16.499-36.852-36.852-36.852-20.353 0-36.852 16.5-36.852 36.852 0 20.353 16.499 36.853 36.852 36.853Z" fill="url(#g)"/><path d="M362.644 38.339h.142l3.21 9.183h-6.49l3.138-9.183Zm3.922 21h12.196v-1.352c-2.354-.285-3.067-.498-4.636-4.698-1.711-4.485-3.637-9.825-5.491-15.022l-2.924-8.258-2.211.57-8.987 22.852c-1.569 3.987-2.139 4.2-4.778 4.556v1.353h10.056v-1.353l-1.07-.142c-2.068-.214-2.139-.712-1.497-2.919.57-1.922 1.141-3.844 1.711-5.197h7.917c.642 1.638 1.497 3.987 2.068 5.41.784 1.923.499 2.421-1.141 2.635l-1.141.142-.072 1.424Z" fill="#004B63"/></g><g filter="url(#h)"><path d="M209.865 89.854c20.353 0 36.852-16.5 36.852-36.852 0-20.353-16.499-36.853-36.852-36.853-20.353 0-36.852 16.5-36.852 36.853s16.499 36.852 36.852 36.852Z" fill="url(#i)"/><path d="M222.169 43.675c-1.427-1.566-3.923-2.278-7.204-2.278h-9.414c-.285 0-.642.143-.855.356-.214.214-.428.499-.428.783l-3.923 24.775v.356c0 .142.071.213.143.285a.973.973 0 0 0 .285.213c.071.072.214.072.357.072h5.776l1.427-9.255-.072.284c.072-.284.214-.57.428-.783.214-.213.571-.356.856-.356h2.782c5.42 0 9.628-2.207 10.911-8.543.072-.213.072-.356.072-.57.499-2.349.142-3.915-1.141-5.339Z" fill="#003087"/><path d="M222.169 43.675c-1.427-1.566-3.923-2.278-7.204-2.278h-9.414c-.285 0-.642.143-.855.356-.214.214-.428.499-.428.783l-3.923 24.775v.356c0 .142.071.213.143.285a.973.973 0 0 0 .285.213c.071.072.214.072.357.072h5.776l1.427-9.255-.072.284c.072-.284.214-.57.428-.783.214-.213.571-.356.856-.356h2.782c5.42 0 9.628-2.207 10.911-8.543.072-.213.072-.356.072-.57.499-2.349.142-3.915-1.141-5.339Z" fill="#003087"/><path d="M210.316 47.75c.093-.37.279-.648.557-.926s.649-.37 1.021-.37h9.557c1.021 0 2.134.092 3.155.184a9.73 9.73 0 0 1 1.578.37c.556.186 1.113.371 1.67.65.464-3.058 0-5.095-1.67-7.04-1.856-2.038-5.104-2.965-9.372-2.965h-12.249c-.371 0-.835.186-1.114.464-.278.278-.556.648-.556 1.019l-5.104 32.234v.463c0 .185.093.278.186.37.093.093.185.185.371.278.093.093.278.093.464.093h7.516l1.856-12.042 2.134-12.782Z" fill="#003087"/><path d="M227.728 45.73c0 .278-.093.464-.093.742-1.577 8.243-7.145 11.115-14.197 11.115h-3.619c-.371 0-.835.185-1.113.463-.279.278-.557.648-.557 1.019l-1.856 11.67-.557 3.335v.37c0 .093.093.186.186.371l.278.278c.093.093.186.093.372.093H213.16c.371 0 .742-.093 1.021-.37.278-.279.464-.557.556-.927l.093-.278 1.206-7.595.093-.464c.093-.37.279-.648.557-.926s.65-.37 1.021-.37h.928c6.124 0 10.949-2.501 12.434-9.726.557-3.057.278-5.558-1.299-7.318-.835-.648-1.392-1.111-2.042-1.482Z" fill="#009CDE"/><path d="M225.839 46.379c-.278-.093-.464-.093-.742-.185-.279-.093-.557-.093-.835-.186a18.167 18.167 0 0 0-3.155-.278h-9.558c-.371 0-.742.093-1.021.371-.278.278-.464.556-.557.926l-2.041 12.875-.093.37c.093-.37.279-.74.557-1.018a1.713 1.713 0 0 1 1.114-.463h3.618c7.053 0 12.527-2.872 14.198-11.115.092-.278.092-.464.092-.741-.464-.186-.835-.37-1.299-.556 0 .093-.092.093-.278 0Z" fill="#012169"/></g><path d="M489.308 348.682s-7.718 2.474-12.419 5.442c-2.404 1.421-14.54 6.854-11.579 38.393 2.759 29.393-18.658 41.413-16.642 45.645 2.015 4.231-43.077 30.651-43.077 30.651h52.511l23.18-18.658" fill="#F5AE8D"/><path d="M480.841 447.067c10.202-13.602-5.347-31.23-5.347-38.925 0-22.117 13.874-58.991 13.874-58.991s-1.496-.868 8.422-2.864c6.031-1.213 6.994-1.492 6.994-1.492l22.386-3.962 32.332 9.123 4.065 23.354-13.626 73.757c2.074 7.237 4.704 29.643 4.704 29.643H449.379c5.221-38.927 27.492-24.35 31.462-29.643Z" fill="#CCEA2A"/><path d="M557.249 353.77s1.978-.499 7.358 2.323c2.784 1.464 12.892 6.809 9.477 39.303-1.558 14.817-.835 25.883-11.967 53.992-2.332 4.359-26.511 19.624-92.677 29.779 0 0 4.021-1.015 0-5.288 0 0 69.089-30.845 76.535-38.406 7.445-7.562 9.32-54.207 2.504-62.342" fill="#FFBD9E"/><path d="M474.24 465.403s-26.639-12.087-30.588-10.685c-5.207 1.85-13.126 4.651-20.964 12.046l-.01 3.399s10.369-7.732 16.742-8.241l-15.496 9.676 1.865 3.873 15.62-8.65-14.918 14.587s.704 5.362 3.961 2.386c3.258-2.975 7.68-7.788 10.933-9.162 3.253-1.375 24.342 5.821 29.449 4.919 2.884 1.075 10.552 1.045 3.406-14.148Z" fill="#FFA591"/><path d="M531.726 307.862s-6.394 28.669 8.365 36.291c0 0-44.515 35.836-41.648 2.041 0 0 14.155 0 7.701-16.376l25.582-21.956Z" fill="#F3B484"/><path fill="#D29420" d="m307.191 476.174 288.088.876-.047 15.394-288.088-.876z"/><path d="M366.466 400.701h92.763c2.434 0 4.693 1.506 5.62 3.766l28.565 69.702h51.162a2.596 2.596 0 0 1 2.607 2.608 2.596 2.596 0 0 1-2.607 2.607H398.971a10.174 10.174 0 0 1-9.271-6.026l-28.796-64.082c-1.739-3.998 1.158-8.575 5.562-8.575Z" fill="#C1C1C1"/><path d="M416.411 441.317c.637 3.129 3.361 5.215 6.084 4.693 2.723-.521 4.461-3.534 3.824-6.663-.637-3.129-3.361-5.215-6.084-4.693-2.723.521-4.461 3.534-3.824 6.663Z" fill="#fff"/><path d="m402.795 479.442 142.129-.116a2.597 2.597 0 0 0 2.607-2.607 2.597 2.597 0 0 0-2.607-2.608l-154.934.058 1.912 2.434c2.723 1.97 4.519 3.129 10.893 2.839Z" fill="#919090"/><path d="M530.468 317.16s.237-7.54 7.6-14.394c7.364-6.854 8.298-29.998-6.973-44.284-15.334-14.256-45.008-6.679-56.669 19.53 0 0-2.077 7.839 1.146 16.296 3.223 8.458 54.896 22.852 54.896 22.852Z" fill="#753602"/><path d="M524.12 313.654c2.378-4.623.195-6.083 2.761-8.543 2.777-2.662 8.661-11.763 1.873-14.677-3.477-1.493-6.697.736-7.707 4.574-2.222 8.446-9.914-2.663-12.641-6.771-2.727-4.108-6.813-6.143-12.985-6.559-5.878-.397-10.846-5.571-14.953-4.139-2.762.962-3.722 3.854-3.706 4.37-.193 3.457-.595 7.939.962 15.042l2.453 3.556s1.148 20.194 17.446 31.235c0 0 2.428 2.785 10.234-.122 7.807-2.907 13.886-13.343 16.263-17.966Z" fill="#F3B484"/><path d="M491.01 303.009c1.5 4-2.577 8.156-2.945 9.582-.528 2.049 2.445 1.918 5.945 1.918" stroke="#EC8F64" stroke-linecap="round" stroke-linejoin="bevel"/><path opacity=".2" d="M504.171 314.956c2.327.481 4.803-1.978 5.53-5.494.727-3.515-.57-6.755-2.897-7.236-2.327-.482-4.804 1.978-5.531 5.493-.727 3.515.57 6.756 2.898 7.237ZM484.561 315.82c1.805-.752 2.074-4.108 1.125-6.505-.859-2.168-3.122-4.344-4.557-3.859.222.121.647 3.174 1.637 6.105 1.184 2.841 1.577 4.467 1.795 4.259Z" fill="#DD6637"/><path d="M543.138 285.665s4.927-2.442 8.508 3.25c3.581 5.692-3.362 28.864-15.506 15.625l6.998-18.875Z" fill="#572802"/><path d="M524.592 295.266c-5.021-1.295 8.61-5.059 5.117 3.101-3.494 8.161-2.46 3.883-2.46 3.883s2.364-5.689-2.657-6.984Z" fill="#F29A71"/><path d="M496.01 294.295c1.284-1.184 4.955-2.669 9.366.858M486.601 295.506c-1.368-.244-4.747-.274-7.57 2.823" stroke="#C98659" stroke-width=".775" stroke-linecap="round"/><path d="M485.221 300.264c.272.563.337 1.168.246 1.802-.104.569-.429 1.112-.856 1.402a1.399 1.399 0 0 1-.688.34 1.385 1.385 0 0 1-.765-.056c-.233-.091-.518-.172-.725-.406a2.51 2.51 0 0 1-.57-.711c-.272-.563-.337-1.167-.246-1.802.104-.569.429-1.112.856-1.401.182-.173.428-.29.688-.341.259-.05.531-.035.765.056.233.092.466.183.725.406.259.224.467.457.57.711ZM501.608 297.582c.243.574.3 1.246.2 1.875-.149.637-.476 1.098-.885 1.367-.223.172-.467.211-.712.25-.244.04-.499.012-.716-.089a1.866 1.866 0 0 1-.672-.438 2.62 2.62 0 0 1-.519-.734c-.242-.574-.299-1.246-.199-1.875.149-.637.476-1.098.885-1.368.223-.172.467-.211.712-.25.244-.039.499-.012.716.09.266.094.493.262.672.437.178.176.368.418.518.735Z" fill="#724422"/><path d="M501.369 317.828a54.04 54.04 0 0 1-11.813 2.186c.285 1 1.394 1.859 2.133 2.589.74.73 1.878 1.33 2.881 1.603 1.09.24 1.432.138 2.478-.253a5.79 5.79 0 0 0 2.622-1.969 9.603 9.603 0 0 0 1.699-4.156Z" fill="#D67538"/><path d="M573.636 372.456c0 7.842-20.257 63.717-28.214 63.717 11.746-57.134 0-65.279 0-73.122 0-7.842 3.789-14.258 11.746-14.258 7.958 0 16.468 7.675 16.468 23.663Z" fill="#FFBD9E"/><path d="m523.263 315.18.19 1.12c-2.209 7.387-5.855 14.939-15.604 20.584-.142-1.496-.484-3.659-.967-5.109 9.111-4.726 14.793-10.795 16.381-16.595Z" fill="#EA9C68"/><defs><filter id="a" x="447.224" y="116.966" width="77.705" height="77.705" filterUnits="userSpaceOnUse" color-interpolation-filters="sRGB"><feFlood flood-opacity="0" result="BackgroundImageFix"/><feColorMatrix in="SourceAlpha" values="0 0 0 0 0 0 0 0 0 0 0 0 0 0 0 0 0 0 127 0" result="hardAlpha"/><feOffset dx="4" dy="4"/><feColorMatrix values="0 0 0 0 0 0 0 0 0 0 0 0 0 0 0 0 0 0 0.15 0"/><feBlend in2="BackgroundImageFix" result="effect1_dropShadow_2_3315"/><feBlend in="SourceGraphic" in2="effect1_dropShadow_2_3315" result="shape"/></filter><filter id="c" x="44.417" y="158.068" width="81.705" height="81.705" filterUnits="userSpaceOnUse" color-interpolation-filters="sRGB"><feFlood flood-opacity="0" result="BackgroundImageFix"/><feColorMatrix in="SourceAlpha" values="0 0 0 0 0 0 0 0 0 0 0 0 0 0 0 0 0 0 127 0" result="hardAlpha"/><feOffset dy="4"/><feGaussianBlur stdDeviation="2"/><feColorMatrix values="0 0 0 0 0 0 0 0 0 0 0 0 0 0 0 0 0 0 0.1 0"/><feBlend in2="BackgroundImageFix" result="effect1_dropShadow_2_3315"/><feBlend in="SourceGraphic" in2="effect1_dropShadow_2_3315" result="shape"/></filter><filter id="d" x="48.417" y="158.068" width="77.705" height="77.705" filterUnits="userSpaceOnUse" color-interpolation-filters="sRGB"><feFlood flood-opacity="0" result="BackgroundImageFix"/><feColorMatrix in="SourceAlpha" values="0 0 0 0 0 0 0 0 0 0 0 0 0 0 0 0 0 0 127 0" result="hardAlpha"/><feOffset dx="4" dy="4"/><feColorMatrix values="0 0 0 0 0 0 0 0 0 0 0 0 0 0 0 0 0 0 0.25 0"/><feBlend in2="BackgroundImageFix" result="effect1_dropShadow_2_3315"/><feBlend in="SourceGraphic" in2="effect1_dropShadow_2_3315" result="shape"/></filter><filter id="f" x="327.095" y="8.878" width="77.705" height="77.705" filterUnits="userSpaceOnUse" color-interpolation-filters="sRGB"><feFlood flood-opacity="0" result="BackgroundImageFix"/><feColorMatrix in="SourceAlpha" values="0 0 0 0 0 0 0 0 0 0 0 0 0 0 0 0 0 0 127 0" result="hardAlpha"/><feOffset dx="4" dy="4"/><feColorMatrix values="0 0 0 0 0 0 0 0 0 0 0 0 0 0 0 0 0 0 0.1 0"/><feBlend in2="BackgroundImageFix" result="effect1_dropShadow_2_3315"/><feBlend in="SourceGraphic" in2="effect1_dropShadow_2_3315" result="shape"/></filter><filter id="h" x="173.013" y="16.149" width="77.705" height="77.705" filterUnits="userSpaceOnUse" color-interpolation-filters="sRGB"><feFlood flood-opacity="0" result="BackgroundImageFix"/><feColorMatrix in="SourceAlpha" values="0 0 0 0 0 0 0 0 0 0 0 0 0 0 0 0 0 0 127 0" result="hardAlpha"/><feOffset dx="4" dy="4"/><feColorMatrix values="0 0 0 0 0 0 0 0 0 0 0 0 0 0 0 0 0 0 0.1 0"/><feBlend in2="BackgroundImageFix" result="effect1_dropShadow_2_3315"/><feBlend in="SourceGraphic" in2="effect1_dropShadow_2_3315" result="shape"/></filter><linearGradient id="b" x1="509.894" y1="127.973" x2="458.846" y2="179.022" gradientUnits="userSpaceOnUse"><stop stop-color="#fff"/><stop offset=".845" stop-color="#fff"/></linearGradient><linearGradient id="e" x1="111.087" y1="169.075" x2="60.038" y2="220.124" gradientUnits="userSpaceOnUse"><stop stop-color="#fff"/><stop offset=".845" stop-color="#fff"/></linearGradient><linearGradient id="g" x1="389.765" y1="19.885" x2="338.716" y2="70.934" gradientUnits="userSpaceOnUse"><stop stop-color="#fff"/><stop offset=".845" stop-color="#fff"/></linearGradient><linearGradient id="i" x1="235.683" y1="27.156" x2="184.634" y2="78.205" gradientUnits="userSpaceOnUse"><stop stop-color="#fff"/><stop offset=".845" stop-color="#fff"/></linearGradient></defs></svg>