<svg width="629" height="427" fill="none" xmlns="http://www.w3.org/2000/svg"><path d="M4.348 277.339c6.784 20.583 18.658 99.013 136.542 137.108s198.961-81.833 313.707-93.204c114.661-11.37 149.178-19.337 146.125-81.667-3.053-62.33-88.116-151.882-203.965-201.845C260.724-20.864 152-3.435 85.51 47.774-7.44 119.482-4.727 250.033 4.348 277.339Z" fill="#DAE6FF"/><path d="M628.842 17.265h-290.27v372.278h290.27V17.264Z" fill="#3D93B4"/><path d="M617.783 27.86H350.836v338.372h266.947V27.859Z" fill="#fff"/><path d="M522.971 336.174h-78.285a6.037 6.037 0 0 0-6.037 6.037v6.513a6.037 6.037 0 0 0 6.037 6.038h78.285a6.037 6.037 0 0 0 6.037-6.038v-6.513a6.037 6.037 0 0 0-6.037-6.037Z" fill="#FEC14F"/><path d="M486.002 128.388h-92.287a2.476 2.476 0 0 0-2.476 2.476v11.843a2.476 2.476 0 0 0 2.476 2.477h92.287a2.477 2.477 0 0 0 2.477-2.477v-11.843a2.477 2.477 0 0 0-2.477-2.476Z" fill="#fff"/><path d="M486.003 129.007h-92.288a1.857 1.857 0 0 0-1.857 1.857v11.843c0 1.026.832 1.858 1.857 1.858h92.288a1.858 1.858 0 0 0 1.857-1.858v-11.843a1.857 1.857 0 0 0-1.857-1.857Z" stroke="#9B9B9B" stroke-width=".735"/><path d="M592.549 128.388h-92.287a2.477 2.477 0 0 0-2.477 2.476v11.843a2.477 2.477 0 0 0 2.477 2.477h92.287a2.477 2.477 0 0 0 2.476-2.477v-11.843a2.477 2.477 0 0 0-2.476-2.476Z" fill="#fff"/><path d="M592.549 129.007h-92.287a1.857 1.857 0 0 0-1.858 1.857v11.843c0 1.026.832 1.858 1.858 1.858h92.287a1.857 1.857 0 0 0 1.857-1.858v-11.843a1.856 1.856 0 0 0-1.857-1.857Z" stroke="#9B9B9B" stroke-width=".735"/><path d="M486.002 171.815h-92.287a2.476 2.476 0 0 0-2.476 2.477v10.959a2.475 2.475 0 0 0 2.476 2.476h92.287a2.476 2.476 0 0 0 2.477-2.476v-10.959a2.477 2.477 0 0 0-2.477-2.477Z" fill="#fff"/><path d="M486.003 172.435h-92.288a1.857 1.857 0 0 0-1.857 1.857v10.959c0 1.026.832 1.857 1.857 1.857h92.288a1.857 1.857 0 0 0 1.857-1.857v-10.959a1.857 1.857 0 0 0-1.857-1.857Z" stroke="#9B9B9B" stroke-width=".735"/><path d="M489.891 233.803h-80.417v8.84h80.417v-8.84ZM457.159 255.313h-47.685v8.839h47.685v-8.839ZM462.771 276.823h-53.297v8.839h53.297v-8.839ZM478.669 298.331h-69.195v8.839h69.195v-8.839ZM556.291 233.803h-57.037v8.84h57.037v-8.84ZM449.719 210.393h-57.037v8.839h57.037v-8.839ZM448.276 155.561h-57.037v8.839h57.037v-8.839ZM448.276 107.222h-57.037v8.839h57.037v-8.839ZM549.243 107.222h-92.349v8.657h92.349v-8.657ZM556.291 255.313h-88.833v8.839h88.833v-8.839ZM544.134 276.823h-70.13v8.839h70.13v-8.839ZM546.939 298.331h-57.037v8.839h57.037v-8.839Z" fill="#D1D1D1"/><path opacity=".428" d="M504.511 341.866h-41.547v7.957h41.547v-7.957Z" fill="#fff"/><path d="M617.778 47.63H350.836v33.456h266.942V47.63Z" fill="#FFD592"/><path d="M395.162 265.637a6.08 6.08 0 1 0 0-12.158 6.08 6.08 0 0 0 0 12.158Z" fill="#fff"/><path d="M395.162 265.018a5.459 5.459 0 1 0 0-10.918 5.459 5.459 0 0 0 0 10.918Z" stroke="#707070" stroke-width=".735"/><path d="M395.162 287.147a6.079 6.079 0 1 0 0-12.157 6.079 6.079 0 0 0 0 12.157Z" fill="#fff"/><path d="M395.162 286.528a5.459 5.459 0 1 0 0-10.918 5.459 5.459 0 0 0 0 10.918Z" stroke="#707070" stroke-width=".735"/><path d="M395.162 308.656a6.079 6.079 0 1 0 0-12.157 6.079 6.079 0 0 0 0 12.157Z" fill="#fff"/><path d="M395.162 308.037a5.459 5.459 0 1 0 0-10.918 5.459 5.459 0 0 0 0 10.918Z" stroke="#707070" stroke-width=".735"/><g filter="url(#a)"><path d="M357.19 132.878H108.497a4.757 4.757 0 0 0-4.762 4.761v95.019a4.757 4.757 0 0 0 4.762 4.762H357.19a4.758 4.758 0 0 0 4.762-4.762v-95.019a4.757 4.757 0 0 0-4.762-4.761Z" fill="#fff"/><path d="M357.19 133.238H108.497a4.342 4.342 0 0 0-4.329 4.329v95.019a4.342 4.342 0 0 0 4.329 4.329H357.19a4.342 4.342 0 0 0 4.329-4.329v-94.947c0-2.453-1.948-4.401-4.329-4.401Z" stroke="#B7B7B7" stroke-width=".735"/><path d="M357.19 249.142H108.497c-2.598 0-4.762 1.516-4.762 3.45v68.854c0 1.883 2.092 3.451 4.762 3.451H357.19c2.597 0 4.762-1.516 4.762-3.451v-68.854c0-1.934-2.165-3.45-4.762-3.45Z" fill="#fff"/><path d="M357.19 249.403H108.497c-2.381 0-4.329 1.412-4.329 3.137v68.854c0 1.725 1.948 3.137 4.329 3.137H357.19c2.381 0 4.329-1.412 4.329-3.137v-68.802c0-1.777-1.948-3.189-4.329-3.189Z" stroke="#B7B7B7" stroke-width=".735"/><path d="M108.497 132.878h7.936V237.42h-7.936c-1.227 0-2.453-.505-3.391-1.371-.866-.866-1.371-2.093-1.371-3.391v-95.019c0-1.226.505-2.453 1.371-3.391.866-.938 2.164-1.37 3.391-1.37Z" fill="#5495FF"/><path d="M183.891 174.074h156.055c.722 0 1.299.866 1.299 1.948v19.48c0 1.082-.577 1.948-1.299 1.948H183.891c-.722 0-1.299-.866-1.299-1.948v-19.48c0-1.082.577-1.948 1.299-1.948ZM183.891 143.772h156.055c.722 0 1.299.865 1.299 1.948v19.48c0 1.082-.577 1.948-1.299 1.948H183.891c-.722 0-1.299-.866-1.299-1.948v-19.48c0-1.083.577-1.948 1.299-1.948ZM183.891 204.015h156.055c.722 0 1.299.866 1.299 1.948v19.48c0 1.082-.577 1.948-1.299 1.948H183.891c-.722 0-1.299-.866-1.299-1.948v-19.48c0-1.082.577-1.948 1.299-1.948Z" stroke="#B7B7B7" stroke-width="1.47"/><path d="M133.099 183.814c-.866-.289-1.515-.577-1.948-.938-.433-.361-.577-.866-.577-1.371 0-.649.216-1.154.721-1.515.505-.433 1.154-.577 1.948-.577.577 0 1.01.072 1.443.288.433.217.722.505 1.01.866.217.361.361.794.361 1.227h-1.01c0-.505-.145-.866-.433-1.155-.289-.288-.722-.433-1.299-.433-.505 0-.938.145-1.226.361-.289.217-.433.505-.433.938 0 .289.144.577.433.794.288.216.721.433 1.371.577.649.216 1.154.361 1.515.577.36.217.649.505.793.794.145.288.289.649.289 1.01 0 .649-.217 1.154-.722 1.515s-1.154.577-2.02.577c-.577 0-1.01-.072-1.515-.288-.433-.217-.866-.506-1.082-.866-.289-.361-.361-.794-.361-1.227h1.01c0 .505.145.866.505 1.155.361.288.794.432 1.443.432.577 0 .938-.144 1.227-.36.288-.217.433-.505.433-.938 0-.433-.145-.65-.433-.866-.217-.144-.722-.361-1.443-.577Zm9.74-3.535h-2.525v6.998h-1.011v-6.998h-2.525v-.866h6.061v.866Zm5.05 4.978h-3.319l-.721 2.092h-1.082l3.03-7.864h.938l3.03 7.864h-1.082l-.794-2.092Zm-2.958-.866h2.669l-1.37-3.679-1.299 3.679Zm10.606-4.112h-2.525v6.998h-1.011v-6.998h-2.525v-.866h6.061v.866Zm5.627 3.391h-3.391v2.813h3.968v.866h-4.978v-7.864h4.978v.866h-3.896v2.525h3.391v.794h-.072ZM133.388 217.651l2.236-6.493h1.155l-2.958 7.864h-.938l-2.886-7.864h1.154l2.237 6.493Zm8.441-.721h-3.319l-.721 2.092h-1.083l3.031-7.864h.938l3.03 7.864h-1.082l-.794-2.092Zm-3.03-.866h2.669l-1.371-3.68-1.298 3.68Zm6.926 2.092h3.752v.866h-4.762v-7.864h1.01v6.998Zm10.173-7.07v5.339c0 .721-.217 1.37-.722 1.803-.433.505-1.082.722-1.876.794h-.288c-.866 0-1.515-.217-2.092-.722-.505-.433-.794-1.082-.794-1.948v-5.339h1.01v5.339c0 .578.144 1.01.505 1.299.289.289.794.505 1.371.505s1.01-.144 1.371-.505c.288-.289.505-.721.505-1.299v-5.339h1.01v.073Zm6.132 4.256h-3.391v2.814h3.968v.866h-5.05v-7.864h4.978v.866h-3.896v2.525h3.391v.793ZM131.945 158.779h-1.082v-7.865h1.01v7.865h.072Zm6.205-3.464h-3.319v3.464h-1.01v-7.865h4.906v.866h-3.824v2.67h3.319v.865h-.072Z" fill="#000"/><path d="M109.208 249.142h7.92v75.911h-7.92c-1.26 0-2.469-.364-3.36-1.011-.891-.647-1.392-1.525-1.392-2.44v-69.01c0-.915.501-1.792 1.392-2.44.891-.647 2.1-1.01 3.36-1.01Z" fill="#47C405"/><path d="M196.113 271.043c-.15-.722-.75-1.65-2.249-1.65-1.228 0-2.193.937-2.193 1.978 0 .993.674 1.612 1.621 1.818l.947.206c.665.141.993.553.993 1.031 0 .581-.45 1.059-1.368 1.059-1.003 0-1.528-.684-1.594-1.424l-.881.281c.122.946.881 1.977 2.484 1.977 1.415 0 2.296-.937 2.296-1.968 0-.928-.618-1.621-1.724-1.865l-.994-.215c-.562-.122-.853-.488-.853-.966 0-.618.535-1.106 1.284-1.106.928 0 1.331.656 1.406 1.134l.825-.29Zm2.061 2.483c.019-.665.375-1.19 1.05-1.19.787 0 1.049.506 1.049 1.134v2.709h.881v-2.859c0-1.003-.534-1.781-1.612-1.781-.515 0-1.04.179-1.368.657v-2.803h-.881v6.786h.881v-2.653Zm6.312 2.006c-.75 0-1.406-.562-1.406-1.612 0-1.04.656-1.603 1.406-1.603.75 0 1.406.563 1.406 1.603 0 1.05-.656 1.612-1.406 1.612Zm0-4.002c-1.349 0-2.305 1.022-2.305 2.39 0 1.378.956 2.399 2.305 2.399 1.35 0 2.306-1.021 2.306-2.399 0-1.368-.956-2.39-2.306-2.39Zm5.881.141-1.171 3.392-1.012-3.392h-.966l1.481 4.508h.928l1.171-3.43 1.2 3.43h.909l1.462-4.508h-.928l-.993 3.392-1.172-3.392h-.909ZM197.631 305.092v-3.252h-3.177v.825h2.306c-.038.684-.572 1.734-2.053 1.734-1.19 0-2.315-.872-2.315-2.634s1.162-2.615 2.353-2.615c1.031 0 1.809.563 2.108 1.519l.835-.357c-.385-1.199-1.5-2.005-2.943-2.005-1.64 0-3.29 1.209-3.29 3.458s1.556 3.468 3.224 3.468c1.115 0 1.837-.553 2.128-1.078l.084.937h.74Zm3.821-4.555a1.705 1.705 0 0 0-.291-.028c-.459 0-1.021.169-1.349.862v-.787h-.863v4.508h.881v-2.259c0-.993.497-1.387 1.238-1.387.121 0 .253.01.384.029v-.938Zm.658 3.346c0 .712.59 1.35 1.509 1.35.806 0 1.255-.431 1.452-.75 0 .328.028.497.047.609h.862c-.018-.112-.056-.347-.056-.74v-2.259c0-.881-.525-1.649-1.874-1.649-.975 0-1.753.599-1.847 1.462l.844.196c.056-.524.403-.909 1.021-.909.685 0 .975.366.975.806 0 .16-.075.3-.347.338l-1.218.178c-.778.112-1.368.562-1.368 1.368Zm1.63.609c-.449 0-.731-.318-.731-.656 0-.403.282-.618.656-.675l1.378-.206v.206c0 .985-.581 1.331-1.303 1.331Zm4.081-1.668c0-.928.525-1.584 1.331-1.584.806 0 1.294.638 1.294 1.565 0 .928-.497 1.631-1.303 1.631-.844 0-1.322-.684-1.322-1.612Zm2.634 1.659c0 .272.028.506.047.609h.853a6.97 6.97 0 0 1-.047-.834v-5.951h-.872v2.914c-.15-.365-.581-.759-1.377-.759-1.275 0-2.137 1.087-2.137 2.362 0 1.34.815 2.39 2.137 2.39.702 0 1.18-.375 1.396-.806v.075Zm5.277.066c0 .187.018.44.037.543h.844a7.506 7.506 0 0 1-.047-.834v-3.674h-.881v2.718c0 .684-.356 1.153-1.069 1.153-.74 0-1.021-.544-1.021-1.162v-2.709h-.881v2.84c0 1.021.637 1.809 1.687 1.809.525 0 1.087-.216 1.331-.684Zm2.056-.666c0 .712.59 1.35 1.509 1.35.806 0 1.256-.431 1.452-.75 0 .328.029.497.047.609h.863a4.18 4.18 0 0 1-.057-.74v-2.259c0-.881-.524-1.649-1.874-1.649-.975 0-1.753.599-1.846 1.462l.843.196c.056-.524.403-.909 1.022-.909.684 0 .974.366.974.806 0 .16-.075.3-.346.338l-1.219.178c-.778.112-1.368.562-1.368 1.368Zm1.631.609c-.45 0-.731-.318-.731-.656 0-.403.281-.618.656-.675l1.377-.206v.206c0 .985-.581 1.331-1.302 1.331Zm4.737-5.332h-.806v.731c0 .393-.207.693-.694.693h-.244v.797h.863v2.474c0 .815.487 1.284 1.256 1.284.299 0 .524-.056.599-.084v-.75a1.763 1.763 0 0 1-.346.037c-.46 0-.628-.206-.628-.618v-2.343h.974v-.797h-.974v-1.424Zm2.676 3.214c.038-.581.488-1.153 1.228-1.153.797 0 1.218.507 1.237 1.153h-2.465Zm2.596 1.172c-.168.506-.534.909-1.265.909-.759 0-1.34-.562-1.359-1.368h3.393c.009-.057.019-.169.019-.282 0-1.405-.778-2.361-2.165-2.361-1.134 0-2.156.965-2.156 2.38 0 1.528 1.059 2.409 2.268 2.409 1.05 0 1.771-.628 2.024-1.425l-.759-.262Zm5.942-1.294v2.84h.919v-2.84l2.343-3.805h-1.05l-1.724 2.962-1.725-2.962h-1.106l2.343 3.805Zm3.836.122c.038-.581.488-1.153 1.228-1.153.797 0 1.219.507 1.237 1.153h-2.465Zm2.596 1.172c-.168.506-.534.909-1.265.909-.759 0-1.34-.562-1.359-1.368h3.393c.009-.057.019-.169.019-.282 0-1.405-.778-2.361-2.165-2.361-1.134 0-2.156.965-2.156 2.38 0 1.528 1.059 2.409 2.268 2.409 1.05 0 1.772-.628 2.025-1.425l-.76-.262Zm1.631.337c0 .712.591 1.35 1.509 1.35.806 0 1.256-.431 1.453-.75 0 .328.028.497.047.609h.862a4.218 4.218 0 0 1-.056-.74v-2.259c0-.881-.525-1.649-1.875-1.649-.974 0-1.752.599-1.846 1.462l.843.196c.057-.524.403-.909 1.022-.909.684 0 .975.366.975.806 0 .16-.075.3-.347.338l-1.218.178c-.778.112-1.369.562-1.369 1.368Zm1.631.609c-.45 0-.731-.318-.731-.656 0-.403.281-.618.656-.675l1.378-.206v.206c0 .985-.581 1.331-1.303 1.331Zm6.058-3.955a1.679 1.679 0 0 0-.29-.028c-.459 0-1.022.169-1.35.862v-.787h-.862v4.508h.881v-2.259c0-.993.497-1.387 1.237-1.387.122 0 .253.01.384.029v-.938Z" fill="#666"/><path d="M184.579 291.146h156.03c.713 0 1.289.871 1.289 1.951v19.507c0 1.077-.577 1.95-1.289 1.95h-156.03c-.713 0-1.29-.871-1.29-1.95v-19.507c0-1.08.578-1.951 1.29-1.951ZM184.579 262.128h156.03c.713 0 1.289.872 1.289 1.951v19.507c0 1.077-.577 1.951-1.289 1.951h-156.03c-.713 0-1.29-.872-1.29-1.951v-19.507c0-1.079.578-1.951 1.29-1.951Z" stroke="#B7B7B7" stroke-width="1.47"/><path d="M133.596 301.009c-.827-.238-1.43-.529-1.808-.874a1.686 1.686 0 0 1-.563-1.286c0-.576.23-1.052.688-1.427.463-.378 1.062-.568 1.799-.568.502 0 .949.098 1.341.292.395.194.7.462.914.804.218.341.327.715.327 1.12h-.97c0-.442-.14-.789-.422-1.04-.281-.255-.678-.382-1.19-.382-.476 0-.848.106-1.115.317-.265.207-.397.497-.397.869 0 .298.125.551.376.758.255.205.685.392 1.291.563.61.171 1.086.36 1.427.568.345.204.6.443.764.718.167.275.251.598.251.969 0 .593-.231 1.069-.693 1.427-.462.355-1.08.533-1.854.533-.502 0-.971-.096-1.407-.287-.435-.194-.772-.459-1.009-.793a1.938 1.938 0 0 1-.352-1.141h.97c0 .442.162.792.487 1.05.328.255.765.382 1.311.382.509 0 .899-.104 1.17-.312.272-.207.407-.49.407-.848 0-.359-.125-.635-.376-.829-.252-.198-.707-.392-1.367-.583Zm9.007-3.26h-2.351v6.52h-.959v-6.52h-2.346v-.794h5.656v.794Zm4.722 4.611h-3.064l-.688 1.909h-.995l2.793-7.314h.844l2.798 7.314h-.989l-.699-1.909Zm-2.772-.793h2.486l-1.246-3.422-1.24 3.422Zm9.846-3.818h-2.351v6.52h-.96v-6.52h-2.346v-.794h5.657v.794Zm5.219 3.139h-3.17v2.592h3.682v.789h-4.646v-7.314h4.596v.794h-3.632v2.351h3.17v.788Z" fill="#000"/><path d="M192.814 188.159v-6.645h-.937v6.645h.937Zm1.174-1.172c.075.516.6 1.312 1.837 1.312 1.115 0 1.65-.759 1.65-1.396 0-.666-.432-1.162-1.247-1.34l-.731-.16c-.347-.075-.515-.272-.515-.543 0-.31.299-.6.749-.6.713 0 .9.515.938.75l.777-.291c-.093-.403-.478-1.209-1.715-1.209-.881 0-1.602.656-1.602 1.425 0 .637.421 1.115 1.124 1.265l.769.169c.375.084.581.3.581.581 0 .318-.272.6-.769.6-.637 0-.993-.375-1.049-.844l-.797.281Zm11.136 1.172v-.853h-3.121v-2.034h2.83v-.862h-2.83v-2.043h3.121v-.853h-4.04v6.645h4.04Zm5.169 1.78v-6.288h-.853v.693c-.188-.403-.666-.806-1.444-.806-1.321 0-2.118 1.078-2.118 2.353 0 1.312.844 2.39 2.137 2.39.666 0 1.172-.3 1.406-.76v2.418h.872Zm-3.515-4.048c0-.928.506-1.575 1.322-1.575.796 0 1.33.647 1.33 1.575 0 .927-.534 1.612-1.33 1.612-.807 0-1.322-.685-1.322-1.612Zm7.892 1.724c0 .188.019.441.037.544h.844a7.523 7.523 0 0 1-.047-.834v-3.674h-.881v2.718c0 .684-.356 1.152-1.068 1.152-.741 0-1.022-.543-1.022-1.162v-2.708h-.881v2.839c0 1.022.637 1.809 1.687 1.809.525 0 1.087-.215 1.331-.684Zm2.056-.665c0 .712.591 1.349 1.509 1.349.806 0 1.256-.431 1.453-.749 0 .328.028.496.047.609h.862a4.233 4.233 0 0 1-.056-.741v-2.258c0-.881-.525-1.65-1.875-1.65-.974 0-1.752.6-1.846 1.462l.843.197c.057-.525.403-.909 1.022-.909.684 0 .975.365.975.806 0 .159-.075.3-.347.337l-1.218.178c-.778.113-1.369.563-1.369 1.369Zm1.631.609c-.45 0-.731-.319-.731-.656 0-.403.281-.619.656-.675l1.378-.206v.206c0 .984-.581 1.331-1.303 1.331Zm4.437.6v-6.786h-.881v6.786h.881Zm8.547-5.792v-.853h-5.361v.853h2.221v5.792h.918v-5.792h2.222Zm1.884 5.145c-.75 0-1.406-.562-1.406-1.612 0-1.04.656-1.603 1.406-1.603.75 0 1.406.563 1.406 1.603 0 1.05-.656 1.612-1.406 1.612Zm0-4.002c-1.35 0-2.305 1.022-2.305 2.39 0 1.378.955 2.399 2.305 2.399s2.306-1.021 2.306-2.399c0-1.368-.956-2.39-2.306-2.39ZM193.47 214.899v2.84h.919v-2.84l2.343-3.805h-1.05l-1.725 2.962-1.724-2.962h-1.106l2.343 3.805Zm3.836.122c.038-.581.488-1.152 1.228-1.152.797 0 1.218.506 1.237 1.152h-2.465Zm2.596 1.172c-.168.506-.534.909-1.265.909-.759 0-1.34-.562-1.359-1.368h3.393c.009-.057.019-.169.019-.282 0-1.405-.778-2.361-2.165-2.361-1.134 0-2.156.965-2.156 2.38 0 1.528 1.059 2.409 2.268 2.409 1.05 0 1.771-.628 2.025-1.425l-.76-.262Zm1.49.375c.075.515.6 1.312 1.837 1.312 1.116 0 1.65-.759 1.65-1.397 0-.665-.431-1.162-1.247-1.34l-.731-.159c-.346-.075-.515-.272-.515-.544 0-.309.3-.6.75-.6.712 0 .899.516.937.75l.778-.29c-.094-.403-.478-1.209-1.715-1.209-.881 0-1.603.656-1.603 1.424 0 .638.422 1.116 1.125 1.265l.768.169c.375.085.581.3.581.581 0 .319-.271.6-.768.6-.638 0-.994-.375-1.05-.843l-.797.281Z" fill="#666"/><path d="M131.441 275.757v-7.314h2.065c.636 0 1.199.141 1.688.422a2.84 2.84 0 0 1 1.13 1.201c.268.519.404 1.115.407 1.788v.467c0 .69-.134 1.295-.402 1.814a2.794 2.794 0 0 1-1.14 1.195c-.493.278-1.067.421-1.723.427h-2.025Zm.965-6.52v5.732h1.014c.744 0 1.322-.231 1.734-.694.415-.462.622-1.12.622-1.974v-.427c0-.83-.195-1.475-.587-1.934-.389-.462-.941-.697-1.658-.703h-1.125Zm11.413 3.099c0 .717-.12 1.343-.362 1.879-.241.533-.582.94-1.024 1.221-.442.281-.958.422-1.548.422a2.812 2.812 0 0 1-1.532-.422 2.845 2.845 0 0 1-1.04-1.211c-.244-.526-.37-1.133-.376-1.823v-.528c0-.703.122-1.324.366-1.864.245-.539.59-.951 1.035-1.235a2.784 2.784 0 0 1 1.537-.432c.586 0 1.102.142 1.548.427.448.281.793.691 1.034 1.23.242.536.362 1.161.362 1.874v.462Zm-.959-.472c0-.867-.175-1.532-.523-1.994-.348-.466-.835-.699-1.462-.699-.609 0-1.09.233-1.441.699-.349.462-.528 1.105-.538 1.929v.537c0 .841.176 1.502.528 1.985.355.479.842.718 1.461.718.623 0 1.106-.226 1.447-.678.342-.456.518-1.107.528-1.954v-.543Z" fill="#000"/><path d="M196.479 157.857h.993l-2.643-6.645h-1.059l-2.643 6.645h.984l.703-1.856h2.943l.722 1.856Zm-2.203-5.689 1.153 2.98h-2.287l1.134-2.98Zm6.499 1.134a1.606 1.606 0 0 0-.291-.028c-.459 0-1.022.168-1.35.862v-.787h-.862v4.508h.881v-2.259c0-.994.497-1.387 1.237-1.387.122 0 .253.009.385.028v-.937Zm1.464 1.837c.038-.581.488-1.153 1.228-1.153.797 0 1.219.506 1.237 1.153h-2.465Zm2.597 1.171c-.169.506-.535.909-1.266.909-.759 0-1.34-.562-1.359-1.368h3.393a2.03 2.03 0 0 0 .019-.281c0-1.406-.778-2.362-2.165-2.362-1.134 0-2.156.965-2.156 2.381 0 1.527 1.059 2.408 2.268 2.408 1.05 0 1.772-.628 2.025-1.424l-.759-.263Zm5.379 3.43 2.934-6.391h-.947l-1.35 3.111-1.405-3.111h-1.013l1.94 4.011-1.124 2.38h.965Zm5.529-2.53c-.75 0-1.406-.562-1.406-1.612 0-1.04.656-1.603 1.406-1.603.75 0 1.406.563 1.406 1.603 0 1.05-.656 1.612-1.406 1.612Zm0-4.002c-1.35 0-2.306 1.022-2.306 2.39 0 1.378.956 2.399 2.306 2.399 1.349 0 2.305-1.021 2.305-2.399 0-1.368-.956-2.39-2.305-2.39Zm6.358 4.105c0 .187.018.44.037.544h.844a7.528 7.528 0 0 1-.047-.835v-3.673h-.881v2.717c0 .685-.356 1.153-1.069 1.153-.74 0-1.021-.543-1.021-1.162v-2.708h-.881v2.839c0 1.022.637 1.809 1.687 1.809.525 0 1.087-.215 1.331-.684Zm4.399-.665c0 .712.591 1.349 1.509 1.349.806 0 1.256-.431 1.453-.75 0 .328.028.497.047.61h.862a4.233 4.233 0 0 1-.056-.741v-2.259c0-.881-.525-1.649-1.875-1.649-.975 0-1.752.6-1.846 1.462l.843.197c.057-.525.403-.909 1.022-.909.684 0 .975.365.975.806 0 .159-.075.3-.347.337l-1.219.178c-.777.113-1.368.563-1.368 1.369Zm1.631.609c-.45 0-.731-.319-.731-.656 0-.403.281-.619.656-.675l1.378-.206v.206c0 .984-.582 1.331-1.303 1.331Zm11.747.6v-3.253h-3.177v.825h2.306c-.038.684-.572 1.734-2.053 1.734-1.19 0-2.315-.872-2.315-2.634s1.162-2.614 2.353-2.614c1.031 0 1.808.562 2.108 1.518l.834-.356c-.384-1.2-1.499-2.006-2.942-2.006-1.641 0-3.29 1.209-3.29 3.458 0 2.25 1.556 3.468 3.224 3.468 1.115 0 1.837-.553 2.127-1.078l.085.938h.74Zm3.821-4.555a1.606 1.606 0 0 0-.291-.028c-.459 0-1.021.168-1.349.862v-.787h-.863v4.508h.881v-2.259c0-.994.497-1.387 1.238-1.387.121 0 .253.009.384.028v-.937Zm.658 3.346c0 .712.59 1.349 1.508 1.349.806 0 1.256-.431 1.453-.75 0 .328.028.497.047.61h.862c-.018-.113-.056-.347-.056-.741v-2.259c0-.881-.525-1.649-1.874-1.649-.975 0-1.753.6-1.847 1.462l.844.197c.056-.525.403-.909 1.021-.909.685 0 .975.365.975.806 0 .159-.075.3-.347.337l-1.218.178c-.778.113-1.368.563-1.368 1.369Zm1.63.609c-.45 0-.731-.319-.731-.656 0-.403.281-.619.656-.675l1.378-.206v.206c0 .984-.581 1.331-1.303 1.331Zm4.081-1.668c0-.928.525-1.584 1.331-1.584.806 0 1.294.637 1.294 1.565 0 .928-.497 1.631-1.303 1.631-.844 0-1.322-.685-1.322-1.612Zm2.634 1.658c0 .272.028.506.047.61h.853a6.976 6.976 0 0 1-.047-.835v-5.951h-.872v2.915c-.15-.366-.581-.759-1.378-.759-1.274 0-2.136 1.087-2.136 2.362 0 1.34.815 2.389 2.136 2.389.703 0 1.181-.374 1.397-.806v.075Zm5.276.066c0 .187.019.44.038.544h.843a7.848 7.848 0 0 1-.046-.835v-3.673h-.881v2.717c0 .685-.357 1.153-1.069 1.153-.74 0-1.021-.543-1.021-1.162v-2.708h-.881v2.839c0 1.022.637 1.809 1.687 1.809.524 0 1.087-.215 1.33-.684Zm2.057-.665c0 .712.59 1.349 1.509 1.349.806 0 1.256-.431 1.452-.75 0 .328.029.497.047.61h.862c-.018-.113-.056-.347-.056-.741v-2.259c0-.881-.525-1.649-1.874-1.649-.975 0-1.753.6-1.846 1.462l.843.197c.056-.525.403-.909 1.022-.909.684 0 .974.365.974.806 0 .159-.075.3-.346.337l-1.219.178c-.778.113-1.368.563-1.368 1.369Zm1.631.609c-.45 0-.731-.319-.731-.656 0-.403.281-.619.656-.675l1.377-.206v.206c0 .984-.581 1.331-1.302 1.331Zm4.737-5.333h-.806v.731c0 .394-.207.694-.694.694h-.244v.796h.863v2.474c0 .816.487 1.284 1.255 1.284.3 0 .525-.056.6-.084v-.75a1.756 1.756 0 0 1-.346.038c-.46 0-.628-.206-.628-.619v-2.343h.974v-.796h-.974v-1.425Zm2.676 3.215c.038-.581.487-1.153 1.228-1.153.797 0 1.218.506 1.237 1.153h-2.465Zm2.596 1.171c-.168.506-.534.909-1.265.909-.759 0-1.34-.562-1.359-1.368h3.393a2.06 2.06 0 0 0 .018-.281c0-1.406-.777-2.362-2.164-2.362-1.135 0-2.156.965-2.156 2.381 0 1.527 1.059 2.408 2.268 2.408 1.05 0 1.771-.628 2.024-1.424l-.759-.263Zm8.585-3.589c-.15-.722-.75-1.65-2.249-1.65-1.228 0-2.193.937-2.193 1.978 0 .993.674 1.612 1.621 1.818l.947.206c.665.141.993.553.993 1.031 0 .581-.45 1.059-1.368 1.059-1.003 0-1.528-.684-1.594-1.425l-.881.282c.122.946.881 1.977 2.484 1.977 1.415 0 2.296-.937 2.296-1.968 0-.928-.618-1.621-1.724-1.865l-.994-.216c-.562-.121-.853-.487-.853-.965 0-.619.535-1.106 1.284-1.106.928 0 1.331.656 1.406 1.134l.825-.29Zm2.315-.797h-.806v.731c0 .394-.206.694-.694.694h-.243v.796h.862v2.474c0 .816.487 1.284 1.256 1.284.3 0 .525-.056.6-.084v-.75a1.767 1.767 0 0 1-.347.038c-.459 0-.628-.206-.628-.619v-2.343h.975v-.796h-.975v-1.425Zm5.122 5.389c0 .187.018.44.037.544h.844a7.528 7.528 0 0 1-.047-.835v-3.673h-.881v2.717c0 .685-.356 1.153-1.069 1.153-.74 0-1.021-.543-1.021-1.162v-2.708h-.881v2.839c0 1.022.637 1.809 1.687 1.809.525 0 1.087-.215 1.331-.684Zm2.816-1.724c0-.928.525-1.584 1.331-1.584.806 0 1.293.637 1.293 1.565 0 .928-.496 1.631-1.302 1.631-.844 0-1.322-.685-1.322-1.612Zm2.634 1.658c0 .272.028.506.047.61h.852a7.32 7.32 0 0 1-.046-.835v-5.951h-.872v2.915c-.15-.366-.581-.759-1.378-.759-1.274 0-2.137 1.087-2.137 2.362 0 1.34.816 2.389 2.137 2.389.703 0 1.181-.374 1.397-.806v.075Zm2.923-2.108c.037-.581.487-1.153 1.228-1.153.796 0 1.218.506 1.237 1.153h-2.465Zm2.596 1.171c-.169.506-.534.909-1.265.909-.759 0-1.341-.562-1.359-1.368h3.392c.01-.056.019-.169.019-.281 0-1.406-.778-2.362-2.165-2.362-1.134 0-2.155.965-2.155 2.381 0 1.527 1.059 2.408 2.268 2.408 1.049 0 1.771-.628 2.024-1.424l-.759-.263Zm2.793-1.059c0-.684.356-1.237 1.049-1.237.788 0 1.05.506 1.05 1.134v2.709h.881v-2.859c0-1.003-.534-1.781-1.612-1.781-.525 0-1.059.216-1.387.778v-.646h-.862v4.508h.881v-2.606Zm5.562-3.327h-.806v.731c0 .394-.206.694-.693.694h-.244v.796h.862v2.474c0 .816.488 1.284 1.256 1.284.3 0 .525-.056.6-.084v-.75a1.758 1.758 0 0 1-.347.038c-.459 0-.628-.206-.628-.619v-2.343h.975v-.796h-.975v-1.425Zm4.109 4.03c-.01-.094-.01-.131-.01-.178 0-.366.122-.703.413-.9l.431-.29c.543-.366.956-.881.956-1.631 0-.956-.741-1.884-2.053-1.884-1.443 0-2.071 1.059-2.071 1.921 0 .169.019.319.056.45l.909.113a1.608 1.608 0 0 1-.065-.459c0-.591.356-1.2 1.171-1.2.75 0 1.116.515 1.116 1.068 0 .366-.179.703-.497.919l-.413.281c-.553.375-.777.843-.777 1.462 0 .122 0 .216.009.328h.825Zm-1.031 1.34c0 .338.272.609.609.609a.615.615 0 0 0 .618-.609.624.624 0 0 0-.618-.618.616.616 0 0 0-.609.618Z" fill="#666"/></g><path d="M414.942 265.683s5.916 2.237 13.708-25.973c1.371-4.906 3.247-12.915-3.102-19.047-6.349-6.133-8.153-18.181-38.96-18.758-17.676-.361-16.522.216-18.325 1.01-3.175 1.37-5.411 1.37-3.824 8.874 1.876 8.369-4.69 4.256-4.185 14.429.217 4.113 12.049 23.304 12.049 23.304l7.071-13.636 27.488 12.554 8.08 17.243Z" fill="#7C4723"/><path d="M381.683 242.452v6.709a.801.801 0 0 1-.794.794h-6.71a.8.8 0 0 1-.793-.794v-6.709a.8.8 0 0 1 .793-.794h6.71c.433 0 .794.361.794.794Z" stroke="#B5B7CC" stroke-width=".796"/><path d="M286.015 290.069s23.448 35.064 34.703 49.421c2.164 2.886 6.133 3.247 8.297 3.608 14.069 2.525 64.644-20.418 64.644-20.418l-7.936-37.589s-49.493 29.003-53.461 30.086l-32.539-29.365-13.708 4.257ZM271.296 266.838l1.083.721-9.74-1.443s-.722.722.36 2.164c.361.722 7.576 3.247 8.658 3.608l-7.575-1.443s.721 1.082 2.164 2.164c1.082.722 5.411 2.165 6.854 2.526.722 3.246 2.886 8.946 6.133 11.832 1.803 1.443 12.986-3.968 12.986-3.968l-14.069-21.5-5.771-3.247-10.101-3.968s-1.082 1.804 1.443 3.968c2.525 2.164 7.575 4.329 7.575 4.329l-9.74-2.886s-1.082 2.525 1.443 3.607c2.526 1.01 7.937 3.175 8.297 3.536Z" fill="#F3B484"/><path d="M282.84 289.348c3.968.721 3.247.793 3.247.793l7.215 9.957 7.214-13.564-7.575-6.854-12.987-17.532c-.721-.722-1.443-1.443-2.525-1.804l-7.936-2.886 5.05 9.307 3.247 6.782 4.329 7.504-5.7 2.092c-.072.144 2.381 5.122 6.421 6.205Z" fill="#F3B484"/><path d="M288.973 285.091c-3.608-.722-6.494-3.247-7.576-6.421-.361-1.082-.361-2.165-1.082-2.886-.722-.722-1.804-1.082-2.886-1.443s-2.164-.361-3.247-1.082c-1.082-.722-1.803-1.804-1.443-2.886.361-1.082 1.083-1.804 2.165-1.804s1.803 0 2.886.361c2.886.721 5.772 1.804 8.297 3.246" fill="#F3B484"/><path d="M288.973 284.73c-.361 0-.722-.361-1.082-.361-1.083-.36-2.165-1.082-3.608-2.164-.721-.361-1.443-1.443-1.804-2.164-.721-.722-1.082-1.804-1.443-2.886 0-.361-.36-1.083-.721-1.443-.361-.361-.721-.722-1.443-1.082-1.082-.361-2.164-.722-3.607-1.083-1.443-.721-2.525-1.803-2.525-3.246 0-.722.721-1.443 1.082-1.804.721-.361 1.082-.721 1.803-.721 1.083 0 2.165.36 3.247.721.722.361 1.804.721 2.525 1.082l3.608 1.804c1.082.361 1.443.721 1.443.721l-1.443-.721a63.347 63.347 0 0 1-3.969-1.443c-.721 0-1.442-.361-2.525-.722-1.082 0-2.164-.36-3.246-.36-1.083 0-2.165.721-2.165 1.803 0 .361.361 1.083.722 1.443.36.361.721.722 1.443 1.083 1.082.36 2.525.721 3.607 1.082.361.361 1.082.721 1.443 1.082.361.721.361 1.082.721 1.804.361 1.082.722 2.164 1.083 2.886.721.721 1.082 1.443 1.803 2.164 1.083 1.082 2.526 1.804 3.247 2.164 1.082.361 1.443.361 1.443.361h.361Z" fill="#D39871"/><path d="m377.065 419.43 95.019-.433c-6.494-14.358-16.233-27.993-16.233-27.993H389.33c0 .072-14.068 25.251-12.265 28.426Z" fill="#1A2E35"/><path d="m375.045 310.848 4.834-27.777c-9.019 2.525-21.789 13.78-36.94 23.808l10.101 33.693s18.037-9.307 19.48-9.307l2.525-20.417Z" fill="#5495FF"/><path d="M465.23 360.629c-3.968-1.442-7.576-1.082-7.576-1.082 0 .361 3.608.361 7.576 1.804 3.968 1.443 6.854 3.607 6.854 3.607 0-.36-2.525-2.886-6.854-4.329Z" fill="#925249"/><path d="m360.832 413.658 12.265-1.443 23.448.722c3.968 0 11.183-3.608 11.183-3.608l-6.493-15.367-2.165 1.443-27.849 2.164-14.069 6.782 3.68 9.307ZM415.881 256.376c0 .289 7.575.577 6.493-6.71-1.155-7.575-7.864-3.968-8.153-3.968-.072 0 1.371 10.39 1.66 10.678Z" fill="#F3B484"/><path d="M417.54 253.274c.289 0 .577.288 1.154 0 1.155-.289 1.66-1.948 1.371-3.391-.288-.866-.577-1.371-.866-1.948a1.56 1.56 0 0 0-1.37-.866c-.289 0-.289 0-.578.289-.288.288-.288.288-.288.577 0 .288.288.288.288.288v-.288c.289-.289.578-.577.866-.577.289 0 .866.288 1.155.865.288.289.577 1.155.577 1.66 0 1.371-.289 2.814-1.155 3.102h-1.154c-.289 0 0 .289 0 .289Z" fill="#925249"/><path d="M529.008 417.41H278.8v8.963h250.208v-8.963Z" fill="#D29420"/><path d="M381.033 371.019c-.361 5.339 1.443 20.418 8.297 20.418h66.448s6.854-8.947 7.576-17.893c.721-8.946-11.183-64.789-11.183-64.789s.361-21.5-4.329-24.313c-5.411-3.247-6.421-8.225-30.23-4.618 0 0-17.027-2.309-26.839 0l-11.543 3.608s-7.576 18.614-9.74 47.978c-.794 9.523 11.904 33.909 11.543 39.609Z" fill="#5495FF"/><path d="M447.481 284.73c-5.411-3.968-15.872-.721-19.48 7.864-3.607 8.225 0 15.007 1.083 18.975 1.082 3.968 14.79 33.982 14.79 33.982l33.621-15.729s-17.388-37.589-30.014-45.092Z" fill="#5495FF"/><path d="m474.176 331.626 11.904 32.25c2.525 8.225-4.689 15.728-4.689 15.728l-73.735 30.086-6.494-15.367 57.069-34.343s-4.329-6.06-10.822-16.449l26.767-11.905Z" fill="#F3B484"/><path d="M417.54 285.307c.288 7.576-5.339 14.358-12.915 14.863-7.864.577-14.357-.289-15.151-8.153l-.865-13.492s-10.39-.865-14.069-14.068c-1.66-6.71-2.525-17.677-2.814-26.695-.289-8.153 7.576-17.171 15.728-17.171l26.695 2.236.288 4.474 3.103 58.006Z" fill="#F3B484" stroke="#F3B484" stroke-width=".669" stroke-miterlimit="10"/><path d="M377.642 245.987c1.155 0 1.948.866 1.948 1.659 0 .866-.865 1.66-1.659 1.66-1.154 0-1.948-.866-1.948-1.66 0-1.154.577-1.659 1.659-1.659ZM375.694 242.307c.578-.577 1.371-1.154 2.526-1.154 1.154 0 2.236.288 2.813.577s.866.866.866.866c0 .288-1.371-.577-3.391-.289-1.948.289-3.102 1.371-3.391 1.155 0-.289 0-.578.577-1.155ZM395.03 244.832c1.154 0 1.948.866 1.948 1.66 0 .865-.866 1.659-1.66 1.659-1.154 0-1.948-.866-1.948-1.659 0-1.083.578-1.66 1.66-1.66ZM393.876 240.648c.577-.577 1.37-1.154 2.525-1.154 1.154 0 2.236.288 2.813.577.578.288.866.866.866.866 0 .288-1.371-.578-3.391-.289-1.948.289-3.102 1.371-3.391 1.154.072-.072.072-.577.578-1.154ZM385.218 260.993h-.866c-.288 0-.577-.288-.866-.577-.288-.865 0-1.371 0-1.948.289-1.154.578-2.236.866-3.679 1.371-5.339 2.814-9.524 3.103-9.524.288 0-.866 4.473-2.237 9.812-.577 1.155-.866 2.526-1.154 3.68-.289.577-.578 1.154-.289 1.371.289.288.577.288 1.154.288 1.948 0 3.103.289 3.103.289s-1.155.288-2.814.288ZM389.114 271.166c4.762-.432 5.988-4.473 5.988-6.421-1.659 1.948-6.926 5.123-15.079 2.02 1.01 1.588 4.257 4.762 9.091 4.401Z" fill="#4B1710"/><path d="M375.766 219.292c-.577 3.247-3.535 8.946-.288 8.225 4.257-1.01 15.512-4.545 16.449-1.876 4.185 11.832 13.131 7.864 17.893 12.337 4.762 4.474 4.257 7.937 3.03 11.472-1.226 3.535 1.876 2.309 1.876 2.309s-.433-4.906 1.66-7.071c2.092-2.164 3.246-21.211 2.453-21.933-.794-.793-15.512-5.988-17.316-6.926-1.876-.938-24.242-4.617-24.242-4.617l-1.515 8.08Z" fill="#7C4723"/><path d="M388.537 282.277c14.068-.288 17.676-10.1 17.676-10.1-8.441 6.493-17.965 6.709-17.965 6.709l.289 3.391Z" fill="#C6865C"/><path d="M396.144 63.824v-3.697h1.985c1.257 0 2.021.71 2.021 1.857 0 1.111-.764 1.84-2.021 1.84h-1.985Zm2.295 2.166c2.549 0 4.242-1.675 4.242-4.024 0-2.33-1.693-4.024-4.242-4.024h-4.826v12.91h2.513V65.99h2.313Zm16.834 4.862v-12.91h-2.531v5.19h-5.627v-5.19h-2.512v12.91h2.512V65.5h5.627v5.353h2.531Zm5.463-2.33v-8.25h2.022c2.112 0 3.86 1.33 3.86 4.134 0 2.804-1.766 4.115-3.879 4.115h-2.003Zm2.094 2.33c3.679 0 6.392-2.367 6.392-6.446s-2.695-6.464-6.373-6.464h-4.625v12.91h4.606Zm19.442 0h2.804l-2.768-5.28c1.694-.492 2.75-1.858 2.75-3.66 0-2.24-1.602-3.97-4.115-3.97h-5.044v12.91h2.531v-4.97h1.311l2.531 4.97Zm-3.842-7.138v-3.587h2.039c1.275 0 2.021.71 2.021 1.803 0 1.056-.746 1.784-2.021 1.784h-2.039Zm10.185 1.639c.054-.82.746-1.766 2.003-1.766 1.383 0 1.966.874 2.003 1.766h-4.006Zm4.242 2.33c-.291.802-.91 1.366-2.039 1.366-1.202 0-2.203-.855-2.258-2.039h6.409c0-.036.037-.4.037-.747 0-2.877-1.657-4.643-4.425-4.643-2.294 0-4.406 1.858-4.406 4.716 0 3.023 2.166 4.79 4.625 4.79 2.203 0 3.623-1.294 4.078-2.841l-2.021-.601Zm3.419 3.66c.255 1.712 1.893 3.242 4.352 3.242 3.368 0 4.697-2.24 4.697-4.698v-7.994h-2.33v1.056c-.31-.6-1.129-1.22-2.55-1.22-2.458 0-4.169 2.003-4.169 4.37 0 2.513 1.784 4.352 4.169 4.352 1.293 0 2.131-.564 2.495-1.147v.656c0 1.73-.856 2.494-2.385 2.494-1.147 0-1.93-.71-2.094-1.693l-2.185.583Zm4.588-2.967c-1.256 0-2.148-.874-2.148-2.276 0-1.384.946-2.258 2.148-2.258 1.166 0 2.112.874 2.112 2.258 0 1.383-.874 2.276-2.112 2.276Zm9.335 2.476v-8.959h-2.421v8.96h2.421Zm-2.713-11.89c0 .8.674 1.475 1.494 1.475.837 0 1.493-.674 1.493-1.475 0-.838-.656-1.512-1.493-1.512-.82 0-1.494.674-1.494 1.512Zm4.541 9.395c.11 1.02 1.038 2.768 3.733 2.768 2.349 0 3.478-1.493 3.478-2.95 0-1.31-.892-2.385-2.658-2.75l-1.275-.272c-.492-.091-.819-.365-.819-.802 0-.51.51-.892 1.147-.892 1.019 0 1.402.674 1.475 1.202l2.021-.455c-.109-.965-.965-2.586-3.514-2.586-1.931 0-3.351 1.33-3.351 2.932 0 1.256.783 2.294 2.513 2.676l1.184.274c.691.145.965.473.965.874 0 .473-.383.892-1.184.892-1.056 0-1.584-.656-1.639-1.366l-2.076.456Zm12.145-9.14h-2.185v1.256c0 .801-.437 1.42-1.384 1.42h-.456v2.149h1.621v4.17c0 1.73 1.093 2.767 2.841 2.767.71 0 1.147-.127 1.365-.218v-2.003a3.501 3.501 0 0 1-.746.073c-.692 0-1.056-.255-1.056-1.038v-3.751h1.802v-2.149h-1.802v-2.676Zm9.198 2.64c-.183-.018-.365-.036-.565-.036-.765 0-2.003.218-2.549 1.402v-1.33h-2.349v8.96h2.422v-4.098c0-1.93 1.074-2.53 2.312-2.53.219 0 .455.017.729.072v-2.44Zm1.21 6.555c0 1.402 1.166 2.695 3.077 2.695 1.33 0 2.185-.62 2.641-1.33 0 .347.036.838.091 1.075h2.221c-.054-.31-.109-.947-.109-1.42v-4.407c0-1.802-1.056-3.405-3.897-3.405-2.403 0-3.696 1.548-3.842 2.95l2.149.455c.073-.783.655-1.456 1.711-1.456 1.02 0 1.512.528 1.512 1.165 0 .31-.164.564-.674.637l-2.203.328c-1.493.219-2.677 1.11-2.677 2.713Zm3.587.892c-.783 0-1.165-.51-1.165-1.038 0-.692.492-1.038 1.111-1.129l2.021-.31v.401c0 1.585-.947 2.076-1.967 2.076Zm9.708-10.087h-2.185v1.256c0 .801-.437 1.42-1.384 1.42h-.455v2.149h1.62v4.17c0 1.73 1.093 2.767 2.841 2.767.71 0 1.147-.127 1.366-.218v-2.003a3.52 3.52 0 0 1-.747.073c-.692 0-1.056-.255-1.056-1.038v-3.751h1.803v-2.149h-1.803v-2.676Zm6.282 11.635v-8.959h-2.422v8.96h2.422Zm-2.714-11.89c0 .8.674 1.475 1.494 1.475.837 0 1.493-.674 1.493-1.475 0-.838-.656-1.512-1.493-1.512-.82 0-1.494.674-1.494 1.512Zm9.33 9.96c-1.183 0-2.276-.874-2.276-2.55 0-1.693 1.093-2.548 2.276-2.548 1.184 0 2.277.855 2.277 2.549 0 1.693-1.093 2.549-2.277 2.549Zm0-7.302c-2.676 0-4.697 1.985-4.697 4.753 0 2.75 2.021 4.752 4.697 4.752 2.677 0 4.698-2.003 4.698-4.752 0-2.768-2.021-4.753-4.698-4.753Zm9.032 4.079c0-1.038.619-1.857 1.675-1.857 1.165 0 1.657.783 1.657 1.784v5.226h2.422v-5.645c0-1.966-1.02-3.55-3.241-3.55-.966 0-2.04.418-2.586 1.347v-1.11h-2.349v8.958h2.422V65.7Zm15.424 5.153v-5.026h5.007v-2.312h-5.026v-3.187h5.645v-2.385h-8.158v12.91h2.532Zm10.948-1.93c-1.183 0-2.276-.874-2.276-2.55 0-1.693 1.093-2.548 2.276-2.548 1.184 0 2.276.855 2.276 2.549 0 1.693-1.092 2.549-2.276 2.549Zm0-7.302c-2.676 0-4.697 1.985-4.697 4.753 0 2.75 2.021 4.752 4.697 4.752 2.677 0 4.698-2.003 4.698-4.752 0-2.768-2.021-4.753-4.698-4.753Zm12.072.237c-.182-.018-.364-.036-.564-.036-.765 0-2.003.218-2.549 1.402v-1.33h-2.349v8.96h2.422v-4.098c0-1.93 1.074-2.53 2.312-2.53.219 0 .455.017.728.072v-2.44Zm4.126 8.995v-5.244c0-.983.619-1.766 1.675-1.766 1.093 0 1.584.728 1.584 1.693v5.317h2.404v-5.244c0-.965.619-1.766 1.657-1.766 1.11 0 1.584.728 1.584 1.693v5.317h2.349v-5.809c0-2.403-1.584-3.405-3.241-3.405-1.184 0-2.131.401-2.841 1.494-.455-.965-1.438-1.494-2.658-1.494-.984 0-2.131.474-2.622 1.348v-1.093h-2.313v8.96h2.422Z" fill="#fff"/><path d="M338.572 4.526h290.27v12.738h-290.27V4.526Z" fill="#C4C4C4"/><path fill="#fff" d="M352.534 9.022h4.72v4.496h-4.72zM361.974 9.022h4.72v4.496h-4.72zM371.414 9.022h4.72v4.496h-4.72zM427.265 9.022h126.649v4.496H427.265z"/><path d="M239.003 340.523h90.018c2.362 0 4.555 1.462 5.454 3.655l27.72 67.64h49.647a2.52 2.52 0 0 1 2.531 2.53 2.52 2.52 0 0 1-2.531 2.53H270.546a9.872 9.872 0 0 1-8.996-5.847l-27.944-62.186c-1.687-3.88 1.124-8.322 5.397-8.322Z" fill="#C1C1C1"/><path d="M287.47 379.938c.619 3.036 3.261 5.06 5.904 4.554 2.643-.506 4.329-3.43 3.711-6.466-.619-3.036-3.261-5.06-5.904-4.554-2.642.506-4.329 3.43-3.711 6.466Z" fill="#fff"/><path d="m274.257 416.935 137.923-.113a2.52 2.52 0 0 0 2.53-2.53 2.52 2.52 0 0 0-2.53-2.53l-150.349.056 1.856 2.361c2.642 1.912 4.385 3.037 10.57 2.756Z" fill="#919090"/><defs><filter id="a" x="103.735" y="132.871" width="264.217" height="198.182" filterUnits="userSpaceOnUse" color-interpolation-filters="sRGB"><feFlood flood-opacity="0" result="BackgroundImageFix"/><feColorMatrix in="SourceAlpha" values="0 0 0 0 0 0 0 0 0 0 0 0 0 0 0 0 0 0 127 0" result="hardAlpha"/><feOffset dx="6" dy="6"/><feColorMatrix values="0 0 0 0 0.811765 0 0 0 0 0.847059 0 0 0 0 0.988235 0 0 0 0.25 0"/><feBlend in2="BackgroundImageFix" result="effect1_dropShadow_2_3605"/><feBlend in="SourceGraphic" in2="effect1_dropShadow_2_3605" result="shape"/></filter></defs></svg>