<svg width="96" height="96" viewBox="0 0 96 96" fill="none" xmlns="http://www.w3.org/2000/svg">
<ellipse rx="47.761" ry="47.9505" transform="matrix(1 0 0 -1 47.761 47.9504)" fill="#ECECEC"/>
<path d="M24.3424 78.4175L33.3893 72.2282C35.7825 73.7014 38.3791 74.812 41.0953 75.524L43.0064 86.1231H52.5311L54.4422 75.1836C57.1725 74.5061 59.8004 73.4654 62.2561 72.0889L71.2413 78.2782L77.961 71.5319L71.7962 62.511C73.248 60.0618 74.3529 57.4214 75.0789 54.6661L85.7749 52.7474V43.1231L75.0944 41.2199C74.3697 38.4616 73.2592 35.8203 71.7962 33.375L77.961 24.3696L71.2413 17.6232L62.2561 23.9518C59.7791 22.7035 57.2012 21.6682 54.5501 20.8571L52.5927 9.77832H43.1297L41.0799 20.7798C38.4075 21.4397 35.8434 22.4819 33.4664 23.8744L24.4811 17.6851L17.7615 24.0137L23.9263 33.6535C22.466 36.0365 21.4234 38.6533 20.8439 41.3901L9.74719 43.3088V52.9331L20.6435 54.9137C21.3507 57.5996 22.4298 60.1726 23.8492 62.5574L17.7615 71.5009L24.3424 78.4175Z" fill="#D85528"/>
<path d="M41.7585 54.4498C42.5268 55.2644 43.4584 55.9062 44.4918 56.3329C45.5252 56.7597 46.637 56.9616 47.7538 56.9255C48.8233 56.9702 49.8907 56.7971 50.8919 56.4169C51.8931 56.0366 52.8073 55.457 53.5796 54.7129C54.4474 53.7718 55.0904 52.6447 55.4598 51.4171L64.5067 53.1346L67.3734 53.7535C67.3734 53.9701 66.5565 56.1673 66.5565 56.1673C65.3975 58.8377 63.7449 61.2634 61.6863 63.316C59.8391 65.038 57.6705 66.3758 55.3056 67.2522C52.9408 68.1286 50.4266 68.5262 47.9079 68.4221C42.6543 68.501 37.583 66.4904 33.8005 62.8292C30.018 59.1679 27.8315 54.1532 27.7181 48.8795C27.7027 48.6012 27.7027 48.3222 27.7181 48.0439C27.6567 45.3156 28.1607 42.6043 29.198 40.0818C30.2354 37.5594 31.7835 35.2809 33.7442 33.3908C35.6515 31.4418 37.9392 29.9093 40.464 28.8895C42.9888 27.8698 45.6962 27.3846 48.4165 27.4645C51.075 27.3848 53.7201 27.8718 56.1774 28.8933C58.6347 29.9148 60.8485 31.4476 62.6727 33.3908C64.3132 35.0915 65.6389 37.0721 66.5873 39.2397C67.0989 40.3322 67.4667 41.4869 67.6816 42.6747L55.953 44.8564C55.4744 43.1219 54.4139 41.6064 52.9509 40.5661C51.4879 39.5258 49.712 39.0244 47.9233 39.1468C46.786 39.1011 45.6523 39.3043 44.6011 39.7425C43.5498 40.1807 42.6062 40.8434 41.8356 41.6844C41.0343 42.5437 40.4095 43.5531 39.997 44.6549C39.5844 45.7567 39.3922 46.9294 39.4313 48.1058C39.3537 50.4442 40.1887 52.7206 41.7585 54.4498Z" fill="white"/>
</svg>
