<svg width="600" height="300" fill="none" xmlns="http://www.w3.org/2000/svg"><path fill="#fff" d="M0 0h600v300H0z"/><path fill-rule="evenodd" clip-rule="evenodd" d="M381.847 172.131c-2.834 0-5.532-1.033-7.521-3.031-1.983-1.993-3.323-5.008-3.323-9.084 0-4.126 1.341-7.139 3.321-9.118 1.986-1.985 4.684-2.998 7.523-2.998 2.838 0 5.536 1.013 7.522 2.998 1.98 1.979 3.321 4.992 3.321 9.118 0 4.125-1.341 7.138-3.321 9.117-1.986 1.985-4.684 2.998-7.522 2.998Zm0-37.401c-14.389 0-25.286 10.586-25.286 25.286 0 14.604 10.895 25.285 25.286 25.285 14.39 0 25.285-10.681 25.285-25.285 0-14.7-10.897-25.286-25.285-25.286ZM262.201 172.131c-2.833 0-5.531-1.033-7.52-3.031-1.983-1.993-3.323-5.008-3.323-9.084 0-4.126 1.341-7.139 3.321-9.118 1.986-1.985 4.684-2.998 7.522-2.998 2.839 0 5.537 1.013 7.523 2.998 1.98 1.979 3.321 4.992 3.321 9.118 0 4.125-1.341 7.138-3.321 9.117-1.986 1.985-4.684 2.998-7.523 2.998Zm0-37.401c-14.388 0-25.285 10.586-25.285 25.286 0 14.604 10.895 25.285 25.285 25.285 14.391 0 25.286-10.681 25.286-25.285 0-14.7-10.897-25.286-25.286-25.286ZM446.457 185.302h14.356v-28.663c0-2.355.737-4.408 2.038-5.86 1.289-1.44 3.189-2.353 5.662-2.353 2.592 0 4.354.859 5.484 2.183 1.149 1.348 1.747 3.299 1.747 5.653v29.04h14.262v-28.663c0-2.305.736-4.362 2.031-5.83 1.283-1.455 3.161-2.383 5.575-2.383 2.644 0 4.401.861 5.516 2.18 1.137 1.344 1.715 3.294 1.715 5.656v29.04h13.981v-31.587c0-6.442-2.121-11.118-5.454-14.177-3.318-3.044-7.739-4.396-12.191-4.396-3.156 0-6.054.537-8.657 1.845-2.215 1.112-4.175 2.763-5.885 5.043-2.77-4.505-7.827-6.888-13.806-6.888-4.359 0-9.403 1.729-12.581 5.09v-3.769h-13.793v48.839ZM441.054 136.345v14.63l-1.121-.226a17.627 17.627 0 0 0-3.558-.359c-3.044 0-5.749.745-7.69 2.555-1.929 1.798-3.259 4.791-3.259 9.621v22.736h-14.317v-48.858h13.943v4.573c3.448-4.145 8.803-4.951 12.165-4.951 1.077 0 2.052.099 2.978.192l.859.087ZM183.391 161.221h13.924l.158.154c.106.104.18.251.194.416.27 3.043 1.468 5.338 3.261 6.867 1.784 1.522 4.092 2.23 6.498 2.23 2.935 0 5.336-1.079 6.994-2.955 1.649-1.865 2.508-4.452 2.508-7.384v-40.62h15.054v41.04c0 13.139-10.071 24.126-24.451 24.126-7.183 0-13.207-2.382-17.431-6.516-4.127-4.039-6.591-9.803-6.7-16.807l-.009-.551ZM354.523 126.653l.795.227v-11.081l-.366-.166c-.56-.254-1.461-.485-2.501-.652a22.839 22.839 0 0 0-3.563-.283c-4.935 0-10.483 1.633-13.356 4.575-2.871 2.94-4.455 7.131-4.455 12.146v2.286h-7.213v12.523h7.213v39.067h14.477v-39.067h9.764v-12.523h-9.764v-2.11c0-2.254.788-3.551 1.796-4.306 1.039-.78 2.404-1.052 3.65-1.052 1.872 0 2.958.255 3.523.416ZM318.685 173.3l.747-.228v11.124l-.344.167c-.526.256-1.372.487-2.35.656-.99.17-2.158.284-3.348.284-4.638 0-9.824-1.64-12.524-4.594-2.698-2.952-4.186-7.159-4.186-12.193V146.42h-6.779v-12.558h6.779v-13.576h13.576v13.576h9.176v12.558h-9.176v21.919c0 2.262.741 3.564 1.688 4.323.976.782 2.259 1.056 3.43 1.056 1.76 0 2.78-.256 3.311-.418Z" fill="#0A1551"/><path d="M102.762 187.095c1.636 1.569.48 4.257-1.844 4.257h-14.54c-2.868 0-5.202-2.238-5.202-4.989V172.42c0-2.228 2.803-3.336 4.44-1.768l17.146 16.443Z" fill="#0A1551"/><path d="M125.489 188.307a10.7 10.7 0 0 1 0-15.317l15.533-15.264c4.303-4.23 11.281-4.23 15.585 0a10.698 10.698 0 0 1 0 15.316l-15.532 15.265c-4.304 4.229-11.282 4.229-15.586 0Z" fill="#FFB21D"/><path d="M84.453 149.951a10.698 10.698 0 0 1 0-15.316l23.344-22.941c4.304-4.23 11.282-4.23 15.586 0a10.7 10.7 0 0 1 0 15.316l-23.344 22.941c-4.304 4.23-11.282 4.23-15.586 0Z" fill="#09F"/><path d="M105.824 168.273a10.699 10.699 0 0 1 0-15.317l35.319-34.709c4.304-4.23 11.282-4.23 15.586 0a10.7 10.7 0 0 1 0 15.316l-35.319 34.71c-4.304 4.23-11.282 4.23-15.586 0Z" fill="#FF6100"/></svg>