<svg width="223" height="218" viewBox="0 0 223 218" fill="none" xmlns="http://www.w3.org/2000/svg">
<path d="M93.9478 26.6141C93.9478 26.6141 80.4601 43.876 72.2233 60.5213C63.9865 77.1666 54.7963 108.992 96.9208 96.9034C96.9208 96.9034 95.8125 35.4987 93.9478 26.6141Z" fill="#BA580D"/>
<path d="M119.636 26.4988C119.636 26.4988 132.972 43.6403 141.062 60.2123C149.152 76.7843 158.062 108.528 116.042 96.8176C116.042 96.8176 117.693 35.4005 119.636 26.4988Z" fill="#BA580D"/>
<path d="M123.206 93.3972C131.857 94.9643 139.476 94.7643 147.531 97.8638C151.873 99.5364 157.69 101.46 160.773 105.043C174.162 120.605 179.488 135.163 179.488 135.163L32.4169 142.878C32.4169 142.878 44.8023 112.066 57.6049 104.471C63.0843 101.019 69.0092 98.3319 75.2156 96.483C80.1484 97.6897 84.5439 97.3042 92.1114 94.2185L123.206 93.3972Z" fill="#3C5999"/>
<path d="M92.7647 70.2601C92.7647 70.2601 100.187 86.0563 94.1028 91.5C90.7543 94.496 88.5895 96.0443 75.1555 96.4859C112.485 128.518 143.304 96.4526 143.304 96.4526C138.971 95.2409 122.297 93.8855 122.297 89.127C122.173 86.1288 124.258 74.8313 125.664 72.1804L124.102 71.6135L92.7647 70.2601Z" fill="#F8AF8D"/>
<path d="M45.002 121.64C45.002 121.64 19.5155 158.502 19.7311 182.924C19.8516 195.88 51.2101 202.579 51.2101 202.579C51.2101 202.579 59.9769 195.664 61.7913 192.654C63.1254 190.526 47.6478 185.656 49.8278 184.41C52.0078 183.164 54.4618 182.476 56.9717 182.406C53.9962 179.576 53.4778 177.505 50.5594 174.609C46.6773 171.79 64.9869 138.863 64.9869 138.863" fill="#3C5999"/>
<path d="M69.2299 187.661C66.9586 186.301 60.371 183.166 57.7814 182.616L48.9929 180.75C48.9929 180.75 40.3734 182.925 39.6038 194.977C39.587 195.919 39.7818 196.853 40.1736 197.71L48.1629 199.939C51.6113 202.409 57.3419 207.941 62.8489 204.969L65.0341 199.939L69.2299 187.661Z" fill="#3C5999"/>
<path d="M171.773 121.731C171.773 121.731 197.26 158.593 197.044 183.015C196.924 195.971 173.144 201.131 173.144 201.131C173.144 201.131 174.115 192.65 172.3 189.639C170.966 187.512 169.127 185.747 166.947 184.501C164.767 183.255 162.313 182.566 159.804 182.497C162.779 179.667 166.543 177.762 169.461 174.866C173.343 172.047 151.788 138.954 151.788 138.954" fill="#3C5999"/>
<path d="M169.46 174.863C171.169 173.483 173.151 172.483 175.276 171.929C177.445 171.328 179.72 171.219 181.937 171.608C183.048 171.836 184.13 172.192 185.16 172.667C186.174 173.151 187.124 173.76 187.988 174.478C189.676 175.894 191.032 177.663 191.961 179.661C190.527 178.123 188.926 176.747 187.189 175.561C185.495 174.456 183.603 173.689 181.618 173.303C179.613 172.948 177.563 172.927 175.551 173.242C173.469 173.566 171.428 174.109 169.46 174.863V174.863Z" fill="#3C5999"/>
<path d="M169.46 174.862C170.856 174.156 172.379 173.738 173.939 173.632C175.532 173.498 177.136 173.69 178.653 174.196C179.034 174.331 179.407 174.485 179.772 174.658C180.127 174.855 180.485 175.044 180.833 175.249C181.166 175.476 181.471 175.746 181.789 175.992C181.951 176.111 182.104 176.242 182.247 176.383L182.645 176.837C183.699 178.011 184.448 179.426 184.827 180.957C183.978 179.735 182.984 178.619 181.868 177.634C180.793 176.697 179.541 175.986 178.187 175.541C176.818 175.081 175.394 174.812 173.952 174.74C172.454 174.665 170.952 174.705 169.46 174.862V174.862Z" fill="#3C5999"/>
<path d="M147.499 188.778C149.779 187.227 156.387 183.642 158.981 183.005L167.783 180.842C167.783 180.842 176.391 183.25 177.09 196.877C177.101 197.942 176.9 199 176.503 199.972L168.499 202.54C165.035 205.354 161.732 201.164 156.241 197.836L151.623 202.641L147.499 188.778Z" fill="#3C5999"/>
<path d="M123.518 71.7039C114.104 85.1029 99.9808 76.8134 99.9808 76.8134" stroke="#EBAA78" stroke-width="2.40735" stroke-miterlimit="10"/>
<path d="M91.8737 17.8825C98.6418 13.538 105.243 7.63994 119.861 11.3217C145.045 17.6648 135.987 51.6097 135.987 51.6097C122.016 86.0059 112.351 82.0374 112.351 82.0374C112.351 82.0374 106.421 82.0455 100.603 77.9997C95.0401 74.0862 93.1026 70.9998 88.6026 64.4996C81.3794 48.4476 83.5228 37.5012 83.5228 37.5012C83.5228 37.5012 86.4751 21.3458 91.8737 17.8825Z" fill="#FFBD9E"/>
<path d="M82.8372 43.1221C82.8372 43.1221 78.2893 41.3697 76.8246 45.5513C74.7138 51.5819 86.6221 59.7437 86.6221 59.7437L82.8372 43.1221Z" fill="#F7AE8C"/>
<path d="M136.97 42.385C136.97 42.385 138.3 40.7295 139.183 44.8847C140.456 50.8772 132.603 59.2231 132.603 59.2231L136.97 42.385Z" fill="#F6AE8C"/>
<path d="M123.234 75.7151C121.277 77.4099 119.062 79.7764 116.692 80.7905C114.385 81.7958 112.436 81.8226 109.934 81.6036C108.693 81.4915 107.476 81.1959 106.319 80.7263C105.142 80.2714 104.019 79.6825 102.972 78.9708C100.842 77.4962 98.3278 76.1512 96.6028 74.2039C97.9844 76.4947 99.7376 79.1419 101.833 80.7787C103.967 82.4843 106.539 83.9169 109.234 84.2171C110.584 84.3425 111.945 84.2693 113.273 83.9997C114.587 83.7225 115.861 83.2747 117.063 82.6674C119.438 81.4838 121.563 77.8006 123.234 75.7151Z" fill="#DC9C7E"/>
<path d="M120.228 63.6081C120.228 63.6081 112.094 65.5996 105 63.8691C105 63.8691 106.232 66.8731 109.802 69.0932C111.108 69.5518 112.358 70.1845 113.751 69.9475C115.144 69.7106 116.136 69.0964 117.168 68.2399C118.552 67.0542 119.605 65.2044 120.228 63.6081Z" fill="#DB5D26"/>
<path d="M106.782 64.0239C111.269 64.3052 115.772 64.1785 120.235 63.6453C120.235 63.6453 120.269 64.0944 119.475 65.4267C108.353 67.6703 105.081 65.3137 105 63.8239L106.782 64.0239Z" fill="white"/>
<path d="M114.279 47.0146C112.779 51.0146 116.856 55.1704 117.224 56.5966C117.752 58.6453 114.779 58.5146 111.279 58.5146" stroke="#EC8F64" stroke-linecap="round" stroke-linejoin="bevel"/>
<path d="M122.787 44.9548C123.304 44.8743 123.741 45.0744 124.068 45.4705C124.395 45.8666 124.54 46.5144 124.513 47.1891C124.535 47.4985 124.435 47.8492 124.336 48.1999C124.236 48.5506 124.105 48.8168 123.924 49.0685C123.743 49.3202 123.561 49.5718 123.298 49.7245C123.086 49.8916 122.823 50.0442 122.6 50.0566C122.083 50.1371 121.645 49.9369 121.319 49.5408C120.992 49.1447 120.847 48.4969 120.874 47.8223C120.852 47.5129 120.951 47.1621 121.051 46.8114C121.151 46.4607 121.281 46.1946 121.463 45.9429C121.644 45.6912 121.825 45.4395 122.089 45.2868C122.281 45.1899 122.544 45.0373 122.787 44.9548Z" fill="#724422"/>
<path d="M96.2785 42.5138C97.8978 40.9223 100.279 39.0142 103.933 39.8078C106.725 40.4143 108.817 41.5896 108.893 41.8957" stroke="#C96436" stroke-linecap="round"/>
<path d="M129.523 41.8973C128.476 39.7453 125.779 39.0142 122.403 40.2047C119.026 41.3952 118.134 42.1173 118.098 42.383" stroke="#C96436" stroke-linecap="round"/>
<path opacity="0.2" d="M99.1262 64.1164C96.7988 64.5978 94.3226 62.1382 93.5954 58.6228C92.8683 55.1074 94.1655 51.8673 96.4928 51.3859C98.8202 50.9044 101.296 53.364 102.024 56.8794C102.751 60.3948 101.454 63.6349 99.1262 64.1164Z" fill="#DD6637"/>
<path opacity="0.2" d="M125.793 64.2332C123.852 63.9974 122.636 60.8634 123.077 57.2332C123.518 53.6031 125.449 50.8514 127.39 51.0872C129.331 51.323 130.547 54.457 130.106 58.0872C129.665 61.7173 127.734 64.469 125.793 64.2332Z" fill="#DD6637"/>
<path d="M103.787 44.9543C104.304 44.8738 104.741 45.0739 105.068 45.47C105.395 45.8661 105.54 46.514 105.513 47.1886C105.535 47.498 105.435 47.8487 105.336 48.1994C105.236 48.5501 105.105 48.8163 104.924 49.068C104.743 49.3197 104.561 49.5713 104.298 49.724C104.086 49.8911 103.823 50.0438 103.6 50.0561C103.083 50.1366 102.645 49.9364 102.319 49.5403C101.992 49.1442 101.847 48.4964 101.874 47.8218C101.852 47.5124 101.951 47.1616 102.051 46.8109C102.151 46.4602 102.281 46.1941 102.463 45.9424C102.644 45.6907 102.825 45.439 103.089 45.2864C103.281 45.1894 103.544 45.0368 103.787 44.9543Z" fill="#724422"/>
<path d="M127.452 25.2368C126.605 27.1693 125.167 29.0734 122.914 30.8064C112.208 39.0418 92.6495 32.0419 89.7671 38.8359C86.8848 45.63 84.0505 50.9658 86.1093 59.4069C87.7563 66.1598 79.7859 52.0851 77.8722 42.6832C75.8442 36.7059 76.8042 17.5893 83.0629 12.4835C90.8863 6.10122 104.985 0.0848151 113.611 0.918375C122.914 1.81738 123.13 5.27727 125.59 7.05834C128.25 6.05314 130.778 6.71923 135.061 12.4835C140.414 19.6889 143.606 32.6751 140.103 40.0502C136.617 47.3882 132.642 52.1426 133.465 57.2894C134.124 61.4068 132.937 61.8005 132.796 61.8943L132.213 62.2276L130.653 62.989C132.3 62.1655 134.111 48.6863 134.111 42.2627C134.111 35.2139 131.67 27.111 127.452 25.2368Z" fill="#BA580D"/>
<path d="M3.96098 202.459H219.312C221.138 202.459 222.638 204.521 222.638 207.031V212.768C222.638 215.278 221.138 217.34 219.312 217.34H3.89574C2.06963 217.34 0.569626 215.278 0.569626 212.768V207.031C0.634842 204.521 2.13487 202.459 3.96098 202.459Z" fill="#BEC6D3"/>
<path d="M172.578 130.423C172.658 128.713 171.293 127.283 169.582 127.283H46.2624C44.5066 127.283 43.1261 128.784 43.2729 130.534L49.161 200.721C49.2914 202.275 50.5909 203.47 52.1505 203.47H166.31C167.913 203.47 169.232 202.211 169.307 200.61L172.578 130.423Z" fill="#A0A0A0"/>
<ellipse rx="5.7978" ry="6.29981" transform="matrix(-4.37114e-08 1 1 4.37114e-08 110.066 165.994)" fill="white"/>
</svg>
